<?xml version="1.0" encoding="utf-8"?>
<!-- Generator: Adobe Illustrator 25.2.0, SVG Export Plug-In . SVG Version: 6.00 Build 0)  -->
<svg version="1.1" xmlns="http://www.w3.org/2000/svg" xmlns:xlink="http://www.w3.org/1999/xlink" x="0px" y="0px"
	 viewBox="0 0 1122 1122" style="enable-background:new 0 0 1122 1122;" xml:space="preserve">
<style type="text/css">
	.st0{fill:#A01C1C;}
	.st1{fill:#69493E;}
	.st2{opacity:0.11;fill:#FFFFFF;}
	.st3{opacity:0.81;fill:#8E1919;}
	.st4{opacity:0.63;fill:#7A0F23;}
	.st5{fill:#819332;}
	.st6{fill:#849A31;}
	.st7{opacity:0.62;fill:#54372F;}
</style>
<g id="Bg">
</g>
<g id="Object">
	<g>
		<g>
			<path class="st0" d="M564.8,336.4c-12.3,2-24.7,2.5-37.1,0.3c-44.1-7.7-82.3-33.5-128.7-30c-59.2,4.4-116.9,30.5-157.1,73.3
				c-54.6,58.2-74.7,145-51,220.3c13.8,43.9,40.8,82.5,67.4,120.4c31.4,44.7,62.7,89.4,94.1,134.1C365,873,378,891.4,395.8,905
				c26.6,20.5,61.7,28.2,95.7,27.8c24.3-0.3,48.7-5.1,72.3-9.8c24.6-4.8,41.9-2,67.5,0.3c25.3,2.3,51.3-5,71.5-20
				c30.3-22.5,40.3-55.3,56.8-86.8c20.6-39.4,39.8-81.7,66.3-117.2c29.2-39.1,51-83.2,59.4-131.1c11.1-63.2-2.3-131.4-41.9-182.7
				c-39.6-51.3-106.3-83.4-171.9-77C635.5,312.2,600.3,330.6,564.8,336.4z"/>
			<path class="st1" d="M552.3,180.1c1.2-7.7,3.5-16.9,11.2-19.3c7.3-2.3,15.2,3.9,17.3,11.1c2.1,7.2,0.1,14.9-1.9,22.2
				c-15.2,55.3-29.4,111.1-45.9,166.1C512.3,349.8,548.3,206.8,552.3,180.1z"/>
			<path class="st2" d="M387.8,353.6c23.1,0.8,50.2,10.6,54.7,32.7c1.5,7.4,0.1,15.1-2.8,22.1c-9,22-30.8,35.9-49.3,51.3
				c-39.9,33.2-68.6,78.9-80.8,128.6c-3.1,12.8-6.1,27.3-17.4,34.5c-17.7,11.4-41.1-3.3-53.7-19.8
				C158.2,498.6,261.9,349.2,387.8,353.6z"/>
			<path class="st3" d="M617,859.6c45.4-16.4,74.2-59.8,115-85.3c2.5-1.6,5.2-3.1,8.2-3.4c6.5-0.5,12,5.8,12.7,12.1
				s-1.9,12.6-4.6,18.4c-9.6,20.7-20.8,40.6-33.4,59.7c-7.3,11-15.4,22-26.9,28.7c-24,13.8-54.6,5.1-82.3,8.7
				c-11.4,1.5-81.1,20.5-68.2-13.6C543.9,868.3,601.6,865.1,617,859.6z"/>
			<path class="st4" d="M500.7,359.3c1.3-3,5.1-4.4,8.4-4.2c3.4,0.2,6.5,1.6,9.7,2.6c11.2,3.8,23.8,3.6,34.9-0.3
				c4.2-1.5,8.2-3.5,12.7-4.2c4.4-0.7,9.5,0.4,12.1,3.9c2.4,3.3,2,8.1-0.1,11.6c-2.1,3.5-5.7,6-9.3,8.1
				c-13.7,7.7-32.4,11.7-47.6,5.9C513.9,379.9,496.4,368.9,500.7,359.3z"/>
			<path class="st5" d="M534.3,346.8c-2.5,4.5-5,9-7.7,13.5c20.7,14.5,75.9,17.9,102.4,21.7c44.5,6.5,91.2,5.1,133.7-13.4
				c35.2-15.3,57.5-38.5,81.5-66.4c28.6-33.2,64.2-61.6,96.7-91.2c-25.3-8.6-53.3-6.9-80.1-10.6c-26.4-3.7-51.5-12.7-77.5-18.5
				c-70.5-15.7-159.5,7-200.3,71.6C564.4,283.3,551.1,316,534.3,346.8z"/>
			<path class="st6" d="M941,211c-25.3-8.6-53.3-6.9-80.1-10.6c-26.4-3.7-51.5-12.7-77.5-18.5c-70.5-15.7-159.5,7-200.3,71.6
				c-18.8,29.8-32.1,62.4-48.9,93.3c-2.5,4.5-5,9-7.6,13.4c1.7-2.9,11.5-3.3,14.5-4.3c9.8-3.4,19.2-8,28.6-12.3
				c20.3-9.3,40.3-19.2,60.6-28.5c57.2-26.1,116.7-47.3,177.7-63.2c29.4-7.7,57.8-14,86.2-24.2C909.8,222.3,925.4,216.6,941,211z"/>
		</g>
		<path class="st7" d="M572.9,169.2c-3-3.3-8.2-5-11.2-1.9c-3.2,3.4-2.8,9.3,0.3,12.7c0.7,0.7,1.4,1.4,2.4,1.7
			c1.4,0.4,3-0.1,4.4-0.6C576.5,178.1,576,172.7,572.9,169.2z"/>
	</g>
</g>
</svg>
