<?xml version="1.0" encoding="UTF-8"?>
<svg viewBox="0 0 800 800" xmlns="http://www.w3.org/2000/svg" xmlns:xlink="http://www.w3.org/1999/xlink">
 <defs>
  <linearGradient id="g">
   <stop stop-color="#f08d00" offset="0"/>
   <stop offset="1"/>
  </linearGradient>
  <linearGradient id="i">
   <stop stop-color="#c6d57c" offset="0"/>
   <stop stop-color="#c6ed00" offset="1"/>
  </linearGradient>
  <linearGradient id="f" x1="88.083" x2="110.68" y1="339.16" y2="387.38" gradientUnits="userSpaceOnUse">
   <stop stop-color="#848e53" offset="0"/>
   <stop stop-color="#c6ed00" offset="1"/>
  </linearGradient>
  <linearGradient id="h" x1="88.083" x2="110.68" y1="339.16" y2="387.38" gradientUnits="userSpaceOnUse">
   <stop stop-color="#697142" offset="0"/>
   <stop stop-color="#c6ed00" offset="1"/>
  </linearGradient>
  <linearGradient id="b" x1="88.083" x2="110.68" y1="339.16" y2="387.38" gradientUnits="userSpaceOnUse">
   <stop stop-color="#44492a" stop-opacity=".798" offset="0"/>
   <stop stop-color="#a0c000" offset="1"/>
  </linearGradient>
  <linearGradient id="n" x1="88.083" x2="110.68" y1="339.16" y2="387.38" gradientUnits="userSpaceOnUse">
   <stop stop-color="#dff08b" offset="0"/>
   <stop stop-color="#cff800" offset="1"/>
  </linearGradient>
  <linearGradient id="e" x1="88.083" x2="110.68" y1="339.16" y2="387.38" gradientUnits="userSpaceOnUse">
   <stop stop-color="#ebfd92" offset="0"/>
   <stop stop-color="#e2ff58" offset="1"/>
  </linearGradient>
  <linearGradient id="m" x1="88.083" x2="110.68" y1="339.16" y2="387.38" gradientUnits="userSpaceOnUse">
   <stop stop-color="#c4e42a" offset="0"/>
   <stop stop-color="#e2ff58" offset="1"/>
  </linearGradient>
  <linearGradient id="d" x1="88.083" x2="110.68" y1="339.16" y2="387.38" gradientUnits="userSpaceOnUse" xlink:href="#i"/>
  <linearGradient id="c" x1="111.5" x2="88.426" y1="373.41" y2="312.14" gradientUnits="userSpaceOnUse" xlink:href="#i"/>
  <linearGradient id="l" x1="366.25" x2="380.97" y1="360.81" y2="375.94" gradientUnits="userSpaceOnUse" xlink:href="#g" spreadMethod="reflect"/>
  <linearGradient id="k" x1="329.95" x2="497.6" y1="363.61" y2="371.84" gradientUnits="userSpaceOnUse" xlink:href="#g"/>
  <linearGradient id="j" x1="351.82" x2="336.62" y1="400.38" y2="358.39" gradientUnits="userSpaceOnUse" xlink:href="#g"/>
  <radialGradient id="a" cx="88.393" cy="358.97" r="10.536" gradientTransform="matrix(1 0 0 .72881 0 97.348)" gradientUnits="userSpaceOnUse">
   <stop stop-color="#fff" offset="0"/>
   <stop stop-color="#fff" stop-opacity="0" offset="1"/>
  </radialGradient>
 </defs>
 <g transform="translate(125.53 -121.25)">
  <path transform="matrix(.61989 -.42972 -.4046 -.7862 383.52 837.2)" d="m140.92 370.51c0 15.063-17.751 27.274-39.648 27.274s-39.648-12.211-39.648-27.274 17.751-27.274 39.648-27.274 39.648 12.211 39.648 27.274z" fill="url(#b)" opacity=".98"/>
  <path transform="matrix(1.1158 .01167 -.08005 -1.3963 232.33 1010.7)" d="m98.929 358.97c0 4.2408-4.717 7.6786-10.536 7.6786s-10.536-3.4378-10.536-7.6786 4.717-7.6786 10.536-7.6786 10.536 3.4378 10.536 7.6786z" fill="url(#a)" opacity=".674"/>
  <path transform="matrix(.61989 -.42972 -.4046 -.7862 333.87 846.9)" d="m140.92 370.51c0 15.063-17.751 27.274-39.648 27.274s-39.648-12.211-39.648-27.274 17.751-27.274 39.648-27.274 39.648 12.211 39.648 27.274z" fill="url(#b)" opacity=".98"/>
  <path transform="matrix(1.1158 .01167 -.08005 -1.3963 182.68 1020.4)" d="m98.929 358.97c0 4.2408-4.717 7.6786-10.536 7.6786s-10.536-3.4378-10.536-7.6786 4.717-7.6786 10.536-7.6786 10.536 3.4378 10.536 7.6786z" fill="url(#a)" opacity=".674"/>
  <path d="m466.6 486.31c-3.5466 0.0933-7.1948 1.4099-10.125 2.875-6.3819 3.1909-14.309 5.1089-21.688 6.0313-33.486 4.1858-67.594-7.1563-100.88-0.5-22.338 4.4675-72.141 31.717-95.844 41.875-18.839 8.0737-64.473 33.076-85.219 46.906-5.9281 3.9521-11.186 7.6543-16.125 12.594-6.8596 21.391 6.6106-3.4371 1 18.656-0.4911 2.0625 0.3983 5.5398 1.2188 8.1875-0.2374 4.2688 1.1365 8.144 4.3438 11.094 8.6372 7.9438 27.169 6.0014 41.344-4.3438 2.2996-1.6783 4.3184-3.4773 6.0938-5.3438 2.7738-1.3773 5.5974-2.5841 8.0313-4.5313 2.552-2.0416 6.0153-4.0436 8.5625-5.0625 9.335-2.3286 16.507-3.3827 22.344-3.875 2.0941 3.092 4.861 6.0178 8.25 8.5313 11.359 8.4244 25.201 8.914 30.875 1.0938 3.7257-5.1349 2.9863-12.575-1.1563-19.469 1.9084-1.5429 3.9731-3.3334 6.25-5.4375 3.6536-2.7402 7.5011-4.1872 12.125-3.0313 4.2461 1.0615 6.6133 4.0674 10.594 5.0625 3.8686 0.9671 8.2799-1.2174 10.594-3.5313 3.7552-3.7552 6.3069-7.1028 7.5625-12.125 1.0419-4.1677 3.5313-7.6281 3.5313-12.094 0-3.4726 1.5833-5.6145 3.5313-7.5625 2.0544-2.0544 5.2003-2.3157 8.0625-3.0313 5.0645-1.2661 8.0138-0.9246 11.094-5.0313 1.9164-2.5552 2.8469-5.3782 5.0313-7.5625 2.4406-2.4406 3.8711-2.7619 4.5313-6.0625 0.6657-3.3283-0.3743-6.3597 3.0313-8.0625 5.7766-2.8883 17.222 0.3006 23.219 1.5 4.9642 0.9928 5.5903 1.5591 9.0625 5.0313 3.9866 3.9866 3.8889 8.843 9.5938 11.125 5.0559 2.0223 12.573 1 18.156 1 2.5712 0 6.3897-6.9209 8.0625-8.5938 3.4818-3.4818 8.9907-3.8775 13.125-5.5313 3.4832-1.3933 10.221 0 14.125 0 4.0219 0 10.062-4.7968 10.062-8.5625 0-4.0226-0.2346-7.7979-1-11.625-0.3048-1.5239 0.3454-2.5236 1.4688-3.2188 6.5234 5.1944 17.387 7.6656 27.188 5.6563 10.546-2.1622 16.425-8.8088 14.781-15.781 1.5786-4.5783-4.0809-8.3085-6.625-10.344-6.2899-5.0319-17.059-4.6475-24.719-6.5625-1.1243-0.2811-2.2865-0.3748-3.4688-0.3438z" fill="#66662a" fill-opacity=".537" fill-rule="evenodd"/>
  <path d="m397.1321,391.5642c-4.025.1788-10.3327,5.4475-13.75,10.5625-10.1793,11.253-20.607,22.4152-32.3125,32.4063-2.664-2.1698-11.4289-.2127-13.9375.875-6.4305,2.6997-17.6335,5.4202-23.5,10.0625-1.3631-7.9233-7.3747-15.3046-20.3125-18.3438-1.9833-.3523-4.031-.5147-6.0625-.5s-4.0406.2201-5.9688.5625c-15.9792,3.7216-25.9819,13.5988-28.1562,24.2188-3.2296-1.0711-6.6252-1.727-10-1.75-5.8218-.0397-11.5923,1.7647-16.4375,6.2188-2.0144,2.1609-3.341,4.7859-3.9063,7.4688-.5083,4.0472.0548,7.9675 1.375,11.5938-.9184.306-1.8195.6306-2.6875,1-5.8591-5.803-15.2944-10.4989-24.625-10.5625-5.8218-.0397-11.5923,1.7022-16.4375,6.1563-2.0144,2.1609-3.3097,4.8171-3.875,7.5-.6499,5.174.3849,10.1138 2.625,14.5313-12.4674-1.9005-27.2431,1.4404-31.75,14.25-.7095,2.7359-.5362,5.627.3125,8.25 .2832.6812.602,1.3215.9375,1.9688-13.6538,1.7557-28.9824,10.8604-26.5938,25.9063 .6792,2.742 2.218,5.2992 4.25,7.3438 1.6203,1.4054 3.3822,2.6042 5.2188,3.625-.9003.3687-1.7847.7636-2.5938,1.2188-15.1804,5.9819-30.4371,22.6455-19.8125,38.5313 2.0414,2.568 4.9349,4.5723 8.0938,5.9063 8.4247,2.9066 17.3142,2.7768 25.375.4375-3.2367,12.4223-.1909,27.1234 15.375,32.2188 3.4029.85 7.0713.7974 10.4688.0625 15.7169-4.5062 25.4879-17.8055 26.6563-31.375 6.1276,4.1358 13.8966,5.9 20.75,1.9688 2.6072-1.6854 4.6797-3.7742 6.25-6.125 6.4039,4.084 13.818,6.4776 21.4688,6.3125 5.2862-.3765 9.2964-2.3633 12.125-5.3438 1.5437,1.1235 3.199,2.1669 5.0312,3.0625 2.6427,1.099 5.6078,1.7137 8.5,1.6563 8.348-.7121 13.3333-4.9353 15.75-10.3438 10.4969,5.9824 22.0324,5.6633 27.0938-1.3125 3.3579-4.628 3.0828-11.1506-.0313-17.4375 5.3675-4.7858 9.0687-11.4808 9.4688-19.2188-.0232-1.0795-.1636-2.181-.4063-3.25 2.5026-1.5305 4.7819-3.4003 6.75-5.5938 3.9967,7.2224 11.6676,12.5059 22.5625,13.6875 3.6784.1552 7.7471-.4347 11.625-1.875 8.6444-3.771 14.3216-9.3188 17.6563-15.375 4.3198,7.0884 12.9499,11.2037 23.2813,8.9063 2.4306-.7102 4.8748-1.9892 6.9688-3.75 10.1179-9.6118 7.9506-21.5557 2.0625-28.5 17.9964,7.5466 37.918.6297 39.8438-16.6563 .074-2.7396-.6156-5.7381-2.0625-8.5938-9.7382-16.4657-30.2869-17.9072-41.5-12.625-2.7686.7523-5.2753,2.3931-7.2813,4.5625-13.3006-.8062-23.543-7.4854-25.4375-19.875-6.7313-9.8161-7.0001-23.6402-14.875-32.5313 .782-1.0537 1.4815-2.1862 2.0938-3.4063 12.0761-10.3931 24.3272-21.0973 37.7188-30.2813 1.0614-6.289-.621-8.5285-3.375-8.4063zm-39.4063,45.4063c4.9271,6.1676 7.6608,13.1726 9.9688,20.3438-3.8941-2.9111-9.0454-4.8447-15.1563-4.875-1.7917-.0089-3.675.1567-5.625.5-18.7059,3.9977-29.2942,18.3682-24.5938,31.1875-1.5064.8141-2.922,1.7243-4.2188,2.7188 1.2329-1.917 1.8534-4.0971 1.9063-6.2813-.3988-5.7949-3.2252-11.1777-7.5-15.6875 5.9677-1.744 15.7156-8.3922 18.2188-10.0313 7.9474-7.2172 19.4457-10.6566 27-17.875zm-12.3125.3125c.7377-.0149 1.462.0548 2.2188.0938-3.9713,3.2385-8.0606,6.3353-12.375,9.25-5.8014,5.3004-17.7087,10.2275-24.0625,13.5938 1.4682-2.8891 2.4288-6.0777 2.6875-9.3125 9.8354-6.1448 19.4651-13.3803 31.5313-13.625zm29.25,40.1875c.0448.0975.0797.2152.125.3125 5.2843,10.5598.5428,20.128-9.75,24.7188-2.8116-.7883-5.8329-1.2129-8.9375-1.1875-1.0138.0083-2.038.1112-3.0625.2188 .4312-1.6174.7243-3.3296.8438-5.0625 11.1418-3.1004 18.727-11.4552 20.7813-19zm9.7813,11.5c.7182.776 1.1958,2.0512 1.5313,3.5625-1.0775.3049-2.1602.6816-3.1875,1.1563 .7954-1.5864 1.3539-3.2078 1.6563-4.7188zm6.7813.0938c1.2389-.116 3.2688.5664 6.3438,2.2813-.1241.2872-.233.5807-.3438.875-2.3755-.575-5.0291-.7163-7.6875-.4063-.1025-1.5718.3352-2.6234 1.6875-2.75zm-17.3438,13.125c-.3056.6124-.5651,1.2668-.8125,1.9375-.1799.5666-.3314,1.1256-.4688,1.6875-.1587-.1003-.3377-.1837-.5-.2813 .2335-.8247.3386-1.7168.1875-2.6875 .5628-.1927 1.0743-.4252 1.5938-.6563z" fill-opacity=".058" fill-rule="evenodd"/>
  <path d="m370.7273,372.4245c-6.7495,1.0422-14.3674-1.3059-20.9302,2.0174-2.4262,1.2286-4.4768,2.0495-6.5564,3.7826-5.1238,5.4317-12.1685,8.1447-17.9042,12.6086-1.0289,1.0289-3.5304,2.9556-3.5304.5044 0-2.6584.3892-4.6761 2.2695-6.5565 1.6168-1.6168 3.5264-2.6194 5.2956-4.0347 .3827-.3062.8406-.5043 1.2609-.7565 2.4093-1.4456 5.1072-2.0493 7.5651-3.2782 4.3997-3.4575 10.2599-5.4961 16.139-7.313l1.2609-.5043c2.9092-1.1637 5.9614-1.7652 9.0782-1.7652 2.4934,0 4.1919.1179 6.0521,1.513 1.0647.7986.3866,2.8162 0,3.7826z" fill="url(#j)" fill-rule="evenodd"/>
  <path transform="matrix(.61989 -.42972 -.4046 -.7862 412.04 832.35)" d="m140.92 370.51c0 15.063-17.751 27.274-39.648 27.274s-39.648-12.211-39.648-27.274 17.751-27.274 39.648-27.274 39.648 12.211 39.648 27.274z" fill="url(#b)" opacity=".98"/>
  <path transform="matrix(1.1158 .01167 -.08005 -1.3963 260.84 1005.8)" d="m98.929 358.97c0 4.2408-4.717 7.6786-10.536 7.6786s-10.536-3.4378-10.536-7.6786 4.717-7.6786 10.536-7.6786 10.536 3.4378 10.536 7.6786z" fill="url(#a)" opacity=".674"/>
  <path transform="matrix(.61989 -.42972 -.4046 -.7862 370.18 786.46)" d="m140.92 370.51c0 15.063-17.751 27.274-39.648 27.274s-39.648-12.211-39.648-27.274 17.751-27.274 39.648-27.274 39.648 12.211 39.648 27.274z" fill="url(#b)" opacity=".98"/>
  <path transform="matrix(1.1158 .01167 -.08005 -1.3963 218.98 959.91)" d="m98.929 358.97c0 4.2408-4.717 7.6786-10.536 7.6786s-10.536-3.4378-10.536-7.6786 4.717-7.6786 10.536-7.6786 10.536 3.4378 10.536 7.6786z" fill="url(#a)" opacity=".674"/>
  <path d="m376.7007,369.784c3.0069,5.3784 6.8681,9.6411 8.2023,14.9782 5.3105,10.4127 4.9516,20.9793 9.6675,30.7703 3.8735,8.042 3.3295,13.9039 4.9541,21.2968 1.5653,2.5165-1.4265,3.47-1.4265,5.5277 0,1.573-1.8215,3.783-2.6747,4.6361-1.7946,1.7946-3.3419,4.0551-5.171,5.8843-1.0084,1.0084-3.1606,1.402-4.6361,2.1397-2.1418,1.0709-5.0134,1.8038-6.4192,3.2096-1.8005,1.8005-3.3907,3.9284-4.2795,5.706-1.3331,2.6661 1.0525,3.7402 3.2096,4.2795 2.7264.6816 5.1154,0 7.8457,0 1.4309,0 5.0152-3.9677 5.706-5.3494 1.3946-2.7892.4306-5.6017 2.6747-7.8457 2.024-2.024 1.4092-4.36 4.1012-5.706 1.7177-2.2996 9.722-11.0671 9.9855-11.0553 .3879,1.65 1.5335,7.1803 2.1397,8.9156 .9083,2.5998 1.0699,5.2464 1.0699,8.2023 0,2.5987.7133,4.92.7133,7.4891 0,3.1594 5.0963,4.1126 6.7759,2.853 2.3382-1.7537-.4614-10.1601-1.4265-11.7686-1.6041-2.6735-1.7825-5.7036-2.4964-8.559-.6059-2.4237-.4201-3.4514-1.9614-4.9927-2.6197-2.6197 1.7963-2.1397 3.7446-2.1397 1.8503,0 5.64,3.3714 7.8457,3.9229 3.2561.814 5.7613,1.5913 8.9156,2.853 3.4075,1.363 4.6361-.8537 4.6361-3.9229 0-1.6607-3.4465-3.8031-4.2795-4.6361-1.644-1.644-3.8725-2.4964-6.4192-2.4964-3.2896,0-5.1054-.9103-8.2023-1.4265-2.409-.4015-4.7161-.9116-6.7758-1.4265-2.3157-.5789-4.108-1.9682-5.3494-3.2096-1.6891-1.6891-4.1012-2.214-4.1012-4.6361-7.6468-16.6595-11.5348-38.25-19.7926-54.2068-1.3096-2.6191-1.8251-3.4194-3.9229-4.9927-2.3848-1.7886-2.9242,2.0679-3.2096,3.2096-.1827.731.2072,1.8986.3566,2.4964z" fill="url(#k)" fill-rule="evenodd"/>
  <path transform="matrix(.68151 -.32319 -.27137 -.84153 258.36 833.5)" d="m140.92 370.51c0 15.063-17.751 27.274-39.648 27.274s-39.648-12.211-39.648-27.274 17.751-27.274 39.648-27.274 39.648 12.211 39.648 27.274z" fill="url(#b)" opacity=".98"/>
  <path transform="matrix(.61989 -.42972 -.4046 -.7862 433.73 789.49)" d="m140.92 370.51c0 15.063-17.751 27.274-39.648 27.274s-39.648-12.211-39.648-27.274 17.751-27.274 39.648-27.274 39.648 12.211 39.648 27.274z" fill="url(#b)" opacity=".98"/>
  <path transform="matrix(1.1158 .01167 -.08005 -1.3963 282.53 962.94)" d="m98.929 358.97c0 4.2408-4.717 7.6786-10.536 7.6786s-10.536-3.4378-10.536-7.6786 4.717-7.6786 10.536-7.6786 10.536 3.4378 10.536 7.6786z" fill="url(#a)" opacity=".674"/>
  <path transform="matrix(.28849 -.83253 1.213 .23862 -185.88 387.66)" d="m140.92 370.51c0 15.063-17.751 27.274-39.648 27.274s-39.648-12.211-39.648-27.274 17.751-27.274 39.648-27.274 39.648 12.211 39.648 27.274z" fill="url(#m)" opacity=".98"/>
  <path transform="matrix(-1.6612 2.8728 -2.3679 -1.645 1291.4 707.24)" d="m98.929 358.97c0 4.2408-4.717 7.6786-10.536 7.6786s-10.536-3.4378-10.536-7.6786 4.717-7.6786 10.536-7.6786 10.536 3.4378 10.536 7.6786z" fill="url(#a)" opacity=".674"/>
  <path transform="matrix(-.04345 -.75301 -.88183 -.06469 533.71 659.1)" d="m140.92 370.51c0 15.063-17.751 27.274-39.648 27.274s-39.648-12.211-39.648-27.274 17.751-27.274 39.648-27.274 39.648 12.211 39.648 27.274z" fill="url(#b)" opacity=".98"/>
  <path transform="matrix(.59176 -.94604 -1.2332 -.65975 602.88 878.56)" d="m98.929 358.97c0 4.2408-4.717 7.6786-10.536 7.6786s-10.536-3.4378-10.536-7.6786 4.717-7.6786 10.536-7.6786 10.536 3.4378 10.536 7.6786z" fill="url(#a)" opacity=".674"/>
  <path transform="matrix(-.33544 .70395 1.0281 .31346 20.224 233.11)" d="m140.92 370.51c0 15.063-17.751 27.274-39.648 27.274s-39.648-12.211-39.648-27.274 17.751-27.274 39.648-27.274 39.648 12.211 39.648 27.274z" fill="url(#d)" opacity=".98"/>
  <path transform="matrix(-1.1994 .69818 1.1446 .96107 62.61 -6.3297)" d="m98.929 358.97c0 4.2408-4.717 7.6786-10.536 7.6786s-10.536-3.4378-10.536-7.6786 4.717-7.6786 10.536-7.6786 10.536 3.4378 10.536 7.6786z" fill="url(#a)" opacity=".674"/>
  <path transform="matrix(-.46751 .12982 .27059 .34459 311.79 296.99)" d="m140.92 370.51c0 15.063-17.751 27.274-39.648 27.274s-39.648-12.211-39.648-27.274 17.751-27.274 39.648-27.274 39.648 12.211 39.648 27.274z" fill="url(#c)" opacity=".482"/>
  <path transform="matrix(-.6592 -.55488 .61289 -.74389 93.785 749.48)" d="m140.92 370.51c0 15.063-17.751 27.274-39.648 27.274s-39.648-12.211-39.648-27.274 17.751-27.274 39.648-27.274 39.648 12.211 39.648 27.274z" fill="url(#e)" opacity=".98"/>
  <path transform="matrix(2.0569 2.3787 -2.2638 .95098 890.87 -145.17)" d="m98.929 358.97c0 4.2408-4.717 7.6786-10.536 7.6786s-10.536-3.4378-10.536-7.6786 4.717-7.6786 10.536-7.6786 10.536 3.4378 10.536 7.6786z" fill="url(#a)" opacity=".674"/>
  <path transform="matrix(-.6592 -.55488 .61289 -.74389 40.829 769.66)" d="m140.92 370.51c0 15.063-17.751 27.274-39.648 27.274s-39.648-12.211-39.648-27.274 17.751-27.274 39.648-27.274 39.648 12.211 39.648 27.274z" fill="url(#e)" opacity=".98"/>
  <path transform="matrix(2.0569 2.3787 -2.2638 .95098 837.91 -125)" d="m98.929 358.97c0 4.2408-4.717 7.6786-10.536 7.6786s-10.536-3.4378-10.536-7.6786 4.717-7.6786 10.536-7.6786 10.536 3.4378 10.536 7.6786z" fill="url(#a)" opacity=".674"/>
  <path transform="matrix(-.83818 -.19972 .21352 -.9399 176.27 838.86)" d="m140.92 370.51c0 15.063-17.751 27.274-39.648 27.274s-39.648-12.211-39.648-27.274 17.751-27.274 39.648-27.274 39.648 12.211 39.648 27.274z" fill="url(#e)" opacity=".98"/>
  <path transform="matrix(2.906 1.2015 -1.5956 1.8664 486.65 -318.47)" d="m98.929 358.97c0 4.2408-4.717 7.6786-10.536 7.6786s-10.536-3.4378-10.536-7.6786 4.717-7.6786 10.536-7.6786 10.536 3.4378 10.536 7.6786z" fill="url(#a)" opacity=".674"/>
  <path transform="matrix(-.84273 .17956 -.21078 -.94052 305.1 832.09)" d="m140.92 370.51c0 15.063-17.751 27.274-39.648 27.274s-39.648-12.211-39.648-27.274 17.751-27.274 39.648-27.274 39.648 12.211 39.648 27.274z" fill="url(#e)" opacity=".98"/>
  <path transform="matrix(3.1404 -.16281 -.63952 2.3707 88.428 -346.38)" d="m98.929 358.97c0 4.2408-4.717 7.6786-10.536 7.6786s-10.536-3.4378-10.536-7.6786 4.717-7.6786 10.536-7.6786 10.536 3.4378 10.536 7.6786z" fill="url(#a)" opacity=".674"/>
  <path transform="matrix(.61989 -.42972 -.4046 -.7862 396.64 865.45)" d="m140.92 370.51c0 15.063-17.751 27.274-39.648 27.274s-39.648-12.211-39.648-27.274 17.751-27.274 39.648-27.274 39.648 12.211 39.648 27.274z" fill="url(#b)" opacity=".98"/>
  <path transform="matrix(1.1158 .01167 -.08005 -1.3963 245.44 1038.9)" d="m98.929 358.97c0 4.2408-4.717 7.6786-10.536 7.6786s-10.536-3.4378-10.536-7.6786 4.717-7.6786 10.536-7.6786 10.536 3.4378 10.536 7.6786z" fill="url(#a)" opacity=".674"/>
  <path transform="matrix(.11266 .7458 .88404 -.01684 -66.774 486.57)" d="m140.92 370.51c0 15.063-17.751 27.274-39.648 27.274s-39.648-12.211-39.648-27.274 17.751-27.274 39.648-27.274 39.648 12.211 39.648 27.274z" fill="url(#b)" opacity=".98"/>
  <path transform="matrix(-.50207 .99654 1.2887 .5433 -155.88 274.42)" d="m98.929 358.97c0 4.2408-4.717 7.6786-10.536 7.6786s-10.536-3.4378-10.536-7.6786 4.717-7.6786 10.536-7.6786 10.536 3.4378 10.536 7.6786z" fill="url(#a)" opacity=".674"/>
  <path transform="matrix(-.82766 .54563 -.62687 -.8794 442.34 823.02)" d="m140.92 370.51c0 15.063-17.751 27.274-39.648 27.274s-39.648-12.211-39.648-27.274 17.751-27.274 39.648-27.274 39.648 12.211 39.648 27.274z" fill="url(#h)" opacity=".98"/>
  <path transform="matrix(2.3143 1.0784 -.88014 2.5051 226.59 -431.4)" d="m98.929 358.97c0 4.2408-4.717 7.6786-10.536 7.6786s-10.536-3.4378-10.536-7.6786 4.717-7.6786 10.536-7.6786 10.536 3.4378 10.536 7.6786z" fill="url(#a)" opacity=".374"/>
  <path transform="matrix(.38074 .50699 .64122 -.60246 140.91 639.44)" d="m140.92 370.51c0 15.063-17.751 27.274-39.648 27.274s-39.648-12.211-39.648-27.274 17.751-27.274 39.648-27.274 39.648 12.211 39.648 27.274z" fill="url(#f)" opacity=".98"/>
  <path transform="matrix(.03043 1.1125 1.1618 -.43505 4.8316 511.53)" d="m98.929 358.97c0 4.2408-4.717 7.6786-10.536 7.6786s-10.536-3.4378-10.536-7.6786 4.717-7.6786 10.536-7.6786 10.536 3.4378 10.536 7.6786z" fill="url(#a)" opacity=".674"/>
  <path transform="matrix(-.09228 .37882 .36055 -.05764 304.45 458.95)" d="m140.92 370.51c0 15.063-17.751 27.274-39.648 27.274s-39.648-12.211-39.648-27.274 17.751-27.274 39.648-27.274 39.648 12.211 39.648 27.274z" fill="url(#c)" opacity=".482"/>
  <path transform="matrix(-.66947 -.80763 .76147 -.75896 19.512 911.2)" d="m140.92 370.51c0 15.063-17.751 27.274-39.648 27.274s-39.648-12.211-39.648-27.274 17.751-27.274 39.648-27.274 39.648 12.211 39.648 27.274z" fill="url(#d)" opacity=".98"/>
  <path transform="matrix(-.68348 2.555 -2.6009 -.63956 1231.7 534.6)" d="m98.929 358.97c0 4.2408-4.717 7.6786-10.536 7.6786s-10.536-3.4378-10.536-7.6786 4.717-7.6786 10.536-7.6786 10.536 3.4378 10.536 7.6786z" fill="url(#a)" opacity=".674"/>
  <path transform="matrix(-.29912 .94512 -1.0408 -.28813 577.13 597.26)" d="m140.92 370.51c0 15.063-17.751 27.274-39.648 27.274s-39.648-12.211-39.648-27.274 17.751-27.274 39.648-27.274 39.648 12.211 39.648 27.274z" fill="url(#h)" opacity=".98"/>
  <path transform="matrix(2.4767 -.62026 .89441 2.5 -389.75 -262.68)" d="m98.929 358.97c0 4.2408-4.717 7.6786-10.536 7.6786s-10.536-3.4378-10.536-7.6786 4.717-7.6786 10.536-7.6786 10.536 3.4378 10.536 7.6786z" fill="url(#a)" opacity=".674"/>
  <path transform="matrix(.38074 .50699 .64122 -.60246 146.42 665.75)" d="m140.92 370.51c0 15.063-17.751 27.274-39.648 27.274s-39.648-12.211-39.648-27.274 17.751-27.274 39.648-27.274 39.648 12.211 39.648 27.274z" fill="url(#f)" opacity=".98"/>
  <path transform="matrix(.03043 1.1125 1.1618 -.43505 10.34 537.84)" d="m98.929 358.97c0 4.2408-4.717 7.6786-10.536 7.6786s-10.536-3.4378-10.536-7.6786 4.717-7.6786 10.536-7.6786 10.536 3.4378 10.536 7.6786z" fill="url(#a)" opacity=".674"/>
  <path transform="matrix(-.09228 .37882 .36055 -.05764 309.96 485.26)" d="m140.92 370.51c0 15.063-17.751 27.274-39.648 27.274s-39.648-12.211-39.648-27.274 17.751-27.274 39.648-27.274 39.648 12.211 39.648 27.274z" fill="url(#c)" opacity=".482"/>
  <path transform="matrix(.22913 .89303 1.1857 -.49094 -88.758 583.15)" d="m140.92 370.51c0 15.063-17.751 27.274-39.648 27.274s-39.648-12.211-39.648-27.274 17.751-27.274 39.648-27.274 39.648 12.211 39.648 27.274z" fill="url(#h)" opacity=".98"/>
  <path transform="matrix(-.57039 1.5398 1.7877 .00982 -232.69 333.51)" d="m98.929 358.97c0 4.2408-4.717 7.6786-10.536 7.6786s-10.536-3.4378-10.536-7.6786 4.717-7.6786 10.536-7.6786 10.536 3.4378 10.536 7.6786z" fill="url(#a)" opacity=".674"/>
  <path transform="matrix(-.33105 .47081 .5123 .10903 228.37 421.17)" d="m140.92 370.51c0 15.063-17.751 27.274-39.648 27.274s-39.648-12.211-39.648-27.274 17.751-27.274 39.648-27.274 39.648 12.211 39.648 27.274z" fill="url(#c)" opacity=".482"/>
  <path transform="matrix(.75109 -.20958 -.43913 -.98104 540.1 837.9)" d="m140.92 370.51c0 15.063-17.751 27.274-39.648 27.274s-39.648-12.211-39.648-27.274 17.751-27.274 39.648-27.274 39.648 12.211 39.648 27.274z" fill="url(#f)" opacity=".98"/>
  <path transform="matrix(1.3144 .44557 -.02743 -1.4944 334.02 935.79)" d="m98.929 358.97c0 4.2408-4.717 7.6786-10.536 7.6786s-10.536-3.4378-10.536-7.6786 4.717-7.6786 10.536-7.6786 10.536 3.4378 10.536 7.6786z" fill="url(#a)" opacity=".674"/>
  <path transform="matrix(.40502 .26717 .08202 -.43039 396.7 576.12)" d="m140.92 370.51c0 15.063-17.751 27.274-39.648 27.274s-39.648-12.211-39.648-27.274 17.751-27.274 39.648-27.274 39.648 12.211 39.648 27.274z" fill="url(#c)" opacity=".482"/>
  <path transform="matrix(-.73259 .17952 .09657 .87891 350.93 125.28)" d="m140.92 370.51c0 15.063-17.751 27.274-39.648 27.274s-39.648-12.211-39.648-27.274 17.751-27.274 39.648-27.274 39.648 12.211 39.648 27.274z" fill="url(#d)" opacity=".98"/>
  <path transform="matrix(-1.0378 -.41006 -.42475 1.3325 554.17 17.391)" d="m98.929 358.97c0 4.2408-4.717 7.6786-10.536 7.6786s-10.536-3.4378-10.536-7.6786 4.717-7.6786 10.536-7.6786 10.536 3.4378 10.536 7.6786z" fill="url(#a)" opacity=".674"/>
  <path transform="matrix(-.28076 -.24214 -.2025 .38291 400.08 360.06)" d="m140.92 370.51c0 15.063-17.751 27.274-39.648 27.274s-39.648-12.211-39.648-27.274 17.751-27.274 39.648-27.274 39.648 12.211 39.648 27.274z" fill="url(#c)" opacity=".3"/>
  <path transform="matrix(-.73259 .17952 .09657 .87891 350.93 125.28)" d="m140.92 370.51c0 15.063-17.751 27.274-39.648 27.274s-39.648-12.211-39.648-27.274 17.751-27.274 39.648-27.274 39.648 12.211 39.648 27.274z" fill="url(#d)" opacity=".98"/>
  <g transform="translate(-250.2 73.632)">
   <path transform="matrix(.41885 .65775 .81105 -.70532 175.67 617.58)" d="m140.92 370.51c0 15.063-17.751 27.274-39.648 27.274s-39.648-12.211-39.648-27.274 17.751-27.274 39.648-27.274 39.648 12.211 39.648 27.274z" fill="url(#f)" opacity=".98"/>
   <path transform="matrix(-.0443 1.3871 1.4219 -.4606 8.0187 457.7)" d="m98.929 358.97c0 4.2408-4.717 7.6786-10.536 7.6786s-10.536-3.4378-10.536-7.6786 4.717-7.6786 10.536-7.6786 10.536 3.4378 10.536 7.6786z" fill="url(#a)" opacity=".674"/>
   <path transform="matrix(-.13791 .46519 .43565 -.046619 384.47 404.28)" d="m140.92 370.51c0 15.063-17.751 27.274-39.648 27.274s-39.648-12.211-39.648-27.274 17.751-27.274 39.648-27.274 39.648 12.211 39.648 27.274z" fill="url(#c)" opacity=".482"/>
   <path d="m518.5 390.44c-5.7637-0.0451-11.571 2.0298-16.531 6.3438-12.211 10.619-14.667 30.917-5.5 45.312 7.1616 11.246 19.327 15.582 30.125 11.875-1.2754-0.4991-2.3819-1.6507-3.8125-1.7813-24.037-2.1743-30.1-25.067-24.48-40.242 3.9873-10.767 21.14-18.892 31.699-18.508-3.6164-1.9484-7.555-2.9692-11.5-3z" opacity=".101"/>
  </g>
  <path transform="matrix(-.7726 .38149 -.43582 -.85969 434.43 751.12)" d="m140.92 370.51c0 15.063-17.751 27.274-39.648 27.274s-39.648-12.211-39.648-27.274 17.751-27.274 39.648-27.274 39.648 12.211 39.648 27.274z" fill="url(#n)" opacity=".98"/>
  <path transform="matrix(2.3822 .64712 .26542 2.9338 -109.31 -652.66)" d="m98.929 358.97c0 4.2408-4.717 7.6786-10.536 7.6786s-10.536-3.4378-10.536-7.6786 4.717-7.6786 10.536-7.6786 10.536 3.4378 10.536 7.6786z" fill="url(#a)" opacity=".674"/>
  <path transform="matrix(-.97822 -.01142 -.12112 -.99127 390.23 812.74)" d="m140.92 370.51c0 15.063-17.751 27.274-39.648 27.274s-39.648-12.211-39.648-27.274 17.751-27.274 39.648-27.274 39.648 12.211 39.648 27.274z" fill="url(#d)" opacity=".98"/>
  <path transform="matrix(1.4868 2.0114 -1.9632 1.4511 809.01 -267.46)" d="m98.929 358.97c0 4.2408-4.717 7.6786-10.536 7.6786s-10.536-3.4378-10.536-7.6786 4.717-7.6786 10.536-7.6786 10.536 3.4378 10.536 7.6786z" fill="url(#a)" opacity=".674"/>
  <path transform="matrix(-.69142 .66866 -.68668 -.71166 500.08 724.29)" d="m140.92 370.51c0 15.063-17.751 27.274-39.648 27.274s-39.648-12.211-39.648-27.274 17.751-27.274 39.648-27.274 39.648 12.211 39.648 27.274z" fill="url(#d)" opacity=".98"/>
  <path transform="matrix(2.2617 .58417 -.49255 2.5249 146.86 -439.94)" d="m98.929 358.97c0 4.2408-4.717 7.6786-10.536 7.6786s-10.536-3.4378-10.536-7.6786 4.717-7.6786 10.536-7.6786 10.536 3.4378 10.536 7.6786z" fill="url(#a)" opacity=".674"/>
  <path d="m320.8 403.95c-6.1659 0 13.036-5.4711 18.661-11.096 10.399-5.8897 18.636-14.75 28.243-21.687 2.5644-2.5644 5.1936-5.6979 8.0695-8.5738l8.0695-8.0695c2.5118-2.5118 5.2712-6.2799 7.5651-8.5738 10.228-11.794 2.8461-6.1551 31.269-35.808 0.2673-0.0668 4.1573 7.306 4.5391 8.0695 2.417 4.834 0.8351 4.2084-2.5217 7.5651-2.7548 2.7548-5.9958 3.9785-8.0695 6.0521-2.1638 2.1638-4.6422 4.1379-6.5565 6.0521-2.5749 2.5749-5.3577 4.8534-8.0695 7.5651-2.3764 2.3764-5.4242 4.2062-7.5651 7.0608-1.6843 2.2457-5.362 4.9041-7.5651 6.5564-2.7233 2.0425-3.8406 5.2889-5.5478 7.5651-2.1886 2.9181-3.5925 5.1055-6.0521 7.5651l-3.5304 3.5304c-15.716 7.0106-23.848 17.027-33.791 23.704-3.4841 0.871-8.3742 3.4306-11.6 5.0434-4.5663 2.2832-6.823 3.8546-5.5478-2.5217z" fill="url(#l)" fill-rule="evenodd"/>
  <path transform="matrix(.77251 .48022 -.50122 .7277 408.66 99.358)" d="m140.92 370.51c0 15.063-17.751 27.274-39.648 27.274s-39.648-12.211-39.648-27.274 17.751-27.274 39.648-27.274 39.648 12.211 39.648 27.274z" fill="url(#d)" opacity=".98"/>
  <path transform="matrix(1.3883 .09803 -.09568 1.355 197.37 -95.281)" d="m98.929 358.97c0 4.2408-4.717 7.6786-10.536 7.6786s-10.536-3.4378-10.536-7.6786 4.717-7.6786 10.536-7.6786 10.536 3.4378 10.536 7.6786z" fill="url(#a)" opacity=".674"/>
  <path transform="matrix(.43364 -.08846 .06606 .42482 247.62 283.46)" d="m140.92 370.51c0 15.063-17.751 27.274-39.648 27.274s-39.648-12.211-39.648-27.274 17.751-27.274 39.648-27.274 39.648 12.211 39.648 27.274z" fill="url(#c)" opacity=".3"/>
 </g>
</svg>
