<?xml version="1.0" encoding="UTF-8"?>
<svg viewBox="0 0 250 250" xmlns="http://www.w3.org/2000/svg" xmlns:xlink="http://www.w3.org/1999/xlink">
 <defs>
  <filter id="o" x="-.11449" y="-.12607" width="1.229" height="1.2521">
   <feGaussianBlur stdDeviation="14.65157"/>
  </filter>
  <filter id="a" x="-.13089" y="-.28811" width="1.2618" height="1.5762">
   <feGaussianBlur stdDeviation=".56358"/>
  </filter>
  <filter id="p" x="-.14521" y="-.14281" width="1.2904" height="1.2856">
   <feGaussianBlur stdDeviation="9.38163"/>
  </filter>
  <linearGradient id="f">
   <stop stop-color="#fff" offset="0"/>
   <stop stop-color="#fff" stop-opacity="0" offset="1"/>
  </linearGradient>
  <linearGradient id="n" x1="1720.1" x2="1729" y1="2210.1" y2="2231" gradientUnits="userSpaceOnUse">
   <stop stop-color="#2a8c2a" offset="0"/>
   <stop stop-color="#2a8c2a" stop-opacity="0" offset="1"/>
  </linearGradient>
  <linearGradient id="b" x1="130.74" x2="136.67" y1="2880.4" y2="2874.5" gradientUnits="userSpaceOnUse">
   <stop stop-color="#707032" offset="0"/>
   <stop stop-color="#707032" stop-opacity="0" offset="1"/>
  </linearGradient>
  <linearGradient id="j" x1="131.07" x2="141.43" gradientUnits="userSpaceOnUse">
   <stop stop-color="#8e8e8e" offset="0"/>
   <stop stop-color="#8e8e8e" stop-opacity="0" offset="1"/>
  </linearGradient>
  <linearGradient id="i" x1="131.07" x2="141.43" gradientUnits="userSpaceOnUse">
   <stop stop-color="#313131" offset="0"/>
   <stop stop-color="#313131" stop-opacity="0" offset="1"/>
  </linearGradient>
  <linearGradient id="m" x1="83.052" x2="72.895" y1="286.14" y2="201.97" gradientUnits="userSpaceOnUse">
   <stop stop-color="#4c2828" offset="0"/>
   <stop stop-color="#4c2828" stop-opacity="0" offset="1"/>
  </linearGradient>
  <linearGradient id="e">
   <stop stop-color="#2f6d10" offset="0"/>
   <stop stop-color="#2f6d10" stop-opacity="0" offset="1"/>
  </linearGradient>
  <linearGradient id="k" x1="103.49" x2="135.06" y1="457.64" y2="104.12" gradientUnits="userSpaceOnUse">
   <stop offset="0"/>
   <stop stop-opacity="0" offset="1"/>
  </linearGradient>
  <linearGradient id="d" x1="133.09" x2="129.8" y1="2817.6" y2="2823.7" gradientUnits="userSpaceOnUse" xlink:href="#e"/>
  <linearGradient id="l" x1="161.52" x2="161.73" y1="2799.7" y2="2914" gradientUnits="userSpaceOnUse" xlink:href="#f"/>
  <radialGradient id="c" cx="138.9" cy="2804" r="13.887" gradientUnits="userSpaceOnUse">
   <stop stop-color="#468129" offset="0"/>
   <stop stop-color="#468129" stop-opacity="0" offset="1"/>
  </radialGradient>
  <radialGradient id="h" cx="-13.275" cy="3059" r="152.68" gradientTransform="matrix(1.5497 .1782 -.07808 .67158 246.14 970.55)" gradientUnits="userSpaceOnUse" xlink:href="#f"/>
  <radialGradient id="g" cx="421" cy="2561.3" r="77.531" gradientUnits="userSpaceOnUse" xlink:href="#e"/>
 </defs>
 <path transform="matrix(.70988 0 0 .70988 27.692 -434.89)" d="m3.7008 861.64c44.496 45.781 99.481 22.853 149.53 51 74.756 20.159 123.46 19.368 137.44-30.469-142.61-197.6-278.18-184.15-286.97-20.531z" filter="url(#o)" opacity=".6"/>
 <g transform="matrix(-.55764 .36355 .32596 .7104 -807.88 -1945.4)" fill-rule="evenodd">
  <path d="m126.27 2821.9c11.112-11.112 15.152-18.94 10.102-21.971s-11.112-9.0913-11.112-9.0913 19.193 1.0101 24.244 9.0913 4.0406 13.132 1.0102 18.183-11.617 8.8388-11.617 8.8388l-12.627-5.0507z" fill="url(#d)"/>
  <path d="m125.51 2791s6.043 6.0634 11.094 9.0937c0.70302 0.4219 1.2376 0.9276 1.5938 1.5313 1.6032 0.4958 3.4268 1.444 5.25 3.875 2.5734 3.4312 5.4978 6.5167 7.5625 12.312 2.8239-4.9057 3.6532-9.8737-1.25-17.719-5.0508-8.0811-24.25-9.0936-24.25-9.0937z" fill="#62e81f"/>
  <path d="m125.01 2790.6s6.043 6.0634 11.094 9.0937c0.70302 0.4219 1.2376 0.9276 1.5938 1.5313 1.6032 0.4958 3.4268 1.444 5.25 3.875 2.5734 3.4312 5.4978 6.5167 7.5625 12.312 2.8239-4.9057 3.6532-9.8737-1.25-17.719-5.0508-8.0811-24.25-9.0936-24.25-9.0937z" fill="url(#c)"/>
 </g>
 <g transform="matrix(.25646 -.66193 .66193 .25646 -1827.6 -587.71)" fill-rule="evenodd">
  <path d="m126.27 2821.9c11.112-11.112 15.152-18.94 10.102-21.971s-11.112-9.0913-11.112-9.0913 19.193 1.0101 24.244 9.0913 4.0406 13.132 1.0102 18.183-11.617 8.8388-11.617 8.8388l-12.627-5.0507z" fill="url(#d)"/>
  <path d="m125.51 2791s6.043 6.0634 11.094 9.0937c0.70302 0.4219 1.2376 0.9276 1.5938 1.5313 1.6032 0.4958 3.4268 1.444 5.25 3.875 2.5734 3.4312 5.4978 6.5167 7.5625 12.312 2.8239-4.9057 3.6532-9.8737-1.25-17.719-5.0508-8.0811-24.25-9.0936-24.25-9.0937z" fill="#62e81f"/>
  <path d="m125.01 2790.6s6.043 6.0634 11.094 9.0937c0.70302 0.4219 1.2376 0.9276 1.5938 1.5313 1.6032 0.4958 3.4268 1.444 5.25 3.875 2.5734 3.4312 5.4978 6.5167 7.5625 12.312 2.8239-4.9057 3.6532-9.8737-1.25-17.719-5.0508-8.0811-24.25-9.0936-24.25-9.0937z" fill="url(#c)"/>
 </g>
 <path d="m141.46 18.327c-23.878 0.09157-50.101 9.3789-72.585 27.707-43.607 35.546-56.738 91.689-29.327 125.32 31.587 32.499 70.62 16.223 106.15 36.204 53.068 14.311 87.645 13.749 97.564-21.629-7.3231-44.682-20.057-104.72-45.721-143.37-13.277-16.288-33.649-24.311-56.08-24.225z" fill="#f00"/>
 <path transform="matrix(.67667 0 0 .68041 11.24 -1862.5)" d="m50.5 2843.3c-0.21227 0.0274-0.40416 0.1403-0.53125 0.3125-33.806 47.243-38.984 104.77-8.25 142.47l0.03125 0.0624c22.406 23.054 47.515 28.829 73.125 32.344s51.755 4.8126 76.594 18.781c0.04969 0.0264 0.10207 0.0474 0.15625 0.0626 34.899 9.4111 64.169 14.302 87 11.719s39.28-12.766 48.062-33.219c0.13254-0.3444 0.0073-0.7347-0.30093-0.9377s-0.71623-0.1639-0.98032 0.0939c-10.946 11.861-26.951 17.126-47.688 17.438-20.722 0.3113-46.112-4.3651-75.594-12.312-0.01659-0.0093-0.04591 0.0093-0.0625 0-25.166-14.1-51.5-15.41-76.969-18.906-25.519-3.5027-50.129-9.1784-72.219-31.906-26.848-32.99-25.82-81.536-1.5938-124.84 0.14092-0.2578 0.12611-0.5727-0.03837-0.8161s-0.45112-0.3747-0.74288-0.3402z" fill="url(#h)"/>
 <g transform="matrix(.70988 0 0 .70988 14.586 -1955.9)">
  <path transform="rotate(37.127)" d="m1698.7 2221.7h69.991a1.4332 1.4332 0 0 1 1.4332 1.4332v8.5621a1.4332 1.4332 0 0 1 -1.4332 1.4332h-69.991a1.4332 1.4332 0 0 1 -1.4332 -1.4332v-8.5621a1.4332 1.4332 0 0 1 1.4332 -1.4332" fill="#0f0"/>
  <path transform="rotate(37.127)" d="m1698.4 2221.9h69.991a1.4332 1.4332 0 0 1 1.4332 1.4332v8.5621a1.4332 1.4332 0 0 1 -1.4332 1.4332h-69.991a1.4332 1.4332 0 0 1 -1.4332 -1.4332v-8.5621a1.4332 1.4332 0 0 1 1.4332 -1.4332" fill="url(#n)"/>
  <path d="m11.79018,2795.9643c-.36291.0502-.69787.246-.9375.5625l-5.1875,6.8125c-.31451.4155-.36592.9565-.1875,1.4062 .6915.2395 1.43377.4063 2.21875.4063 3.42536,0 6.21875-2.5134 6.21875-5.5937 0-1.3183-.52407-2.5448-1.375-3.5-.24134-.1023-.49899-.1285-.75-.0938z" fill="#69ff69"/>
 </g>
 <path transform="matrix(-.05489 .70775 -.70775 -.05489 2098.2 159.04)" d="m136.25,2871.625c-1.51821,0-2.90146.2752-3.96875.75-.53364.2374-.98798.5317-1.34375.9062s-.625.8619-.625,1.4063 .26922,1.0317.625,1.4063 .81011.6688 1.34375.9062c1.06728.4748 2.45056.7499 3.96875.75s2.90146-.2752 3.96875-.75c.53364-.2374.98798-.5317 1.34375-.9062s.625-.8619.625-1.4063-.26922-1.0317-.625-1.4063-.81011-.6688-1.34375-.9062c-1.06728-.4748-2.45056-.7499-3.96875-.75z" filter="url(#a)" opacity=".6"/>
 <path transform="matrix(-.05489 .70775 -.70775 -.05489 2098.2 159.04)" d="m141.43 2874.7a5.1786 2.3214 0 1 1 -10.357 0 5.1786 2.3214 0 1 1 10.357 0z" fill="#dcdc65"/>
 <path transform="matrix(-.05489 .70775 -.70775 -.05489 2098.1 158.98)" d="m141.43 2874.7a5.1786 2.3214 0 1 1 -10.357 0 5.1786 2.3214 0 1 1 10.357 0z" fill="url(#b)"/>
 <path transform="matrix(.45938 .5412 -.5412 .45938 1573.7 -1308.2)" d="m136.25,2871.625c-1.51821,0-2.90146.2752-3.96875.75-.53364.2374-.98798.5317-1.34375.9062s-.625.8619-.625,1.4063 .26922,1.0317.625,1.4063 .81011.6688 1.34375.9062c1.06728.4748 2.45056.7499 3.96875.75s2.90146-.2752 3.96875-.75c.53364-.2374.98798-.5317 1.34375-.9062s.625-.8619.625-1.4063-.26922-1.0317-.625-1.4063-.81011-.6688-1.34375-.9062c-1.06728-.4748-2.45056-.7499-3.96875-.75z" filter="url(#a)" opacity=".6"/>
 <path transform="matrix(.45938 .5412 -.5412 .45938 1573.7 -1308.2)" d="m141.43 2874.7a5.1786 2.3214 0 1 1 -10.357 0 5.1786 2.3214 0 1 1 10.357 0z" fill="#dcdc65"/>
 <path transform="matrix(.45938 .5412 -.5412 .45938 1573.6 -1308.2)" d="m141.43 2874.7a5.1786 2.3214 0 1 1 -10.357 0 5.1786 2.3214 0 1 1 10.357 0z" fill="url(#b)"/>
 <path transform="matrix(.70437 .08826 -.08826 .70437 253.96 -1969)" d="m136.25,2871.625c-1.51821,0-2.90146.2752-3.96875.75-.53364.2374-.98798.5317-1.34375.9062s-.625.8619-.625,1.4063 .26922,1.0317.625,1.4063 .81011.6688 1.34375.9062c1.06728.4748 2.45056.7499 3.96875.75s2.90146-.2752 3.96875-.75c.53364-.2374.98798-.5317 1.34375-.9062s.625-.8619.625-1.4063-.26922-1.0317-.625-1.4063-.81011-.6688-1.34375-.9062c-1.06728-.4748-2.45056-.7499-3.96875-.75z" filter="url(#a)" opacity=".6"/>
 <path transform="matrix(.70437 .08826 -.08826 .70437 253.96 -1969)" d="m141.43 2874.7a5.1786 2.3214 0 1 1 -10.357 0 5.1786 2.3214 0 1 1 10.357 0z" fill="#dcdc65"/>
 <path transform="matrix(.70437 .08826 -.08826 .70437 253.9 -1969)" d="m141.43 2874.7a5.1786 2.3214 0 1 1 -10.357 0 5.1786 2.3214 0 1 1 10.357 0z" fill="url(#b)"/>
 <path transform="matrix(.68029 -.20283 .20283 .68029 -579.54 -1881.9)" d="m136.25,2871.625c-1.51821,0-2.90146.2752-3.96875.75-.53364.2374-.98798.5317-1.34375.9062s-.625.8619-.625,1.4063 .26922,1.0317.625,1.4063 .81011.6688 1.34375.9062c1.06728.4748 2.45056.7499 3.96875.75s2.90146-.2752 3.96875-.75c.53364-.2374.98798-.5317 1.34375-.9062s.625-.8619.625-1.4063-.26922-1.0317-.625-1.4063-.81011-.6688-1.34375-.9062c-1.06728-.4748-2.45056-.7499-3.96875-.75z" filter="url(#a)" opacity=".6"/>
 <path transform="matrix(.68029 -.20283 .20283 .68029 -579.54 -1881.9)" d="m141.43 2874.7a5.1786 2.3214 0 1 1 -10.357 0 5.1786 2.3214 0 1 1 10.357 0z" fill="#dcdc65"/>
 <path transform="matrix(.68029 -.20283 .20283 .68029 -579.59 -1881.8)" d="m141.43 2874.7a5.1786 2.3214 0 1 1 -10.357 0 5.1786 2.3214 0 1 1 10.357 0z" fill="url(#b)"/>
 <path transform="matrix(.45938 .5412 -.5412 .45938 1549.9 -1219.9)" d="m136.25,2871.625c-1.51821,0-2.90146.2752-3.96875.75-.53364.2374-.98798.5317-1.34375.9062s-.625.8619-.625,1.4063 .26922,1.0317.625,1.4063 .81011.6688 1.34375.9062c1.06728.4748 2.45056.7499 3.96875.75s2.90146-.2752 3.96875-.75c.53364-.2374.98798-.5317 1.34375-.9062s.625-.8619.625-1.4063-.26922-1.0317-.625-1.4063-.81011-.6688-1.34375-.9062c-1.06728-.4748-2.45056-.7499-3.96875-.75z" filter="url(#a)" opacity=".6"/>
 <path transform="matrix(.45938 .5412 -.5412 .45938 1549.9 -1219.9)" d="m141.43 2874.7a5.1786 2.3214 0 1 1 -10.357 0 5.1786 2.3214 0 1 1 10.357 0z" fill="#dcdc65"/>
 <path transform="matrix(.45938 .5412 -.5412 .45938 1549.8 -1220)" d="m141.43 2874.7a5.1786 2.3214 0 1 1 -10.357 0 5.1786 2.3214 0 1 1 10.357 0z" fill="url(#b)"/>
 <path transform="matrix(.45938 .5412 -.5412 .45938 1612.7 -1316.6)" d="m136.25,2871.625c-1.51821,0-2.90146.2752-3.96875.75-.53364.2374-.98798.5317-1.34375.9062s-.625.8619-.625,1.4063 .26922,1.0317.625,1.4063 .81011.6688 1.34375.9062c1.06728.4748 2.45056.7499 3.96875.75s2.90146-.2752 3.96875-.75c.53364-.2374.98798-.5317 1.34375-.9062s.625-.8619.625-1.4063-.26922-1.0317-.625-1.4063-.81011-.6688-1.34375-.9062c-1.06728-.4748-2.45056-.7499-3.96875-.75z" filter="url(#a)" opacity=".6"/>
 <path transform="matrix(.45938 .5412 -.5412 .45938 1612.7 -1316.6)" d="m141.43 2874.7a5.1786 2.3214 0 1 1 -10.357 0 5.1786 2.3214 0 1 1 10.357 0z" fill="#dcdc65"/>
 <path transform="matrix(.45938 .5412 -.5412 .45938 1612.7 -1316.6)" d="m141.43 2874.7a5.1786 2.3214 0 1 1 -10.357 0 5.1786 2.3214 0 1 1 10.357 0z" fill="url(#b)"/>
 <path transform="matrix(.70437 .08826 -.08826 .70437 293 -1977.4)" d="m136.25,2871.625c-1.51821,0-2.90146.2752-3.96875.75-.53364.2374-.98798.5317-1.34375.9062s-.625.8619-.625,1.4063 .26922,1.0317.625,1.4063 .81011.6688 1.34375.9062c1.06728.4748 2.45056.7499 3.96875.75s2.90146-.2752 3.96875-.75c.53364-.2374.98798-.5317 1.34375-.9062s.625-.8619.625-1.4063-.26922-1.0317-.625-1.4063-.81011-.6688-1.34375-.9062c-1.06728-.4748-2.45056-.7499-3.96875-.75z" filter="url(#a)" opacity=".6"/>
 <path transform="matrix(.70437 .08826 -.08826 .70437 293 -1977.4)" d="m141.43 2874.7a5.1786 2.3214 0 1 1 -10.357 0 5.1786 2.3214 0 1 1 10.357 0z" fill="#dcdc65"/>
 <path transform="matrix(.70437 .08826 -.08826 .70437 292.94 -1977.4)" d="m141.43 2874.7a5.1786 2.3214 0 1 1 -10.357 0 5.1786 2.3214 0 1 1 10.357 0z" fill="url(#b)"/>
 <path transform="matrix(.68029 -.20283 .20283 .68029 -540.51 -1890.3)" d="m136.25,2871.625c-1.51821,0-2.90146.2752-3.96875.75-.53364.2374-.98798.5317-1.34375.9062s-.625.8619-.625,1.4063 .26922,1.0317.625,1.4063 .81011.6688 1.34375.9062c1.06728.4748 2.45056.7499 3.96875.75s2.90146-.2752 3.96875-.75c.53364-.2374.98798-.5317 1.34375-.9062s.625-.8619.625-1.4063-.26922-1.0317-.625-1.4063-.81011-.6688-1.34375-.9062c-1.06728-.4748-2.45056-.7499-3.96875-.75z" filter="url(#a)" opacity=".6"/>
 <path transform="matrix(.68029 -.20283 .20283 .68029 -540.51 -1890.3)" d="m141.43 2874.7a5.1786 2.3214 0 1 1 -10.357 0 5.1786 2.3214 0 1 1 10.357 0z" fill="#dcdc65"/>
 <path transform="matrix(.68029 -.20283 .20283 .68029 -540.56 -1890.3)" d="m141.43 2874.7a5.1786 2.3214 0 1 1 -10.357 0 5.1786 2.3214 0 1 1 10.357 0z" fill="url(#b)"/>
 <path transform="matrix(.45938 .5412 -.5412 .45938 1657.2 -1296.5)" d="m136.25,2871.625c-1.51821,0-2.90146.2752-3.96875.75-.53364.2374-.98798.5317-1.34375.9062s-.625.8619-.625,1.4063 .26922,1.0317.625,1.4063 .81011.6688 1.34375.9062c1.06728.4748 2.45056.7499 3.96875.75s2.90146-.2752 3.96875-.75c.53364-.2374.98798-.5317 1.34375-.9062s.625-.8619.625-1.4063-.26922-1.0317-.625-1.4063-.81011-.6688-1.34375-.9062c-1.06728-.4748-2.45056-.7499-3.96875-.75z" filter="url(#a)" opacity=".6"/>
 <path transform="matrix(.45938 .5412 -.5412 .45938 1657.2 -1296.5)" d="m141.43 2874.7a5.1786 2.3214 0 1 1 -10.357 0 5.1786 2.3214 0 1 1 10.357 0z" fill="#dcdc65"/>
 <path transform="matrix(.45938 .5412 -.5412 .45938 1657.1 -1296.6)" d="m141.43 2874.7a5.1786 2.3214 0 1 1 -10.357 0 5.1786 2.3214 0 1 1 10.357 0z" fill="url(#b)"/>
 <path transform="matrix(.70437 .08826 -.08826 .70437 337.46 -1957.3)" d="m136.25,2871.625c-1.51821,0-2.90146.2752-3.96875.75-.53364.2374-.98798.5317-1.34375.9062s-.625.8619-.625,1.4063 .26922,1.0317.625,1.4063 .81011.6688 1.34375.9062c1.06728.4748 2.45056.7499 3.96875.75s2.90146-.2752 3.96875-.75c.53364-.2374.98798-.5317 1.34375-.9062s.625-.8619.625-1.4063-.26922-1.0317-.625-1.4063-.81011-.6688-1.34375-.9062c-1.06728-.4748-2.45056-.7499-3.96875-.75z" filter="url(#a)" opacity=".6"/>
 <path transform="matrix(.70437 .08826 -.08826 .70437 337.46 -1957.3)" d="m141.43 2874.7a5.1786 2.3214 0 1 1 -10.357 0 5.1786 2.3214 0 1 1 10.357 0z" fill="#dcdc65"/>
 <path transform="matrix(.70437 .08826 -.08826 .70437 337.39 -1957.3)" d="m141.43 2874.7a5.1786 2.3214 0 1 1 -10.357 0 5.1786 2.3214 0 1 1 10.357 0z" fill="url(#b)"/>
 <path transform="matrix(.68029 -.20283 .20283 .68029 -496.05 -1870.2)" d="m136.25,2871.625c-1.51821,0-2.90146.2752-3.96875.75-.53364.2374-.98798.5317-1.34375.9062s-.625.8619-.625,1.4063 .26922,1.0317.625,1.4063 .81011.6688 1.34375.9062c1.06728.4748 2.45056.7499 3.96875.75s2.90146-.2752 3.96875-.75c.53364-.2374.98798-.5317 1.34375-.9062s.625-.8619.625-1.4063-.26922-1.0317-.625-1.4063-.81011-.6688-1.34375-.9062c-1.06728-.4748-2.45056-.7499-3.96875-.75z" filter="url(#a)" opacity=".6"/>
 <path transform="matrix(.68029 -.20283 .20283 .68029 -496.05 -1870.2)" d="m141.43 2874.7a5.1786 2.3214 0 1 1 -10.357 0 5.1786 2.3214 0 1 1 10.357 0z" fill="#dcdc65"/>
 <path transform="matrix(.68029 -.20283 .20283 .68029 -496.1 -1870.2)" d="m141.43 2874.7a5.1786 2.3214 0 1 1 -10.357 0 5.1786 2.3214 0 1 1 10.357 0z" fill="url(#b)"/>
 <path transform="matrix(.45938 .5412 -.5412 .45938 1641.4 -1320.9)" d="m136.25,2871.625c-1.51821,0-2.90146.2752-3.96875.75-.53364.2374-.98798.5317-1.34375.9062s-.625.8619-.625,1.4063 .26922,1.0317.625,1.4063 .81011.6688 1.34375.9062c1.06728.4748 2.45056.7499 3.96875.75s2.90146-.2752 3.96875-.75c.53364-.2374.98798-.5317 1.34375-.9062s.625-.8619.625-1.4063-.26922-1.0317-.625-1.4063-.81011-.6688-1.34375-.9062c-1.06728-.4748-2.45056-.7499-3.96875-.75z" filter="url(#a)" opacity=".6"/>
 <path transform="matrix(.45938 .5412 -.5412 .45938 1641.4 -1320.9)" d="m141.43 2874.7a5.1786 2.3214 0 1 1 -10.357 0 5.1786 2.3214 0 1 1 10.357 0z" fill="#dcdc65"/>
 <path transform="matrix(.45938 .5412 -.5412 .45938 1641.4 -1320.9)" d="m141.43 2874.7a5.1786 2.3214 0 1 1 -10.357 0 5.1786 2.3214 0 1 1 10.357 0z" fill="url(#b)"/>
 <path transform="matrix(.70437 .08826 -.08826 .70437 321.68 -1981.7)" d="m136.25,2871.625c-1.51821,0-2.90146.2752-3.96875.75-.53364.2374-.98798.5317-1.34375.9062s-.625.8619-.625,1.4063 .26922,1.0317.625,1.4063 .81011.6688 1.34375.9062c1.06728.4748 2.45056.7499 3.96875.75s2.90146-.2752 3.96875-.75c.53364-.2374.98798-.5317 1.34375-.9062s.625-.8619.625-1.4063-.26922-1.0317-.625-1.4063-.81011-.6688-1.34375-.9062c-1.06728-.4748-2.45056-.7499-3.96875-.75z" filter="url(#a)" opacity=".6"/>
 <path transform="matrix(.70437 .08826 -.08826 .70437 321.68 -1981.7)" d="m141.43 2874.7a5.1786 2.3214 0 1 1 -10.357 0 5.1786 2.3214 0 1 1 10.357 0z" fill="#dcdc65"/>
 <path transform="matrix(.70437 .08826 -.08826 .70437 321.62 -1981.7)" d="m141.43 2874.7a5.1786 2.3214 0 1 1 -10.357 0 5.1786 2.3214 0 1 1 10.357 0z" fill="url(#b)"/>
 <path transform="matrix(.68029 -.20283 .20283 .68029 -511.82 -1894.6)" d="m136.25,2871.625c-1.51821,0-2.90146.2752-3.96875.75-.53364.2374-.98798.5317-1.34375.9062s-.625.8619-.625,1.4063 .26922,1.0317.625,1.4063 .81011.6688 1.34375.9062c1.06728.4748 2.45056.7499 3.96875.75s2.90146-.2752 3.96875-.75c.53364-.2374.98798-.5317 1.34375-.9062s.625-.8619.625-1.4063-.26922-1.0317-.625-1.4063-.81011-.6688-1.34375-.9062c-1.06728-.4748-2.45056-.7499-3.96875-.75z" filter="url(#a)" opacity=".6"/>
 <path transform="matrix(.68029 -.20283 .20283 .68029 -511.82 -1894.6)" d="m141.43 2874.7a5.1786 2.3214 0 1 1 -10.357 0 5.1786 2.3214 0 1 1 10.357 0z" fill="#dcdc65"/>
 <path transform="matrix(.68029 -.20283 .20283 .68029 -511.87 -1894.6)" d="m141.43 2874.7a5.1786 2.3214 0 1 1 -10.357 0 5.1786 2.3214 0 1 1 10.357 0z" fill="url(#b)"/>
 <path transform="matrix(.2741 .65483 -.65483 .2741 2024.4 -753.42)" d="m136.25,2871.625c-1.51821,0-2.90146.2752-3.96875.75-.53364.2374-.98798.5317-1.34375.9062s-.625.8619-.625,1.4063 .26922,1.0317.625,1.4063 .81011.6688 1.34375.9062c1.06728.4748 2.45056.7499 3.96875.75s2.90146-.2752 3.96875-.75c.53364-.2374.98798-.5317 1.34375-.9062s.625-.8619.625-1.4063-.26922-1.0317-.625-1.4063-.81011-.6688-1.34375-.9062c-1.06728-.4748-2.45056-.7499-3.96875-.75z" filter="url(#a)" opacity=".6"/>
 <path transform="matrix(.2741 .65483 -.65483 .2741 2024.4 -753.42)" d="m141.43 2874.7a5.1786 2.3214 0 1 1 -10.357 0 5.1786 2.3214 0 1 1 10.357 0z" fill="#dcdc65"/>
 <path transform="matrix(.2741 .65483 -.65483 .2741 2024.3 -753.47)" d="m141.43 2874.7a5.1786 2.3214 0 1 1 -10.357 0 5.1786 2.3214 0 1 1 10.357 0z" fill="url(#b)"/>
 <path transform="matrix(.64465 .29724 -.29724 .64465 966.43 -1782.6)" d="m136.25,2871.625c-1.51821,0-2.90146.2752-3.96875.75-.53364.2374-.98798.5317-1.34375.9062s-.625.8619-.625,1.4063 .26922,1.0317.625,1.4063 .81011.6688 1.34375.9062c1.06728.4748 2.45056.7499 3.96875.75s2.90146-.2752 3.96875-.75c.53364-.2374.98798-.5317 1.34375-.9062s.625-.8619.625-1.4063-.26922-1.0317-.625-1.4063-.81011-.6688-1.34375-.9062c-1.06728-.4748-2.45056-.7499-3.96875-.75z" filter="url(#a)" opacity=".6"/>
 <path transform="matrix(.64465 .29724 -.29724 .64465 966.43 -1782.6)" d="m141.43 2874.7a5.1786 2.3214 0 1 1 -10.357 0 5.1786 2.3214 0 1 1 10.357 0z" fill="#dcdc65"/>
 <path transform="matrix(.64465 .29724 -.29724 .64465 966.37 -1782.6)" d="m141.43 2874.7a5.1786 2.3214 0 1 1 -10.357 0 5.1786 2.3214 0 1 1 10.357 0z" fill="url(#b)"/>
 <path transform="matrix(.70977 .01251 -.01251 .70977 145.64 -1951.7)" d="m136.25,2871.625c-1.51821,0-2.90146.2752-3.96875.75-.53364.2374-.98798.5317-1.34375.9062s-.625.8619-.625,1.4063 .26922,1.0317.625,1.4063 .81011.6688 1.34375.9062c1.06728.4748 2.45056.7499 3.96875.75s2.90146-.2752 3.96875-.75c.53364-.2374.98798-.5317 1.34375-.9062s.625-.8619.625-1.4063-.26922-1.0317-.625-1.4063-.81011-.6688-1.34375-.9062c-1.06728-.4748-2.45056-.7499-3.96875-.75z" filter="url(#a)" opacity=".6"/>
 <path transform="matrix(.70977 .01251 -.01251 .70977 145.64 -1951.7)" d="m141.43 2874.7a5.1786 2.3214 0 1 1 -10.357 0 5.1786 2.3214 0 1 1 10.357 0z" fill="#dcdc65"/>
 <path transform="matrix(.70977 .01251 -.01251 .70977 145.58 -1951.7)" d="m141.43 2874.7a5.1786 2.3214 0 1 1 -10.357 0 5.1786 2.3214 0 1 1 10.357 0z" fill="url(#b)"/>
 <path transform="matrix(.04383 .70852 -.70852 .04383 2213.1 -80.241)" d="m136.25,2871.625c-1.51821,0-2.90146.2752-3.96875.75-.53364.2374-.98798.5317-1.34375.9062s-.625.8619-.625,1.4063 .26922,1.0317.625,1.4063 .81011.6688 1.34375.9062c1.06728.4748 2.45056.7499 3.96875.75s2.90146-.2752 3.96875-.75c.53364-.2374.98798-.5317 1.34375-.9062s.625-.8619.625-1.4063-.26922-1.0317-.625-1.4063-.81011-.6688-1.34375-.9062c-1.06728-.4748-2.45056-.7499-3.96875-.75z" filter="url(#a)" opacity=".6"/>
 <path transform="matrix(.04383 .70852 -.70852 .04383 2213.1 -80.241)" d="m141.43 2874.7a5.1786 2.3214 0 1 1 -10.357 0 5.1786 2.3214 0 1 1 10.357 0z" fill="#dcdc65"/>
 <path transform="matrix(.04383 .70852 -.70852 .04383 2213.1 -80.297)" d="m141.43 2874.7a5.1786 2.3214 0 1 1 -10.357 0 5.1786 2.3214 0 1 1 10.357 0z" fill="url(#b)"/>
 <path transform="matrix(.51127 .49247 -.49247 .51127 1551.8 -1399.8)" d="m136.25,2871.625c-1.51821,0-2.90146.2752-3.96875.75-.53364.2374-.98798.5317-1.34375.9062s-.625.8619-.625,1.4063 .26922,1.0317.625,1.4063 .81011.6688 1.34375.9062c1.06728.4748 2.45056.7499 3.96875.75s2.90146-.2752 3.96875-.75c.53364-.2374.98798-.5317 1.34375-.9062s.625-.8619.625-1.4063-.26922-1.0317-.625-1.4063-.81011-.6688-1.34375-.9062c-1.06728-.4748-2.45056-.7499-3.96875-.75z" filter="url(#a)" opacity=".6"/>
 <path transform="matrix(.51127 .49247 -.49247 .51127 1551.8 -1399.8)" d="m141.43 2874.7a5.1786 2.3214 0 1 1 -10.357 0 5.1786 2.3214 0 1 1 10.357 0z" fill="#dcdc65"/>
 <path transform="matrix(.51127 .49247 -.49247 .51127 1551.8 -1399.8)" d="m141.43 2874.7a5.1786 2.3214 0 1 1 -10.357 0 5.1786 2.3214 0 1 1 10.357 0z" fill="url(#b)"/>
 <path transform="matrix(.66629 .24492 -.24492 .66629 832.13 -1829.1)" d="m136.25,2871.625c-1.51821,0-2.90146.2752-3.96875.75-.53364.2374-.98798.5317-1.34375.9062s-.625.8619-.625,1.4063 .26922,1.0317.625,1.4063 .81011.6688 1.34375.9062c1.06728.4748 2.45056.7499 3.96875.75s2.90146-.2752 3.96875-.75c.53364-.2374.98798-.5317 1.34375-.9062s.625-.8619.625-1.4063-.26922-1.0317-.625-1.4063-.81011-.6688-1.34375-.9062c-1.06728-.4748-2.45056-.7499-3.96875-.75z" filter="url(#a)" opacity=".6"/>
 <path transform="matrix(.66629 .24492 -.24492 .66629 832.13 -1829.1)" d="m141.43 2874.7a5.1786 2.3214 0 1 1 -10.357 0 5.1786 2.3214 0 1 1 10.357 0z" fill="#dcdc65"/>
 <path transform="matrix(.66629 .24492 -.24492 .66629 832.07 -1829.1)" d="m141.43 2874.7a5.1786 2.3214 0 1 1 -10.357 0 5.1786 2.3214 0 1 1 10.357 0z" fill="url(#b)"/>
 <path transform="matrix(.07925 .70544 -.70544 .07925 2202.1 -161.34)" d="m136.25,2871.625c-1.51821,0-2.90146.2752-3.96875.75-.53364.2374-.98798.5317-1.34375.9062s-.625.8619-.625,1.4063 .26922,1.0317.625,1.4063 .81011.6688 1.34375.9062c1.06728.4748 2.45056.7499 3.96875.75s2.90146-.2752 3.96875-.75c.53364-.2374.98798-.5317 1.34375-.9062s.625-.8619.625-1.4063-.26922-1.0317-.625-1.4063-.81011-.6688-1.34375-.9062c-1.06728-.4748-2.45056-.7499-3.96875-.75z" filter="url(#a)" opacity=".6"/>
 <path transform="matrix(.07925 .70544 -.70544 .07925 2202.1 -161.34)" d="m141.43 2874.7a5.1786 2.3214 0 1 1 -10.357 0 5.1786 2.3214 0 1 1 10.357 0z" fill="#dcdc65"/>
 <path transform="matrix(.07925 .70544 -.70544 .07925 2202.1 -161.4)" d="m141.43 2874.7a5.1786 2.3214 0 1 1 -10.357 0 5.1786 2.3214 0 1 1 10.357 0z" fill="url(#b)"/>
 <path transform="matrix(.53529 .46626 -.46626 .53529 1475.6 -1446.1)" d="m136.25,2871.625c-1.51821,0-2.90146.2752-3.96875.75-.53364.2374-.98798.5317-1.34375.9062s-.625.8619-.625,1.4063 .26922,1.0317.625,1.4063 .81011.6688 1.34375.9062c1.06728.4748 2.45056.7499 3.96875.75s2.90146-.2752 3.96875-.75c.53364-.2374.98798-.5317 1.34375-.9062s.625-.8619.625-1.4063-.26922-1.0317-.625-1.4063-.81011-.6688-1.34375-.9062c-1.06728-.4748-2.45056-.7499-3.96875-.75z" filter="url(#a)" opacity=".6"/>
 <path transform="matrix(.53529 .46626 -.46626 .53529 1475.6 -1446.1)" d="m141.43 2874.7a5.1786 2.3214 0 1 1 -10.357 0 5.1786 2.3214 0 1 1 10.357 0z" fill="#dcdc65"/>
 <path transform="matrix(.53529 .46626 -.46626 .53529 1475.5 -1446.1)" d="m141.43 2874.7a5.1786 2.3214 0 1 1 -10.357 0 5.1786 2.3214 0 1 1 10.357 0z" fill="url(#b)"/>
 <path transform="matrix(.67772 .21126 -.21126 .67772 735.31 -1838.9)" d="m136.25,2871.625c-1.51821,0-2.90146.2752-3.96875.75-.53364.2374-.98798.5317-1.34375.9062s-.625.8619-.625,1.4063 .26922,1.0317.625,1.4063 .81011.6688 1.34375.9062c1.06728.4748 2.45056.7499 3.96875.75s2.90146-.2752 3.96875-.75c.53364-.2374.98798-.5317 1.34375-.9062s.625-.8619.625-1.4063-.26922-1.0317-.625-1.4063-.81011-.6688-1.34375-.9062c-1.06728-.4748-2.45056-.7499-3.96875-.75z" filter="url(#a)" opacity=".6"/>
 <path transform="matrix(.67772 .21126 -.21126 .67772 735.31 -1838.9)" d="m141.43 2874.7a5.1786 2.3214 0 1 1 -10.357 0 5.1786 2.3214 0 1 1 10.357 0z" fill="#dcdc65"/>
 <path transform="matrix(.67772 .21126 -.21126 .67772 735.25 -1838.9)" d="m141.43 2874.7a5.1786 2.3214 0 1 1 -10.357 0 5.1786 2.3214 0 1 1 10.357 0z" fill="url(#j)"/>
 <path transform="matrix(-.70756 -.05739 .05739 -.70756 79.493 2213.1)" d="m136.25,2871.625c-1.51821,0-2.90146.2752-3.96875.75-.53364.2374-.98798.5317-1.34375.9062s-.625.8619-.625,1.4063 .26922,1.0317.625,1.4063 .81011.6688 1.34375.9062c1.06728.4748 2.45056.7499 3.96875.75s2.90146-.2752 3.96875-.75c.53364-.2374.98798-.5317 1.34375-.9062s.625-.8619.625-1.4063-.26922-1.0317-.625-1.4063-.81011-.6688-1.34375-.9062c-1.06728-.4748-2.45056-.7499-3.96875-.75z" filter="url(#a)" opacity=".6"/>
 <path transform="matrix(-.70756 -.05739 .05739 -.70756 79.493 2213.1)" d="m141.43 2874.7a5.1786 2.3214 0 1 1 -10.357 0 5.1786 2.3214 0 1 1 10.357 0z" fill="#dcdc65"/>
 <path transform="matrix(-.70756 -.05739 .05739 -.70756 79.552 2213.1)" d="m141.43 2874.7a5.1786 2.3214 0 1 1 -10.357 0 5.1786 2.3214 0 1 1 10.357 0z" fill="url(#b)"/>
 <path transform="matrix(-.67077 .23236 -.23236 -.67077 908.39 2089.7)" d="m136.25,2871.625c-1.51821,0-2.90146.2752-3.96875.75-.53364.2374-.98798.5317-1.34375.9062s-.625.8619-.625,1.4063 .26922,1.0317.625,1.4063 .81011.6688 1.34375.9062c1.06728.4748 2.45056.7499 3.96875.75s2.90146-.2752 3.96875-.75c.53364-.2374.98798-.5317 1.34375-.9062s.625-.8619.625-1.4063-.26922-1.0317-.625-1.4063-.81011-.6688-1.34375-.9062c-1.06728-.4748-2.45056-.7499-3.96875-.75z" filter="url(#a)" opacity=".6"/>
 <path transform="matrix(-.67077 .23236 -.23236 -.67077 908.39 2089.7)" d="m141.43 2874.7a5.1786 2.3214 0 1 1 -10.357 0 5.1786 2.3214 0 1 1 10.357 0z" fill="#dcdc65"/>
 <path transform="matrix(-.67077 .23236 -.23236 -.67077 908.44 2089.6)" d="m141.43 2874.7a5.1786 2.3214 0 1 1 -10.357 0 5.1786 2.3214 0 1 1 10.357 0z" fill="url(#b)"/>
 <path transform="matrix(-.30245 -.64222 .64222 -.30245 -1658.4 1084.1)" d="m136.25,2871.625c-1.51821,0-2.90146.2752-3.96875.75-.53364.2374-.98798.5317-1.34375.9062s-.625.8619-.625,1.4063 .26922,1.0317.625,1.4063 .81011.6688 1.34375.9062c1.06728.4748 2.45056.7499 3.96875.75s2.90146-.2752 3.96875-.75c.53364-.2374.98798-.5317 1.34375-.9062s.625-.8619.625-1.4063-.26922-1.0317-.625-1.4063-.81011-.6688-1.34375-.9062c-1.06728-.4748-2.45056-.7499-3.96875-.75z" filter="url(#a)" opacity=".6"/>
 <path transform="matrix(-.30245 -.64222 .64222 -.30245 -1658.4 1084.1)" d="m141.43 2874.7a5.1786 2.3214 0 1 1 -10.357 0 5.1786 2.3214 0 1 1 10.357 0z" fill="#dcdc65"/>
 <path transform="matrix(-.30245 -.64222 .64222 -.30245 -1658.4 1084.1)" d="m141.43 2874.7a5.1786 2.3214 0 1 1 -10.357 0 5.1786 2.3214 0 1 1 10.357 0z" fill="url(#i)"/>
 <path transform="matrix(-.65703 -.26878 .26878 -.65703 -556.52 2066)" d="m136.25,2871.625c-1.51821,0-2.90146.2752-3.96875.75-.53364.2374-.98798.5317-1.34375.9062s-.625.8619-.625,1.4063 .26922,1.0317.625,1.4063 .81011.6688 1.34375.9062c1.06728.4748 2.45056.7499 3.96875.75s2.90146-.2752 3.96875-.75c.53364-.2374.98798-.5317 1.34375-.9062s.625-.8619.625-1.4063-.26922-1.0317-.625-1.4063-.81011-.6688-1.34375-.9062c-1.06728-.4748-2.45056-.7499-3.96875-.75z" filter="url(#a)" opacity=".6"/>
 <path transform="matrix(-.65703 -.26878 .26878 -.65703 -556.52 2066)" d="m141.43 2874.7a5.1786 2.3214 0 1 1 -10.357 0 5.1786 2.3214 0 1 1 10.357 0z" fill="#dcdc65"/>
 <path transform="matrix(-.65703 -.26878 .26878 -.65703 -556.45 2066)" d="m141.43 2874.7a5.1786 2.3214 0 1 1 -10.357 0 5.1786 2.3214 0 1 1 10.357 0z" fill="url(#b)"/>
 <path transform="matrix(-.70964 .01852 -.01852 -.70964 270.88 2199.1)" d="m136.25,2871.625c-1.51821,0-2.90146.2752-3.96875.75-.53364.2374-.98798.5317-1.34375.9062s-.625.8619-.625,1.4063 .26922,1.0317.625,1.4063 .81011.6688 1.34375.9062c1.06728.4748 2.45056.7499 3.96875.75s2.90146-.2752 3.96875-.75c.53364-.2374.98798-.5317 1.34375-.9062s.625-.8619.625-1.4063-.26922-1.0317-.625-1.4063-.81011-.6688-1.34375-.9062c-1.06728-.4748-2.45056-.7499-3.96875-.75z" filter="url(#a)" opacity=".6"/>
 <path transform="matrix(-.70964 .01852 -.01852 -.70964 270.88 2199.1)" d="m141.43 2874.7a5.1786 2.3214 0 1 1 -10.357 0 5.1786 2.3214 0 1 1 10.357 0z" fill="#dcdc65"/>
 <path transform="matrix(-.70964 .01852 -.01852 -.70964 270.94 2199.1)" d="m141.43 2874.7a5.1786 2.3214 0 1 1 -10.357 0 5.1786 2.3214 0 1 1 10.357 0z" fill="url(#b)"/>
 <path transform="matrix(-.07475 -.70593 .70593 -.07475 -1876.4 419.77)" d="m136.25,2871.625c-1.51821,0-2.90146.2752-3.96875.75-.53364.2374-.98798.5317-1.34375.9062s-.625.8619-.625,1.4063 .26922,1.0317.625,1.4063 .81011.6688 1.34375.9062c1.06728.4748 2.45056.7499 3.96875.75s2.90146-.2752 3.96875-.75c.53364-.2374.98798-.5317 1.34375-.9062s.625-.8619.625-1.4063-.26922-1.0317-.625-1.4063-.81011-.6688-1.34375-.9062c-1.06728-.4748-2.45056-.7499-3.96875-.75z" filter="url(#a)" opacity=".6"/>
 <path transform="matrix(-.07475 -.70593 .70593 -.07475 -1876.4 419.77)" d="m141.43 2874.7a5.1786 2.3214 0 1 1 -10.357 0 5.1786 2.3214 0 1 1 10.357 0z" fill="#dcdc65"/>
 <path transform="matrix(-.07475 -.70593 .70593 -.07475 -1876.3 419.82)" d="m141.43 2874.7a5.1786 2.3214 0 1 1 -10.357 0 5.1786 2.3214 0 1 1 10.357 0z" fill="url(#b)"/>
 <path transform="matrix(-.53231 -.46966 .46966 -.53231 -1158.1 1709.1)" d="m136.25,2871.625c-1.51821,0-2.90146.2752-3.96875.75-.53364.2374-.98798.5317-1.34375.9062s-.625.8619-.625,1.4063 .26922,1.0317.625,1.4063 .81011.6688 1.34375.9062c1.06728.4748 2.45056.7499 3.96875.75s2.90146-.2752 3.96875-.75c.53364-.2374.98798-.5317 1.34375-.9062s.625-.8619.625-1.4063-.26922-1.0317-.625-1.4063-.81011-.6688-1.34375-.9062c-1.06728-.4748-2.45056-.7499-3.96875-.75z" filter="url(#a)" opacity=".6"/>
 <path transform="matrix(-.53231 -.46966 .46966 -.53231 -1158.1 1709.1)" d="m141.43 2874.7a5.1786 2.3214 0 1 1 -10.357 0 5.1786 2.3214 0 1 1 10.357 0z" fill="#dcdc65"/>
 <path transform="matrix(-.53231 -.46966 .46966 -.53231 -1158 1709.1)" d="m141.43 2874.7a5.1786 2.3214 0 1 1 -10.357 0 5.1786 2.3214 0 1 1 10.357 0z" fill="url(#b)"/>
 <path transform="matrix(-.67636 -.21557 .21557 -.67636 -420.32 2106.6)" d="m136.25,2871.625c-1.51821,0-2.90146.2752-3.96875.75-.53364.2374-.98798.5317-1.34375.9062s-.625.8619-.625,1.4063 .26922,1.0317.625,1.4063 .81011.6688 1.34375.9062c1.06728.4748 2.45056.7499 3.96875.75s2.90146-.2752 3.96875-.75c.53364-.2374.98798-.5317 1.34375-.9062s.625-.8619.625-1.4063-.26922-1.0317-.625-1.4063-.81011-.6688-1.34375-.9062c-1.06728-.4748-2.45056-.7499-3.96875-.75z" filter="url(#a)" opacity=".6"/>
 <path transform="matrix(-.67636 -.21557 .21557 -.67636 -420.32 2106.6)" d="m141.43 2874.7a5.1786 2.3214 0 1 1 -10.357 0 5.1786 2.3214 0 1 1 10.357 0z" fill="#dcdc65"/>
 <path transform="matrix(-.67636 -.21557 .21557 -.67636 -420.25 2106.6)" d="m141.43 2874.7a5.1786 2.3214 0 1 1 -10.357 0 5.1786 2.3214 0 1 1 10.357 0z" fill="url(#b)"/>
 <path transform="matrix(-.11 -.70131 .70131 -.11 -1861.8 500.31)" d="m136.25,2871.625c-1.51821,0-2.90146.2752-3.96875.75-.53364.2374-.98798.5317-1.34375.9062s-.625.8619-.625,1.4063 .26922,1.0317.625,1.4063 .81011.6688 1.34375.9062c1.06728.4748 2.45056.7499 3.96875.75s2.90146-.2752 3.96875-.75c.53364-.2374.98798-.5317 1.34375-.9062s.625-.8619.625-1.4063-.26922-1.0317-.625-1.4063-.81011-.6688-1.34375-.9062c-1.06728-.4748-2.45056-.7499-3.96875-.75z" filter="url(#a)" opacity=".6"/>
 <path transform="matrix(-.11 -.70131 .70131 -.11 -1861.8 500.31)" d="m141.43 2874.7a5.1786 2.3214 0 1 1 -10.357 0 5.1786 2.3214 0 1 1 10.357 0z" fill="#dcdc65"/>
 <path transform="matrix(-.11 -.70131 .70131 -.11 -1861.8 500.36)" d="m141.43 2874.7a5.1786 2.3214 0 1 1 -10.357 0 5.1786 2.3214 0 1 1 10.357 0z" fill="url(#b)"/>
 <path transform="matrix(-.55515 -.44242 .44242 -.55515 -1079.9 1752.1)" d="m136.25,2871.625c-1.51821,0-2.90146.2752-3.96875.75-.53364.2374-.98798.5317-1.34375.9062s-.625.8619-.625,1.4063 .26922,1.0317.625,1.4063 .81011.6688 1.34375.9062c1.06728.4748 2.45056.7499 3.96875.75s2.90146-.2752 3.96875-.75c.53364-.2374.98798-.5317 1.34375-.9062s.625-.8619.625-1.4063-.26922-1.0317-.625-1.4063-.81011-.6688-1.34375-.9062c-1.06728-.4748-2.45056-.7499-3.96875-.75z" filter="url(#a)" opacity=".6"/>
 <path transform="matrix(-.55515 -.44242 .44242 -.55515 -1079.9 1752.1)" d="m141.43 2874.7a5.1786 2.3214 0 1 1 -10.357 0 5.1786 2.3214 0 1 1 10.357 0z" fill="#dcdc65"/>
 <path transform="matrix(-.55515 -.44242 .44242 -.55515 -1079.8 1752.1)" d="m141.43 2874.7a5.1786 2.3214 0 1 1 -10.357 0 5.1786 2.3214 0 1 1 10.357 0z" fill="url(#b)"/>
 <path transform="matrix(-.6863 -.18144 .18144 -.6863 -323.16 2112.2)" d="m136.25,2871.625c-1.51821,0-2.90146.2752-3.96875.75-.53364.2374-.98798.5317-1.34375.9062s-.625.8619-.625,1.4063 .26922,1.0317.625,1.4063 .81011.6688 1.34375.9062c1.06728.4748 2.45056.7499 3.96875.75s2.90146-.2752 3.96875-.75c.53364-.2374.98798-.5317 1.34375-.9062s.625-.8619.625-1.4063-.26922-1.0317-.625-1.4063-.81011-.6688-1.34375-.9062c-1.06728-.4748-2.45056-.7499-3.96875-.75z" filter="url(#a)" opacity=".6"/>
 <path transform="matrix(-.6863 -.18144 .18144 -.6863 -323.16 2112.2)" d="m141.43 2874.7a5.1786 2.3214 0 1 1 -10.357 0 5.1786 2.3214 0 1 1 10.357 0z" fill="#dcdc65"/>
 <path transform="matrix(-.6863 -.18144 .18144 -.6863 -323.1 2112.1)" d="m141.43 2874.7a5.1786 2.3214 0 1 1 -10.357 0 5.1786 2.3214 0 1 1 10.357 0z" fill="url(#b)"/>
 <path transform="matrix(-.23704 .66914 -.66914 -.23704 1991.8 701.61)" d="m136.25,2871.625c-1.51821,0-2.90146.2752-3.96875.75-.53364.2374-.98798.5317-1.34375.9062s-.625.8619-.625,1.4063 .26922,1.0317.625,1.4063 .81011.6688 1.34375.9062c1.06728.4748 2.45056.7499 3.96875.75s2.90146-.2752 3.96875-.75c.53364-.2374.98798-.5317 1.34375-.9062s.625-.8619.625-1.4063-.26922-1.0317-.625-1.4063-.81011-.6688-1.34375-.9062c-1.06728-.4748-2.45056-.7499-3.96875-.75z" filter="url(#a)" opacity=".6"/>
 <path transform="matrix(-.23704 .66914 -.66914 -.23704 1991.8 701.61)" d="m141.43 2874.7a5.1786 2.3214 0 1 1 -10.357 0 5.1786 2.3214 0 1 1 10.357 0z" fill="#dcdc65"/>
 <path transform="matrix(-.23704 .66914 -.66914 -.23704 1991.8 701.54)" d="m141.43 2874.7a5.1786 2.3214 0 1 1 -10.357 0 5.1786 2.3214 0 1 1 10.357 0z" fill="url(#b)"/>
 <path transform="matrix(.27768 .65332 -.65332 .27768 1899.9 -771.46)" d="m136.25,2871.625c-1.51821,0-2.90146.2752-3.96875.75-.53364.2374-.98798.5317-1.34375.9062s-.625.8619-.625,1.4063 .26922,1.0317.625,1.4063 .81011.6688 1.34375.9062c1.06728.4748 2.45056.7499 3.96875.75s2.90146-.2752 3.96875-.75c.53364-.2374.98798-.5317 1.34375-.9062s.625-.8619.625-1.4063-.26922-1.0317-.625-1.4063-.81011-.6688-1.34375-.9062c-1.06728-.4748-2.45056-.7499-3.96875-.75z" filter="url(#a)" opacity=".6"/>
 <path transform="matrix(.27768 .65332 -.65332 .27768 1899.9 -771.46)" d="m141.43 2874.7a5.1786 2.3214 0 1 1 -10.357 0 5.1786 2.3214 0 1 1 10.357 0z" fill="#dcdc65"/>
 <path transform="matrix(.27768 .65332 -.65332 .27768 1899.8 -771.51)" d="m141.43 2874.7a5.1786 2.3214 0 1 1 -10.357 0 5.1786 2.3214 0 1 1 10.357 0z" fill="url(#b)"/>
 <path transform="matrix(.51723 .48621 -.48621 .51723 1405.7 -1448.3)" d="m136.25,2871.625c-1.51821,0-2.90146.2752-3.96875.75-.53364.2374-.98798.5317-1.34375.9062s-.625.8619-.625,1.4063 .26922,1.0317.625,1.4063 .81011.6688 1.34375.9062c1.06728.4748 2.45056.7499 3.96875.75s2.90146-.2752 3.96875-.75c.53364-.2374.98798-.5317 1.34375-.9062s.625-.8619.625-1.4063-.26922-1.0317-.625-1.4063-.81011-.6688-1.34375-.9062c-1.06728-.4748-2.45056-.7499-3.96875-.75z" filter="url(#a)" opacity=".6"/>
 <path transform="matrix(.51723 .48621 -.48621 .51723 1405.7 -1448.3)" d="m141.43 2874.7a5.1786 2.3214 0 1 1 -10.357 0 5.1786 2.3214 0 1 1 10.357 0z" fill="#dcdc65"/>
 <path transform="matrix(.51723 .48621 -.48621 .51723 1405.7 -1448.3)" d="m141.43 2874.7a5.1786 2.3214 0 1 1 -10.357 0 5.1786 2.3214 0 1 1 10.357 0z" fill="url(#b)"/>
 <path transform="matrix(.27768 .65332 -.65332 .27768 1904.9 -722.94)" d="m136.25,2871.625c-1.51821,0-2.90146.2752-3.96875.75-.53364.2374-.98798.5317-1.34375.9062s-.625.8619-.625,1.4063 .26922,1.0317.625,1.4063 .81011.6688 1.34375.9062c1.06728.4748 2.45056.7499 3.96875.75s2.90146-.2752 3.96875-.75c.53364-.2374.98798-.5317 1.34375-.9062s.625-.8619.625-1.4063-.26922-1.0317-.625-1.4063-.81011-.6688-1.34375-.9062c-1.06728-.4748-2.45056-.7499-3.96875-.75z" filter="url(#a)" opacity=".6"/>
 <path transform="matrix(.27768 .65332 -.65332 .27768 1904.9 -722.94)" d="m141.43 2874.7a5.1786 2.3214 0 1 1 -10.357 0 5.1786 2.3214 0 1 1 10.357 0z" fill="#dcdc65"/>
 <path transform="matrix(.27768 .65332 -.65332 .27768 1904.8 -722.98)" d="m141.43 2874.7a5.1786 2.3214 0 1 1 -10.357 0 5.1786 2.3214 0 1 1 10.357 0z" fill="url(#b)"/>
 <path transform="matrix(.51723 .48621 -.48621 .51723 1410.7 -1399.8)" d="m136.25,2871.625c-1.51821,0-2.90146.2752-3.96875.75-.53364.2374-.98798.5317-1.34375.9062s-.625.8619-.625,1.4063 .26922,1.0317.625,1.4063 .81011.6688 1.34375.9062c1.06728.4748 2.45056.7499 3.96875.75s2.90146-.2752 3.96875-.75c.53364-.2374.98798-.5317 1.34375-.9062s.625-.8619.625-1.4063-.26922-1.0317-.625-1.4063-.81011-.6688-1.34375-.9062c-1.06728-.4748-2.45056-.7499-3.96875-.75z" filter="url(#a)" opacity=".6"/>
 <path transform="matrix(.51723 .48621 -.48621 .51723 1410.7 -1399.8)" d="m141.43 2874.7a5.1786 2.3214 0 1 1 -10.357 0 5.1786 2.3214 0 1 1 10.357 0z" fill="#dcdc65"/>
 <path transform="matrix(.51723 .48621 -.48621 .51723 1410.6 -1399.8)" d="m141.43 2874.7a5.1786 2.3214 0 1 1 -10.357 0 5.1786 2.3214 0 1 1 10.357 0z" fill="url(#b)"/>
 <path transform="matrix(-.23704 .66914 -.66914 -.23704 2010 724.24)" d="m136.25,2871.625c-1.51821,0-2.90146.2752-3.96875.75-.53364.2374-.98798.5317-1.34375.9062s-.625.8619-.625,1.4063 .26922,1.0317.625,1.4063 .81011.6688 1.34375.9062c1.06728.4748 2.45056.7499 3.96875.75s2.90146-.2752 3.96875-.75c.53364-.2374.98798-.5317 1.34375-.9062s.625-.8619.625-1.4063-.26922-1.0317-.625-1.4063-.81011-.6688-1.34375-.9062c-1.06728-.4748-2.45056-.7499-3.96875-.75z" filter="url(#a)" opacity=".6"/>
 <path transform="matrix(-.23704 .66914 -.66914 -.23704 2010 724.24)" d="m141.43 2874.7a5.1786 2.3214 0 1 1 -10.357 0 5.1786 2.3214 0 1 1 10.357 0z" fill="#dcdc65"/>
 <path transform="matrix(-.23704 .66914 -.66914 -.23704 2009.9 724.18)" d="m141.43 2874.7a5.1786 2.3214 0 1 1 -10.357 0 5.1786 2.3214 0 1 1 10.357 0z" fill="url(#b)"/>
 <path transform="matrix(.27768 .65332 -.65332 .27768 1918 -748.83)" d="m136.25,2871.625c-1.51821,0-2.90146.2752-3.96875.75-.53364.2374-.98798.5317-1.34375.9062s-.625.8619-.625,1.4063 .26922,1.0317.625,1.4063 .81011.6688 1.34375.9062c1.06728.4748 2.45056.7499 3.96875.75s2.90146-.2752 3.96875-.75c.53364-.2374.98798-.5317 1.34375-.9062s.625-.8619.625-1.4063-.26922-1.0317-.625-1.4063-.81011-.6688-1.34375-.9062c-1.06728-.4748-2.45056-.7499-3.96875-.75z" filter="url(#a)" opacity=".6"/>
 <path transform="matrix(.27768 .65332 -.65332 .27768 1918 -748.83)" d="m141.43 2874.7a5.1786 2.3214 0 1 1 -10.357 0 5.1786 2.3214 0 1 1 10.357 0z" fill="#dcdc65"/>
 <path transform="matrix(.27768 .65332 -.65332 .27768 1918 -748.87)" d="m141.43 2874.7a5.1786 2.3214 0 1 1 -10.357 0 5.1786 2.3214 0 1 1 10.357 0z" fill="url(#b)"/>
 <path transform="matrix(.51723 .48621 -.48621 .51723 1423.9 -1425.7)" d="m136.25,2871.625c-1.51821,0-2.90146.2752-3.96875.75-.53364.2374-.98798.5317-1.34375.9062s-.625.8619-.625,1.4063 .26922,1.0317.625,1.4063 .81011.6688 1.34375.9062c1.06728.4748 2.45056.7499 3.96875.75s2.90146-.2752 3.96875-.75c.53364-.2374.98798-.5317 1.34375-.9062s.625-.8619.625-1.4063-.26922-1.0317-.625-1.4063-.81011-.6688-1.34375-.9062c-1.06728-.4748-2.45056-.7499-3.96875-.75z" filter="url(#a)" opacity=".6"/>
 <path transform="matrix(.51723 .48621 -.48621 .51723 1423.9 -1425.7)" d="m141.43 2874.7a5.1786 2.3214 0 1 1 -10.357 0 5.1786 2.3214 0 1 1 10.357 0z" fill="#dcdc65"/>
 <path transform="matrix(.51723 .48621 -.48621 .51723 1423.8 -1425.7)" d="m141.43 2874.7a5.1786 2.3214 0 1 1 -10.357 0 5.1786 2.3214 0 1 1 10.357 0z" fill="url(#b)"/>
 <path transform="matrix(.45938 .5412 -.5412 .45938 1649.2 -1250.5)" d="m136.25,2871.625c-1.51821,0-2.90146.2752-3.96875.75-.53364.2374-.98798.5317-1.34375.9062s-.625.8619-.625,1.4063 .26922,1.0317.625,1.4063 .81011.6688 1.34375.9062c1.06728.4748 2.45056.7499 3.96875.75s2.90146-.2752 3.96875-.75c.53364-.2374.98798-.5317 1.34375-.9062s.625-.8619.625-1.4063-.26922-1.0317-.625-1.4063-.81011-.6688-1.34375-.9062c-1.06728-.4748-2.45056-.7499-3.96875-.75z" filter="url(#a)" opacity=".6"/>
 <path transform="matrix(.45938 .5412 -.5412 .45938 1649.2 -1250.5)" d="m141.43 2874.7a5.1786 2.3214 0 1 1 -10.357 0 5.1786 2.3214 0 1 1 10.357 0z" fill="#dcdc65"/>
 <path transform="matrix(.45938 .5412 -.5412 .45938 1649.1 -1250.6)" d="m141.43 2874.7a5.1786 2.3214 0 1 1 -10.357 0 5.1786 2.3214 0 1 1 10.357 0z" fill="url(#b)"/>
 <path transform="matrix(.70437 .08826 -.08826 .70437 329.43 -1911.4)" d="m136.25,2871.625c-1.51821,0-2.90146.2752-3.96875.75-.53364.2374-.98798.5317-1.34375.9062s-.625.8619-.625,1.4063 .26922,1.0317.625,1.4063 .81011.6688 1.34375.9062c1.06728.4748 2.45056.7499 3.96875.75s2.90146-.2752 3.96875-.75c.53364-.2374.98798-.5317 1.34375-.9062s.625-.8619.625-1.4063-.26922-1.0317-.625-1.4063-.81011-.6688-1.34375-.9062c-1.06728-.4748-2.45056-.7499-3.96875-.75z" filter="url(#a)" opacity=".6"/>
 <path transform="matrix(.70437 .08826 -.08826 .70437 329.43 -1911.4)" d="m141.43 2874.7a5.1786 2.3214 0 1 1 -10.357 0 5.1786 2.3214 0 1 1 10.357 0z" fill="#dcdc65"/>
 <path transform="matrix(.70437 .08826 -.08826 .70437 329.37 -1911.3)" d="m141.43 2874.7a5.1786 2.3214 0 1 1 -10.357 0 5.1786 2.3214 0 1 1 10.357 0z" fill="url(#b)"/>
 <path transform="matrix(.68029 -.20283 .20283 .68029 -504.07 -1824.3)" d="m136.25,2871.625c-1.51821,0-2.90146.2752-3.96875.75-.53364.2374-.98798.5317-1.34375.9062s-.625.8619-.625,1.4063 .26922,1.0317.625,1.4063 .81011.6688 1.34375.9062c1.06728.4748 2.45056.7499 3.96875.75s2.90146-.2752 3.96875-.75c.53364-.2374.98798-.5317 1.34375-.9062s.625-.8619.625-1.4063-.26922-1.0317-.625-1.4063-.81011-.6688-1.34375-.9062c-1.06728-.4748-2.45056-.7499-3.96875-.75z" filter="url(#a)" opacity=".6"/>
 <path transform="matrix(.68029 -.20283 .20283 .68029 -504.07 -1824.3)" d="m141.43 2874.7a5.1786 2.3214 0 1 1 -10.357 0 5.1786 2.3214 0 1 1 10.357 0z" fill="#dcdc65"/>
 <path transform="matrix(.68029 -.20283 .20283 .68029 -504.12 -1824.2)" d="m141.43 2874.7a5.1786 2.3214 0 1 1 -10.357 0 5.1786 2.3214 0 1 1 10.357 0z" fill="url(#b)"/>
 <path transform="matrix(.45938 .5412 -.5412 .45938 1688.2 -1259)" d="m136.25,2871.625c-1.51821,0-2.90146.2752-3.96875.75-.53364.2374-.98798.5317-1.34375.9062s-.625.8619-.625,1.4063 .26922,1.0317.625,1.4063 .81011.6688 1.34375.9062c1.06728.4748 2.45056.7499 3.96875.75s2.90146-.2752 3.96875-.75c.53364-.2374.98798-.5317 1.34375-.9062s.625-.8619.625-1.4063-.26922-1.0317-.625-1.4063-.81011-.6688-1.34375-.9062c-1.06728-.4748-2.45056-.7499-3.96875-.75z" filter="url(#a)" opacity=".6"/>
 <path transform="matrix(.45938 .5412 -.5412 .45938 1688.2 -1259)" d="m141.43 2874.7a5.1786 2.3214 0 1 1 -10.357 0 5.1786 2.3214 0 1 1 10.357 0z" fill="#dcdc65"/>
 <path transform="matrix(.45938 .5412 -.5412 .45938 1688.1 -1259)" d="m141.43 2874.7a5.1786 2.3214 0 1 1 -10.357 0 5.1786 2.3214 0 1 1 10.357 0z" fill="url(#b)"/>
 <path transform="matrix(-.53231 -.46966 .46966 -.53231 -1082.6 1766.7)" d="m136.25,2871.625c-1.51821,0-2.90146.2752-3.96875.75-.53364.2374-.98798.5317-1.34375.9062s-.625.8619-.625,1.4063 .26922,1.0317.625,1.4063 .81011.6688 1.34375.9062c1.06728.4748 2.45056.7499 3.96875.75s2.90146-.2752 3.96875-.75c.53364-.2374.98798-.5317 1.34375-.9062s.625-.8619.625-1.4063-.26922-1.0317-.625-1.4063-.81011-.6688-1.34375-.9062c-1.06728-.4748-2.45056-.7499-3.96875-.75z" filter="url(#a)" opacity=".6"/>
 <path transform="matrix(-.53231 -.46966 .46966 -.53231 -1082.6 1766.7)" d="m141.43 2874.7a5.1786 2.3214 0 1 1 -10.357 0 5.1786 2.3214 0 1 1 10.357 0z" fill="#dcdc65"/>
 <path transform="matrix(-.53231 -.46966 .46966 -.53231 -1082.6 1766.8)" d="m141.43 2874.7a5.1786 2.3214 0 1 1 -10.357 0 5.1786 2.3214 0 1 1 10.357 0z" fill="url(#b)"/>
 <path transform="matrix(-.55515 -.44242 .44242 -.55515 -1004.4 1809.7)" d="m136.25,2871.625c-1.51821,0-2.90146.2752-3.96875.75-.53364.2374-.98798.5317-1.34375.9062s-.625.8619-.625,1.4063 .26922,1.0317.625,1.4063 .81011.6688 1.34375.9062c1.06728.4748 2.45056.7499 3.96875.75s2.90146-.2752 3.96875-.75c.53364-.2374.98798-.5317 1.34375-.9062s.625-.8619.625-1.4063-.26922-1.0317-.625-1.4063-.81011-.6688-1.34375-.9062c-1.06728-.4748-2.45056-.7499-3.96875-.75z" filter="url(#a)" opacity=".6"/>
 <path transform="matrix(-.55515 -.44242 .44242 -.55515 -1004.4 1809.7)" d="m141.43 2874.7a5.1786 2.3214 0 1 1 -10.357 0 5.1786 2.3214 0 1 1 10.357 0z" fill="#dcdc65"/>
 <path transform="matrix(-.55515 -.44242 .44242 -.55515 -1004.4 1809.7)" d="m141.43 2874.7a5.1786 2.3214 0 1 1 -10.357 0 5.1786 2.3214 0 1 1 10.357 0z" fill="url(#b)"/>
 <path transform="matrix(-.6863 -.18144 .18144 -.6863 -247.69 2169.8)" d="m136.25,2871.625c-1.51821,0-2.90146.2752-3.96875.75-.53364.2374-.98798.5317-1.34375.9062s-.625.8619-.625,1.4063 .26922,1.0317.625,1.4063 .81011.6688 1.34375.9062c1.06728.4748 2.45056.7499 3.96875.75s2.90146-.2752 3.96875-.75c.53364-.2374.98798-.5317 1.34375-.9062s.625-.8619.625-1.4063-.26922-1.0317-.625-1.4063-.81011-.6688-1.34375-.9062c-1.06728-.4748-2.45056-.7499-3.96875-.75z" filter="url(#a)" opacity=".6"/>
 <path transform="matrix(-.6863 -.18144 .18144 -.6863 -247.69 2169.8)" d="m141.43 2874.7a5.1786 2.3214 0 1 1 -10.357 0 5.1786 2.3214 0 1 1 10.357 0z" fill="#dcdc65"/>
 <path transform="matrix(-.6863 -.18144 .18144 -.6863 -247.63 2169.8)" d="m141.43 2874.7a5.1786 2.3214 0 1 1 -10.357 0 5.1786 2.3214 0 1 1 10.357 0z" fill="url(#b)"/>
 <path transform="matrix(.51723 .48621 -.48621 .51723 1481.2 -1390.7)" d="m136.25,2871.625c-1.51821,0-2.90146.2752-3.96875.75-.53364.2374-.98798.5317-1.34375.9062s-.625.8619-.625,1.4063 .26922,1.0317.625,1.4063 .81011.6688 1.34375.9062c1.06728.4748 2.45056.7499 3.96875.75s2.90146-.2752 3.96875-.75c.53364-.2374.98798-.5317 1.34375-.9062s.625-.8619.625-1.4063-.26922-1.0317-.625-1.4063-.81011-.6688-1.34375-.9062c-1.06728-.4748-2.45056-.7499-3.96875-.75z" filter="url(#a)" opacity=".6"/>
 <path transform="matrix(.51723 .48621 -.48621 .51723 1481.2 -1390.7)" d="m141.43 2874.7a5.1786 2.3214 0 1 1 -10.357 0 5.1786 2.3214 0 1 1 10.357 0z" fill="#dcdc65"/>
 <path transform="matrix(.51723 .48621 -.48621 .51723 1481.1 -1390.7)" d="m141.43 2874.7a5.1786 2.3214 0 1 1 -10.357 0 5.1786 2.3214 0 1 1 10.357 0z" fill="url(#b)"/>
 <path transform="matrix(.45938 .5412 -.5412 .45938 1620.6 -1221.8)" d="m136.25,2871.625c-1.51821,0-2.90146.2752-3.96875.75-.53364.2374-.98798.5317-1.34375.9062s-.625.8619-.625,1.4063 .26922,1.0317.625,1.4063 .81011.6688 1.34375.9062c1.06728.4748 2.45056.7499 3.96875.75s2.90146-.2752 3.96875-.75c.53364-.2374.98798-.5317 1.34375-.9062s.625-.8619.625-1.4063-.26922-1.0317-.625-1.4063-.81011-.6688-1.34375-.9062c-1.06728-.4748-2.45056-.7499-3.96875-.75z" filter="url(#a)" opacity=".6"/>
 <path transform="matrix(.45938 .5412 -.5412 .45938 1620.6 -1221.8)" d="m141.43 2874.7a5.1786 2.3214 0 1 1 -10.357 0 5.1786 2.3214 0 1 1 10.357 0z" fill="#dcdc65"/>
 <path transform="matrix(.45938 .5412 -.5412 .45938 1620.6 -1221.9)" d="m141.43 2874.7a5.1786 2.3214 0 1 1 -10.357 0 5.1786 2.3214 0 1 1 10.357 0z" fill="url(#b)"/>
 <path transform="matrix(.70437 .08826 -.08826 .70437 300.88 -1882.7)" d="m136.25,2871.625c-1.51821,0-2.90146.2752-3.96875.75-.53364.2374-.98798.5317-1.34375.9062s-.625.8619-.625,1.4063 .26922,1.0317.625,1.4063 .81011.6688 1.34375.9062c1.06728.4748 2.45056.7499 3.96875.75s2.90146-.2752 3.96875-.75c.53364-.2374.98798-.5317 1.34375-.9062s.625-.8619.625-1.4063-.26922-1.0317-.625-1.4063-.81011-.6688-1.34375-.9062c-1.06728-.4748-2.45056-.7499-3.96875-.75z" filter="url(#a)" opacity=".6"/>
 <path transform="matrix(.70437 .08826 -.08826 .70437 300.88 -1882.7)" d="m141.43 2874.7a5.1786 2.3214 0 1 1 -10.357 0 5.1786 2.3214 0 1 1 10.357 0z" fill="#dcdc65"/>
 <path transform="matrix(.70437 .08826 -.08826 .70437 300.82 -1882.6)" d="m141.43 2874.7a5.1786 2.3214 0 1 1 -10.357 0 5.1786 2.3214 0 1 1 10.357 0z" fill="url(#b)"/>
 <path transform="matrix(.45938 .5412 -.5412 .45938 1604.8 -1246.2)" d="m136.25,2871.625c-1.51821,0-2.90146.2752-3.96875.75-.53364.2374-.98798.5317-1.34375.9062s-.625.8619-.625,1.4063 .26922,1.0317.625,1.4063 .81011.6688 1.34375.9062c1.06728.4748 2.45056.7499 3.96875.75s2.90146-.2752 3.96875-.75c.53364-.2374.98798-.5317 1.34375-.9062s.625-.8619.625-1.4063-.26922-1.0317-.625-1.4063-.81011-.6688-1.34375-.9062c-1.06728-.4748-2.45056-.7499-3.96875-.75z" filter="url(#a)" opacity=".6"/>
 <path transform="matrix(.45938 .5412 -.5412 .45938 1604.8 -1246.2)" d="m141.43 2874.7a5.1786 2.3214 0 1 1 -10.357 0 5.1786 2.3214 0 1 1 10.357 0z" fill="#dcdc65"/>
 <path transform="matrix(.45938 .5412 -.5412 .45938 1604.8 -1246.3)" d="m141.43 2874.7a5.1786 2.3214 0 1 1 -10.357 0 5.1786 2.3214 0 1 1 10.357 0z" fill="url(#b)"/>
 <path transform="matrix(.64465 .29724 -.29724 .64465 929.86 -1707.9)" d="m136.25,2871.625c-1.51821,0-2.90146.2752-3.96875.75-.53364.2374-.98798.5317-1.34375.9062s-.625.8619-.625,1.4063 .26922,1.0317.625,1.4063 .81011.6688 1.34375.9062c1.06728.4748 2.45056.7499 3.96875.75s2.90146-.2752 3.96875-.75c.53364-.2374.98798-.5317 1.34375-.9062s.625-.8619.625-1.4063-.26922-1.0317-.625-1.4063-.81011-.6688-1.34375-.9062c-1.06728-.4748-2.45056-.7499-3.96875-.75z" filter="url(#a)" opacity=".6"/>
 <path transform="matrix(.64465 .29724 -.29724 .64465 929.86 -1707.9)" d="m141.43 2874.7a5.1786 2.3214 0 1 1 -10.357 0 5.1786 2.3214 0 1 1 10.357 0z" fill="#dcdc65"/>
 <path transform="matrix(.64465 .29724 -.29724 .64465 929.79 -1707.9)" d="m141.43 2874.7a5.1786 2.3214 0 1 1 -10.357 0 5.1786 2.3214 0 1 1 10.357 0z" fill="url(#b)"/>
 <path transform="matrix(.70977 .01251 -.01251 .70977 109.07 -1877.1)" d="m136.25,2871.625c-1.51821,0-2.90146.2752-3.96875.75-.53364.2374-.98798.5317-1.34375.9062s-.625.8619-.625,1.4063 .26922,1.0317.625,1.4063 .81011.6688 1.34375.9062c1.06728.4748 2.45056.7499 3.96875.75s2.90146-.2752 3.96875-.75c.53364-.2374.98798-.5317 1.34375-.9062s.625-.8619.625-1.4063-.26922-1.0317-.625-1.4063-.81011-.6688-1.34375-.9062c-1.06728-.4748-2.45056-.7499-3.96875-.75z" filter="url(#a)" opacity=".6"/>
 <path transform="matrix(.70977 .01251 -.01251 .70977 109.07 -1877.1)" d="m141.43 2874.7a5.1786 2.3214 0 1 1 -10.357 0 5.1786 2.3214 0 1 1 10.357 0z" fill="#dcdc65"/>
 <path transform="matrix(.70977 .01251 -.01251 .70977 109.01 -1877)" d="m141.43 2874.7a5.1786 2.3214 0 1 1 -10.357 0 5.1786 2.3214 0 1 1 10.357 0z" fill="url(#b)"/>
 <path transform="matrix(-.07475 -.70593 .70593 -.07475 -1912.9 494.45)" d="m136.25,2871.625c-1.51821,0-2.90146.2752-3.96875.75-.53364.2374-.98798.5317-1.34375.9062s-.625.8619-.625,1.4063 .26922,1.0317.625,1.4063 .81011.6688 1.34375.9062c1.06728.4748 2.45056.7499 3.96875.75s2.90146-.2752 3.96875-.75c.53364-.2374.98798-.5317 1.34375-.9062s.625-.8619.625-1.4063-.26922-1.0317-.625-1.4063-.81011-.6688-1.34375-.9062c-1.06728-.4748-2.45056-.7499-3.96875-.75z" filter="url(#a)" opacity=".6"/>
 <path transform="matrix(-.07475 -.70593 .70593 -.07475 -1912.9 494.45)" d="m141.43 2874.7a5.1786 2.3214 0 1 1 -10.357 0 5.1786 2.3214 0 1 1 10.357 0z" fill="#dcdc65"/>
 <path transform="matrix(-.07475 -.70593 .70593 -.07475 -1912.9 494.5)" d="m141.43 2874.7a5.1786 2.3214 0 1 1 -10.357 0 5.1786 2.3214 0 1 1 10.357 0z" fill="url(#b)"/>
 <path transform="matrix(-.11 -.70131 .70131 -.11 -1898.4 574.99)" d="m136.25,2871.625c-1.51821,0-2.90146.2752-3.96875.75-.53364.2374-.98798.5317-1.34375.9062s-.625.8619-.625,1.4063 .26922,1.0317.625,1.4063 .81011.6688 1.34375.9062c1.06728.4748 2.45056.7499 3.96875.75s2.90146-.2752 3.96875-.75c.53364-.2374.98798-.5317 1.34375-.9062s.625-.8619.625-1.4063-.26922-1.0317-.625-1.4063-.81011-.6688-1.34375-.9062c-1.06728-.4748-2.45056-.7499-3.96875-.75z" filter="url(#a)" opacity=".6"/>
 <path transform="matrix(-.11 -.70131 .70131 -.11 -1898.4 574.99)" d="m141.43 2874.7a5.1786 2.3214 0 1 1 -10.357 0 5.1786 2.3214 0 1 1 10.357 0z" fill="#dcdc65"/>
 <path transform="matrix(-.11 -.70131 .70131 -.11 -1898.4 575.04)" d="m141.43 2874.7a5.1786 2.3214 0 1 1 -10.357 0 5.1786 2.3214 0 1 1 10.357 0z" fill="url(#b)"/>
 <path transform="matrix(.68029 -.20283 .20283 .68029 -540.65 -1749.6)" d="m136.25,2871.625c-1.51821,0-2.90146.2752-3.96875.75-.53364.2374-.98798.5317-1.34375.9062s-.625.8619-.625,1.4063 .26922,1.0317.625,1.4063 .81011.6688 1.34375.9062c1.06728.4748 2.45056.7499 3.96875.75s2.90146-.2752 3.96875-.75c.53364-.2374.98798-.5317 1.34375-.9062s.625-.8619.625-1.4063-.26922-1.0317-.625-1.4063-.81011-.6688-1.34375-.9062c-1.06728-.4748-2.45056-.7499-3.96875-.75z" filter="url(#a)" opacity=".6"/>
 <path transform="matrix(.68029 -.20283 .20283 .68029 -540.65 -1749.6)" d="m141.43 2874.7a5.1786 2.3214 0 1 1 -10.357 0 5.1786 2.3214 0 1 1 10.357 0z" fill="#dcdc65"/>
 <path transform="matrix(.68029 -.20283 .20283 .68029 -540.69 -1749.5)" d="m141.43 2874.7a5.1786 2.3214 0 1 1 -10.357 0 5.1786 2.3214 0 1 1 10.357 0z" fill="url(#b)"/>
 <path transform="matrix(.64465 .29724 -.29724 .64465 985.34 -1733.1)" d="m136.25,2871.625c-1.51821,0-2.90146.2752-3.96875.75-.53364.2374-.98798.5317-1.34375.9062s-.625.8619-.625,1.4063 .26922,1.0317.625,1.4063 .81011.6688 1.34375.9062c1.06728.4748 2.45056.7499 3.96875.75s2.90146-.2752 3.96875-.75c.53364-.2374.98798-.5317 1.34375-.9062s.625-.8619.625-1.4063-.26922-1.0317-.625-1.4063-.81011-.6688-1.34375-.9062c-1.06728-.4748-2.45056-.7499-3.96875-.75z" filter="url(#a)" opacity=".6"/>
 <path transform="matrix(.64465 .29724 -.29724 .64465 985.34 -1733.1)" d="m141.43 2874.7a5.1786 2.3214 0 1 1 -10.357 0 5.1786 2.3214 0 1 1 10.357 0z" fill="#dcdc65"/>
 <path transform="matrix(.64465 .29724 -.29724 .64465 985.28 -1733.1)" d="m141.43 2874.7a5.1786 2.3214 0 1 1 -10.357 0 5.1786 2.3214 0 1 1 10.357 0z" fill="url(#b)"/>
 <path transform="matrix(.04383 .70852 -.70852 .04383 2232 -30.745)" d="m136.25,2871.625c-1.51821,0-2.90146.2752-3.96875.75-.53364.2374-.98798.5317-1.34375.9062s-.625.8619-.625,1.4063 .26922,1.0317.625,1.4063 .81011.6688 1.34375.9062c1.06728.4748 2.45056.7499 3.96875.75s2.90146-.2752 3.96875-.75c.53364-.2374.98798-.5317 1.34375-.9062s.625-.8619.625-1.4063-.26922-1.0317-.625-1.4063-.81011-.6688-1.34375-.9062c-1.06728-.4748-2.45056-.7499-3.96875-.75z" filter="url(#a)" opacity=".6"/>
 <path transform="matrix(.04383 .70852 -.70852 .04383 2232 -30.745)" d="m141.43 2874.7a5.1786 2.3214 0 1 1 -10.357 0 5.1786 2.3214 0 1 1 10.357 0z" fill="#dcdc65"/>
 <path transform="matrix(.04383 .70852 -.70852 .04383 2232 -30.801)" d="m141.43 2874.7a5.1786 2.3214 0 1 1 -10.357 0 5.1786 2.3214 0 1 1 10.357 0z" fill="url(#b)"/>
 <path transform="matrix(.51127 .49247 -.49247 .51127 1570.7 -1350.3)" d="m136.25,2871.625c-1.51821,0-2.90146.2752-3.96875.75-.53364.2374-.98798.5317-1.34375.9062s-.625.8619-.625,1.4063 .26922,1.0317.625,1.4063 .81011.6688 1.34375.9062c1.06728.4748 2.45056.7499 3.96875.75s2.90146-.2752 3.96875-.75c.53364-.2374.98798-.5317 1.34375-.9062s.625-.8619.625-1.4063-.26922-1.0317-.625-1.4063-.81011-.6688-1.34375-.9062c-1.06728-.4748-2.45056-.7499-3.96875-.75z" filter="url(#a)" opacity=".6"/>
 <path transform="matrix(.51127 .49247 -.49247 .51127 1570.7 -1350.3)" d="m141.43 2874.7a5.1786 2.3214 0 1 1 -10.357 0 5.1786 2.3214 0 1 1 10.357 0z" fill="#dcdc65"/>
 <path transform="matrix(.51127 .49247 -.49247 .51127 1570.7 -1350.3)" d="m141.43 2874.7a5.1786 2.3214 0 1 1 -10.357 0 5.1786 2.3214 0 1 1 10.357 0z" fill="url(#b)"/>
 <path transform="matrix(.66629 .24492 -.24492 .66629 848.21 -1778.2)" d="m136.25,2871.625c-1.51821,0-2.90146.2752-3.96875.75-.53364.2374-.98798.5317-1.34375.9062s-.625.8619-.625,1.4063 .26922,1.0317.625,1.4063 .81011.6688 1.34375.9062c1.06728.4748 2.45056.7499 3.96875.75s2.90146-.2752 3.96875-.75c.53364-.2374.98798-.5317 1.34375-.9062s.625-.8619.625-1.4063-.26922-1.0317-.625-1.4063-.81011-.6688-1.34375-.9062c-1.06728-.4748-2.45056-.7499-3.96875-.75z" filter="url(#a)" opacity=".6"/>
 <path transform="matrix(.66629 .24492 -.24492 .66629 848.21 -1778.2)" d="m141.43 2874.7a5.1786 2.3214 0 1 1 -10.357 0 5.1786 2.3214 0 1 1 10.357 0z" fill="#dcdc65"/>
 <path transform="matrix(.66629 .24492 -.24492 .66629 848.14 -1778.2)" d="m141.43 2874.7a5.1786 2.3214 0 1 1 -10.357 0 5.1786 2.3214 0 1 1 10.357 0z" fill="url(#b)"/>
 <path transform="matrix(.53529 .46626 -.46626 .53529 1491.7 -1399.4)" d="m136.25,2871.625c-1.51821,0-2.90146.2752-3.96875.75-.53364.2374-.98798.5317-1.34375.9062s-.625.8619-.625,1.4063 .26922,1.0317.625,1.4063 .81011.6688 1.34375.9062c1.06728.4748 2.45056.7499 3.96875.75s2.90146-.2752 3.96875-.75c.53364-.2374.98798-.5317 1.34375-.9062s.625-.8619.625-1.4063-.26922-1.0317-.625-1.4063-.81011-.6688-1.34375-.9062c-1.06728-.4748-2.45056-.7499-3.96875-.75z" filter="url(#a)" opacity=".6"/>
 <path transform="matrix(.53529 .46626 -.46626 .53529 1491.7 -1399.4)" d="m141.43 2874.7a5.1786 2.3214 0 1 1 -10.357 0 5.1786 2.3214 0 1 1 10.357 0z" fill="#dcdc65"/>
 <path transform="matrix(.53529 .46626 -.46626 .53529 1491.6 -1399.5)" d="m141.43 2874.7a5.1786 2.3214 0 1 1 -10.357 0 5.1786 2.3214 0 1 1 10.357 0z" fill="url(#b)"/>
 <path transform="matrix(.67772 .21126 -.21126 .67772 751.39 -1790.8)" d="m136.25,2871.625c-1.51821,0-2.90146.2752-3.96875.75-.53364.2374-.98798.5317-1.34375.9062s-.625.8619-.625,1.4063 .26922,1.0317.625,1.4063 .81011.6688 1.34375.9062c1.06728.4748 2.45056.7499 3.96875.75s2.90146-.2752 3.96875-.75c.53364-.2374.98798-.5317 1.34375-.9062s.625-.8619.625-1.4063-.26922-1.0317-.625-1.4063-.81011-.6688-1.34375-.9062c-1.06728-.4748-2.45056-.7499-3.96875-.75z" filter="url(#a)" opacity=".6"/>
 <path transform="matrix(.67772 .21126 -.21126 .67772 751.39 -1790.8)" d="m141.43 2874.7a5.1786 2.3214 0 1 1 -10.357 0 5.1786 2.3214 0 1 1 10.357 0z" fill="#dcdc65"/>
 <path transform="matrix(.67772 .21126 -.21126 .67772 751.32 -1790.8)" d="m141.43 2874.7a5.1786 2.3214 0 1 1 -10.357 0 5.1786 2.3214 0 1 1 10.357 0z" fill="url(#b)"/>
 <path transform="matrix(.70437 .08826 -.08826 .70437 348.34 -1857.6)" d="m136.25,2871.625c-1.51821,0-2.90146.2752-3.96875.75-.53364.2374-.98798.5317-1.34375.9062s-.625.8619-.625,1.4063 .26922,1.0317.625,1.4063 .81011.6688 1.34375.9062c1.06728.4748 2.45056.7499 3.96875.75s2.90146-.2752 3.96875-.75c.53364-.2374.98798-.5317 1.34375-.9062s.625-.8619.625-1.4063-.26922-1.0317-.625-1.4063-.81011-.6688-1.34375-.9062c-1.06728-.4748-2.45056-.7499-3.96875-.75z" filter="url(#a)" opacity=".6"/>
 <path transform="matrix(.70437 .08826 -.08826 .70437 348.34 -1857.6)" d="m141.43 2874.7a5.1786 2.3214 0 1 1 -10.357 0 5.1786 2.3214 0 1 1 10.357 0z" fill="#dcdc65"/>
 <path transform="matrix(.70437 .08826 -.08826 .70437 348.28 -1857.6)" d="m141.43 2874.7a5.1786 2.3214 0 1 1 -10.357 0 5.1786 2.3214 0 1 1 10.357 0z" fill="url(#b)"/>
 <path transform="matrix(.45938 .5412 -.5412 .45938 1707.1 -1209.5)" d="m136.25,2871.625c-1.51821,0-2.90146.2752-3.96875.75-.53364.2374-.98798.5317-1.34375.9062s-.625.8619-.625,1.4063 .26922,1.0317.625,1.4063 .81011.6688 1.34375.9062c1.06728.4748 2.45056.7499 3.96875.75s2.90146-.2752 3.96875-.75c.53364-.2374.98798-.5317 1.34375-.9062s.625-.8619.625-1.4063-.26922-1.0317-.625-1.4063-.81011-.6688-1.34375-.9062c-1.06728-.4748-2.45056-.7499-3.96875-.75z" filter="url(#a)" opacity=".6"/>
 <path transform="matrix(.45938 .5412 -.5412 .45938 1707.1 -1209.5)" d="m141.43 2874.7a5.1786 2.3214 0 1 1 -10.357 0 5.1786 2.3214 0 1 1 10.357 0z" fill="#dcdc65"/>
 <path transform="matrix(.45938 .5412 -.5412 .45938 1707.1 -1209.5)" d="m141.43 2874.7a5.1786 2.3214 0 1 1 -10.357 0 5.1786 2.3214 0 1 1 10.357 0z" fill="url(#b)"/>
 <path transform="matrix(-.55515 -.44242 .44242 -.55515 -985.53 1859.2)" d="m136.25,2871.625c-1.51821,0-2.90146.2752-3.96875.75-.53364.2374-.98798.5317-1.34375.9062s-.625.8619-.625,1.4063 .26922,1.0317.625,1.4063 .81011.6688 1.34375.9062c1.06728.4748 2.45056.7499 3.96875.75s2.90146-.2752 3.96875-.75c.53364-.2374.98798-.5317 1.34375-.9062s.625-.8619.625-1.4063-.26922-1.0317-.625-1.4063-.81011-.6688-1.34375-.9062c-1.06728-.4748-2.45056-.7499-3.96875-.75z" filter="url(#a)" opacity=".6"/>
 <path transform="matrix(-.55515 -.44242 .44242 -.55515 -985.53 1859.2)" d="m141.43 2874.7a5.1786 2.3214 0 1 1 -10.357 0 5.1786 2.3214 0 1 1 10.357 0z" fill="#dcdc65"/>
 <path transform="matrix(-.55515 -.44242 .44242 -.55515 -985.47 1859.2)" d="m141.43 2874.7a5.1786 2.3214 0 1 1 -10.357 0 5.1786 2.3214 0 1 1 10.357 0z" fill="url(#b)"/>
 <path transform="matrix(.07925 .70544 -.70544 .07925 2201 -132.52)" d="m136.25,2871.625c-1.51821,0-2.90146.2752-3.96875.75-.53364.2374-.98798.5317-1.34375.9062s-.625.8619-.625,1.4063 .26922,1.0317.625,1.4063 .81011.6688 1.34375.9062c1.06728.4748 2.45056.7499 3.96875.75s2.90146-.2752 3.96875-.75c.53364-.2374.98798-.5317 1.34375-.9062s.625-.8619.625-1.4063-.26922-1.0317-.625-1.4063-.81011-.6688-1.34375-.9062c-1.06728-.4748-2.45056-.7499-3.96875-.75z" filter="url(#a)" opacity=".6"/>
 <path transform="matrix(.07925 .70544 -.70544 .07925 2201 -132.52)" d="m141.43 2874.7a5.1786 2.3214 0 1 1 -10.357 0 5.1786 2.3214 0 1 1 10.357 0z" fill="#dcdc65"/>
 <path transform="matrix(.07925 .70544 -.70544 .07925 2201 -132.58)" d="m141.43 2874.7a5.1786 2.3214 0 1 1 -10.357 0 5.1786 2.3214 0 1 1 10.357 0z" fill="url(#b)"/>
 <path transform="matrix(-.53231 -.46966 .46966 -.53231 -1083.7 1795.6)" d="m136.25,2871.625c-1.51821,0-2.90146.2752-3.96875.75-.53364.2374-.98798.5317-1.34375.9062s-.625.8619-.625,1.4063 .26922,1.0317.625,1.4063 .81011.6688 1.34375.9062c1.06728.4748 2.45056.7499 3.96875.75s2.90146-.2752 3.96875-.75c.53364-.2374.98798-.5317 1.34375-.9062s.625-.8619.625-1.4063-.26922-1.0317-.625-1.4063-.81011-.6688-1.34375-.9062c-1.06728-.4748-2.45056-.7499-3.96875-.75z" filter="url(#a)" opacity=".6"/>
 <path transform="matrix(-.53231 -.46966 .46966 -.53231 -1083.7 1795.6)" d="m141.43 2874.7a5.1786 2.3214 0 1 1 -10.357 0 5.1786 2.3214 0 1 1 10.357 0z" fill="#dcdc65"/>
 <path transform="matrix(-.53231 -.46966 .46966 -.53231 -1083.6 1795.6)" d="m141.43 2874.7a5.1786 2.3214 0 1 1 -10.357 0 5.1786 2.3214 0 1 1 10.357 0z" fill="url(#b)"/>
 <path transform="matrix(-.6863 -.18144 .18144 -.6863 -248.78 2198.6)" d="m136.25,2871.625c-1.51821,0-2.90146.2752-3.96875.75-.53364.2374-.98798.5317-1.34375.9062s-.625.8619-.625,1.4063 .26922,1.0317.625,1.4063 .81011.6688 1.34375.9062c1.06728.4748 2.45056.7499 3.96875.75s2.90146-.2752 3.96875-.75c.53364-.2374.98798-.5317 1.34375-.9062s.625-.8619.625-1.4063-.26922-1.0317-.625-1.4063-.81011-.6688-1.34375-.9062c-1.06728-.4748-2.45056-.7499-3.96875-.75z" filter="url(#a)" opacity=".6"/>
 <path transform="matrix(-.6863 -.18144 .18144 -.6863 -248.78 2198.6)" d="m141.43 2874.7a5.1786 2.3214 0 1 1 -10.357 0 5.1786 2.3214 0 1 1 10.357 0z" fill="#dcdc65"/>
 <path transform="matrix(-.6863 -.18144 .18144 -.6863 -248.71 2198.6)" d="m141.43 2874.7a5.1786 2.3214 0 1 1 -10.357 0 5.1786 2.3214 0 1 1 10.357 0z" fill="url(#b)"/>
 <path transform="matrix(.70977 .01251 -.01251 .70977 107.98 -1848.2)" d="m136.25,2871.625c-1.51821,0-2.90146.2752-3.96875.75-.53364.2374-.98798.5317-1.34375.9062s-.625.8619-.625,1.4063 .26922,1.0317.625,1.4063 .81011.6688 1.34375.9062c1.06728.4748 2.45056.7499 3.96875.75s2.90146-.2752 3.96875-.75c.53364-.2374.98798-.5317 1.34375-.9062s.625-.8619.625-1.4063-.26922-1.0317-.625-1.4063-.81011-.6688-1.34375-.9062c-1.06728-.4748-2.45056-.7499-3.96875-.75z" filter="url(#a)" opacity=".6"/>
 <path transform="matrix(.70977 .01251 -.01251 .70977 107.98 -1848.2)" d="m141.43 2874.7a5.1786 2.3214 0 1 1 -10.357 0 5.1786 2.3214 0 1 1 10.357 0z" fill="#dcdc65"/>
 <path transform="matrix(.70977 .01251 -.01251 .70977 107.93 -1848.2)" d="m141.43 2874.7a5.1786 2.3214 0 1 1 -10.357 0 5.1786 2.3214 0 1 1 10.357 0z" fill="url(#b)"/>
 <path transform="matrix(.62433 .33784 -.33784 .62433 925.06 -1685.7)" d="m136.25,2871.625c-1.51821,0-2.90146.2752-3.96875.75-.53364.2374-.98798.5317-1.34375.9062s-.625.8619-.625,1.4063 .26922,1.0317.625,1.4063 .81011.6688 1.34375.9062c1.06728.4748 2.45056.7499 3.96875.75s2.90146-.2752 3.96875-.75c.53364-.2374.98798-.5317 1.34375-.9062s.625-.8619.625-1.4063-.26922-1.0317-.625-1.4063-.81011-.6688-1.34375-.9062c-1.06728-.4748-2.45056-.7499-3.96875-.75z" filter="url(#a)" opacity=".6"/>
 <path transform="matrix(.62433 .33784 -.33784 .62433 925.06 -1685.7)" d="m141.43 2874.7a5.1786 2.3214 0 1 1 -10.357 0 5.1786 2.3214 0 1 1 10.357 0z" fill="#dcdc65"/>
 <path transform="matrix(.62433 .33784 -.33784 .62433 925 -1685.7)" d="m141.43 2874.7a5.1786 2.3214 0 1 1 -10.357 0 5.1786 2.3214 0 1 1 10.357 0z" fill="url(#b)"/>
 <path transform="matrix(.08427 .70486 -.70486 .08427 2094.6 -173.78)" d="m136.25,2871.625c-1.51821,0-2.90146.2752-3.96875.75-.53364.2374-.98798.5317-1.34375.9062s-.625.8619-.625,1.4063 .26922,1.0317.625,1.4063 .81011.6688 1.34375.9062c1.06728.4748 2.45056.7499 3.96875.75s2.90146-.2752 3.96875-.75c.53364-.2374.98798-.5317 1.34375-.9062s.625-.8619.625-1.4063-.26922-1.0317-.625-1.4063-.81011-.6688-1.34375-.9062c-1.06728-.4748-2.45056-.7499-3.96875-.75z" filter="url(#a)" opacity=".6"/>
 <path transform="matrix(.08427 .70486 -.70486 .08427 2094.6 -173.78)" d="m141.43 2874.7a5.1786 2.3214 0 1 1 -10.357 0 5.1786 2.3214 0 1 1 10.357 0z" fill="#dcdc65"/>
 <path transform="matrix(.08427 .70486 -.70486 .08427 2094.5 -173.84)" d="m141.43 2874.7a5.1786 2.3214 0 1 1 -10.357 0 5.1786 2.3214 0 1 1 10.357 0z" fill="url(#b)"/>
 <path transform="matrix(.0575 .70755 -.70755 .0575 2061.6 -128.94)" d="m136.25,2871.625c-1.51821,0-2.90146.2752-3.96875.75-.53364.2374-.98798.5317-1.34375.9062s-.625.8619-.625,1.4063 .26922,1.0317.625,1.4063 .81011.6688 1.34375.9062c1.06728.4748 2.45056.7499 3.96875.75s2.90146-.2752 3.96875-.75c.53364-.2374.98798-.5317 1.34375-.9062s.625-.8619.625-1.4063-.26922-1.0317-.625-1.4063-.81011-.6688-1.34375-.9062c-1.06728-.4748-2.45056-.7499-3.96875-.75z" filter="url(#a)" opacity=".6"/>
 <path transform="matrix(.0575 .70755 -.70755 .0575 2061.6 -128.94)" d="m141.43 2874.7a5.1786 2.3214 0 1 1 -10.357 0 5.1786 2.3214 0 1 1 10.357 0z" fill="#dcdc65"/>
 <path transform="matrix(.0575 .70755 -.70755 .0575 2061.5 -128.99)" d="m141.43 2874.7a5.1786 2.3214 0 1 1 -10.357 0 5.1786 2.3214 0 1 1 10.357 0z" fill="url(#b)"/>
 <path transform="matrix(.51803 .48535 -.48535 .51803 1370.1 -1410)" d="m136.25,2871.625c-1.51821,0-2.90146.2752-3.96875.75-.53364.2374-.98798.5317-1.34375.9062s-.625.8619-.625,1.4063 .26922,1.0317.625,1.4063 .81011.6688 1.34375.9062c1.06728.4748 2.45056.7499 3.96875.75s2.90146-.2752 3.96875-.75c.53364-.2374.98798-.5317 1.34375-.9062s.625-.8619.625-1.4063-.26922-1.0317-.625-1.4063-.81011-.6688-1.34375-.9062c-1.06728-.4748-2.45056-.7499-3.96875-.75z" filter="url(#a)" opacity=".6"/>
 <path transform="matrix(.51803 .48535 -.48535 .51803 1370.1 -1410)" d="m141.43 2874.7a5.1786 2.3214 0 1 1 -10.357 0 5.1786 2.3214 0 1 1 10.357 0z" fill="#dcdc65"/>
 <path transform="matrix(.51803 .48535 -.48535 .51803 1370.1 -1410)" d="m141.43 2874.7a5.1786 2.3214 0 1 1 -10.357 0 5.1786 2.3214 0 1 1 10.357 0z" fill="url(#b)"/>
 <path transform="matrix(.27876 .65286 -.65286 .27876 1923.5 -715.47)" d="m136.25,2871.625c-1.51821,0-2.90146.2752-3.96875.75-.53364.2374-.98798.5317-1.34375.9062s-.625.8619-.625,1.4063 .26922,1.0317.625,1.4063 .81011.6688 1.34375.9062c1.06728.4748 2.45056.7499 3.96875.75s2.90146-.2752 3.96875-.75c.53364-.2374.98798-.5317 1.34375-.9062s.625-.8619.625-1.4063-.26922-1.0317-.625-1.4063-.81011-.6688-1.34375-.9062c-1.06728-.4748-2.45056-.7499-3.96875-.75z" filter="url(#a)" opacity=".6"/>
 <path transform="matrix(.27876 .65286 -.65286 .27876 1923.5 -715.47)" d="m141.43 2874.7a5.1786 2.3214 0 1 1 -10.357 0 5.1786 2.3214 0 1 1 10.357 0z" fill="#dcdc65"/>
 <path transform="matrix(.27876 .65286 -.65286 .27876 1923.4 -715.51)" d="m141.43 2874.7a5.1786 2.3214 0 1 1 -10.357 0 5.1786 2.3214 0 1 1 10.357 0z" fill="url(#b)"/>
 <path transform="matrix(.62433 .33784 -.33784 .62433 960.22 -1660.7)" d="m136.25,2871.625c-1.51821,0-2.90146.2752-3.96875.75-.53364.2374-.98798.5317-1.34375.9062s-.625.8619-.625,1.4063 .26922,1.0317.625,1.4063 .81011.6688 1.34375.9062c1.06728.4748 2.45056.7499 3.96875.75s2.90146-.2752 3.96875-.75c.53364-.2374.98798-.5317 1.34375-.9062s.625-.8619.625-1.4063-.26922-1.0317-.625-1.4063-.81011-.6688-1.34375-.9062c-1.06728-.4748-2.45056-.7499-3.96875-.75z" filter="url(#a)" opacity=".6"/>
 <path transform="matrix(.62433 .33784 -.33784 .62433 960.22 -1660.7)" d="m141.43 2874.7a5.1786 2.3214 0 1 1 -10.357 0 5.1786 2.3214 0 1 1 10.357 0z" fill="#dcdc65"/>
 <path transform="matrix(.62433 .33784 -.33784 .62433 960.16 -1660.7)" d="m141.43 2874.7a5.1786 2.3214 0 1 1 -10.357 0 5.1786 2.3214 0 1 1 10.357 0z" fill="url(#b)"/>
 <path d="m24.385 124.46c-1.0651 17.437 3.4456 34.027 14.153 47.163 31.587 32.499 70.62 16.223 106.15 36.204 53.068 14.31 87.645 13.749 97.564-21.629-0.35333-2.1558-0.72986-4.3877-1.1092-6.6108-11.217 31.85-45.224 31.895-96.455 18.08-35.53-19.981-74.562-3.7046-106.15-36.204-8.6081-10.56-13.23-23.337-14.153-37.002z" fill="url(#m)"/>
 <path transform="matrix(.70447 .087435 -.087435 .70447 264.6 -1976)" d="m252.86 2859.5a66.429 38.571 0 1 1 -132.86 0 66.429 38.571 0 1 1 132.86 0z" fill="url(#l)" opacity=".6"/>
 <g transform="matrix(.70988 0 0 .70988 -230.83 -1716.6)">
  <g transform="translate(-278.57 -137.14)">
   <path d="m798.2 2585.2c-31.89 1.6383-66.212 14.67-95.906 38.875-31.893 25.998-52.205 59.797-58.969 92.938 5.3074 3.7479 11.298 9.2012 18.188 17.469 21.429 25.714 14.286-14.272 20-32.844s12.875-7.1472 22.875 4.2812 21.415 12.862 22.844 5.7188-9.9821-19.991-7.125-38.563 74.272-31.437 22.844-21.437 45.732-22.87 32.875-27.156-27.17 1.4464-24.312-17.125c2.8213-18.338 1.5201-3.2819 46.875-22.156h-0.1875z" fill="#385629" filter="url(#p)" opacity=".42"/>
   <path d="m793.82 2580.2c-31.89 1.6383-66.212 14.67-95.906 38.875-31.893 25.998-52.205 59.797-58.969 92.938 5.3074 3.7479 11.298 9.2012 18.188 17.469 21.429 25.714 14.286-14.272 20-32.844s12.875-7.1472 22.875 4.2812 21.415 12.862 22.844 5.7188-9.9821-19.991-7.125-38.563 74.272-31.437 22.844-21.437 45.732-22.87 32.875-27.156-27.17 1.4464-24.312-17.125c2.8213-18.338 1.5201-3.2819 46.875-22.156h-0.1875z" fill="#4ab714"/>
  </g>
  <path d="m515.49 2442.4c-31.89 1.6383-66.212 14.67-95.906 38.875-31.893 25.998-52.205 59.797-58.969 92.938 5.3074 3.7479 11.298 9.2012 18.188 17.469 21.429 25.714 14.286-14.272 20-32.844s12.875-7.1472 22.875 4.2812 21.415 12.862 22.844 5.7188-9.9821-19.991-7.125-38.563 74.272-31.437 22.844-21.437 45.732-22.87 32.875-27.156-27.17 1.4464-24.312-17.125c2.8213-18.338 1.5201-3.2819 46.875-22.156h-0.1875z" fill="url(#g)"/>
 </g>
 <g transform="matrix(.70988 0 0 .70988 14.586 -1955.9)" fill-rule="evenodd">
  <path d="m126.27 2821.9c11.112-11.112 15.152-18.94 10.102-21.971s-11.112-9.0913-11.112-9.0913 19.193 1.0101 24.244 9.0913 4.0406 13.132 1.0102 18.183-11.617 8.8388-11.617 8.8388l-12.627-5.0507z" fill="url(#d)"/>
  <path d="m125.51 2791s6.043 6.0634 11.094 9.0937c0.70302 0.4219 1.2376 0.9276 1.5938 1.5313 1.6032 0.4958 3.4268 1.444 5.25 3.875 2.5734 3.4312 5.4978 6.5167 7.5625 12.312 2.8239-4.9057 3.6532-9.8737-1.25-17.719-5.0508-8.0811-24.25-9.0936-24.25-9.0937z" fill="#62e81f"/>
  <path d="m125.01 2790.6s6.043 6.0634 11.094 9.0937c0.70302 0.4219 1.2376 0.9276 1.5938 1.5313 1.6032 0.4958 3.4268 1.444 5.25 3.875 2.5734 3.4312 5.4978 6.5167 7.5625 12.312 2.8239-4.9057 3.6532-9.8737-1.25-17.719-5.0508-8.0811-24.25-9.0936-24.25-9.0937z" fill="url(#c)"/>
 </g>
 <path d="m69.685 45.735c-43.607 35.546-56.738 91.689-29.327 125.32 31.587 32.499 70.62 16.223 106.15 36.204 53.068 14.311 87.645 13.749 97.564-21.629-6.1973-101.2-70.338-214.13-174.39-139.89z" fill="url(#k)"/>
</svg>
