<?xml version="1.0" encoding="utf-8"?>
<!-- Generator: Moho 12.5 build 22438 -->
<!DOCTYPE svg PUBLIC "-//W3C//DTD SVG 1.1//EN" "http://www.w3.org/Graphics/SVG/1.1/DTD/svg11.dtd">
<svg version="1.1" id="Frame_0" xmlns="http://www.w3.org/2000/svg" xmlns:xlink="http://www.w3.org/1999/xlink" width="1280px" height="720px">
<g id="Layer_6">
<path fill="#301027" fill-rule="evenodd" stroke="none" d="M 917.387 273.250 C 933.042 290.129 953.917 312.635 969.573 329.514 C 969.571 329.519 958.318 364.158 951.755 378.286 C 948.758 384.737 943.871 392.896 940.227 399.005 C 933.199 410.787 923.517 426.342 915.471 437.453 C 910.114 444.849 902.442 454.331 896.395 461.175 C 884.400 474.752 867.538 492.132 854.075 504.254 C 839.257 517.598 818.364 534.165 802.004 545.565 C 786.396 556.439 764.720 569.758 747.849 578.543 C 724.392 590.757 692.014 605.123 666.954 613.572 C 642.333 621.873 608.546 630.356 582.869 634.328 C 555.675 638.533 518.840 640.927 491.333 640.182 C 464.172 639.446 427.820 635.851 401.393 629.538 C 380.763 624.609 353.407 615.898 334.870 605.589 C 321.436 598.118 305.308 585.003 294.375 574.198 C 286.810 566.722 277.595 555.726 272.090 546.625 C 266.784 537.853 261.339 525.123 258.492 515.275 C 255.849 506.129 253.860 493.440 253.582 483.925 C 253.317 474.845 254.640 462.680 256.481 453.785 C 257.986 446.512 261.735 437.271 263.987 430.193 C 264.053 430.178 721.367 320.333 917.387 273.250 C 917.387 273.250 917.387 273.250 917.387 273.250 Z"/>
<path fill="none" stroke="#301027" stroke-width="1" stroke-linecap="round" stroke-linejoin="round" d="M 969.573 329.514 C 969.573 329.514 969.573 329.514 969.573 329.514 C 953.917 312.635 933.042 290.129 917.387 273.250 C 917.387 273.250 917.387 273.250 917.387 273.250 C 721.367 320.333 264.053 430.178 263.987 430.193 C 263.987 430.193 263.987 430.193 263.987 430.193 C 261.735 437.271 257.986 446.512 256.481 453.785 C 254.640 462.680 253.317 474.845 253.582 483.925 C 253.860 493.440 255.849 506.129 258.492 515.275 C 261.339 525.123 266.784 537.853 272.090 546.625 C 277.595 555.726 286.810 566.722 294.375 574.198 C 305.308 585.003 321.436 598.118 334.870 605.589 C 353.407 615.898 380.763 624.609 401.393 629.538 C 427.820 635.851 464.172 639.446 491.333 640.182 C 518.840 640.927 555.675 638.533 582.869 634.328 C 608.546 630.356 642.333 621.873 666.954 613.572 C 692.014 605.123 724.392 590.757 747.849 578.543 C 764.720 569.758 786.396 556.439 802.004 545.565 C 818.364 534.165 839.257 517.598 854.075 504.254 C 867.538 492.132 884.400 474.752 896.395 461.175 C 902.442 454.331 910.114 444.849 915.471 437.453 C 923.517 426.342 933.199 410.787 940.227 399.005 C 943.871 392.896 948.758 384.737 951.755 378.286 C 958.318 364.158 969.571 329.519 969.573 329.514 "/>
<path fill="#6b4344" fill-rule="evenodd" stroke="none" d="M 481.839 610.376 C 476.277 609.193 469.094 606.689 463.632 605.108 C 463.636 605.108 492.859 603.012 505.340 601.640 C 511.209 600.994 519.018 599.971 524.849 599.039 C 551.344 594.803 586.652 588.633 612.641 581.961 C 638.147 575.412 671.878 565.190 696.227 555.162 C 715.857 547.077 741.031 533.913 759.395 523.259 C 776.259 513.474 798.088 499.227 813.658 487.492 C 827.157 477.318 844.138 462.424 856.491 450.886 C 862.780 445.012 870.806 436.796 876.681 430.507 C 886.948 419.518 900.007 404.286 909.688 392.778 C 911.769 390.303 914.617 387.054 916.502 384.427 C 916.861 383.926 917.283 383.221 917.618 382.704 C 917.618 382.704 917.411 383.784 917.322 384.247 C 913.519 392.264 908.890 403.177 904.645 410.969 C 901.909 415.992 897.883 422.484 894.680 427.222 C 888.252 436.733 879.113 449.056 871.673 457.798 C 862.635 468.420 849.671 481.824 839.400 491.258 C 827.994 501.735 811.843 514.689 799.296 523.769 C 784.977 534.130 765.219 547.110 749.699 555.568 C 730.922 565.800 704.687 577.197 684.761 584.958 C 673.021 589.530 657.088 594.964 644.936 598.291 C 625.272 603.676 598.668 609.863 578.413 612.189 C 557.110 614.634 528.353 615.095 506.953 613.742 C 499.366 613.263 489.274 611.958 481.839 610.376 M 917.322 384.247 C 917.322 384.247 917.322 384.247 917.322 384.247 Z"/>
<path fill="none" stroke="#6b4344" stroke-width="1" stroke-linecap="round" stroke-linejoin="round" d="M 463.632 605.108 C 463.632 605.108 463.632 605.108 463.632 605.108 C 469.094 606.689 476.277 609.193 481.839 610.376 C 489.274 611.958 499.366 613.263 506.953 613.742 C 528.353 615.095 557.110 614.634 578.413 612.189 C 598.668 609.863 625.272 603.676 644.936 598.291 C 657.088 594.964 673.021 589.530 684.761 584.958 C 704.687 577.197 730.922 565.800 749.699 555.568 C 765.219 547.110 784.977 534.130 799.296 523.769 C 811.843 514.689 827.994 501.735 839.400 491.258 C 849.671 481.824 862.635 468.420 871.673 457.798 C 879.113 449.056 888.252 436.733 894.680 427.222 C 897.883 422.484 901.909 415.992 904.645 410.969 C 908.890 403.177 913.519 392.264 917.322 384.247 C 917.322 384.247 917.322 384.247 917.322 384.247 C 917.411 383.784 917.618 382.704 917.618 382.704 C 917.618 382.704 917.618 382.704 917.618 382.704 C 917.283 383.221 916.861 383.926 916.502 384.427 C 914.617 387.054 911.769 390.303 909.688 392.778 C 900.007 404.286 886.948 419.518 876.681 430.507 C 870.806 436.796 862.780 445.012 856.491 450.886 C 844.138 462.424 827.157 477.318 813.658 487.492 C 798.088 499.227 776.259 513.474 759.395 523.259 C 741.031 533.913 715.857 547.077 696.227 555.162 C 671.878 565.190 638.147 575.412 612.641 581.961 C 586.652 588.633 551.344 594.803 524.849 599.039 C 519.018 599.971 511.209 600.994 505.340 601.640 C 492.859 603.012 463.636 605.108 463.632 605.108 "/>
<path fill="#581248" fill-rule="evenodd" stroke="none" d="M 903.137 230.469 C 910.409 238.668 914.454 253.399 919.304 263.226 C 919.303 263.228 917.240 278.022 916.045 284.310 C 914.923 290.217 913.262 298.072 911.637 303.861 C 909.462 311.603 906.135 321.834 902.977 329.229 C 898.607 339.459 891.768 352.709 885.745 362.061 C 878.879 372.720 868.139 385.879 859.718 395.357 C 851.544 404.558 839.891 416.186 830.605 424.265 C 820.546 433.017 806.288 443.728 795.198 451.130 C 779.609 461.536 757.784 473.838 741.102 482.381 C 730.543 487.789 716.131 494.371 705.110 498.761 C 679.636 508.907 644.991 520.949 618.427 527.752 C 599.788 532.526 574.495 537.367 555.367 539.458 C 524.937 542.785 483.933 543.864 453.365 542.223 C 440.665 541.542 423.749 539.606 411.288 537.063 C 393.211 533.374 369.187 527.103 352.300 519.674 C 338.249 513.493 320.346 503.051 308.350 493.473 C 299.662 486.536 289.293 475.705 282.572 466.849 C 277.932 460.735 272.805 451.788 269.471 444.874 C 267.553 440.896 265.631 435.309 264.147 431.150 C 263.996 430.728 263.814 430.158 263.672 429.733 C 263.672 429.732 266.664 422.438 268.228 419.447 C 270.979 414.188 275.131 407.411 278.643 402.627 C 280.314 400.352 282.810 397.522 284.717 395.441 C 288.934 390.843 294.637 384.729 299.478 380.793 C 306.067 375.434 315.683 369.296 323.195 365.334 C 333.933 359.670 349.119 353.793 360.678 350.086 C 374.663 345.602 393.917 341.696 408.326 338.863 C 423.094 335.959 442.967 333.060 457.880 331.027 C 476.072 328.547 500.473 326.404 518.690 324.110 C 537.888 321.693 563.665 319.354 582.581 315.280 C 597.815 311.999 617.910 306.350 632.447 300.736 C 641.875 297.094 654.123 291.316 662.834 286.191 C 677.054 277.824 694.512 264.267 707.404 253.971 C 714.756 248.100 724.074 239.681 731.048 233.365 C 736.846 228.114 744.713 221.227 750.049 215.507 C 751.109 214.371 752.386 212.735 753.387 211.547 C 763.809 212.151 777.689 213.329 788.125 213.558 C 804.706 213.923 826.824 212.040 843.399 212.603 C 854.811 212.990 870.601 211.805 881.335 215.700 C 888.762 218.394 897.896 224.558 903.137 230.469 M 753.387 211.547 C 753.387 211.547 753.387 211.547 753.387 211.547 Z"/>
<path fill="none" stroke="#581248" stroke-width="1" stroke-linecap="round" stroke-linejoin="round" d="M 919.304 263.226 C 919.304 263.226 919.304 263.226 919.304 263.226 C 914.454 253.399 910.409 238.668 903.137 230.469 C 897.896 224.558 888.762 218.394 881.335 215.700 C 870.601 211.805 854.811 212.990 843.399 212.603 C 826.824 212.040 804.706 213.923 788.125 213.558 C 777.689 213.329 763.809 212.151 753.387 211.547 C 753.387 211.547 753.387 211.547 753.387 211.547 C 752.386 212.735 751.109 214.371 750.049 215.507 C 744.713 221.227 736.846 228.114 731.048 233.365 C 724.074 239.681 714.756 248.100 707.404 253.971 C 694.512 264.267 677.054 277.824 662.834 286.191 C 654.123 291.316 641.875 297.094 632.447 300.736 C 617.910 306.350 597.815 311.999 582.581 315.280 C 563.665 319.354 537.888 321.693 518.690 324.110 C 500.473 326.404 476.072 328.547 457.880 331.027 C 442.967 333.060 423.094 335.959 408.326 338.863 C 393.917 341.696 374.663 345.602 360.678 350.086 C 349.119 353.793 333.933 359.670 323.195 365.334 C 315.683 369.296 306.067 375.434 299.478 380.793 C 294.637 384.729 288.934 390.843 284.717 395.441 C 282.810 397.522 280.314 400.352 278.643 402.627 C 275.131 407.411 270.979 414.188 268.228 419.447 C 266.664 422.438 263.672 429.732 263.672 429.733 C 263.672 429.733 263.672 429.733 263.672 429.733 C 263.814 430.158 263.996 430.728 264.147 431.150 C 265.631 435.309 267.553 440.896 269.471 444.874 C 272.805 451.788 277.932 460.735 282.572 466.849 C 289.293 475.705 299.662 486.536 308.350 493.473 C 320.346 503.051 338.249 513.493 352.300 519.674 C 369.187 527.103 393.211 533.374 411.288 537.063 C 423.749 539.606 440.665 541.542 453.365 542.223 C 483.933 543.864 524.937 542.785 555.367 539.458 C 574.495 537.367 599.788 532.526 618.427 527.752 C 644.991 520.949 679.636 508.907 705.110 498.761 C 716.131 494.371 730.543 487.789 741.102 482.381 C 757.784 473.838 779.609 461.536 795.198 451.130 C 806.288 443.728 820.546 433.017 830.605 424.265 C 839.891 416.186 851.544 404.558 859.718 395.357 C 868.139 385.879 878.879 372.720 885.745 362.061 C 891.768 352.709 898.607 339.459 902.977 329.229 C 906.135 321.834 909.462 311.603 911.637 303.861 C 913.262 298.072 914.923 290.217 916.045 284.310 C 917.240 278.022 919.303 263.228 919.304 263.226 "/>
<path fill="#8f4a67" fill-rule="evenodd" stroke="#8f4a67" stroke-width="1" stroke-linecap="round" stroke-linejoin="round" d="M 744.419 283.828 C 741.323 292.322 736.368 303.415 731.644 311.124 C 719.453 331.023 699.655 355.595 682.524 371.443 C 661.392 390.990 629.089 412.790 603.303 425.587 C 581.314 436.499 549.788 446.629 525.792 451.804 C 502.109 456.911 469.652 460.313 445.431 459.783 C 429.910 459.443 408.996 457.439 394.137 452.943 C 385.016 450.184 373.403 444.584 365.402 439.408 C 361.476 436.868 356.551 432.921 353.392 429.473 C 349.768 425.518 345.224 419.722 343.295 414.716 C 342.023 411.416 341.284 406.598 341.483 403.067 C 341.588 401.203 342.128 398.690 342.973 397.026 C 344.164 394.683 346.729 392.130 348.716 390.409 C 351.985 387.578 357.024 384.601 360.951 382.793 C 366.149 380.400 373.603 378.459 379.179 377.175 C 388.181 375.102 400.474 373.819 409.642 372.681 C 418.906 371.531 431.314 370.483 440.604 369.559 C 458.940 367.737 483.431 365.713 501.734 363.581 C 519.178 361.548 542.561 359.357 559.747 355.741 C 577.593 351.987 601.036 345.180 618.152 338.886 C 635.589 332.474 658.279 322.289 674.597 313.407 C 685.743 307.341 699.946 298.055 710.267 290.673 C 717.599 285.429 727.173 278.103 733.801 271.994 C 738.687 267.492 744.290 260.573 749.007 255.895 C 750.116 254.794 751.659 253.394 752.796 252.323 C 752.796 252.323 752.796 252.323 752.796 252.323 C 752.824 252.335 747.768 274.639 744.419 283.828 Z"/>
<path fill="#34102a" fill-rule="evenodd" stroke="#34102a" stroke-width="1" stroke-linecap="round" stroke-linejoin="round" d="M 853.423 315.948 C 859.020 315.948 861.135 318.591 861.135 320.886 C 861.135 323.181 859.020 325.825 853.423 325.825 C 847.826 325.825 845.711 323.181 845.711 320.886 C 845.711 318.591 847.826 315.948 853.423 315.948 Z"/>
<path fill="#34102a" fill-rule="evenodd" stroke="#34102a" stroke-width="1" stroke-linecap="round" stroke-linejoin="round" d="M 443.342 511.074 C 454.088 511.074 457.995 516.041 457.995 520.321 C 457.995 524.601 454.088 529.569 443.342 529.569 C 432.597 529.569 428.689 524.601 428.689 520.321 C 428.689 516.041 432.597 511.074 443.342 511.074 Z"/>
<path fill="#34102a" fill-rule="evenodd" stroke="#34102a" stroke-width="1" stroke-linecap="round" stroke-linejoin="round" d="M 471.671 499.091 C 477.552 499.091 479.616 501.758 479.616 504.040 C 479.616 506.322 477.552 508.990 471.671 508.990 C 465.790 508.990 463.726 506.322 463.726 504.040 C 463.726 501.758 465.790 499.091 471.671 499.091 Z"/>
<path fill="#3a5727" fill-rule="evenodd" stroke="none" d="M 952.421 199.441 C 951.126 202.474 949.070 206.367 947.634 209.335 C 947.635 209.337 956.973 223.798 960.560 230.240 C 964.361 237.067 968.830 246.492 972.165 253.558 C 972.907 255.132 974.085 257.168 974.556 258.843 C 976.083 264.280 976.035 271.950 976.192 277.594 C 976.445 286.764 976.258 299.057 975.041 308.149 C 973.901 316.667 970.523 327.687 968.587 336.061 C 968.586 336.060 959.811 331.273 956.375 328.734 C 949.437 323.604 940.740 315.867 935.267 309.195 C 931.777 304.941 927.805 298.666 925.498 293.670 C 922.493 287.161 920.613 277.673 918.520 270.817 C 918.519 270.817 914.372 273.956 912.414 275.004 C 904.648 279.160 893.369 282.876 884.851 285.122 C 875.917 287.477 863.654 289.201 854.459 290.111 C 845.107 291.037 832.531 291.766 823.151 291.191 C 815.082 290.696 804.511 288.294 796.522 287.052 C 796.527 287.048 833.156 258.040 847.442 244.050 C 852.208 239.382 857.887 232.509 862.363 227.562 C 862.361 227.563 845.716 229.944 838.545 230.645 C 832.298 231.255 823.944 232.208 817.669 232.046 C 809.794 231.842 799.278 230.622 791.609 228.823 C 784.874 227.243 776.131 224.102 769.832 221.241 C 764.908 219.006 758.839 215.048 754.128 212.394 C 754.130 212.393 773.862 205.200 782.513 202.736 C 813.180 194.000 858.147 194.971 886.369 180.130 C 910.240 167.578 932.521 137.349 952.464 119.192 C 955.436 116.486 959.429 112.910 962.414 110.218 C 963.302 112.298 964.835 114.954 965.374 117.150 C 967.017 123.838 966.401 133.199 966.319 140.084 C 966.250 145.842 965.974 153.549 965.105 159.241 C 964.375 164.015 962.707 170.262 961.327 174.890 C 959.088 182.398 955.498 192.236 952.421 199.441 M 962.414 110.218 C 962.414 110.218 962.414 110.218 962.414 110.218 Z"/>
<path fill="none" stroke="#3a5727" stroke-width="1" stroke-linecap="round" stroke-linejoin="round" d="M 947.634 209.335 C 947.634 209.335 947.634 209.335 947.634 209.335 C 949.070 206.367 951.126 202.474 952.421 199.441 C 955.498 192.236 959.088 182.398 961.327 174.890 C 962.707 170.262 964.375 164.015 965.105 159.241 C 965.974 153.549 966.250 145.842 966.319 140.084 C 966.401 133.199 967.017 123.838 965.374 117.150 C 964.835 114.954 963.302 112.298 962.414 110.218 C 962.414 110.218 962.414 110.218 962.414 110.218 C 959.429 112.910 955.436 116.486 952.464 119.192 C 932.521 137.349 910.240 167.578 886.369 180.130 C 858.147 194.971 813.180 194.000 782.513 202.736 C 773.862 205.200 754.130 212.393 754.128 212.394 C 754.128 212.394 754.128 212.394 754.128 212.394 C 758.839 215.048 764.908 219.006 769.832 221.241 C 776.131 224.102 784.874 227.243 791.609 228.823 C 799.278 230.622 809.794 231.842 817.669 232.046 C 823.944 232.208 832.298 231.255 838.545 230.645 C 845.716 229.944 862.361 227.563 862.363 227.562 C 862.363 227.562 862.363 227.562 862.363 227.562 C 857.887 232.509 852.208 239.382 847.442 244.050 C 833.156 258.040 796.527 287.048 796.522 287.052 C 796.522 287.052 796.522 287.052 796.522 287.052 C 804.511 288.294 815.082 290.696 823.151 291.191 C 832.531 291.766 845.107 291.037 854.459 290.111 C 863.654 289.201 875.917 287.477 884.851 285.122 C 893.369 282.876 904.648 279.160 912.414 275.004 C 914.372 273.956 918.519 270.817 918.520 270.817 C 918.520 270.817 918.520 270.817 918.520 270.817 C 920.613 277.673 922.493 287.161 925.498 293.670 C 927.805 298.666 931.777 304.941 935.267 309.195 C 940.740 315.867 949.437 323.604 956.375 328.734 C 959.811 331.273 968.586 336.060 968.587 336.061 C 968.587 336.061 968.587 336.061 968.587 336.061 C 970.523 327.687 973.901 316.667 975.041 308.149 C 976.258 299.057 976.445 286.764 976.192 277.594 C 976.035 271.950 976.083 264.280 974.556 258.843 C 974.085 257.168 972.907 255.132 972.165 253.558 C 968.830 246.492 964.361 237.067 960.560 230.240 C 956.973 223.798 947.635 209.337 947.634 209.335 "/>
<path fill="#588d3d" fill-rule="evenodd" stroke="none" d="M 920.626 26.191 C 914.474 32.255 906.271 40.340 900.119 46.404 C 900.120 46.405 905.268 54.475 907.159 58.111 C 908.360 60.420 909.712 63.621 910.719 66.021 C 912.788 70.957 915.747 77.501 917.125 82.673 C 918.039 86.103 918.703 90.816 919.034 94.350 C 919.506 99.382 920.010 106.180 919.371 111.193 C 918.549 117.637 915.932 126.031 913.361 131.997 C 909.629 140.658 902.898 151.456 897.142 158.926 C 895.576 160.959 893.072 163.318 891.328 165.200 C 891.326 165.199 878.846 162.689 873.426 162.140 C 867.668 161.557 859.929 161.303 854.147 161.528 C 846.807 161.812 836.978 162.643 829.818 164.282 C 821.638 166.154 811.027 170.009 803.451 173.616 C 797.396 176.499 789.803 181.316 784.324 185.181 C 778.725 189.132 771.839 195.172 766.643 199.638 C 762.525 203.177 757.230 208.119 753.195 211.753 C 753.196 211.754 761.116 214.806 764.621 215.762 C 772.873 218.012 784.151 220.051 792.659 220.934 C 805.306 222.247 822.350 222.584 835.034 221.696 C 842.414 221.180 852.105 219.135 859.422 218.038 C 859.415 218.045 813.184 266.635 793.369 287.462 C 793.370 287.462 807.291 287.379 813.247 287.056 C 824.475 286.449 839.479 285.456 850.570 283.608 C 860.830 281.899 874.438 278.859 884.270 275.470 C 890.712 273.249 898.904 269.236 905.015 266.222 C 908.144 264.678 912.189 262.373 915.263 260.723 C 915.263 260.725 916.472 270.249 917.512 274.220 C 918.940 279.670 920.409 287.508 924.011 291.841 C 926.585 294.936 931.657 297.440 935.383 298.964 C 938.836 300.376 943.793 301.822 947.521 301.671 C 949.917 301.574 953.195 300.778 955.208 299.475 C 959.105 296.950 962.429 291.293 964.669 287.226 C 967.091 282.828 969.076 276.339 970.356 271.484 C 971.556 266.930 973.177 260.718 973.008 256.012 C 972.847 251.545 970.936 245.760 969.472 241.536 C 967.249 235.124 963.416 226.846 959.922 221.028 C 956.597 215.491 951.269 208.653 946.981 203.822 C 942.403 198.665 935.349 192.705 930.363 187.940 C 930.364 187.939 937.929 180.949 940.658 177.499 C 945.399 171.502 950.709 162.677 953.918 155.738 C 958.065 146.770 962.703 134.189 964.063 124.401 C 964.919 118.237 964.804 109.769 963.612 103.660 C 961.061 90.593 953.011 74.354 946.703 62.629 C 943.774 57.185 938.953 50.457 935.373 45.417 C 931.163 39.491 925.050 31.959 920.626 26.191 C 920.626 26.191 920.626 26.191 920.626 26.191 Z"/>
<path fill="none" stroke="#588d3d" stroke-width="1" stroke-linecap="round" stroke-linejoin="round" d="M 900.119 46.404 C 900.119 46.404 900.119 46.404 900.119 46.404 C 906.271 40.340 914.474 32.255 920.626 26.191 C 920.626 26.191 920.626 26.191 920.626 26.191 C 925.050 31.959 931.163 39.491 935.373 45.417 C 938.953 50.457 943.774 57.185 946.703 62.629 C 953.011 74.354 961.061 90.593 963.612 103.660 C 964.804 109.769 964.919 118.237 964.063 124.401 C 962.703 134.189 958.065 146.770 953.918 155.738 C 950.709 162.677 945.399 171.502 940.658 177.499 C 937.929 180.949 930.364 187.939 930.363 187.940 C 930.363 187.940 930.363 187.940 930.363 187.940 C 935.349 192.705 942.403 198.665 946.981 203.822 C 951.269 208.653 956.597 215.491 959.922 221.028 C 963.416 226.846 967.249 235.124 969.472 241.536 C 970.936 245.760 972.847 251.545 973.008 256.012 C 973.177 260.718 971.556 266.930 970.356 271.484 C 969.076 276.339 967.091 282.828 964.669 287.226 C 962.429 291.293 959.105 296.950 955.208 299.475 C 953.195 300.778 949.917 301.574 947.521 301.671 C 943.793 301.822 938.836 300.376 935.383 298.964 C 931.657 297.440 926.585 294.936 924.011 291.841 C 920.409 287.508 918.940 279.670 917.512 274.220 C 916.472 270.249 915.263 260.725 915.263 260.723 C 915.263 260.723 915.263 260.723 915.263 260.723 C 912.189 262.373 908.144 264.678 905.015 266.222 C 898.904 269.236 890.712 273.249 884.270 275.470 C 874.438 278.859 860.830 281.899 850.570 283.608 C 839.479 285.456 824.475 286.449 813.247 287.056 C 807.291 287.379 793.370 287.462 793.369 287.462 C 793.369 287.462 793.369 287.462 793.369 287.462 C 813.184 266.635 859.415 218.045 859.422 218.038 C 859.422 218.038 859.422 218.038 859.422 218.038 C 852.105 219.135 842.414 221.180 835.034 221.696 C 822.350 222.584 805.306 222.247 792.659 220.934 C 784.151 220.051 772.873 218.012 764.621 215.762 C 761.116 214.806 753.196 211.754 753.195 211.753 C 753.195 211.753 753.195 211.753 753.195 211.753 C 757.230 208.119 762.525 203.177 766.643 199.638 C 771.839 195.172 778.725 189.132 784.324 185.181 C 789.803 181.316 797.396 176.499 803.451 173.616 C 811.027 170.009 821.638 166.154 829.818 164.282 C 836.978 162.643 846.807 161.812 854.147 161.528 C 859.929 161.303 867.668 161.557 873.426 162.140 C 878.846 162.689 891.326 165.199 891.328 165.200 C 891.328 165.200 891.328 165.200 891.328 165.200 C 893.072 163.318 895.576 160.959 897.142 158.926 C 902.898 151.456 909.629 140.658 913.361 131.997 C 915.932 126.031 918.549 117.637 919.371 111.193 C 920.010 106.180 919.506 99.382 919.034 94.350 C 918.703 90.816 918.039 86.103 917.125 82.673 C 915.747 77.501 912.788 70.957 910.719 66.021 C 909.712 63.621 908.360 60.420 907.159 58.111 C 905.268 54.475 900.120 46.405 900.119 46.404 "/>
<path fill="#9fc939" fill-rule="evenodd" stroke="none" d="M 900.483 45.952 C 906.534 39.987 914.600 32.034 920.651 26.069 C 920.651 26.070 920.842 31.128 920.557 33.269 C 920.144 36.378 919.458 40.671 917.863 43.372 C 916.579 45.545 914.210 48.350 911.857 49.265 C 909.943 50.011 907.011 49.616 905.010 49.153 C 903.658 48.841 901.964 48.001 900.792 47.260 C 900.519 47.087 900.203 46.788 899.951 46.586 C 899.951 46.586 900.483 45.952 900.483 45.952 Z"/>
<path fill="none" stroke="#9fc939" stroke-width="1" stroke-linecap="round" stroke-linejoin="round" d="M 920.651 26.069 C 920.651 26.069 920.651 26.069 920.651 26.069 C 914.600 32.034 906.534 39.987 900.483 45.952 C 900.483 45.952 899.951 46.586 899.951 46.586 C 899.951 46.586 899.951 46.586 899.951 46.586 C 900.203 46.788 900.519 47.087 900.792 47.260 C 901.964 48.001 903.658 48.841 905.010 49.153 C 907.011 49.616 909.943 50.011 911.857 49.265 C 914.210 48.350 916.579 45.545 917.863 43.372 C 919.458 40.671 920.144 36.378 920.557 33.269 C 920.842 31.128 920.651 26.070 920.651 26.069 "/>
<path fill="#9fc939" fill-rule="evenodd" stroke="none" d="M 875.896 175.759 C 877.940 176.449 880.556 177.665 882.553 178.482 C 882.550 178.483 862.920 184.046 854.512 186.451 C 846.308 188.797 835.374 191.943 827.178 194.318 C 819.503 196.542 809.294 199.589 801.609 201.777 C 795.281 203.579 786.827 205.927 780.477 207.653 C 777.110 208.567 772.611 209.745 769.240 210.642 C 774.610 206.199 781.473 199.891 787.139 195.832 C 793.543 191.243 802.525 185.716 809.522 182.094 C 814.270 179.637 820.734 176.489 825.865 174.988 C 831.561 173.322 839.483 172.286 845.406 171.909 C 850.656 171.575 857.728 171.628 862.934 172.383 C 866.910 172.959 872.088 174.474 875.896 175.759 M 769.240 210.642 C 769.240 210.642 769.240 210.642 769.240 210.642 Z"/>
<path fill="none" stroke="#9fc939" stroke-width="1" stroke-linecap="round" stroke-linejoin="round" d="M 882.553 178.482 C 882.553 178.482 882.553 178.482 882.553 178.482 C 880.556 177.665 877.940 176.449 875.896 175.759 C 872.088 174.474 866.910 172.959 862.934 172.383 C 857.728 171.628 850.656 171.575 845.406 171.909 C 839.483 172.286 831.561 173.322 825.865 174.988 C 820.734 176.489 814.270 179.637 809.522 182.094 C 802.525 185.716 793.543 191.243 787.139 195.832 C 781.473 199.891 774.610 206.199 769.240 210.642 C 769.240 210.642 769.240 210.642 769.240 210.642 C 772.611 209.745 777.110 208.567 780.477 207.653 C 786.827 205.927 795.281 203.579 801.609 201.777 C 809.294 199.589 819.503 196.542 827.178 194.318 C 835.374 191.943 846.308 188.797 854.512 186.451 C 862.920 184.046 882.550 178.483 882.553 178.482 "/>
</g>
</svg>
