<?xml version="1.0" encoding="utf-8"?>
<!-- Generator: Moho 12.5 build 22438 -->
<!DOCTYPE svg PUBLIC "-//W3C//DTD SVG 1.1//EN" "http://www.w3.org/Graphics/SVG/1.1/DTD/svg11.dtd">
<svg version="1.1" id="Frame_0" xmlns="http://www.w3.org/2000/svg" xmlns:xlink="http://www.w3.org/1999/xlink" width="1280px" height="720px">
<g id="Layer_4">
<clipPath id="309a8690-cbae-4019-95fc-f5197a05cf6a">
<path fill="#296600" fill-rule="evenodd" stroke="none" d="M 183.709 412.580 C 192.035 399.152 208.922 385.315 221.931 376.349 C 233.410 368.436 250.765 361.158 263.736 356.044 C 275.369 351.457 291.500 347.043 303.550 343.701 C 318.122 339.661 337.751 335.002 352.521 331.757 C 382.814 325.102 423.791 319.066 454.047 312.248 C 475.394 307.438 503.855 300.778 524.696 294.109 C 550.335 285.904 583.475 271.932 608.339 261.613 C 634.085 250.928 667.932 235.547 693.319 224.033 C 713.789 214.749 740.478 201.009 761.270 192.471 C 783.903 183.178 814.628 172.045 838.057 164.993 C 853.676 160.293 874.771 154.800 890.805 151.806 C 899.573 150.169 911.391 148.638 920.282 147.928 C 931.312 147.046 946.153 145.748 957.152 146.952 C 972.145 148.593 992.048 153.403 1005.824 159.542 C 1014.952 163.610 1026.328 170.975 1033.828 177.580 C 1044.704 187.158 1057.215 202.377 1064.481 214.916 C 1067.714 220.496 1071.102 228.550 1072.577 234.828 C 1074.862 244.554 1075.640 258.131 1074.612 268.069 C 1073.372 280.054 1068.572 295.692 1063.758 306.737 C 1059.019 317.611 1050.597 331.248 1043.159 340.489 C 1037.276 347.798 1027.967 356.322 1020.690 362.245 C 1007.341 373.110 987.730 385.252 972.899 393.987 C 945.377 410.196 907.095 429.069 878.039 442.335 C 837.031 461.058 780.988 482.992 738.615 498.378 C 701.812 511.743 652.286 528.469 614.536 538.862 C 573.581 550.138 518.278 562.878 476.387 569.925 C 449.768 574.404 414.005 579.603 387.024 580.413 C 364.104 581.101 333.325 580.012 310.699 576.287 C 294.404 573.605 272.703 568.480 257.580 561.847 C 246.767 557.104 232.928 549.014 224.059 541.219 C 213.642 532.063 202.665 516.794 195.179 505.119 C 190.696 498.127 185.586 488.218 182.503 480.506 C 179.879 473.943 176.957 464.891 175.810 457.917 C 174.845 452.051 175.224 444.057 174.973 438.117 C 174.973 438.117 174.973 438.117 174.973 438.117 C 174.966 438.100 179.442 419.461 183.709 412.580 Z"/>
</clipPath>
<path fill="#296600" fill-rule="evenodd" stroke="#296600" stroke-width="1" stroke-linecap="round" stroke-linejoin="round" d="M 183.709 412.580 C 192.035 399.152 208.922 385.315 221.931 376.349 C 233.410 368.436 250.765 361.158 263.736 356.044 C 275.369 351.457 291.500 347.043 303.550 343.701 C 318.122 339.661 337.751 335.002 352.521 331.757 C 382.814 325.102 423.791 319.066 454.047 312.248 C 475.394 307.438 503.855 300.778 524.696 294.109 C 550.335 285.904 583.475 271.932 608.339 261.613 C 634.085 250.928 667.932 235.547 693.319 224.033 C 713.789 214.749 740.478 201.009 761.270 192.471 C 783.903 183.178 814.628 172.045 838.057 164.993 C 853.676 160.293 874.771 154.800 890.805 151.806 C 899.573 150.169 911.391 148.638 920.282 147.928 C 931.312 147.046 946.153 145.748 957.152 146.952 C 972.145 148.593 992.048 153.403 1005.824 159.542 C 1014.952 163.610 1026.328 170.975 1033.828 177.580 C 1044.704 187.158 1057.215 202.377 1064.481 214.916 C 1067.714 220.496 1071.102 228.550 1072.577 234.828 C 1074.862 244.554 1075.640 258.131 1074.612 268.069 C 1073.372 280.054 1068.572 295.692 1063.758 306.737 C 1059.019 317.611 1050.597 331.248 1043.159 340.489 C 1037.276 347.798 1027.967 356.322 1020.690 362.245 C 1007.341 373.110 987.730 385.252 972.899 393.987 C 945.377 410.196 907.095 429.069 878.039 442.335 C 837.031 461.058 780.988 482.992 738.615 498.378 C 701.812 511.743 652.286 528.469 614.536 538.862 C 573.581 550.138 518.278 562.878 476.387 569.925 C 449.768 574.404 414.005 579.603 387.024 580.413 C 364.104 581.101 333.325 580.012 310.699 576.287 C 294.404 573.605 272.703 568.480 257.580 561.847 C 246.767 557.104 232.928 549.014 224.059 541.219 C 213.642 532.063 202.665 516.794 195.179 505.119 C 190.696 498.127 185.586 488.218 182.503 480.506 C 179.879 473.943 176.957 464.891 175.810 457.917 C 174.845 452.051 175.224 444.057 174.973 438.117 C 174.973 438.117 174.973 438.117 174.973 438.117 C 174.966 438.100 179.442 419.461 183.709 412.580 Z"/>
<path fill="#479100" fill-rule="evenodd" stroke="none" d="M 575.628 302.502 C 583.463 300.384 593.909 297.558 601.743 295.439 C 601.743 295.439 601.619 296.717 601.314 297.151 C 599.302 300.019 594.008 300.821 590.826 302.288 C 577.581 308.400 559.684 316.049 546.089 321.339 C 528.582 328.151 504.886 336.324 487.011 342.102 C 469.552 347.745 446.054 354.582 428.361 359.440 C 407.615 365.137 379.469 370.930 358.840 377.038 C 341.042 382.308 317.393 389.799 300.241 396.893 C 287.573 402.132 270.881 409.797 259.173 416.926 C 250.964 421.924 240.476 429.438 233.358 435.894 C 228.927 439.912 223.590 445.898 219.907 450.612 C 218.697 452.162 217.317 454.399 216.206 456.021 C 216.209 456.021 234.301 454.208 242.043 453.317 C 250.210 452.377 261.092 451.054 269.232 449.900 C 313.337 443.648 372.037 434.402 415.784 425.998 C 452.753 418.897 501.745 407.878 538.325 398.986 C 568.440 391.666 608.539 381.560 638.182 372.518 C 639.777 372.031 641.874 371.287 643.456 370.759 C 643.456 370.759 644.096 371.460 644.132 371.841 C 644.165 372.187 643.904 372.626 643.726 372.923 C 643.358 373.540 642.691 374.269 642.104 374.682 C 640.789 375.603 638.602 376.009 637.100 376.575 C 620.399 382.862 598.229 391.518 581.381 397.401 C 541.567 411.305 488.101 428.847 447.524 440.340 C 404.586 452.502 346.787 466.893 303.074 475.880 C 280.006 480.622 248.905 485.108 225.689 489.064 C 225.691 489.065 238.753 499.669 245.179 502.821 C 266.262 513.163 297.624 519.373 320.843 522.883 C 348.238 527.025 385.442 527.270 413.131 526.323 C 446.497 525.181 490.767 519.370 523.762 514.285 C 551.464 510.016 588.018 502.063 615.406 496.100 C 626.016 493.789 640.077 490.326 650.650 487.851 C 650.649 487.852 641.891 493.082 637.902 494.850 C 607.392 508.369 563.968 519.452 531.669 527.845 C 506.603 534.358 472.782 541.582 447.230 545.805 C 417.265 550.758 377.039 556.775 346.678 557.577 C 326.051 558.122 298.303 557.387 278.009 553.653 C 263.902 551.057 245.320 545.639 232.305 539.609 C 225.294 536.362 216.136 531.237 210.403 526.058 C 204.862 521.052 199.173 512.672 195.208 506.346 C 191.260 500.045 187.063 491.007 184.138 484.171 C 181.514 478.037 178.443 469.662 176.581 463.256 C 176.011 461.291 175.284 458.647 175.020 456.618 C 174.735 454.423 175.015 451.448 174.831 449.242 C 174.804 448.923 174.736 448.500 174.696 448.182 C 175.203 445.501 175.409 441.793 176.387 439.246 C 179.297 431.662 185.740 422.550 191.365 416.689 C 201.441 406.190 218.451 396.012 231.246 389.079 C 246.751 380.677 269.088 372.832 285.763 367.094 C 301.097 361.818 321.924 355.860 337.707 352.137 C 355.543 347.928 379.740 344.278 397.787 341.092 C 417.451 337.621 443.811 333.795 463.414 329.994 C 479.818 326.813 501.600 322.087 517.834 318.128 C 535.284 313.873 558.291 307.191 575.628 302.502 M 174.696 448.182 C 174.696 448.182 174.696 448.182 174.696 448.182 Z" clip-path="url(#309a8690-cbae-4019-95fc-f5197a05cf6a)"/>
<path fill="none" stroke="#479100" stroke-width="1" stroke-linecap="round" stroke-linejoin="round" d="M 601.743 295.439 C 601.743 295.439 601.743 295.439 601.743 295.439 C 593.909 297.558 583.463 300.384 575.628 302.502 C 558.291 307.191 535.284 313.873 517.834 318.128 C 501.600 322.087 479.818 326.813 463.414 329.994 C 443.811 333.795 417.451 337.621 397.787 341.092 C 379.740 344.278 355.543 347.928 337.707 352.137 C 321.924 355.860 301.097 361.818 285.763 367.094 C 269.088 372.832 246.751 380.677 231.246 389.079 C 218.451 396.012 201.441 406.190 191.365 416.689 C 185.740 422.550 179.297 431.662 176.387 439.246 C 175.409 441.793 175.203 445.501 174.696 448.182 C 174.696 448.182 174.696 448.182 174.696 448.182 C 174.736 448.500 174.804 448.923 174.831 449.242 C 175.015 451.448 174.735 454.423 175.020 456.618 C 175.284 458.647 176.011 461.291 176.581 463.256 C 178.443 469.662 181.514 478.037 184.138 484.171 C 187.063 491.007 191.260 500.045 195.208 506.346 C 199.173 512.672 204.862 521.052 210.403 526.058 C 216.136 531.237 225.294 536.362 232.305 539.609 C 245.320 545.639 263.902 551.057 278.009 553.653 C 298.303 557.387 326.051 558.122 346.678 557.577 C 377.039 556.775 417.265 550.758 447.230 545.805 C 472.782 541.582 506.603 534.358 531.669 527.845 C 563.968 519.452 607.392 508.369 637.902 494.850 C 641.891 493.082 650.649 487.852 650.650 487.851 C 650.650 487.851 650.650 487.851 650.650 487.851 C 640.077 490.326 626.016 493.789 615.406 496.100 C 588.018 502.063 551.464 510.016 523.762 514.285 C 490.767 519.370 446.497 525.181 413.131 526.323 C 385.442 527.270 348.238 527.025 320.843 522.883 C 297.624 519.373 266.262 513.163 245.179 502.821 C 238.753 499.669 225.691 489.065 225.689 489.064 C 225.689 489.064 225.689 489.064 225.689 489.064 C 248.905 485.108 280.006 480.622 303.074 475.880 C 346.787 466.893 404.586 452.502 447.524 440.340 C 488.101 428.847 541.567 411.305 581.381 397.401 C 598.229 391.518 620.399 382.862 637.100 376.575 C 638.602 376.009 640.789 375.603 642.104 374.682 C 642.691 374.269 643.358 373.540 643.726 372.923 C 643.904 372.626 644.165 372.187 644.132 371.841 C 644.096 371.460 643.456 370.759 643.456 370.759 C 643.456 370.759 643.456 370.759 643.456 370.759 C 641.874 371.287 639.777 372.031 638.182 372.518 C 608.539 381.560 568.440 391.666 538.325 398.986 C 501.745 407.878 452.753 418.897 415.784 425.998 C 372.037 434.402 313.337 443.648 269.232 449.900 C 261.092 451.054 250.210 452.377 242.043 453.317 C 234.301 454.208 216.209 456.021 216.206 456.021 C 216.206 456.021 216.206 456.021 216.206 456.021 C 217.317 454.399 218.697 452.162 219.907 450.612 C 223.590 445.898 228.927 439.912 233.358 435.894 C 240.476 429.438 250.964 421.924 259.173 416.926 C 270.881 409.797 287.573 402.132 300.241 396.893 C 317.393 389.799 341.042 382.308 358.840 377.038 C 379.469 370.930 407.615 365.137 428.361 359.440 C 446.054 354.582 469.552 347.745 487.011 342.102 C 504.886 336.324 528.582 328.151 546.089 321.339 C 559.684 316.049 577.581 308.400 590.826 302.288 C 594.008 300.821 599.302 300.019 601.314 297.151 C 601.619 296.717 601.743 295.439 601.743 295.439 " clip-path="url(#309a8690-cbae-4019-95fc-f5197a05cf6a)"/>
<path fill="#224e01" fill-rule="evenodd" stroke="#224e01" stroke-width="1" stroke-linecap="round" stroke-linejoin="round" d="M 860.299 362.416 C 865.869 362.416 870.617 367.105 870.617 373.277 C 870.617 379.449 865.869 384.138 860.299 384.138 C 854.729 384.138 849.981 379.449 849.981 373.277 C 849.981 367.105 854.729 362.416 860.299 362.416 Z" clip-path="url(#309a8690-cbae-4019-95fc-f5197a05cf6a)"/>
<path fill="#224e01" fill-rule="evenodd" stroke="#224e01" stroke-width="1" stroke-linecap="round" stroke-linejoin="round" d="M 864.915 299.965 C 870.225 299.965 875.233 304.766 875.233 312.048 C 875.233 319.331 870.225 324.131 864.915 324.131 C 859.605 324.131 854.597 319.331 854.597 312.048 C 854.597 304.766 859.605 299.965 864.915 299.965 Z" clip-path="url(#309a8690-cbae-4019-95fc-f5197a05cf6a)"/>
<path fill="#224e01" fill-rule="evenodd" stroke="#224e01" stroke-width="1" stroke-linecap="round" stroke-linejoin="round" d="M 942.571 295.349 C 948.081 295.349 953.432 300.418 953.432 308.519 C 953.432 316.619 948.081 321.687 942.571 321.687 C 937.062 321.687 931.710 316.619 931.710 308.519 C 931.710 300.418 937.061 295.349 942.571 295.349 Z" clip-path="url(#309a8690-cbae-4019-95fc-f5197a05cf6a)"/>
<path fill="#224e01" fill-rule="evenodd" stroke="#224e01" stroke-width="1" stroke-linecap="round" stroke-linejoin="round" d="M 777.348 337.979 C 784.036 337.979 789.431 343.374 789.431 350.062 C 789.431 356.750 784.036 362.145 777.348 362.145 C 770.660 362.145 765.265 356.750 765.265 350.062 C 765.265 343.374 770.660 337.979 777.348 337.979 Z" clip-path="url(#309a8690-cbae-4019-95fc-f5197a05cf6a)"/>
<path fill="#224e01" fill-rule="evenodd" stroke="#224e01" stroke-width="1" stroke-linecap="round" stroke-linejoin="round" d="M 731.985 405.049 C 737.989 405.049 743.474 410.365 743.474 418.037 C 743.474 425.708 737.989 431.024 731.985 431.024 C 725.982 431.024 720.496 425.708 720.496 418.037 C 720.496 410.365 725.982 405.049 731.985 405.049 Z" clip-path="url(#309a8690-cbae-4019-95fc-f5197a05cf6a)"/>
<path fill="#224e01" fill-rule="evenodd" stroke="#224e01" stroke-width="1" stroke-linecap="round" stroke-linejoin="round" d="M 793.480 277.520 C 800.269 277.520 806.004 283.197 806.004 290.589 C 806.004 297.982 800.269 303.658 793.480 303.658 C 786.691 303.658 780.955 297.982 780.955 290.589 C 780.955 283.197 786.691 277.520 793.480 277.520 Z" clip-path="url(#309a8690-cbae-4019-95fc-f5197a05cf6a)"/>
<path fill="#224e01" fill-rule="evenodd" stroke="#224e01" stroke-width="1" stroke-linecap="round" stroke-linejoin="round" d="M 789.668 210.541 C 796.029 210.541 801.648 216.040 801.648 223.610 C 801.648 231.179 796.029 236.679 789.668 236.679 C 783.307 236.679 777.688 231.179 777.688 223.610 C 777.688 216.040 783.307 210.541 789.668 210.541 Z" clip-path="url(#309a8690-cbae-4019-95fc-f5197a05cf6a)"/>
<path fill="#224e01" fill-rule="evenodd" stroke="#224e01" stroke-width="1" stroke-linecap="round" stroke-linejoin="round" d="M 936.968 164.799 C 942.704 164.799 947.587 169.623 947.587 175.962 C 947.587 182.301 942.704 187.125 936.968 187.125 C 931.233 187.125 926.350 182.301 926.350 175.962 C 926.350 169.623 931.233 164.799 936.968 164.799 Z" clip-path="url(#309a8690-cbae-4019-95fc-f5197a05cf6a)"/>
<path fill="#224e01" fill-rule="evenodd" stroke="#224e01" stroke-width="1" stroke-linecap="round" stroke-linejoin="round" d="M 990.607 223.610 C 995.814 223.610 1000.953 228.441 1000.953 236.407 C 1000.953 244.373 995.814 249.204 990.607 249.204 C 985.399 249.204 980.260 244.373 980.260 236.407 C 980.260 228.441 985.399 223.610 990.607 223.610 Z" clip-path="url(#309a8690-cbae-4019-95fc-f5197a05cf6a)"/>
<path fill="#224e01" fill-rule="evenodd" stroke="#224e01" stroke-width="1" stroke-linecap="round" stroke-linejoin="round" d="M 919.271 231.778 C 926.883 231.778 932.884 237.809 932.884 245.119 C 932.884 252.430 926.883 258.461 919.271 258.461 C 911.658 258.461 905.657 252.430 905.657 245.119 C 905.657 237.808 911.658 231.778 919.271 231.778 Z" clip-path="url(#309a8690-cbae-4019-95fc-f5197a05cf6a)"/>
<path fill="#224e01" fill-rule="evenodd" stroke="#224e01" stroke-width="1" stroke-linecap="round" stroke-linejoin="round" d="M 847.662 215.986 C 854.000 215.986 859.370 221.297 859.370 228.239 C 859.370 235.180 854.000 240.491 847.662 240.491 C 841.325 240.491 835.955 235.180 835.955 228.239 C 835.955 221.297 841.325 215.986 847.662 215.986 Z" clip-path="url(#309a8690-cbae-4019-95fc-f5197a05cf6a)"/>
<path fill="#224e01" fill-rule="evenodd" stroke="#224e01" stroke-width="1" stroke-linecap="round" stroke-linejoin="round" d="M 724.322 226.877 C 731.413 226.877 737.391 232.797 737.391 240.491 C 737.391 248.184 731.413 254.105 724.322 254.105 C 717.232 254.105 711.253 248.184 711.253 240.491 C 711.253 232.797 717.232 226.877 724.322 226.877 Z" clip-path="url(#309a8690-cbae-4019-95fc-f5197a05cf6a)"/>
<path fill="#224e01" fill-rule="evenodd" stroke="#224e01" stroke-width="1" stroke-linecap="round" stroke-linejoin="round" d="M 847.118 168.610 C 853.929 168.610 859.915 174.477 859.915 182.496 C 859.915 190.516 853.929 196.382 847.118 196.382 C 840.307 196.382 834.321 190.516 834.321 182.496 C 834.321 174.477 840.307 168.610 847.118 168.610 Z" clip-path="url(#309a8690-cbae-4019-95fc-f5197a05cf6a)"/>
<path fill="#224e01" fill-rule="evenodd" stroke="#224e01" stroke-width="1" stroke-linecap="round" stroke-linejoin="round" d="M 721.599 283.510 C 727.302 283.510 732.490 288.544 732.491 295.762 C 732.491 302.980 727.303 308.015 721.599 308.015 C 715.896 308.015 710.708 302.980 710.708 295.762 C 710.708 288.544 715.896 283.510 721.599 283.510 Z" clip-path="url(#309a8690-cbae-4019-95fc-f5197a05cf6a)"/>
<path fill="#224e01" fill-rule="evenodd" stroke="#224e01" stroke-width="1" stroke-linecap="round" stroke-linejoin="round" d="M 718.060 342.321 C 724.383 342.321 730.857 348.280 730.857 358.930 C 730.857 369.580 724.383 375.539 718.060 375.539 C 711.737 375.539 705.263 369.580 705.263 358.930 C 705.263 348.280 711.737 342.321 718.060 342.321 Z" clip-path="url(#309a8690-cbae-4019-95fc-f5197a05cf6a)"/>
<path fill="#224e01" fill-rule="evenodd" stroke="#224e01" stroke-width="1" stroke-linecap="round" stroke-linejoin="round" d="M 656.470 261.901 C 662.953 261.901 668.918 267.669 668.918 276.082 C 668.918 284.495 662.953 290.263 656.470 290.263 C 649.988 290.263 644.023 284.495 644.023 276.082 C 644.023 267.669 649.988 261.901 656.470 261.901 Z" clip-path="url(#309a8690-cbae-4019-95fc-f5197a05cf6a)"/>
<path fill="#224e01" fill-rule="evenodd" stroke="#224e01" stroke-width="1" stroke-linecap="round" stroke-linejoin="round" d="M 640.241 320.200 C 647.878 320.200 653.792 326.165 653.792 333.278 C 653.792 340.392 647.878 346.356 640.241 346.356 C 632.604 346.356 626.690 340.392 626.690 333.278 C 626.690 326.165 632.604 320.200 640.241 320.200 Z" clip-path="url(#309a8690-cbae-4019-95fc-f5197a05cf6a)"/>
<path fill="#224e01" fill-rule="evenodd" stroke="#224e01" stroke-width="1" stroke-linecap="round" stroke-linejoin="round" d="M 575.301 331.457 C 582.154 331.457 587.782 337.063 587.782 344.139 C 587.782 351.215 582.154 356.821 575.301 356.821 C 568.448 356.821 562.821 351.215 562.821 344.139 C 562.821 337.063 568.448 331.457 575.301 331.457 Z" clip-path="url(#309a8690-cbae-4019-95fc-f5197a05cf6a)"/>
<path fill="#224e01" fill-rule="evenodd" stroke="#224e01" stroke-width="1" stroke-linecap="round" stroke-linejoin="round" d="M 485.949 353.057 C 491.747 353.057 496.851 358.057 496.851 364.907 C 496.851 371.757 491.747 376.757 485.949 376.757 C 480.151 376.757 475.047 371.757 475.047 364.907 C 475.047 358.057 480.151 353.057 485.949 353.057 Z" clip-path="url(#309a8690-cbae-4019-95fc-f5197a05cf6a)"/>
<path fill="#224e01" fill-rule="evenodd" stroke="#224e01" stroke-width="1" stroke-linecap="round" stroke-linejoin="round" d="M 654.690 389.861 C 661.203 389.861 667.147 395.623 667.147 403.925 C 667.147 412.227 661.203 417.988 654.690 417.988 C 648.178 417.988 642.234 412.227 642.234 403.925 C 642.234 395.623 648.178 389.861 654.690 389.861 Z" clip-path="url(#309a8690-cbae-4019-95fc-f5197a05cf6a)"/>
<path fill="#224e01" fill-rule="evenodd" stroke="#224e01" stroke-width="1" stroke-linecap="round" stroke-linejoin="round" d="M 551.021 426.829 C 559.763 426.829 565.889 433.135 565.889 440.089 C 565.889 447.042 559.763 453.348 551.021 453.348 C 542.280 453.348 536.154 447.042 536.154 440.089 C 536.154 433.135 542.280 426.829 551.021 426.829 Z" clip-path="url(#309a8690-cbae-4019-95fc-f5197a05cf6a)"/>
<path fill="#224e01" fill-rule="evenodd" stroke="#224e01" stroke-width="1" stroke-linecap="round" stroke-linejoin="round" d="M 612.901 453.348 C 619.056 453.348 624.554 458.712 624.554 466.206 C 624.554 473.700 619.056 479.065 612.901 479.065 C 606.747 479.065 601.249 473.701 601.249 466.206 C 601.249 458.712 606.747 453.348 612.901 453.348 Z" clip-path="url(#309a8690-cbae-4019-95fc-f5197a05cf6a)"/>
<path fill="#224e01" fill-rule="evenodd" stroke="#224e01" stroke-width="1" stroke-linecap="round" stroke-linejoin="round" d="M 448.156 467.814 C 458.368 467.814 465.435 475.108 465.435 483.083 C 465.435 491.058 458.368 498.352 448.156 498.352 C 437.944 498.352 430.878 491.058 430.878 483.083 C 430.878 475.108 437.944 467.814 448.156 467.814 Z" clip-path="url(#309a8690-cbae-4019-95fc-f5197a05cf6a)"/>
<path fill="#ffffff" fill-rule="evenodd" stroke="#ffffff" stroke-width="1" stroke-linecap="round" stroke-linejoin="round" d="M 245.941 396.482 C 241.133 388.998 228.809 387.325 217.613 395.454 C 206.233 403.717 203.960 416.241 209.762 423.174 C 215.116 429.570 225.833 428.873 236.265 421.160 C 246.669 413.468 250.436 403.481 245.941 396.482 Z" clip-path="url(#309a8690-cbae-4019-95fc-f5197a05cf6a)"/>
<path fill="#ffffff" fill-rule="evenodd" stroke="#ffffff" stroke-width="1" stroke-linecap="round" stroke-linejoin="round" d="M 282.760 381.078 C 281.261 375.818 274.304 372.643 266.269 375.438 C 258.102 378.278 254.538 385.246 256.720 390.358 C 258.734 395.074 265.167 396.569 272.678 393.884 C 280.169 391.205 284.162 385.997 282.760 381.078 Z" clip-path="url(#309a8690-cbae-4019-95fc-f5197a05cf6a)"/>
<path fill="#ffffff" fill-rule="evenodd" stroke="#ffffff" stroke-width="1" stroke-linecap="round" stroke-linejoin="round" d="M 914.097 178.488 C 910.020 170.226 897.531 167.071 885.063 174.136 C 872.391 181.316 868.595 193.942 873.761 201.751 C 878.527 208.956 889.638 209.485 901.271 202.760 C 912.872 196.053 917.910 186.213 914.097 178.488 Z" clip-path="url(#309a8690-cbae-4019-95fc-f5197a05cf6a)"/>
<path fill="#ffffff" fill-rule="evenodd" stroke="#ffffff" stroke-width="1" stroke-linecap="round" stroke-linejoin="round" d="M 836.472 224.552 C 841.799 224.552 846.155 228.896 846.155 234.357 C 846.155 239.818 841.799 244.162 836.472 244.162 C 831.145 244.162 826.788 239.818 826.788 234.357 C 826.788 228.896 831.145 224.552 836.472 224.552 Z" clip-path="url(#309a8690-cbae-4019-95fc-f5197a05cf6a)"/>
<path fill="#214d00" fill-rule="evenodd" fill-opacity="0.380392" stroke="none" d="M 240.396 519.956 C 222.877 515.682 201.206 504.636 184.410 498.071 C 184.416 498.081 215.548 581.497 245.994 600.372 C 312.126 641.370 428.298 610.430 505.357 599.656 C 585.911 588.394 688.865 550.901 766.200 525.698 C 851.398 497.932 985.101 487.438 1046.317 421.999 C 1085.963 379.617 1116.616 296.396 1108.738 238.899 C 1105.473 215.068 1087.714 184.027 1068.511 169.542 C 1054.968 159.327 1030.420 158.781 1014.095 154.170 C 1016.616 161.865 1020.542 171.964 1022.496 179.822 C 1023.955 185.686 1025.814 193.616 1026.005 199.655 C 1026.260 207.673 1024.785 218.429 1022.802 226.201 C 1019.195 240.335 1011.992 258.826 1004.059 271.067 C 992.400 289.056 971.280 309.238 954.382 322.428 C 933.870 338.438 902.282 353.703 879.024 365.369 C 830.284 389.817 763.011 417.832 711.884 436.785 C 656.832 457.193 582.152 481.235 525.235 495.645 C 473.155 508.830 403.100 527.346 349.429 529.722 C 316.620 531.175 272.301 527.740 240.396 519.956 M 1014.095 154.170 C 1014.095 154.170 1014.095 154.170 1014.095 154.170 Z" clip-path="url(#309a8690-cbae-4019-95fc-f5197a05cf6a)"/>
<path fill="none" stroke="#000000" stroke-width="1" stroke-linecap="round" stroke-linejoin="round" d="M 184.410 498.071 C 184.410 498.071 184.410 498.071 184.410 498.071 M 1014.095 154.170 C 1014.095 154.170 1014.095 154.170 1014.095 154.170 C 1030.420 158.781 1054.968 159.327 1068.511 169.542 C 1087.714 184.027 1105.473 215.068 1108.738 238.899 C 1116.616 296.396 1085.963 379.617 1046.317 421.999 C 985.101 487.438 851.398 497.932 766.200 525.698 C 688.865 550.901 585.911 588.394 505.357 599.656 C 428.298 610.430 312.126 641.370 245.994 600.372 C 215.548 581.497 184.416 498.081 184.410 498.071 " clip-path="url(#309a8690-cbae-4019-95fc-f5197a05cf6a)"/>
</g>
</svg>
