<?xml version="1.0" encoding="UTF-8"?>
<svg width="187.09pt" height="187.09pt" fill-rule="evenodd" version="1.1" viewBox="0 0 187.087 187.087" xmlns="http://www.w3.org/2000/svg" xmlns:xlink="http://www.w3.org/1999/xlink">
 <defs>
  <linearGradient id="a">
   <stop stop-color="#d2d2d2" offset="0"/>
   <stop stop-color="#d6d6d6" stop-opacity="0" offset="1"/>
  </linearGradient>
  <filter id="aa" x="-.077587" y="-.256" width="1.1552" height="1.512">
   <feGaussianBlur stdDeviation="1.0862424"/>
  </filter>
  <radialGradient id="ad" cx="43.21" cy="156.57" r="18.299" gradientTransform="matrix(.88661 .36303 -.32592 .79598 54.852 16.904)" gradientUnits="userSpaceOnUse" xlink:href="#a"/>
  <radialGradient id="ae" cx="43.21" cy="156.57" r="18.299" gradientTransform="matrix(.91533 .3818 -.33648 .83711 56.032 9.9264)" gradientUnits="userSpaceOnUse" xlink:href="#a"/>
  <radialGradient id="ab" cx="18.865" cy="90.273" r="12.146" gradientTransform="matrix(1 0 0 1.6931 0 -62.569)" gradientUnits="userSpaceOnUse">
   <stop stop-color="#fff" offset="0"/>
   <stop stop-color="#fff" stop-opacity="0" offset="1"/>
  </radialGradient>
  <filter id="q" x="-.55962" y="-.26535" width="2.1192" height="1.5307">
   <feGaussianBlur stdDeviation="3.5401515"/>
  </filter>
  <filter id="r" x="-.081439" y="-.22792" width="1.1629" height="1.4558">
   <feGaussianBlur stdDeviation="1.0539843"/>
  </filter>
  <radialGradient id="ac" cx="75.58" cy="48.286" r="19.599" gradientTransform="matrix(1 0 0 .49072 0 24.591)" gradientUnits="userSpaceOnUse">
   <stop stop-color="#fff" offset="0"/>
   <stop stop-color="#fff" stop-opacity="0" offset="1"/>
  </radialGradient>
  <filter id="s" x="-.10264" y="-.15812" width="1.2053" height="1.3162">
   <feGaussianBlur stdDeviation="0.97244752"/>
  </filter>
  <filter id="t" x="-.18958" y="-.087782" width="1.3792" height="1.1756">
   <feGaussianBlur stdDeviation="1.3574194"/>
  </filter>
  <filter id="u" x="-.11419" y="-.12644" width="1.2284" height="1.2529">
   <feGaussianBlur stdDeviation="1.2575387"/>
  </filter>
  <filter id="v" x="-.081428" y="-.10009" width="1.1629" height="1.2002">
   <feGaussianBlur stdDeviation="0.7908621"/>
  </filter>
  <filter id="w" x="-.11516" y="-.12518" width="1.2303" height="1.2504">
   <feGaussianBlur stdDeviation="1.3093844"/>
  </filter>
  <filter id="x" x="-.14118" y="-.17353" width="1.2824" height="1.3471">
   <feGaussianBlur stdDeviation="1.3712148"/>
  </filter>
  <filter id="y" x="-.47233" y="-.48793" width="1.9447" height="1.9759">
   <feGaussianBlur stdDeviation="5.2498375"/>
  </filter>
  <filter id="z" x="-.099207" y="-1.3951" width="1.1984" height="3.7902">
   <feGaussianBlur stdDeviation="4.6081172"/>
  </filter>
 </defs>
 <path transform="matrix(.99464 0 0 .76176 -26.161 5.3174)" d="m175.89 228.41a55.74 3.9637 0 1 1 -111.48 0 55.74 3.9637 0 1 1 111.48 0z" fill="#454545" fill-opacity=".84681" filter="url(#z)"/>
 <g transform="matrix(1.2866 0 0 1.2866 -3.9028 -51.005)">
  <path d="m99.76 97.095c-6.8639-6.5974-14.377-12.606-23.902-16.789v-21.936c2.8848-2.7212 15.598-8.292 21.722-7.1376 9.391 4.6398 16.629 10.463 22.647 16.956 3.171 7.8788 2.564 15.276 1.014 22.552-7.16 2.1178-14.321 4.2356-21.481 6.3535z" fill="#fff"/>
  <path d="m100 96.965c-6.6508-6.6911-14.114-12.478-23.515-16.662 0-7.2002-0.1439-14.034 0.1729-21.147 2.7757-2.7503 14.487-8.1939 20.958-7.4392 9.1527 4.4321 16.721 10.519 22.647 16.914 3.123 7.7583 2.438 14.912 0.912 22.078-7.051 2.0855-14.123 4.1709-21.174 6.2564z" fill="#f9f9f9"/>
  <path d="m100.24 96.836c-6.4373-6.7847-13.85-12.35-23.128-16.535 0-7.0883-0.2878-13.443 0.3458-20.357 2.6665-2.7795 13.375-8.0959 20.194-7.7408 8.9133 4.2243 16.812 10.575 22.646 16.87 3.074 7.6378 2.312 14.549 0.81 21.603-6.941 2.0531-13.926 4.1061-20.868 6.1592z" fill="#f4f4f4"/>
  <path d="m100.48 96.706c-6.2245-6.8784-13.587-12.222-22.741-16.408 0-6.9765-0.4316-12.853 0.5188-19.568 2.5572-2.8085 12.263-7.9978 19.429-8.0423 8.675 4.0166 16.904 10.632 22.646 16.827 3.026 7.5174 2.187 14.186 0.708 21.129-6.832 2.0206-13.729 4.0413-20.561 6.062z" fill="#efefef"/>
  <path d="m100.72 96.576c-6.0118-6.972-13.324-12.094-22.354-16.281 0-6.8647-0.5754-12.262 0.6917-18.778 2.4481-2.8377 11.151-7.8999 18.665-8.3439 8.4367 3.8088 16.996 10.688 22.646 16.784 2.977 7.3969 2.061 13.822 0.606 20.654-6.722 1.9883-13.531 3.9766-20.254 5.9649z" fill="#eaeaea"/>
  <path d="m100.96 96.447c-5.799-7.0657-13.062-11.966-21.967-16.154 0-6.753-0.7194-11.672 0.8646-17.989 2.3389-2.8668 10.04-7.8018 17.9-8.6454 8.1974 3.601 17.086 10.744 22.644 16.741 2.929 7.2764 1.936 13.459 0.505 20.18-6.613 1.9559-13.334 3.9118-19.947 5.8677z" fill="#e5e5e5"/>
  <path d="m101.2 96.317c-5.5852-7.1593-12.798-11.839-21.579-16.026 0-6.6411-0.8632-11.082 1.0375-17.2 2.2297-2.896 8.9277-7.7038 17.136-8.947 7.9591 3.3933 17.178 10.8 22.644 16.698 2.881 7.1559 1.81 13.096 0.403 19.705-6.504 1.9236-13.137 3.8471-19.641 5.7706z" fill="#e0e0e0"/>
  <path d="m101.44 96.187c-5.3724-7.253-12.535-11.711-21.193-15.9 0-6.5293-1.007-10.491 1.2105-16.411 2.1205-2.925 7.8159-7.6057 16.371-9.2485 7.7198 3.1855 17.27 10.856 22.644 16.655 2.832 7.0356 1.684 12.733 0.301 19.23-6.394 1.8911-12.94 3.7823-19.334 5.6734z" fill="#dbdbdb"/>
  <path d="m101.68 96.058c-5.1597-7.3466-12.272-11.583-20.806-15.772 0-6.4175-1.1509-9.9008 1.3834-15.621 2.0113-2.9542 6.704-7.5077 15.607-9.5501 7.4815 2.9777 17.362 10.912 22.644 16.612 2.784 6.9151 1.559 12.37 0.199 18.756-6.285 1.8588-12.742 3.7176-19.027 5.5763z" fill="#d6d6d6"/>
  <path d="m101.92 95.928c-4.9469-7.4403-12.009-11.455-20.419-15.645 0-6.3058-1.2948-9.3105 1.5563-14.832 1.9022-2.9833 5.5923-7.4096 14.842-9.8516 7.2421 2.77 17.453 10.969 22.643 16.568 2.735 6.7946 1.433 12.006 0.097 18.281-6.176 1.8264-12.545 3.6528-18.72 5.4791z" fill="#d1d1d1"/>
  <path d="m102.16 95.798c-4.7331-7.534-11.746-11.327-20.031-15.518 0-6.1939-1.4387-8.7201 1.7292-14.043 1.7929-3.0125 4.4804-7.3116 14.078-10.153 7.0038 2.5622 17.545 11.025 22.643 16.525 2.686 6.6741 1.307 11.643-5e-3 17.807-6.066 1.794-12.348 3.588-18.414 5.382z" fill="#ccc"/>
  <path d="m12.901 88.814c-3.0147 9.1947-3.2406 12.611-2.5126 15.019 0.8425 2.786 2.9291 6.195 6.9684 7.773-0.0576 11.371 2.1735 21.135 7.9125 28.439-0.1192 4.875-0.2383 9.749-0.3575 14.624-8.7349-11.151-18.774-28.236-16.326-52.265 0.74848-7.4027 2.2353-12.02 3.4294-15.661 7.9036-23.471 25.316-38.269 49.681-42.861-2.9105 2.4504-5.8211 4.9007-8.7316 7.3512-14.243 4.7951-18.798 11.326-23.045 17.599-3.5982 1.0169-7.321 2.0495-10.205 5.0082-2.8131 4.5741-6.877 14.822-6.813 14.974z" fill="#fff"/>
  <path d="m12.92 88.725c-2.9855 9.1588-3.2029 12.575-2.5531 14.982 0.7478 2.97 2.9439 6.431 6.944 8.002-0.057 11.326 2.2389 21.031 7.9223 28.306-0.1181 4.856-0.1928 8.869-0.3108 13.725-9.3852-12.016-18.095-28.84-16.363-51.11 0.74121-7.3743 2.8476-13.528 4.1959-17.048 0.1946-0.1729 0.3375-0.1805 0.9943-0.7781 7.7701-21.721 23.77-36.048 47.34-40.403-2.8823 2.4408-5.2459 4.4277-8.1282 6.8685-13.422 4.3658-18.961 11.044-22.994 17.53-3.5634 1.013-7.4446 2.5603-10.301 5.5074-2.7858 4.5563-6.8103 14.267-6.7469 14.418z" fill="#f9f9f9"/>
  <path d="m12.939 88.636c-2.9562 9.123-3.1651 12.538-2.5935 14.945 0.6532 3.154 2.9587 6.666 6.9196 8.231-0.0564 11.282 2.3043 20.927 7.932 28.174-0.1169 4.837-0.1473 7.988-0.2641 12.825-10.035-12.88-17.415-29.443-16.399-49.956 0.73395-7.3449 3.4598-15.035 4.9624-18.435 0.3891-0.3459 0.675-0.361 1.9886-1.5563 7.6365-19.972 22.224-33.827 44.999-37.944-2.8541 2.4313-4.6707 3.9547-7.5248 6.386-12.601 3.9363-19.125 10.762-22.943 17.461-3.5284 1.0091-7.5681 3.0711-10.397 6.0067-2.7585 4.5384-6.7436 13.712-6.6808 13.863z" fill="#f4f4f4"/>
  <path d="m12.959 88.547c-2.927 9.087-3.1274 12.502-2.634 14.908 0.5585 3.337 2.9735 6.901 6.8953 8.461-0.0559 11.237 2.3696 20.823 7.9416 28.04-0.1157 4.818-0.1017 7.107-0.2173 11.925-10.686-13.744-16.736-30.046-16.435-48.8 0.72669-7.3164 4.0721-16.544 5.7289-19.822 0.5836-0.5187 1.0125-0.5415 2.9829-2.3344 7.503-18.222 20.677-31.606 42.659-35.486-2.8259 2.4217-4.0955 3.4816-6.9213 5.9033-11.781 3.507-19.288 10.48-22.893 17.393-3.4935 1.0051-7.6916 3.5819-10.492 6.5059-2.7312 4.5206-6.6769 13.157-6.6147 13.307z" fill="#efefef"/>
  <path d="m12.978 88.458c-2.8977 9.0512-3.0896 12.465-2.6745 14.871 0.464 3.521 2.9884 7.137 6.871 8.69-0.0554 11.193 2.435 20.719 7.9514 27.908-0.1146 4.799-0.0562 6.226-0.1707 11.025-11.336-14.609-16.057-30.65-16.471-47.645 0.71943-7.288 4.6843-18.052 6.4954-21.21 0.7781-0.6917 1.35-0.722 3.9772-3.1126 7.3693-16.473 19.131-29.385 40.318-33.028-2.7976 2.4122-3.5202 3.0086-6.3178 5.4208-10.96 3.0776-19.452 10.198-22.842 17.324-3.4586 1.0011-7.8151 4.0926-10.588 7.0051-2.7039 4.5027-6.6102 12.602-6.5487 12.752z" fill="#eaeaea"/>
  <path d="m12.997 88.37c-2.8685 9.0153-3.052 12.428-2.715 14.834 0.3693 3.704 3.0032 7.371 6.8466 8.918-0.0548 11.149 2.5004 20.615 7.9611 27.776-0.1134 4.779-0.0106 5.344-0.124 10.124-11.986-15.473-15.378-31.252-16.507-46.49 0.71217-7.2585 5.2965-19.56 7.2618-22.596 0.9727-0.8647 1.6875-0.9026 4.9715-3.8908 7.2358-14.724 17.585-27.164 37.977-30.569-2.7694 2.4026-2.945 2.5356-5.7144 4.9382-10.139 2.6481-19.615 9.9161-22.792 17.255-3.4238 0.9971-7.9387 4.6034-10.683 7.5044-2.6767 4.4848-6.5435 12.047-6.4826 12.196z" fill="#e5e5e5"/>
  <path d="m13.017 88.281c-2.8392 8.9794-3.0142 12.391-2.7554 14.797 0.2747 3.888 3.018 7.606 6.8222 9.147-0.0542 11.104 2.5658 20.511 7.9709 27.643-0.1123 4.761 0.0349 4.464-0.0773 9.225-12.636-16.337-14.698-31.856-16.544-45.335 0.70492-7.2301 5.9088-21.068 8.0284-23.984 1.1672-1.0375 2.025-1.083 5.9658-4.6689 7.1022-12.974 16.038-24.943 35.636-28.111-2.7412 2.393-2.3698 2.0625-5.1109 4.4555-9.3183 2.2188-19.779 9.6342-22.741 17.187-3.3888 0.9932-8.0622 5.1141-10.779 8.0036-2.6494 4.467-6.4768 11.492-6.4166 11.64z" fill="#e0e0e0"/>
  <path d="m13.036 88.192c-2.81 8.9435-2.9765 12.354-2.7959 14.76 0.18 4.072 3.0328 7.842 6.7979 9.376-0.0537 11.06 2.6311 20.407 7.9805 27.511-0.1111 4.742 0.0805 3.582-0.0306 8.324-13.286-17.201-14.019-32.458-16.58-44.18 0.69766-7.2006 6.521-22.575 8.7948-25.371 1.3618-1.2105 2.3625-1.2636 6.9601-5.4471 6.9687-11.225 14.492-22.722 33.296-25.652-2.713 2.3834-1.7946 1.5894-4.5075 3.9729-8.4975 1.7893-19.942 9.3522-22.69 17.118-3.3539 0.9892-8.1857 5.6249-10.874 8.5028-2.622 4.4491-6.4101 10.937-6.3504 11.085z" fill="#dbdbdb"/>
  <path d="m13.056 88.103c-2.7808 8.9077-2.9388 12.318-2.8364 14.723 0.0854 4.256 3.0476 8.077 6.7735 9.606-0.0531 11.015 2.6965 20.302 7.9902 27.377-0.1099 4.723 0.1261 2.702 0.0161 7.425-13.936-18.066-13.34-33.062-16.616-43.025 0.6904-7.1722 7.1333-24.084 9.5614-26.758 1.5563-1.3834 2.7-1.444 7.9544-6.2252 6.8351-9.4752 12.946-20.501 30.955-23.194-2.6847 2.3739-1.2193 1.1164-3.904 3.4903-7.6766 1.36-20.106 9.0703-22.64 17.049-3.3191 0.9852-8.3093 6.1356-10.97 9.002-2.5948 4.4313-6.3434 10.382-6.2843 10.529z" fill="#d6d6d6"/>
  <path d="m13.075 88.014c-2.7515 8.8718-2.901 12.281-2.8768 14.686-0.0093 4.439 3.0624 8.312 6.7491 9.835-0.0525 10.971 2.7619 20.198 8 27.245-0.1088 4.704 0.1715 1.821 0.0628 6.524-14.587-18.93-12.661-33.664-16.652-41.87 0.68313-7.1427 7.7455-25.591 10.328-28.145 1.7508-1.5563 3.0375-1.6246 8.9486-7.0033 6.7016-7.7259 11.4-18.28 28.614-20.735-2.6565 2.3643-0.6441 0.6433-3.3005 3.0077-6.8559 0.9306-20.27 8.7883-22.589 16.981-3.2841 0.9812-8.4328 6.6464-11.065 9.5012-2.5675 4.4135-6.2767 9.8271-6.2183 9.9738z" fill="#d1d1d1"/>
  <path d="m13.094 87.925c-2.7223 8.8359-2.8634 12.245-2.9174 14.649-0.1038 4.623 3.0773 8.548 6.7248 10.064-0.052 10.927 2.8273 20.094 8.0097 27.113-0.1076 4.684 0.2171 0.939 0.1095 5.624-15.237-19.795-11.982-34.268-16.688-40.715 0.67587-7.1143 8.3576-27.1 11.094-29.532 1.9454-1.7292 3.375-1.805 9.943-7.7814 6.568-5.9765 9.8533-16.059 26.273-18.277-2.6283 2.3548-0.0689 0.1704-2.6971 2.5252-6.0351 0.5011-20.433 8.5063-22.539 16.912-3.2492 0.9772-8.5563 7.1572-11.161 10-2.5403 4.3956-6.21 9.2722-6.1522 9.4182z" fill="#ccc"/>
  <path d="m124.33 140.47c5.723-8.689 10.45-17.683 10.181-28.207-2.843-7.538-6.463-14.906-13.505-21.525-7.287 2.1551-14.573 4.3102-21.86 6.4652l-9.2601 27.981 13.122 21.678c7.224-0.56 15.656-2.545 21.322-6.392z" fill="#fff"/>
  <path d="m123.96 139.53c5.868-8.303 10.421-17.02 10.199-27.291-2.803-7.461-6.283-14.739-13.226-21.292-7.576 2.2648-13.989 4.1495-21.566 6.4143-5.7187 18.499-3.2639 9.4613-9.2465 27.755 8.4088 13.834 4.5711 7.537 12.98 21.371 6.991-0.892 15.045-3.174 20.859-6.958z" fill="#fbfbfb"/>
  <path d="m123.59 138.58c6.013-7.917 10.39-16.357 10.216-26.374-2.762-7.385-6.104-14.574-12.947-21.059-7.866 2.3746-13.406 3.9889-21.271 6.3634-5.2641 18.345-3.4412 9.5954-9.2331 27.53 8.0701 13.215 4.7684 7.848 12.838 21.063 6.757-1.224 14.434-3.803 20.397-7.524z" fill="#f8f8f8"/>
  <path d="m123.22 137.63c6.158-7.53 10.36-15.693 10.233-25.457-2.722-7.308-5.924-14.408-12.668-20.826-8.156 2.4842-12.822 3.8282-20.977 6.3124-4.8094 18.19-3.6184 9.7305-9.2196 27.306 7.7314 12.596 4.9658 8.158 12.697 20.754 6.523-1.555 13.823-4.432 19.935-8.089z" fill="#f4f4f4"/>
  <path d="m122.86 136.69c6.302-7.144 10.329-15.03 10.251-24.54-2.683-7.232-5.746-14.242-12.39-20.593-8.445 2.5939-12.238 3.6675-20.683 6.2615-4.3549 18.037-3.7958 9.8646-9.2063 27.08 7.3927 11.978 5.1632 8.469 12.556 20.447 6.288-1.886 13.211-5.061 19.472-8.655z" fill="#f1f1f1"/>
  <path d="m122.48 135.74c6.448-6.758 10.3-14.366 10.269-23.623-2.642-7.156-5.566-14.077-12.111-20.36-8.735 2.7037-11.654 3.5069-20.389 6.2106-3.9001 17.883-3.9729 9.9987-9.1927 26.855 7.054 11.359 5.3605 8.78 12.415 20.139 6.055-2.218 12.6-5.691 19.009-9.221z" fill="#ededed"/>
  <path d="m122.12 134.79c6.593-6.371 10.269-13.703 10.286-22.707-2.602-7.079-5.387-13.91-11.832-20.126-9.025 2.8134-11.07 3.3463-20.095 6.1597-3.4453 17.728-4.15 10.133-9.179 26.63 6.7153 10.74 5.5578 9.09 12.273 19.831 5.821-2.55 11.989-6.32 18.547-9.787z" fill="#eaeaea"/>
  <path d="m121.75 133.84c6.737-5.985 10.238-13.04 10.303-21.79-2.561-7.002-5.207-13.744-11.553-19.894-9.315 2.9231-10.487 3.1856-19.801 6.1088-2.9905 17.574-4.3271 10.268-9.1654 26.404 6.3766 10.122 5.7551 9.401 12.131 19.523 5.587-2.881 11.378-6.949 18.085-10.352z" fill="#e7e7e7"/>
  <path d="m121.38 132.9c6.882-5.598 10.208-12.376 10.321-20.873-2.522-6.926-5.029-13.579-11.275-19.661-9.604 3.0329-9.903 3.025-19.507 6.0579-2.5357 17.419-4.5043 10.402-9.1518 26.179 6.0379 9.503 5.9525 9.712 11.991 19.215 5.352-3.213 10.766-7.578 17.622-10.918z" fill="#e3e3e3"/>
  <path d="m121.01 131.95c7.028-5.213 10.178-11.714 10.339-19.957-2.482-6.85-4.849-13.413-10.996-19.428-9.894 3.1425-9.319 2.8643-19.213 6.0069-2.0809 17.265-4.6814 10.536-9.1382 25.954 5.6992 8.885 6.1499 10.022 11.849 18.907 5.118-3.545 10.155-8.208 17.159-11.483z" fill="#e0e0e0"/>
  <path d="m120.64 131c7.172-4.827 10.148-11.051 10.356-19.041-2.441-6.773-4.67-13.246-10.717-19.194-10.184 3.2523-8.735 2.7037-18.919 5.9559-1.6261 17.11-4.8585 10.671-9.1246 25.728 5.3605 8.267 6.3472 10.333 11.708 18.6 4.885-3.876 9.544-8.837 16.697-12.049z" fill="#ddd"/>
  <path d="m120.27 130.06c7.317-4.44 10.117-10.387 10.373-18.124-2.401-6.696-4.49-13.081-10.438-18.961-10.473 3.362-8.151 2.543-18.624 5.905-1.172 16.956-5.0366 10.805-9.1119 25.503 5.0217 7.648 6.5445 10.644 11.566 18.291 4.651-4.207 8.933-9.465 16.235-12.614z" fill="#d9d9d9"/>
  <path d="m119.9 129.11c7.462-4.054 10.087-9.724 10.39-17.207-2.36-6.62-4.311-12.915-10.159-18.729-10.763 3.4717-7.568 2.3824-18.33 5.8541-0.718 16.802-5.2137 10.94-9.0983 25.278 4.683 7.029 6.7418 10.954 11.425 17.983 4.416-4.539 8.321-10.095 15.772-13.18z" fill="#d6d6d6"/>
  <path d="m119.53 128.16c7.607-3.668 10.057-9.061 10.409-16.29-2.321-6.544-4.132-12.749-9.881-18.496-11.053 3.5815-6.984 2.2218-18.036 5.8032-0.263 16.648-5.3908 11.074-9.0847 25.053 4.3443 6.411 6.9392 11.265 11.284 17.676 4.182-4.871 7.71-10.724 15.309-13.746z" fill="#d2d2d2"/>
  <path d="m119.16 127.22c7.752-3.281 10.026-8.397 10.426-15.373-2.281-6.468-3.953-12.584-9.602-18.263-11.342 3.6911-6.4 2.061-17.742 5.7522 0.192 16.494-5.5679 11.209-9.0711 24.828 4.0057 5.792 7.1361 11.576 11.142 17.368 3.948-5.203 7.099-11.354 14.847-14.312z" fill="#cfcfcf"/>
  <path d="m118.79 126.27c7.897-2.895 9.996-7.734 10.443-14.457-2.24-6.39-3.773-12.417-9.323-18.029l-17.448 5.7013c0.647 16.339-5.745 11.343-9.0575 24.603 3.667 5.173 7.3335 11.886 11 17.059 3.715-5.534 6.488-11.982 14.385-14.877z" fill="#ccc"/>
  <path d="m143.14 105.47c-0.99 0.5-1.391 0.759-2.262 1.739-0.535-10.491-3.662-22.783-12.048-34.693 1.99 0.5578 2.447 1.1157 5.144 2.0337 4.802 9.0088 8.508 18.833 9.166 30.921z" fill="#fff"/>
  <g fill="#910000">
   <path d="m143.14 105.47c-2.749 2.293-5.745 4.902-8.392 6.857-2.863-8.212-6.483-15.805-12.439-21.419 1.906-8.7081 0.948-16.195-1.662-22.44 4.106 1.7977 8.871 4.0425 13.327 6.0811 4.802 9.0088 8.508 18.833 9.166 30.921z"/>
   <path d="m143.14 105.47c-2.624 2.165-5.741 4.963-8.161 6.452-2.597-8.145-6.034-15.909-11.605-21.281 1.73-8.2453 0.533-15.796-2.311-21.898 3.633 1.4768 8.581 3.848 12.911 5.8065 4.802 9.0088 8.508 18.833 9.166 30.921z"/>
   <path d="m143.14 105.47c-2.498 2.036-5.737 5.024-7.929 6.047-2.331-8.077-5.587-16.013-10.772-21.143 1.554-7.7826 0.117-15.396-2.959-21.356 3.158 1.1559 8.289 3.6533 12.494 5.5318 4.802 9.0088 8.508 18.833 9.166 30.921z"/>
   <path d="m143.14 105.47c-2.372 1.908-5.733 5.085-7.697 5.642-2.066-8.01-5.14-16.117-9.939-21.005 1.378-7.3198-0.298-14.997-3.607-20.814 2.683 0.835 7.998 3.4586 12.077 5.2571 4.802 9.0088 8.508 18.833 9.166 30.921z"/>
   <path d="m143.14 105.47c-2.247 1.78-5.729 5.146-7.466 5.236-1.8-7.942-4.692-16.22-9.105-20.867 1.203-6.8572-0.714-14.598-4.255-20.273 2.208 0.5141 7.707 3.2641 11.66 4.9825 4.802 9.0088 8.508 18.833 9.166 30.921z"/>
   <path d="m143.14 105.47c-2.121 1.652-5.725 5.207-7.234 4.831-1.534-7.875-4.245-16.324-8.272-20.729 1.027-6.3944-1.13-14.199-4.904-19.731 1.734 0.1932 7.416 3.0694 11.244 4.7078 4.802 9.0088 8.508 18.833 9.166 30.921z"/>
   <path d="m143.14 105.47c-1.995 1.524-5.721 5.268-7.002 4.426-1.269-7.808-3.797-16.428-7.439-20.591 0.851-5.9316-1.545-13.799-5.552-19.189 1.26-0.1277 7.125 2.8748 10.827 4.4331 4.802 9.0088 8.508 18.833 9.166 30.921z"/>
   <path d="m143.14 105.47c-1.87 1.396-5.716 5.329-6.771 4.021-1.003-7.741-3.349-16.532-6.605-20.453 0.675-5.4689-1.961-13.4-6.2-18.647 0.785-0.4486 6.834 2.6802 10.41 4.1585 4.802 9.0088 8.508 18.833 9.166 30.921z"/>
   <path d="m143.14 105.47c-1.744 1.268-5.712 5.389-6.539 3.616-0.737-7.674-2.902-16.636-5.772-20.316 0.499-5.0062-2.376-13.001-6.849-18.105 0.311-0.7695 6.543 2.4855 9.994 3.8838 4.802 9.0088 8.508 18.833 9.166 30.921z"/>
   <path d="m143.14 105.47c-1.618 1.14-5.708 5.45-6.307 3.211-0.472-7.607-2.455-16.74-4.939-20.178 0.323-4.5435-2.792-12.602-7.497-17.563-0.164-1.0904 6.252 2.2909 9.577 3.6091 4.802 9.0088 8.508 18.833 9.166 30.921z"/>
   <path d="m143.14 105.47c-1.493 1.012-5.704 5.511-6.076 2.806-0.206-7.54-2.007-16.844-4.106-20.04 0.148-4.0807-3.207-12.202-8.144-17.021-0.639-1.4114 5.961 2.0962 9.16 3.3344 4.802 9.0088 8.508 18.833 9.166 30.921z"/>
   <path d="m143.14 105.47c-1.367 0.884-5.7 5.572-5.844 2.401 0.06-7.473-1.559-16.947-3.273-19.902-0.028-3.618-3.622-11.803-8.792-16.479-1.113-1.7322 5.669 1.9017 8.743 3.0598 4.802 9.0088 8.508 18.833 9.166 30.921z"/>
   <path d="m143.14 105.47c-1.241 0.756-5.696 5.633-5.612 1.996 0.325-7.406-1.112-17.051-2.44-19.765-0.204-3.1553-4.038-11.404-9.441-15.937-1.587-2.0531 5.379 1.707 8.327 2.7851 4.802 9.0088 8.508 18.833 9.166 30.921z"/>
   <path d="m143.14 105.47c-1.116 0.628-5.692 5.694-5.381 1.591 0.591-7.3388-0.664-17.155-1.606-19.627-0.38-2.6926-4.453-11.004-10.089-15.395-2.062-2.3741 5.088 1.5123 7.91 2.5104 4.802 9.0088 8.508 18.833 9.166 30.921z"/>
  </g>
  <path d="m143.14 105.47c-0.99 0.5-5.687 5.755-5.149 1.185 0.857-7.2708-0.217-17.258-0.773-19.488s-4.869-10.605-10.737-14.853c-2.537-2.6949 4.796 1.3178 7.493 2.2358 4.802 9.0088 8.508 18.833 9.166 30.921z" fill="#fff" filter="url(#t)" opacity=".83"/>
  <path d="m87.464 43.94c6.9201 2.4339 8.3173 4.7388 10.116 7.2926 8.199 4.2147 15.611 9.6234 22.647 16.956 4.581 2.079 9.162 4.1579 13.744 6.2369-10.336-15.698-33.667-28.634-46.507-30.486z" fill="#fff"/>
  <path d="m88.208 44.312c6.499 2.3385 7.8526 4.5595 9.6033 7.0538 7.8648 4.0291 15.565 9.6088 22.398 16.785 4.284 1.7094 8.577 3.6838 13.024 5.6577-10.214-15.124-32.643-27.614-45.025-29.496z" fill="#fbfbfb"/>
  <path d="m88.952 44.684c6.0779 2.2431 7.3879 4.3802 9.0907 6.8151 7.5306 3.8435 15.518 9.5941 22.149 16.613 3.987 1.3397 7.992 3.2096 12.305 5.0783-10.094-14.551-31.619-26.593-43.544-28.506z" fill="#f8f8f8"/>
  <path d="m89.696 45.056c5.6567 2.1477 6.9231 4.2009 8.5782 6.5763 7.1953 3.6578 15.471 9.5794 21.899 16.441 3.689 0.9702 7.407 2.7354 11.585 4.4991-9.973-13.977-30.595-25.573-42.062-27.516z" fill="#f4f4f4"/>
  <path d="m90.439 45.428c5.2356 2.0522 6.4584 4.0215 8.0656 6.3375 6.8611 3.4721 15.425 9.5647 21.65 16.269 3.392 0.6005 6.821 2.2612 10.866 3.9198-9.853-13.403-29.571-24.553-40.582-26.526z" fill="#f1f1f1"/>
  <path d="m91.183 45.8c4.8145 1.9569 5.9937 3.8422 7.553 6.0988 6.5269 3.2864 15.379 9.55 21.401 16.097 3.095 0.2309 6.236 1.7871 10.146 3.3406-9.731-12.83-28.547-23.532-39.1-25.536z" fill="#ededed"/>
  <path d="m91.927 46.172c4.3934 1.8614 5.5289 3.6629 7.0404 5.86 6.1927 3.1007 15.332 9.5353 21.152 15.925 2.797-0.1386 5.651 1.313 9.427 2.7614-9.611-12.256-27.523-22.512-37.619-24.546z" fill="#eaeaea"/>
  <path d="m92.671 46.544c3.9722 1.766 5.0642 3.4836 6.5278 5.6213 5.8585 2.915 15.286 9.5206 20.902 15.753 2.5-0.5083 5.065 0.8388 8.708 2.182-9.491-11.682-26.5-21.491-36.138-23.556z" fill="#e7e7e7"/>
  <path d="m93.414 46.916c3.5511 1.6706 4.5995 3.3043 6.0153 5.3824 5.5242 2.7294 15.239 9.5061 20.653 15.581 2.202-0.8779 4.48 0.3646 7.988 1.6028-9.37-11.108-25.475-20.471-34.656-22.566z" fill="#e3e3e3"/>
  <path d="m94.158 47.288c3.1299 1.5752 4.1346 3.125 5.5026 5.1437 5.189 2.5437 15.193 9.4914 20.404 15.409 1.905-1.2475 3.895-0.1096 7.269 1.0235-9.249-10.535-24.452-19.45-33.176-21.576z" fill="#e0e0e0"/>
  <path d="m94.902 47.66c2.7087 1.4798 3.6699 2.9456 4.99 4.9049 4.8548 2.3581 15.146 9.4767 20.155 15.237 1.608-1.6171 3.309-0.5837 6.549 0.4443-9.128-9.961-23.427-18.43-31.694-20.586z" fill="#ddd"/>
  <path d="m95.646 48.032c2.2876 1.3844 3.2052 2.7664 4.477 4.6662 4.521 2.1724 15.1 9.462 19.906 15.065 1.31-1.9866 2.724-1.0578 5.83-0.135-9.008-9.3871-22.404-17.41-30.213-19.596z" fill="#d9d9d9"/>
  <path d="m96.39 48.404c1.8665 1.289 2.7404 2.587 3.9652 4.4274 4.186 1.9867 15.053 9.4473 19.656 14.893 1.013-2.3563 2.139-1.5321 5.11-0.7143-8.886-8.8135-21.379-16.389-28.731-18.606z" fill="#d6d6d6"/>
  <path d="m97.134 48.776c1.4454 1.1936 2.2757 2.4078 3.4524 4.1887 3.852 1.801 15.006 9.4326 19.407 14.721 0.716-2.7259 1.554-2.0062 4.391-1.2935-8.766-8.2398-20.356-15.369-27.25-17.616z" fill="#d2d2d2"/>
  <path d="m97.877 49.148c1.0242 1.0981 1.811 2.2284 2.9396 3.9499 3.517 1.6153 14.96 9.4179 19.158 14.549 0.418-3.0955 0.968-2.4804 3.672-1.8728-8.646-7.6661-19.332-14.348-25.77-16.626z" fill="#cfcfcf"/>
  <path d="m98.621 49.52c0.6031 1.0028 1.3462 2.0491 2.4268 3.7112 3.183 1.4296 14.914 9.4032 18.909 14.377 0.121-3.4651 0.383-2.9545 2.952-2.452-8.525-7.0924-18.308-13.328-24.288-15.636z" fill="#ccc"/>
  <path d="m90.509 167.08c-10.423 3.706-19.482 2.123-28.433 0.124-6.0738-6.001-11.407-12.483-14.213-20.607 4.7213-7.392 9.4426-14.785 14.164-22.178 10.688 1.84 20.154 1.184 29.362 0 4.3221 7.141 8.6441 14.281 12.966 21.422-2.855 9.235-8.0189 15.642-13.845 21.239z" fill="#fff"/>
  <path d="m88.884 165.88c-10.294 3.783-18.472 2.893-27.733 0.909-6.0268-5.955-11.188-12.27-13.972-20.331 4.6848-7.335 9.3926-14.729 14.077-22.064 10.681 2.196 20.094 1.163 29.25 0.056 4.2886 7.085 8.4238 14.245 12.712 21.331-3.095 8.624-8.4842 14.639-14.335 20.099z" fill="#fbfbfb"/>
  <path d="m88.059 164.75c-10.164 3.86-17.463 3.662-27.032 1.694-5.9798-5.908-10.969-12.057-13.73-20.055 4.6482-7.278 9.3424-14.673 13.991-21.951 10.673 2.554 20.034 1.142 29.138 0.113 4.2551 7.03 8.2035 14.209 12.458 21.239-3.3348 8.015-8.9485 13.637-14.824 18.96z" fill="#f8f8f8"/>
  <path d="m87.234 163.62c-10.035 3.937-16.454 4.432-26.332 2.479-5.9327-5.862-10.749-11.844-13.49-19.779 4.6116-7.221 9.2924-14.616 13.904-21.837 10.666 2.91 19.974 1.121 29.027 0.169 4.2216 6.975 7.9832 14.173 12.205 21.148-3.5752 7.405-9.4137 12.633-15.314 17.82z" fill="#f4f4f4"/>
  <path d="m86.409 162.5c-9.9061 4.014-15.444 5.201-25.632 3.264-5.8857-5.815-10.53-11.631-13.248-19.503 4.5751-7.164 9.2424-14.56 13.817-21.724 10.658 3.268 19.914 1.101 28.915 0.226 4.1882 6.919 7.763 14.137 11.951 21.056-3.8145 6.795-9.878 11.631-15.803 16.681z" fill="#f1f1f1"/>
  <path d="m85.584 161.37c-9.777 4.091-14.435 5.971-24.931 4.049-5.8386-5.769-10.311-11.418-13.007-19.227 4.5385-7.106 9.1922-14.504 13.731-21.61 10.65 3.624 19.854 1.08 28.803 0.282 4.1547 6.864 7.5427 14.101 11.698 20.965-4.0549 6.185-10.343 10.628-16.293 15.541z" fill="#ededed"/>
  <path d="m84.759 160.24c-9.6478 4.167-13.425 6.739-24.231 4.833-5.7917-5.723-10.092-11.205-12.766-18.951 4.5019-7.049 9.1422-14.448 13.644-21.497 10.643 3.981 19.794 1.059 28.692 0.339 4.1212 6.809 7.3224 14.065 11.444 20.874-4.2943 5.575-10.808 9.625-16.782 14.402z" fill="#eaeaea"/>
  <path d="m81.692 158.56c-9.5186 4.244-12.416 7.509-23.531 5.618-5.7446-5.676-9.8722-10.992-12.526-18.675 4.4654-6.992 9.0921-14.391 13.558-21.383 10.635 4.338 19.734 1.038 28.58 0.395 4.0877 6.753 7.1021 14.029 11.19 20.782-4.5347 4.965-11.273 8.622-17.272 13.263z" fill="#e7e7e7"/>
  <path d="m83.109 157.99c-9.3894 4.321-11.407 8.278-22.83 6.403-5.6976-5.63-9.6529-10.779-12.284-18.399 4.4289-6.935 9.0421-14.335 13.471-21.27 10.628 4.695 19.674 1.018 28.468 0.452 4.0543 6.698 6.8819 13.992 10.936 20.691-4.774 4.355-11.737 7.619-17.761 12.123z" fill="#e3e3e3"/>
  <path d="m82.284 156.86c-9.2603 4.398-10.397 9.048-22.13 7.188-5.6505-5.583-9.4336-10.565-12.043-18.123 4.3923-6.877 8.992-14.279 13.384-21.156 10.62 5.052 19.614 0.997 28.357 0.508 4.0208 6.642 6.6616 13.956 10.682 20.599-5.0134 3.746-12.201 6.617-18.25 10.984z" fill="#e0e0e0"/>
  <path d="m81.459 155.74c-9.1311 4.475-9.3878 9.817-21.43 7.973-5.6035-5.537-9.2143-10.352-11.802-17.847 4.3557-6.82 8.9419-14.223 13.298-21.043 10.612 5.409 19.554 0.977 28.245 0.564 3.9873 6.588 6.4414 13.921 10.429 20.509-5.2538 3.135-12.667 5.614-18.74 9.844z" fill="#ddd"/>
  <path d="m80.634 154.61c-9.002 4.55-8.3785 10.586-20.729 8.757-5.5565-5.49-8.995-10.139-11.561-17.571 4.3192-6.763 8.8919-14.166 13.211-20.929 10.605 5.765 19.494 0.955 28.134 0.62 3.9538 6.533 6.2211 13.885 10.175 20.418-5.4934 2.525-13.131 4.611-19.229 8.705z" fill="#d9d9d9"/>
  <path d="m79.809 153.48c-8.8727 4.627-7.369 11.356-20.029 9.542-5.5094-5.444-8.7757-9.926-11.32-17.295 4.2826-6.706 8.8417-14.11 13.124-20.816 10.597 6.123 19.434 0.935 28.022 0.677 3.9204 6.477 6.0009 13.849 9.9213 20.326-5.7333 1.916-13.596 3.608-19.718 7.566z" fill="#d6d6d6"/>
  <path d="m78.984 152.36c-8.7436 4.704-6.3597 12.125-19.328 10.327-5.4624-5.397-8.5564-9.713-11.079-17.019 4.246-6.649 8.7917-14.054 13.038-20.702 10.59 6.479 19.374 0.914 27.91 0.733 3.8869 6.422 5.7806 13.813 9.6675 20.235-5.9731 1.305-14.061 2.605-20.208 6.426z" fill="#d2d2d2"/>
  <path d="m78.159 151.23c-8.6144 4.781-5.3503 12.895-18.628 11.112-5.4154-5.351-8.3372-9.5-10.838-16.743 4.2095-6.591 8.7416-13.997 12.951-20.589 10.582 6.836 19.314 0.894 27.799 0.79 3.8534 6.367 5.5603 13.777 9.4138 20.143-6.213 0.696-14.525 1.603-20.697 5.287z" fill="#cfcfcf"/>
  <path d="m77.334 150.1c-8.4852 4.858-4.3408 13.664-17.928 11.897-5.3684-5.304-8.1179-9.287-10.597-16.467 4.173-6.534 8.6916-13.941 12.864-20.475 10.574 7.193 19.254 0.873 27.687 0.846 3.8199 6.311 5.34 13.741 9.16 20.052-6.4527 0.086-14.99 0.6-21.187 4.147z" fill="#ccc"/>
  <path d="m89.785 167.02c-9.677 2.955-19.04 2.495-28.024-3e-3 -3.6374 1.986-7.5264 4.098-11.164 6.083 16.913 6.174 33.948 6.895 51.159-0.293-5.0221-1.087-8.3937-3.521-11.971-5.787z" fill="#fff"/>
  <path d="m89.706 167.04c-9.1754 2.975-19.106 2.512-27.916 0.012-3.5651 1.911-6.7428 4.241-9.6323 6.11 15.606 5.639 31.705 6.392 47.696-0.275-4.019-1.177-6.642-3.666-10.148-5.847z" fill="#f9f9f9"/>
  <path d="m89.626 167.06c-8.6736 2.995-19.172 2.528-27.807 0.026-3.4929 1.836-5.9593 4.386-8.1008 6.139 14.299 5.103 29.463 5.889 44.233-0.259-3.0158-1.267-4.89-3.81-8.3251-5.906z" fill="#f4f4f4"/>
  <path d="m89.546 167.07c-8.172 3.017-19.238 2.545-27.699 0.041-3.4207 1.762-5.1759 4.531-6.5695 6.167 12.992 4.568 27.22 5.386 40.77-0.241-2.0126-1.357-3.1382-3.955-6.5022-5.967z" fill="#efefef"/>
  <path d="m89.466 167.09c-7.6703 3.037-19.304 2.561-27.59 0.055-3.3484 1.688-4.3923 4.676-5.0381 6.195 11.685 4.032 24.977 4.884 37.308-0.224-1.0093-1.447-1.3863-4.099-4.6793-6.026z" fill="#eaeaea"/>
  <path d="m89.386 167.11c-7.1685 3.057-19.369 2.578-27.482 0.069-3.2762 1.613-3.6089 4.821-3.5068 6.223 10.378 3.497 22.734 4.381 33.845-0.206-0.0062-1.537 0.3655-4.245-2.8565-6.086z" fill="#e5e5e5"/>
  <path d="m89.307 167.13c-6.6669 3.078-19.436 2.594-27.373 0.083-3.204 1.539-2.8254 4.966-1.9754 6.252 9.0703 2.961 20.492 3.878 30.382-0.19 0.9971-1.627 2.1174-4.389-1.0335-6.145z" fill="#e0e0e0"/>
  <path d="m89.227 167.15c-6.1652 3.098-19.501 2.61-27.264 0.097-3.1317 1.464-2.0419 5.111-0.4439 6.28 7.7631 2.425 18.249 3.375 26.919-0.172 2.0003-1.718 3.8692-4.534 0.7893-6.205z" fill="#dbdbdb"/>
  <path d="m89.147 167.17c-5.6635 3.118-19.567 2.627-27.156 0.111-3.0595 1.39-1.2584 5.255 1.0874 6.308 6.4559 1.89 16.006 2.873 23.456-0.155 3.0035-1.807 5.6211-4.678 2.6123-6.264z" fill="#d6d6d6"/>
  <path d="m89.067 167.19c-5.1618 3.139-19.633 2.643-27.047 0.125-2.9872 1.316-0.4749 5.4 2.6188 6.336 5.1488 1.355 13.763 2.37 19.993-0.137 4.0067-1.898 7.3729-4.823 4.4351-6.324z" fill="#d1d1d1"/>
  <path d="m88.988 167.21c-4.6602 3.159-19.699 2.659-26.939 0.14-2.9151 1.24 0.3085 5.544 4.1501 6.363 3.8416 0.82 11.52 1.867 16.53-0.12s9.1248-4.967 6.2581-6.383z" fill="#ccc"/>
  <path d="m143.13 104.77l-8.811 7.182c0.167 9.47-4.175 18.776-10.221 27.939 3.466 4.536 1.388 11.243-0.489 17.871 11.945-13.185 20.861-28.864 19.521-52.992z" fill="#fff"/>
  <path d="m143.13 105.07c-2.875 2.358-5.712 4.701-8.548 7.098 0.178 9.427-4.072 18.625-10.054 27.65 3.393 4.468 1.273 10.936-0.564 17.465 11.679-13.025 20.385-28.447 19.166-52.213z" fill="#f9f9f9"/>
  <path d="m143.12 105.38c-2.814 2.322-5.55 4.614-8.286 7.013 0.19 9.385-3.97 18.473-9.887 27.362 3.321 4.399 1.159 10.629-0.639 17.058 11.413-12.866 19.909-28.029 18.812-51.433z" fill="#f4f4f4"/>
  <path d="m143.12 105.68c-2.753 2.287-5.389 4.527-8.025 6.929 0.203 9.342-3.866 18.322-9.719 27.073 3.248 4.332 1.044 10.323-0.714 16.652 11.148-12.706 19.434-27.611 18.458-50.654z" fill="#efefef"/>
  <path d="m143.12 105.99c-2.691 2.25-5.226 4.44-7.762 6.843 0.215 9.301-3.764 18.172-9.553 26.785 3.177 4.264 0.931 10.016-0.789 16.247 10.883-12.547 18.959-27.195 18.104-49.875z" fill="#eaeaea"/>
  <path d="m143.11 106.29c-2.63 2.215-5.065 4.353-7.5 6.759 0.226 9.258-3.661 18.02-9.386 26.496 3.104 4.196 0.816 9.71-0.864 15.841 10.617-12.388 18.483-26.777 17.75-49.096z" fill="#e5e5e5"/>
  <path d="m143.11 106.6c-2.568 2.179-4.903 4.265-7.238 6.674 0.239 9.216-3.558 17.869-9.218 26.207 3.032 4.128 0.702 9.403-0.939 15.435 10.351-12.228 18.008-26.359 17.395-48.316z" fill="#e0e0e0"/>
  <path d="m143.1 106.9c-2.507 2.143-4.741 4.179-6.976 6.59 0.251 9.173-3.455 17.717-9.051 25.919 2.959 4.059 0.587 9.096-1.015 15.028 10.086-12.069 17.533-25.941 17.042-47.537z" fill="#dbdbdb"/>
  <path d="m143.1 107.2c-2.446 2.107-4.58 4.091-6.714 6.505 0.263 9.131-3.353 17.566-8.884 25.63 2.886 3.992 0.473 8.79-1.09 14.622 9.821-11.909 17.057-25.524 16.688-46.757z" fill="#d6d6d6"/>
  <path d="m143.09 107.51c-2.383 2.071-4.417 4.004-6.451 6.42 0.274 9.088-3.25 17.415-8.717 25.341 2.814 3.924 0.358 8.483-1.165 14.217 9.555-11.75 16.582-25.107 16.333-45.978z" fill="#d1d1d1"/>
  <path d="m143.09 107.81c-2.322 2.035-4.256 3.917-6.19 6.335 0.287 9.047-3.147 17.264-8.549 25.053 2.741 3.856 0.244 8.177-1.24 13.811 9.289-11.591 16.106-24.689 15.979-45.199z" fill="#ccc"/>
  <path d="m61.461 124.59-14.086 22.056c-7.9352-0.467-15.258-2.807-22.106-6.603-6.3442-7.588-8.066-17.535-7.9125-28.439 3.1215-7.599 6.367-15.14 13.283-20.952 7.3675 2.0004 14.735 4.0009 22.102 6.0013 0.8516 9.4741 3.9994 18.767 8.7192 27.937z" fill="#fff"/>
  <path d="m61.326 124.44-13.887 21.665c-7.8993-0.459-15.189-2.766-22.006-6.509-6.3156-7.479-7.8714-16.977-7.5525-27.708 2.9479-7.542 6.0355-14.708 12.639-20.156 7.0746 1.6909 14.787 3.2035 22.121 5.1754 0.8478 9.3388 4.0785 18.667 8.6851 27.533z" fill="#f9f9f9"/>
  <path d="m61.19 124.29-13.688 21.275c-7.8633-0.453-15.12-2.726-21.906-6.415-6.2868-7.371-7.6768-16.42-7.1924-26.978 2.7743-7.485 5.7041-14.276 11.995-19.36 6.7819 1.3814 14.839 2.4061 22.14 4.3494 0.8439 9.2035 4.1577 18.566 8.651 27.128z" fill="#f4f4f4"/>
  <path d="m61.055 124.14-13.489 20.885c-7.8274-0.447-15.051-2.687-21.806-6.321-6.258-7.263-7.4821-15.864-6.8323-26.248 2.6007-7.428 5.3726-13.843 11.351-18.564 6.4892 1.0718 14.891 1.6086 22.159 3.5234 0.8401 9.0682 4.2368 18.466 8.6169 26.724z" fill="#efefef"/>
  <path d="m60.92 123.98-13.29 20.493c-7.7914-0.44-14.982-2.646-21.706-6.226-6.2293-7.155-7.2875-15.307-6.4722-25.518 2.427-7.371 5.0412-13.411 10.708-17.767 6.1965 0.7622 14.944 0.8112 22.177 2.6974 0.8363 8.9329 4.3161 18.366 8.5829 26.321z" fill="#eaeaea"/>
  <path d="m60.785 123.83-13.091 20.103c-7.7556-0.433-14.913-2.606-21.605-6.132-6.2006-7.046-7.0929-14.75-6.1122-24.788 2.2534-7.314 4.7097-12.979 10.064-16.971 5.9036 0.4527 14.996 0.0137 22.196 1.8714 0.8324 8.7976 4.3952 18.266 8.5489 25.917z" fill="#e5e5e5"/>
  <path d="m60.65 123.68-12.892 19.713c-7.7196-0.427-14.844-2.567-21.505-6.038-6.1718-6.938-6.8983-14.193-5.7521-24.058 2.0798-7.257 4.3783-12.546 9.42-16.175 5.6109 0.1432 15.048-0.7836 22.215 1.0455 0.8286 8.6623 4.4743 18.165 8.5148 25.512z" fill="#e0e0e0"/>
  <path d="m60.515 123.53-12.693 19.322c-7.6837-0.42-14.775-2.526-21.405-5.943-6.1431-6.83-6.7036-13.636-5.392-23.328 1.9062-7.199 4.0468-12.114 8.7762-15.378 5.3182-0.1664 15.1-1.5811 22.234 0.2195 0.8247 8.527 4.5535 18.065 8.4807 25.108z" fill="#dbdbdb"/>
  <path d="m60.38 123.38-12.494 18.932c-7.6478-0.413-14.706-2.486-21.305-5.849-6.1144-6.722-6.5091-13.079-5.032-22.597 1.7326-7.143 3.7154-11.683 8.1324-14.583 5.0255-0.476 15.152-2.3785 22.252-0.6065 0.8209 8.3917 4.6326 17.965 8.4466 24.704z" fill="#d6d6d6"/>
  <path d="m60.245 123.22-12.296 18.541c-7.6118-0.406-14.636-2.445-21.205-5.754-6.0856-6.614-6.3144-12.522-4.6719-21.867 1.559-7.086 3.3839-11.25 7.4887-13.787 4.7327-0.7854 15.204-3.1759 22.271-1.4324 0.817 8.2564 4.7118 17.863 8.4125 24.299z" fill="#d1d1d1"/>
  <path d="m60.11 123.07-12.097 18.151c-7.5759-0.4-14.567-2.406-21.105-5.66-6.0569-6.505-6.1197-11.965-4.3118-21.137 1.3854-7.029 3.0525-10.818 6.8449-12.991 4.4399-1.095 15.256-3.973 22.29-2.2581 0.8131 8.1211 4.7909 17.763 8.3784 23.895z" fill="#ccc"/>
  <path d="m52.741 96.655c6.9212-5.4495 12.414-10.899 23.116-16.348v-21.936c-5.4111-4.192-13.015-6.5933-22.894-7.1376-11.625 2.8257-18.111 9.5273-22.933 17.485-1.8621 7.3119-1.3971 14.624 0.6083 21.936 7.3675 2.0004 14.735 4.0009 22.102 6.0013z" fill="#fff"/>
  <path d="m53.07 97.302c7.0165-5.5271 12.585-11.054 23.434-16.581v-22.248c-5.4855-4.2516-13.194-6.6872-23.209-7.2392-11.785 2.8659-18.36 9.663-23.249 17.734-1.8878 7.4161-1.4163 14.832 0.6167 22.248 7.4688 2.029 14.938 4.0579 22.406 6.0868z" fill="#fff"/>
  <path d="m53.201 97.094c6.9052-5.4982 12.51-11.029 23.194-16.429-0.011-7.3222 0-14.48 0.0219-21.857-5.4242-4.2041-12.62-5.7355-22.522-6.2814-11.653 2.8339-17.957 9.2039-22.901 16.954-2.0794 7.1248-1.7742 14.272 0.3688 21.528 7.3085 2.1393 14.453 4.0782 21.838 6.0845z" fill="#fbfbfb"/>
  <path d="m53.331 96.885c6.7938-5.4692 12.435-11.004 22.954-16.276-0.0219-7.2283 0-14.128 0.0438-21.466-5.3628-4.1566-12.045-4.7838-21.835-5.3235-11.521 2.8018-17.554 8.7446-22.553 16.175-2.2711 6.8335-2.1322 13.713 0.1209 20.808 7.1482 2.2497 13.968 4.0987 21.27 6.0822z" fill="#f7f7f7"/>
  <path d="m53.462 96.677c6.6825-5.4403 12.36-10.979 22.714-16.124-0.0328-7.1344 0-13.776 0.0658-21.074-5.3015-4.109-11.47-3.8321-21.148-4.3657-11.389 2.7698-17.15 8.2855-22.206 15.396-2.4628 6.5422-2.4902 13.153-0.1271 20.088 6.9878 2.3602 13.483 4.1191 20.702 6.0799z" fill="#f3f3f3"/>
  <path d="m53.592 96.469c6.5711-5.4114 12.285-10.954 22.474-15.971-0.0439-7.0405 0-13.423 0.0876-20.683-5.2401-4.0615-10.895-2.8804-20.462-3.4078-11.258 2.7378-16.747 7.8263-21.858 14.617-2.6545 6.251-2.8481 12.593-0.375 19.368 6.8275 2.4705 12.999 4.1394 20.133 6.0776z" fill="#efefef"/>
  <path d="m53.723 96.26c6.4598-5.3825 12.21-10.929 22.234-15.819-0.0548-6.9466 0-13.071 0.1096-20.292-5.1788-4.0139-10.32-1.9286-19.775-2.4498-11.126 2.7057-16.343 7.367-21.51 13.837-2.8462 5.9597-3.2061 12.034-0.623 18.648 6.6672 2.5809 12.514 4.1598 19.565 6.0753z" fill="#ebebeb"/>
  <path d="m53.854 96.052c6.3484-5.3535 12.135-10.904 21.993-15.666-0.0657-6.8527 0-12.719 0.1315-19.9-5.1174-3.9663-9.7453-0.9769-19.088-1.492-10.994 2.6737-15.94 6.9079-21.163 13.058-3.0379 5.6684-3.564 11.474-0.8709 17.927 6.5068 2.6913 12.029 4.1802 18.997 6.073z" fill="#e8e8e8"/>
  <path d="m53.984 95.844c6.2371-5.3247 12.06-10.88 21.753-15.514-0.0767-6.7588 0-12.367 0.1534-19.509-5.0562-3.9188-9.1705-0.0253-18.401-0.5341-10.862 2.6416-15.536 6.4487-20.815 12.279-3.2296 5.3771-3.9219 10.914-1.1188 17.207 6.3465 2.8016 11.544 4.2006 18.428 6.0707z" fill="#e4e4e4"/>
  <path d="m54.115 95.636c6.1258-5.2957 11.985-10.854 21.513-15.361-0.0876-6.665 0-12.014 0.1753-19.118-4.9948-3.8713-8.5956 0.9264-17.714 0.4237-10.73 2.6096-15.133 5.9895-20.468 11.5-3.4213 5.0858-4.2799 10.354-1.3668 16.487 6.1862 2.9121 11.059 4.221 17.86 6.0684z" fill="#e0e0e0"/>
  <path d="m54.246 95.427c6.0144-5.2667 11.91-10.83 21.273-15.208-0.0987-6.571 0-11.662 0.1972-18.726-4.9335-3.8238-8.0208 1.8781-17.027 1.3816-10.599 2.5775-14.73 5.5303-20.12 10.72-3.613 4.7945-4.6378 9.7946-1.6147 15.767 6.0258 3.0225 10.575 4.2414 17.292 6.0661z" fill="#dcdcdc"/>
  <path d="m54.376 95.219c5.9031-5.2379 11.835-10.805 21.033-15.056-0.1096-6.4771 0-11.31 0.2191-18.335-4.8721-3.7761-7.4459 2.8299-16.341 2.3395-10.467 2.5455-14.326 5.0712-19.772 9.941-3.8046 4.5033-4.9957 9.2349-1.8626 15.047 5.8655 3.1328 10.09 4.2617 16.724 6.0638z" fill="#d8d8d8"/>
  <path d="m54.507 95.011c5.7918-5.2089 11.76-10.78 20.793-14.903-0.1205-6.3832 0-10.958 0.2411-17.944-4.8108-3.7286-6.8711 3.7816-15.654 3.2974-10.335 2.5134-13.923 4.6119-19.424 9.1617-3.9964 4.212-5.3537 8.6752-2.1106 14.327 5.7052 3.2432 9.6051 4.2822 16.155 6.0615z" fill="#d4d4d4"/>
  <path d="m54.637 94.803c5.6805-5.18 11.685-10.755 20.553-14.751-0.1315-6.2894 0-10.606 0.2629-17.553-4.7494-3.6811-6.2962 4.7333-14.967 4.2553-10.203 2.4813-13.519 4.1527-19.077 8.3824-4.188 3.9207-5.7116 8.1154-2.3585 13.606 5.5449 3.3536 9.1203 4.3026 15.587 6.0592z" fill="#d1d1d1"/>
  <path d="m54.768 94.594c5.5691-5.1511 11.61-10.73 20.312-14.598-0.1424-6.1954 0-10.253 0.2849-17.161-4.6881-3.6335-5.7214 5.685-14.28 5.2131-10.072 2.4493-13.116 3.6936-18.729 7.6032-4.3798 3.6294-6.0696 7.5557-2.6065 12.886 5.3845 3.464 8.6355 4.3229 15.018 6.0569z" fill="#cdcdcd"/>
  <path d="m54.898 94.386c5.4578-5.1222 11.535-10.705 20.072-14.446-0.1534-6.1015 0-9.9012 0.3068-16.77-4.6267-3.586-5.1465 6.6366-13.593 6.171-9.9397 2.4172-12.712 3.2343-18.382 6.8239-4.5715 3.3381-6.4275 6.9959-2.8544 12.166 5.2242 3.5744 8.1507 4.3433 14.45 6.0546z" fill="#c9c9c9"/>
  <path d="m55.029 94.178c5.3465-5.0932 11.46-10.68 19.832-14.293-0.1644-6.0076 0-9.549 0.3287-16.379-4.5654-3.5384-4.5717 7.5884-12.906 7.1289-9.8079 2.3853-12.309 2.7752-18.034 6.0446-4.7631 3.0469-6.7854 6.4363-3.1023 11.446 5.0639 3.6848 7.6659 4.3637 13.882 6.0523z" fill="#c5c5c5"/>
  <path d="m55.16 93.97c5.2351-5.0643 11.385-10.655 19.592-14.141-0.1753-5.9138 0-9.1968 0.3506-15.988-4.504-3.4909-3.9968 8.5401-12.22 8.0868-9.6761 2.3532-11.905 2.3159-17.686 5.2653-4.9549 2.7556-7.1434 5.8765-3.3503 10.726 4.9035 3.7952 7.1811 4.3842 13.314 6.0501z" fill="#c1c1c1"/>
  <path d="m55.29 93.761c5.1238-5.0354 11.31-10.63 19.352-13.988-0.1863-5.8199 0-8.8446 0.3725-15.596-4.4427-3.4433-3.422 9.4918-11.533 9.0447-9.5443 2.3211-11.502 1.8567-17.339 4.486-5.1465 2.4643-7.5013 5.3168-3.5982 10.006 4.7432 3.9055 6.6964 4.4045 12.745 6.0477z" fill="#bdbdbd"/>
  <path d="m55.421 93.553c5.0124-5.0064 11.235-10.605 19.112-13.836-0.1972-5.7259 0-8.4923 0.3944-15.205-4.3813-3.3958-2.8471 10.444-10.846 10.002-9.4125 2.2891-11.098 1.3976-16.991 3.7068-5.3382 2.1731-7.8592 4.757-3.8461 9.2856 4.5829 4.016 6.2116 4.4249 12.177 6.0454z" fill="#bababa"/>
  <path d="m55.551 93.345c4.9011-4.9775 11.16-10.58 18.871-13.683-0.2081-5.6321 0-8.1401 0.4163-14.814-4.3199-3.3483-2.2722 11.395-10.159 10.96-9.2808 2.257-10.695 0.9383-16.643 2.9275-5.5299 1.8818-8.2172 4.1973-4.0941 8.5654 4.4225 4.1264 5.7268 4.4453 11.609 6.0431z" fill="#b6b6b6"/>
  <path d="m55.682 93.136c4.7897-4.9486 11.085-10.555 18.631-13.53-0.2192-5.5382 0-7.7879 0.4382-14.422-4.2586-3.3007-1.6974 12.347-9.4721 11.918-9.149 2.225-10.292 0.4792-16.296 2.1483-5.7216 1.5905-8.5751 3.6375-4.342 7.8453 4.2622 4.2367 5.242 4.4656 11.04 6.0408z" fill="#b2b2b2"/>
  <path d="m87.464 43.94c5.5984 1.5569 8.3665 4.2248 10.116 7.2926-4.4654-0.8614-19.453 4.1615-21.722 7.1376-5.6142-4.6094-13.721-6.4627-22.894-7.1376 2.058-2.8767 4.7392-5.4418 8.7316-7.3512 8.742-2.0018 17.325-1.8907 25.769 0.0586z" fill="#910000"/>
  <path d="m17.353 112.14c-3.0542-1.5594-8.4656-4.9961-7.0925-13.087 2.0484-9.3954 4.9293-15.646 9.3443-24.15 3.0999-2.1354 5.53-3.8223 10.416-4.9486-1.2303 7.3122-1.7034 14.561 0.608 21.577-6.8841 5.1602-10.191 12.808-13.276 20.609z" fill="#840000"/>
  <path d="m52.741 96.655c6.9453-6.1143 14.117-12.031 23.116-16.348 9.7726 4.1611 17.474 10.47 23.927 16.762-2.3919 9.5882-5.3744 18.703-9.1249 27.523-9.8677 1.511-19.629 1.826-29.199 0-4.9719-9.368-8.096-18.723-8.7192-27.937z" fill="#910000"/>
  <g fill="#430000" filter="url(#aa)">
   <path d="m58.842 116.72c1.4284-2 3.0205 4.724 6.7203 5.063 4.7532 0.437 17.242 0.193 22.157-0.256 1.9164-0.175 3.1021-5.352 4.7235-7.213-0.9974 4.008-1.3515 6.174-2.3327 9.599-8.1911 0.545-19.096 0.879-27.04 0.22-2.2032-2.887-3.7107-4.091-4.228-7.413z"/>
   <path d="m59.226 117.05c1.419-1.138 2.965 4.595 6.0818 4.909 4.4413 0.518 17.674 0.289 22.566-0.278 1.7054-0.177 2.7589-4.673 4.2659-6.633-1.0078 3.947-1.2844 5.699-2.2006 8.684-6.7559 0.544-20.083 0.755-26.59 0.192-1.9141-2.346-3.3674-3.588-4.124-6.874z"/>
   <path d="m59.611 117.38c1.4095-0.275 2.9095 4.467 5.4432 4.754 4.1295 0.601 18.106 0.385 22.976-0.299 1.4944-0.179 2.4156-3.995 3.8083-6.053-1.0182 3.886-1.2174 5.225-2.0686 7.768-5.3206 0.544-21.07 0.632-26.139 0.165-1.625-1.805-3.0242-3.086-4.0199-6.335z"/>
   <path d="m59.996 117.71c1.4001 0.587 2.854 4.339 4.8046 4.6 3.8178 0.682 18.537 0.481 23.386-0.321 1.2833-0.181 2.0724-3.317 3.3507-5.472-1.0286 3.824-1.1502 4.749-1.9365 6.851-3.8854 0.545-22.056 0.509-25.689 0.137-1.3359-1.263-2.681-2.583-3.9159-5.795z"/>
   <path d="m60.381 118.04c1.3906 1.45 2.7985 4.211 4.1661 4.445 3.506 0.764 18.969 0.578 23.796-0.342 1.0723-0.184 1.7292-2.638 2.8931-4.892-1.039 3.763-1.0832 4.275-1.8044 5.935-2.4502 0.545-23.044 0.386-25.239 0.11-1.0468-0.721-2.3378-2.081-3.8119-5.256z"/>
   <path d="m60.766 118.37c1.3812 2.312 2.7431 4.083 3.5276 4.291 3.1941 0.846 19.401 0.674 24.205-0.364 0.8613-0.186 1.386-1.96 2.4355-4.312-1.0494 3.702-1.0161 3.8-1.6724 5.019-1.0149 0.545-24.03 0.263-24.788 0.083s-1.9946-1.579-3.7079-4.717z"/>
  </g>
  <path d="m76.028 82.068c3.8811 1.7458-9.7644 6.136-22.066 14.76 5.9984-5.1506 17.059-12.484 22.066-14.76z" fill="#fff" filter="url(#s)"/>
  <path d="m74.768 54.019c1.0146 2.0605-8.2028-2.6533-18.91-4.0547 6.3941-0.6903 15.327 2.5679 18.91 4.0547z" fill="#7f7f7f"/>
  <path d="m74.724 54.038c0.9124 1.8412-8.3288-2.7072-18.324-4.0209 5.7796-0.5925 15.037 2.6054 18.324 4.0209z" fill="#999"/>
  <path d="m74.68 54.056c0.8102 1.622-8.4547-2.7609-17.739-3.987 5.1651-0.4947 14.747 2.6429 17.739 3.987z" fill="#b2b2b2"/>
  <path d="m74.636 54.075c0.7079 1.4028-8.5807-2.8148-17.154-3.9533 4.5506-0.3968 14.457 2.6805 17.154 3.9533z" fill="#ccc"/>
  <path d="m74.592 54.094c0.6057 1.1835-8.7066-2.8686-16.569-3.9195 3.936-0.299 14.167 2.718 16.569 3.9195z" fill="#e5e5e5"/>
  <path d="m74.548 54.112c0.5035 0.9643-8.8325-2.9224-15.984-3.8856 3.3215-0.2012 13.877 2.7555 15.984 3.8856z" fill="#fff"/>
  <path d="m27.619 72.172c1.7392-1.5-0.5059 8.6065 0.8296 19.322-2.2757-6.0153-1.368-15.48-0.8296-19.322z" fill="#7f7f7f"/>
  <path d="m27.648 72.209c1.5527-1.3459-0.5263 8.7419 0.7152 18.747-2.0265-5.445-1.2587-15.209-0.7152-18.747z" fill="#999"/>
  <path d="m27.677 72.247c1.3662-1.1919-0.5467 8.8773 0.6008 18.172-1.7773-4.8748-1.1495-14.938-0.6008-18.172z" fill="#b2b2b2"/>
  <path d="m27.706 72.285c1.1798-1.0379-0.5671 9.0127 0.4865 17.597-1.5282-4.3047-1.0403-14.667-0.4865-17.597z" fill="#ccc"/>
  <path d="m27.735 72.323c0.9932-0.8838-0.5875 9.1481 0.372 17.022-1.2789-3.7344-0.9309-14.395-0.372-17.022z" fill="#e5e5e5"/>
  <path d="m27.764 72.361c0.8067-0.7298-0.6079 9.2835 0.2576 16.447-1.0297-3.1643-0.8217-14.124-0.2576-16.447z" fill="#fff"/>
  <path d="m47.375 146.65c3.0835 7.993 8.0789 14.621 14.134 20.492-3.6373 1.986-7.2747 3.972-10.912 5.957-8.0629-3.8-16.164-7.78-25.686-18.428 0.1192-4.875 0.2383-9.749 0.3575-14.624 7.0532 3.971 14.458 5.971 22.106 6.603z" fill="#910000"/>
  <path transform="matrix(1.0927 0 0 1.0927 -3.3253 -15.346)" d="m45.14 150.05c2.2269 5.7726 5.8347 10.559 10.208 14.8-2.6269 1.4343-5.2539 2.8686-7.8807 4.3022-5.8231-2.7444-11.674-5.6188-18.55-13.309 0.08609-3.5208 0.1721-7.0408 0.25819-10.562 5.0939 2.8679 10.441 4.3123 15.965 4.7687z" fill="url(#ad)" filter="url(#u)" opacity=".5947"/>
  <g transform="matrix(-1 0 0 1 104.6 73.432)">
   <path transform="matrix(1 0 0 .95314 -.92423 3.1334)" d="m78.83 80.386c1.6389 2.8669-13.688 14.264-23.187 18.964-0.16768-2.0676 18.18-16.688 23.187-18.964z" fill="#fefefe" filter="url(#v)" opacity=".35271"/>
  </g>
  <g transform="matrix(-.9927 0 0 1.009 151.17 -1.2618)">
   <path d="m47.375 146.65c3.0835 7.993 8.0789 14.621 14.134 20.492-3.6373 1.986-7.2747 3.972-10.912 5.957-8.0629-3.8-16.164-7.78-25.686-18.428 0.1192-4.875 0.2383-9.749 0.3575-14.624 7.0532 3.971 14.458 5.971 22.106 6.603z" fill="#910000"/>
   <path d="m46.005 149.95c2.2991 6.071 6.0237 11.105 10.538 15.564-2.712 1.5084-5.4241 3.0169-8.136 4.5245-6.0117-2.8862-12.052-5.9092-19.151-13.997 0.08888-3.7027 0.17768-7.4047 0.26655-11.107 5.2589 3.0161 10.78 4.5352 16.482 5.0152z" fill="url(#ae)" filter="url(#w)" opacity=".5155"/>
   <g transform="matrix(-1 0 0 1 104.6 73.432)">
    <path d="m78.83 80.386c1.6389 2.8669-13.688 14.264-23.187 18.964-0.16768-2.0676 18.18-16.688 23.187-18.964z" fill="#fefefe" filter="url(#x)" opacity=".51894"/>
   </g>
  </g>
  <path d="m16.665 106.28c-2.2524-1.1836-6.2431-3.792-5.2305-9.9332 1.5106-7.1311 3.6352-11.876 6.8911-18.33 2.2861-1.6208 4.0782-2.9012 7.6815-3.7561-0.9073 5.55-1.2562 11.052 0.44838 16.377-5.0768 3.9166-7.5153 9.7214-9.7905 15.643z" fill="url(#ab)" filter="url(#q)" opacity=".95"/>
  <path d="m84.068 43.789c3.8975 1.0839 5.8246 2.9412 7.0425 5.077-3.1087-0.59969-13.543 2.8972-15.123 4.9691-3.9085-3.209-9.5524-4.4992-15.938-4.9691 1.4327-2.0027 3.2993-3.7885 6.0788-5.1178 6.086-1.3936 12.061-1.3163 17.94 0.0408z" fill="url(#ac)" filter="url(#r)" opacity=".65"/>
  <path d="m62.6 100.05c3.9383-3.467 8.005-6.8218 13.108-9.2702 5.5415 2.3595 9.9085 5.9369 13.568 9.5049-1.3563 5.4369-3.0475 10.605-5.1742 15.607-5.5954 0.85679-11.13 1.0354-16.557 0-2.8193-5.312-4.5908-10.617-4.9441-15.841z" fill="#fff" filter="url(#y)" opacity=".41"/>
 </g>
</svg>
