<?xml version="1.0" encoding="utf-8"?>
<!-- Generator: Adobe Illustrator 25.2.0, SVG Export Plug-In . SVG Version: 6.00 Build 0)  -->
<svg version="1.1" id="Layer_1" xmlns="http://www.w3.org/2000/svg" xmlns:xlink="http://www.w3.org/1999/xlink" x="0px" y="0px"
	 viewBox="0 0 348.5 175.2" style="enable-background:new 0 0 348.5 175.2;" xml:space="preserve">
<style type="text/css">
	.st0{fill:#A6CB3A;}
	.st1{fill:#769833;}
	.st2{opacity:0.46;fill:#A6CB3A;}
	.st3{opacity:0.46;fill:#7F9E2B;}
	.st4{fill:#A5CE39;}
	.st5{opacity:0.37;fill:#355D2A;}
	.st6{fill:#BCD635;}
	.st7{fill:#59964A;}
</style>
<g>
	<g>
		<g>
			<g>
				<path class="st0" d="M261.2,60.7c2.1-4.4,3.6-9,4.5-14c0.3-1.4,0.5-2.7,0.9-4.1c0.4-1.2,0.8-2.3,1.4-3.4c1-2,2.4-3.7,3.9-5.3
					c1.5-1.6,3.2-3.1,4.8-4.6c0.5-0.5,0.9-0.9,1.4-1.4c0.3-1.4,0.3-2.3-0.1-2.4c-7.9-1.8-36.5,9.2-43.9,11.4
					c-9.5,2.8-18.9,5.6-28.4,8.4c-26.6,7.9-53.1,16.2-80.2,22.4c-23.4,5.4-47.2,9.8-71.1,12.1c-7.4,0.7-14.8,1.2-22.2,1.9
					c-6.9,0.6-14,1.2-20.9,0.1c-1.5-0.2-3-0.6-4.5-1c-0.3-0.1-0.7,0.2-0.8,0.5c-0.1,0.2-0.1,0.4-0.2,0.6c0.1,0.1,0.2,0.2,0.2,0.3
					c1.7,1.6,4.3,2.1,6.2,3.4c2.5,1.6,4.2,4.5,5.6,7.1c5.1,10,9.8,20.9,20,27.1c11.7,7.1,26.2,7.8,39.4,7.6
					c30-0.4,60.5-6.1,89.7-12.6c17.3-3.8,34.1-9.7,50-17.7c11-5.5,22.4-11.3,31.6-19.6C254,72.8,258.2,67.1,261.2,60.7z"/>
				<path class="st1" d="M167.7,115.2c-0.2,0-0.4,0.1-0.6,0.1c-28.5,6.3-59.1,12.2-89.8,12.6c-13.8,0.2-28.1-0.6-39.7-7.7
					c-9.4-5.7-14.1-15.2-18.8-24.5c-0.5-0.9-0.9-1.9-1.4-2.8c-1.1-2.2-2.9-5.3-5.4-6.9c-0.8-0.5-1.6-0.9-2.6-1.3
					c-1.3-0.6-2.7-1.2-3.7-2.2c-0.1-0.1-0.2-0.2-0.3-0.3l-0.2-0.2l0.1-0.4c0-0.2,0.1-0.3,0.2-0.5c0.2-0.5,0.8-0.9,1.4-0.8
					c1.4,0.4,2.9,0.8,4.5,1c7,1.1,14.3,0.4,20.8-0.2c3.3-0.3,6.6-0.6,9.8-0.8c4.1-0.3,8.3-0.7,12.4-1.1c21.5-2.1,44.7-6,71.1-12.1
					c22.7-5.2,45.3-12,67.2-18.6c4.3-1.3,8.6-2.6,12.9-3.9l28.4-8.4c1.6-0.5,4-1.3,7.2-2.4c11.5-3.9,30.6-10.4,37-9
					c0.9,0.2,0.8,1.6,0.5,3l0,0.1l-0.1,0.1c-0.5,0.5-0.9,1-1.4,1.4c-0.7,0.7-1.4,1.3-2,2c-0.9,0.9-1.9,1.7-2.7,2.7
					c-1.7,1.8-3,3.5-3.8,5.2c-0.5,1.1-1,2.2-1.4,3.3c-0.3,1.1-0.5,2.2-0.7,3.3l-0.1,0.8c-1,5-2.5,9.7-4.6,14.1l-0.4-0.2l0.4,0.2
					c-3.1,6.5-7.4,12.2-12.8,17.1c-9.5,8.5-21.3,14.4-31.7,19.7C201.7,105.4,185.1,111.3,167.7,115.2z M6.3,81.8
					C6.3,81.9,6.3,81.9,6.3,81.8c1,0.9,2.2,1.5,3.5,2c0.9,0.4,1.8,0.8,2.7,1.4c2.7,1.8,4.6,5,5.7,7.3c0.5,0.9,0.9,1.8,1.4,2.8
					c4.5,9.1,9.3,18.6,18.4,24.1c11.4,6.9,25.6,7.7,39.2,7.5c30.6-0.4,61.2-6.3,89.6-12.6c17.6-3.9,34.3-9.8,49.9-17.6
					c10.4-5.2,22.1-11.1,31.5-19.5c5.3-4.8,9.6-10.4,12.6-16.8c2-4.3,3.5-8.9,4.5-13.8l0.1-0.8c0.2-1.1,0.4-2.3,0.8-3.4
					c0.4-1.2,0.8-2.4,1.4-3.5c0.9-1.8,2.2-3.6,4-5.4c0.9-0.9,1.8-1.8,2.8-2.7c0.7-0.6,1.4-1.3,2-1.9c0.4-0.4,0.8-0.9,1.3-1.3
					c0.2-1.2,0.2-1.6,0.1-1.7c-6.2-1.3-25.1,5.1-36.4,9c-3.1,1.1-5.6,1.9-7.2,2.4l-28.4,8.4c-4.3,1.3-8.6,2.6-12.9,3.9
					C171,56.2,148.3,63,125.6,68.2c-26.4,6.1-49.7,10-71.2,12.1c-4.1,0.4-8.3,0.7-12.4,1.1c-3.2,0.3-6.5,0.5-9.8,0.8
					c-6.5,0.6-13.9,1.3-21,0.1c-1.6-0.2-3.1-0.6-4.6-1c0,0-0.2,0.1-0.2,0.2C6.4,81.6,6.3,81.7,6.3,81.8z"/>
			</g>
			<path class="st2" d="M278,25.5c-7.9-1.8-36.5,9.2-43.9,11.4c-9.5,2.8-18.9,5.6-28.4,8.4c-26.6,7.9-53.1,16.2-80.2,22.4
				c-23.4,5.4-47.2,9.8-71.1,12.1c-7.4,0.7-14.8,1.2-22.2,1.9c-6.9,0.6-14,1.2-20.9,0.1c-1.5-0.2-3-0.6-4.5-1
				c-0.3-0.1-0.7,0.2-0.8,0.5c-0.1,0.2-0.1,0.4-0.2,0.6c0.1,0.1,0.2,0.2,0.2,0.3c1.7,1.6,4.3,2.1,6.2,3.4c2.5,1.6,4.2,4.5,5.6,7.1
				c5.1,10,9.8,20.9,20,27.1c11.7,7.1,26.2,7.8,39.4,7.6c30-0.4,60.5-6.1,89.7-12.6c17.3-3.8,34.1-9.7,50-17.7
				c11-5.5,22.4-11.3,31.6-19.6c5.5-4.9,9.7-10.6,12.7-16.9c2.1-4.4,3.6-9,4.5-14c0.3-1.4,0.5-2.7,0.9-4.1c0.4-1.2,0.8-2.3,1.4-3.4
				c1-2,2.4-3.7,3.9-5.3c1.5-1.6,3.2-3.1,4.8-4.6c0.5-0.5,0.9-0.9,1.4-1.4C278.4,26.5,278.4,25.6,278,25.5z M222.3,58.3
				c-3.1,4-6.9,7.3-10.8,10.5c-6.7,5.5-13.9,10.4-21.3,14.9c-16.4,10.2-34.5,17.3-53,22.5c-8.7,2.4-17.5,4.5-26.3,6.4
				c-8.3,1.7-16.7,3.1-25.1,3.7c-8.5,0.6-17.1,0.5-25.5-1.1c-6.8-1.3-13.3-3.6-19.6-6.9c-3.1-1.6-6.2-3.5-8.8-5.8
				c-2.2-1.9-4.3-4.4-4.9-7.4c-0.4-2.2,0.1-4.4,1.8-5.8c1.9-1.5,4.4-2.1,6.7-2.4c2.7-0.4,5.4-0.4,8.2-0.4c3.2,0,6.3-0.2,9.5-0.6
				c10.4-1.1,20.7-3,30.8-5.3c10.2-2.3,20.3-4.9,30.4-7.2c10.2-2.3,20.4-4.9,30.6-7.5c14.1-3.7,28.1-7.6,42.1-11.7
				c9.3-2.7,18.9-8,28.6-9c3.4-0.4,8.7-0.1,10,4C226.7,52.5,224.2,56,222.3,58.3z"/>
			<path class="st3" d="M278,25.5c-7.8-1.8-35.8,8.9-43.6,11.3c0.5,0.2,1.1,0.4,1.6,0.6c2,0.7,4.7,1.7,5.9,3.6
				c1.6,2.4-0.6,4.9-2,6.8c-1.3,1.8-2.5,3.5-2.9,5.8c-0.5,2.5-0.5,5-0.2,7.5c3.2-7.3,9.2-13.5,17.7-13.7c0.3,0,0.5,0.4,0.3,0.6
				c-1.3,1.8-2.6,3.7-3.8,5.6c-4.5,7.2-8.2,15.1-14.4,21.1c-3.6,3.5-7.9,6-12.2,8.4c-4.7,2.7-9.4,5.1-14.3,7.4
				c-20,9.3-41.4,14.5-62.7,19.8c-21.8,5.4-43.9,10.1-66.4,11.4c-8.7,0.5-17.5,0.6-26.1-1c-7.4-1.3-14.7-4-20.3-9.1
				c-6-5.3-8.9-12.8-13.6-19.1c-2.1-2.9-4.6-5.5-7.7-7.4c-2-1.2-4.1-1.9-6.3-2.3c1.6,1.1,3.7,1.7,5.3,2.7c2.5,1.6,4.2,4.5,5.6,7.1
				c5.1,10,9.8,20.9,20,27.1c11.7,7.1,26.2,7.8,39.4,7.6c30-0.4,60.5-6.1,89.7-12.6c17.3-3.8,34.1-9.7,50-17.7
				c11-5.5,22.4-11.3,31.6-19.6c5.5-4.9,9.7-10.6,12.7-16.9c2.1-4.4,3.6-9,4.5-14c0.3-1.4,0.5-2.7,0.9-4.1c0.4-1.2,0.8-2.3,1.4-3.4
				c1-2,2.4-3.7,3.9-5.3c1.5-1.6,3.2-3.1,4.8-4.6c0.5-0.5,0.9-0.9,1.4-1.4C278.4,26.5,278.4,25.6,278,25.5z"/>
			<path class="st4" d="M160.6,66.4c-3.5-0.2-6.8,0.9-10.2,1.5c-4.3,0.8-8.5,1.6-12.8,2.6c-8.7,2-17.2,4.2-25.7,6.7
				c-17,4.9-34,9-51.7,10.3c-4.5,0.3-8.9,0.7-13.4,1.2c-2.6,0.3-5.2,0.3-7.7,0.5c-2.3,0.2-3.9,1.1-6,2C32.8,91.3,32.5,92,33,92
				c1.9,0.1,3.7-0.2,5.6,0c2.1,0.2,4.1,0.2,6.2,0.1c4.2-0.3,8.3-0.7,12.5-1c8.3-0.6,16.5-1.3,24.8-2.8c17.1-3.2,33.9-8.3,50.4-13.8
				c4.7-1.6,9.4-3.1,14.2-4.3c4.4-1.1,9.2-3.2,13.9-3.1C160.7,67,161,66.4,160.6,66.4z"/>
		</g>
		<g>
			<g>
				<path class="st0" d="M333.3,21.9c0.1,0.2,0.1,0.4,0.2,0.7c0.2,0,0.4,0,0.6,0c2.1-0.2,4.1-1.7,4.8-3.7c0.3-0.9,0.3-1.8,0.2-2.7
					c-0.4-1.1-1-2.1-1.7-3c-0.9-1.1-2.2-2.1-3.6-2.8c-3-1.5-6.5-2-9.9-2.1c-19.6-0.8-40.3,3.9-55,17.7c-2.3,2.2-1,5.6,0.7,7.7
					c0.3,0.4,0.6,0.7,0.9,1c2.8-3.3,6.4-6.1,10-8.4c4.6-3,9.6-5.5,14.7-7.5c6.3-2.5,12.8-4.1,19.6-4.3c5-0.1,10.8-0.7,15.1,2.4
					c0.5,0.4,1,0.9,1.4,1.4C332.2,19.3,332.9,20.5,333.3,21.9z"/>
				<path class="st1" d="M334.9,23c-0.2,0.1-0.5,0.1-0.7,0.1c-0.2,0-0.5,0-0.7,0l-0.3,0l-0.1-0.3c0-0.2-0.1-0.4-0.2-0.6
					c-0.4-1.3-1-2.4-1.9-3.4l0,0c-0.4-0.5-0.8-0.9-1.3-1.3c-3.7-2.7-8.5-2.6-13.2-2.4c-0.5,0-1.1,0-1.6,0
					c-6.2,0.2-12.5,1.5-19.5,4.3c-5.3,2.1-10.3,4.6-14.6,7.4c-4.3,2.8-7.5,5.5-9.9,8.3l-0.3,0.4l-0.4-0.4c-0.3-0.3-0.6-0.7-0.9-1
					c-2.1-2.5-3.1-6.1-0.7-8.3C281.7,13.3,301.4,7,323.9,7.8c3,0.1,6.8,0.5,10.1,2.1c1.5,0.8,2.8,1.8,3.8,2.9c0.8,0.9,1.4,2,1.8,3.1
					l0,0.1l0,0.1c0.1,1,0,2-0.3,2.9C338.8,21,337,22.5,334.9,23z M333.9,22.1c0.1,0,0.1,0,0.2,0c2-0.2,3.8-1.6,4.3-3.4
					c0.2-0.8,0.3-1.6,0.2-2.5c-0.4-1-0.9-2-1.6-2.8c-0.9-1.1-2.1-2-3.5-2.7c-3.2-1.6-6.8-1.9-9.7-2c-22.2-0.9-41.7,5.4-54.6,17.6
					c-2.2,2.1-0.6,5.4,0.8,7c0.2,0.2,0.3,0.4,0.5,0.6c2.4-2.8,5.6-5.4,9.8-8.1c4.4-2.9,9.4-5.4,14.8-7.5c7-2.8,13.5-4.2,19.8-4.3
					c0.5,0,1.1,0,1.6,0c4.6-0.2,9.8-0.3,13.8,2.6c0.5,0.4,1,0.9,1.4,1.5c1,1,1.7,2.3,2.1,3.7l0,0C333.8,21.9,333.9,22,333.9,22.1z"
					/>
			</g>
			<path class="st0" d="M337,12.8C337,12.8,336.9,12.8,337,12.8c-1.9,0.4-3.1,1.6-3.8,3.3c-0.1,0.3-0.5,0.4-0.7,0.2
				c-3.3-3-7.7-4.4-12.1-4.8c-4.3-0.4-8.6,0.1-12.8,0.9c-4.1,0.8-8.2,1.9-12.2,3.1c-1.9,0.6-3.9,1.1-5.8,1.9
				c-2.7,1.2-5.3,2.8-7.8,4.2c-1.3,0.7-2.6,1.5-4,2c-1.2,0.5-2.4,1-3.7,1c-1,0-1.9-0.3-2.8-0.8c-0.9,0.7-1.7,1.5-2.5,2.2
				c-2.3,2.2-1,5.6,0.7,7.7c0.3,0.4,0.6,0.7,0.9,1c2.8-3.3,6.4-6.1,10-8.4c4.6-3,9.6-5.5,14.7-7.5c6.3-2.5,12.8-4.1,19.6-4.3
				c5-0.1,10.8-0.7,15.1,2.4c0.5,0.4,1,0.9,1.4,1.4c0.9,0.9,1.6,2.1,2,3.6c0.1,0.2,0.1,0.4,0.2,0.7c0.2,0,0.4,0,0.6,0
				c2.1-0.2,4.1-1.7,4.8-3.7c0.3-0.9,0.3-1.8,0.2-2.7c-0.4-1.1-1-2.1-1.7-3C337.3,13.1,337.1,12.9,337,12.8z"/>
			<g>
				<path class="st4" d="M289.6,48.9c0.3,1.2,0.2,2.5-0.2,3.7c-1.4,3.8-5.4,5.9-9.3,4.9c-4.4-1.1-6.4-5-6.1-9.3
					c0.3-5,2.3-9.8,2.1-14.9c-0.1-3.1-1.7-6.1-4-8.1c-0.3-0.3-0.7-0.5-1-0.7c-3.8-2.2-8.1-1.9-12.3-1.3c-6.1,0.8-12.1,2.3-18.1,0.3
					c-0.8-0.3-1.6-0.6-2.3-1.1c-1.5-0.4-2.8-1.1-4-2c-1.3-1.1-2.2-2.7-2.2-4.5c0-1.7,0.8-3.4,1.8-4.7c2.3-3.2,6.2-5.5,10-6.1
					c0.6-0.1,1.3-0.2,1.9-0.2c-4.6-4.2-12.5,0-16.5,4.4c-2.7,3-5,6.9-5,11.1c0,5.9,4.4,10.2,9.3,12.8c3.4,1.7,7.2,2,11,1.9
					c-5,3.1-9.6,7.2-12.3,12.5c-2.7,5.4-2.2,11,0.8,16.1c1.7,2.8,4.5,6.5,7.8,5.8c-1.8-1.5-3.3-3.3-4.1-5.5c-1.6-4.5,0.8-9.1,4-12.2
					c2.8-2.7,6.3-4.7,10.1-5.8c2.7-1.1,5.5-1.7,8.4-2.2c-2,2.6-3.4,5.4-4.1,8.6c-0.9,4.1-0.2,8,1,12c0.8,2.7,1.2,5.3,0.7,8.1
					c-0.3,1.8-0.8,3.6-1.2,5.4c0.3-0.1,0.5-0.3,0.8-0.4c3-1.8,5.6-4.2,6.6-7.6c1.4-4.9,0.7-9.9,0.5-14.9c0-0.7,0-1.3,0-2
					c1.8,5.6,6.2,10.4,11.9,11.8c4.9,1.2,10.6-0.4,14.1-4.2c1.8-2,2.8-4.7,2.4-7.4C291.7,51.3,290.8,50,289.6,48.9z"/>
				<path class="st1" d="M255,78.7l0.3-1.1c0.1-0.4,0.2-0.8,0.3-1.2c0.3-1.4,0.7-2.8,0.9-4.1c0.5-3-0.1-5.6-0.7-7.9
					c-1.2-4.4-1.9-8.2-1-12.2c0.6-2.7,1.8-5.3,3.5-7.8c-2.8,0.5-5.1,1.1-7.1,1.9l0,0c-3.7,1.1-7.2,3.1-9.9,5.7
					c-3.8,3.6-5.2,8-3.9,11.7c0.7,1.9,2,3.7,3.9,5.3l0.8,0.6l-1,0.2c-3.7,0.8-6.8-3.5-8.3-6c-3.2-5.5-3.5-11.3-0.9-16.6
					c2.2-4.4,5.9-8.3,11-11.7c-2.9,0-6.4-0.3-9.6-2c-6.1-3.1-9.6-7.9-9.6-13.2c0-4.7,2.8-8.8,5.1-11.4c2.2-2.5,5.3-4.5,8.2-5.5
					c3.6-1.3,6.7-0.9,9,1.1l0.9,0.8l-1.2,0c-0.6,0-1.2,0.1-1.8,0.2c-3.7,0.6-7.5,2.9-9.7,6c-0.8,1-1.7,2.7-1.7,4.5
					c0,1.5,0.7,3,2,4.1c1,0.9,2.3,1.5,3.8,1.9l0.1,0c0.7,0.4,1.5,0.8,2.2,1c4.9,1.7,10.1,0.9,15.1,0.1c1-0.1,1.9-0.3,2.9-0.4
					c4.2-0.6,8.6-0.9,12.6,1.4c0.3,0.2,0.7,0.4,1.1,0.7c2.5,2.2,4,5.3,4.2,8.5c0.1,3-0.5,5.9-1.1,8.7c-0.4,2-0.9,4.2-1,6.2
					c-0.4,5.3,2.7,8,5.7,8.8c3.7,0.9,7.4-1,8.8-4.6c0.4-1.2,0.5-2.4,0.2-3.4l-0.4-1.5l1.2,1c1.4,1.2,2.2,2.6,2.5,4.3
					c0.4,2.7-0.5,5.6-2.5,7.8c-3.5,3.9-9.4,5.6-14.5,4.4c-4.8-1.2-9-4.8-11.3-9.7c0,0.7,0.1,1.4,0.1,2c0.3,4.1,0.6,8.3-0.6,12.4
					c-0.9,3.1-3.1,5.7-6.8,7.9c-0.3,0.2-0.5,0.3-0.8,0.5L255,78.7z M256,43.9c1-0.2,2.2-0.4,3.4-0.6l1.2-0.2l-0.7,0.9
					c-2,2.7-3.4,5.5-4.1,8.4c-0.9,3.9-0.2,7.5,1,11.8c0.7,2.3,1.3,5.1,0.7,8.3c-0.2,1.4-0.6,2.9-0.9,4.2c0,0,0,0,0,0.1
					c3.3-2,5.3-4.4,6.1-7.2c1.2-4,0.9-7.9,0.6-12.1c-0.1-0.9-0.1-1.8-0.2-2.7c0-0.7,0-1.3,0-2l0.2-2.5l0.8,2.3
					c1.9,5.8,6.3,10.2,11.6,11.5c4.8,1.2,10.3-0.4,13.6-4.1c1.8-2,2.7-4.6,2.3-7c-0.2-1-0.5-1.9-1.2-2.7c0,0.8-0.1,1.7-0.5,2.5
					c-1.5,4-5.7,6.2-9.9,5.2c-4.2-1.1-6.8-4.9-6.5-9.8c0.1-2.2,0.6-4.3,1-6.4c0.6-2.7,1.2-5.6,1-8.4c-0.1-2.9-1.6-5.8-3.9-7.8
					c-0.2-0.2-0.5-0.4-0.9-0.6c-3.8-2.2-8-1.8-12-1.3c-0.9,0.1-1.9,0.3-2.8,0.4c-5.1,0.8-10.4,1.6-15.5-0.2
					c-0.8-0.3-1.6-0.6-2.4-1.1c-1.6-0.5-3-1.2-4.1-2.1c-1.5-1.3-2.4-3-2.4-4.8c0-2.1,1-3.9,1.9-5c2.4-3.2,6.4-5.7,10.3-6.3
					c0.2,0,0.4-0.1,0.6-0.1c-4.5-2.6-11.3,1.3-14.8,5.1c-2.2,2.4-4.9,6.3-4.9,10.7c0,7,6.4,11,9.1,12.3c3.6,1.8,7.7,1.9,10.8,1.8
					l1.8-0.1l-1.5,1c-5.7,3.5-9.8,7.7-12.1,12.3c-2.5,5-2.2,10.4,0.8,15.7c1.2,2.1,3.5,5.3,6.2,5.6c-1.6-1.5-2.7-3.1-3.3-4.9
					c-1.4-4.1,0.1-8.8,4.1-12.7c2.8-2.7,6.4-4.8,10.3-5.9C252.4,44.8,254.1,44.3,256,43.9z"/>
			</g>
			<g>
				<path class="st4" d="M233.6,33.1c3.4,1.7,7.2,2,11,1.9c-0.4,0.2-0.8,0.5-1.2,0.7c1.3-0.2,2.6-0.4,3.8-0.8c-4,0-7.9-0.8-11.5-2.5
					c-3.8-1.8-7.3-4.8-8.9-8.8c-1.4-3.4-1.1-7.2,0.4-10.5c1.2-2.6,3.2-5,5.5-6.9c-1.3,0.9-2.5,2-3.5,3c-2.7,3-5,6.9-5,11.1
					C224.3,26.2,228.6,30.5,233.6,33.1z"/>
				<path class="st1" d="M246,35.7c-0.8,0.2-1.6,0.3-2.5,0.4l-2,0.3l1.5-1c-2.9,0-6.4-0.3-9.6-2l0,0c-6.1-3.1-9.6-7.9-9.6-13.2
					c0-4.7,2.8-8.8,5.1-11.4c1-1.1,2.3-2.2,3.6-3.1l0.6,0.8c-2.3,1.9-4.2,4.2-5.4,6.7c-1.6,3.4-1.7,7-0.4,10.1
					c1.4,3.5,4.6,6.6,8.7,8.5c3.1,1.5,6.5,2.3,10.1,2.4l0.4,0l0,0c0.3,0,0.6,0,0.9,0l3.2,0l-3.1,0.9C247,35.5,246.5,35.6,246,35.7z
					 M233.8,32.6c1.8,0.9,3.7,1.4,5.6,1.6c-1.3-0.4-2.6-0.9-3.9-1.5c-4.3-2.1-7.7-5.4-9.2-9c-1.2-2.9-1.3-6.1-0.2-9.2
					c-0.8,1.7-1.4,3.7-1.4,5.7C224.7,27.3,231.1,31.2,233.8,32.6L233.8,32.6z"/>
			</g>
			<g>
				<path class="st4" d="M235.3,63.4c-1.6-3.9-2-8.3-1-12.4c0.9-4,3.1-7.6,5.8-10.6c-0.9,0.2-1.8,0.7-2.6,1.2
					c-2.1,1.5-3.7,3.9-4.8,6.2c-0.7,1.3-1.3,2.7-1.8,4.2c-0.7,3.9,0.2,7.9,2.4,11.6c1.2,2.1,3.1,4.6,5.3,5.5
					C237.2,67.3,236.1,65.4,235.3,63.4z"/>
				<path class="st1" d="M239.8,70.1l-1.6-0.7c-2.4-1-4.3-3.7-5.5-5.7c-2.3-3.9-3.1-8-2.4-11.9l0-0.1c0.5-1.4,1.1-2.9,1.8-4.3
					c1.5-2.9,3.1-5,5-6.3c0.9-0.6,1.8-1.1,2.8-1.3l1.5-0.4l-1,1.2c-2.9,3.3-4.9,6.8-5.7,10.4c-0.9,4-0.6,8.2,1,12.1l0,0
					c0.7,1.9,1.8,3.7,3.1,5.6L239.8,70.1z M231.3,52c-0.6,3.7,0.2,7.6,2.3,11.2c0.6,1.1,1.8,2.8,3.2,4c-0.8-1.3-1.4-2.5-1.9-3.8l0,0
					c-1.7-4.1-2-8.5-1.1-12.7c0.8-3.2,2.3-6.4,4.7-9.3c-0.2,0.1-0.5,0.3-0.7,0.5c-1.8,1.3-3.3,3.2-4.7,6
					C232.3,49.3,231.7,50.7,231.3,52z"/>
			</g>
			<g>
				<path class="st4" d="M291.4,56.3c-0.5,1.5-1.2,2.9-2.4,3.9c-1.3,1.2-3,1.8-4.7,2c-3.5,0.5-7.3-0.2-10.5-1.7
					c-3-1.4-5.4-3.7-7.1-6.5c-1.3-2.1-2.1-4.5-2.5-6.9c-0.4,4.2,0.5,8.6,3,12.1c2.2,2.6,5,4.5,8.3,5.3c4.9,1.2,10.6-0.4,14.1-4.2
					c1.6-1.7,2.5-4,2.5-6.3C291.9,54.9,291.7,55.6,291.4,56.3z"/>
				<path class="st1" d="M282.2,65.1c-2.2,0.5-4.6,0.5-6.8,0c-3.2-0.8-6.2-2.7-8.6-5.5c-2.5-3.5-3.6-7.9-3.1-12.4l0.4-3.5l0.6,3.4
					c0.4,2.5,1.2,4.8,2.4,6.7c1.7,2.8,4.1,4.9,6.9,6.3c3.3,1.5,7,2.1,10.3,1.7c1.8-0.3,3.4-0.9,4.5-1.9c0.9-0.8,1.7-2,2.3-3.7v0
					c0.2-0.6,0.4-1.3,0.6-2.1l0.9-3.9l0,4c0,2.4-0.9,4.8-2.6,6.6C287.9,62.9,285.1,64.5,282.2,65.1z M264.6,50.9
					c0.3,3,1.3,5.8,2.9,8.1c2.2,2.6,5,4.4,8,5.1c3.8,0.9,8,0.1,11.3-2.1c-0.8,0.3-1.6,0.5-2.5,0.7c-3.4,0.5-7.4-0.1-10.8-1.7
					c-3-1.4-5.6-3.7-7.3-6.6C265.6,53.3,265,52.1,264.6,50.9z"/>
			</g>
			<g>
				<path class="st4" d="M257.8,70.9c0.5-2.4,0.3-4.8-0.1-7.2c-0.4-2.5-0.9-5-0.9-7.6c0-4.3,1.5-8.3,3.3-12.1
					c-0.8,0.5-1.5,1-2.1,1.6c-1.3,2.1-2.3,4.3-2.8,6.7c-0.9,4.1-0.2,8,1,12c0.8,2.7,1.2,5.3,0.7,8.1c-0.1,0.9-0.3,1.8-0.6,2.7
					C257,73.7,257.5,72.4,257.8,70.9z"/>
				<path class="st1" d="M256.8,75.3l-0.9-0.3c0.3-1.1,0.4-1.9,0.6-2.7c0.5-3-0.1-5.6-0.7-7.9c-1.2-4.4-1.9-8.2-1-12.2
					c0.5-2.3,1.5-4.7,2.9-6.9l0.1-0.1c0.7-0.7,1.4-1.2,2.2-1.7l1.4-0.8l-0.7,1.4c-1.5,3.1-3.3,7.3-3.3,11.9c0,2.4,0.4,4.7,0.8,7.2
					l0.1,0.3c0.5,2.8,0.5,5.2,0.1,7.4l0,0C258,72.4,257.6,73.7,256.8,75.3z M258.5,45.9c-1.3,2.1-2.2,4.3-2.7,6.5
					c-0.9,3.9-0.2,7.5,1,11.8c0.4,1.4,0.8,3.1,0.9,4.9c0.1-1.6,0-3.3-0.3-5.2l-0.1-0.3c-0.4-2.4-0.8-4.8-0.8-7.3
					c0-4,1.3-7.7,2.6-10.7C258.8,45.6,258.6,45.7,258.5,45.9z"/>
			</g>
			<path class="st0" d="M238.2,22.4c-1.5-0.4-2.8-1.1-4-2c-1.3-1.1-2.2-2.7-2.2-4.5c0-1.7,0.8-3.4,1.8-4.7c2.3-3.2,6.2-5.5,10-6.1
				c0.6-0.1,1.3-0.2,1.9-0.2c-0.6-0.5-1.2-0.9-1.8-1.2c-3.7,0.1-7.5,1.4-10.4,3.6c-3.1,2.4-5.1,6.1-4.6,10.2
				c0.6,4.1,3.2,7.5,7.1,9.1c3.8,1.5,8,1.5,11.9,1.4c2,0,3.9-0.2,5.9-0.2c2.3,0,4.6,0,6.8,0.5c1.8,0.4,3.5,1.2,4.8,2.5
				c1.1,1.2,1.7,2.7,2,4.2c0.8,3.6,0.4,7.4,0.9,11.1c0.3,2,0.7,4,1.6,5.8c1.2,2.3,3,4.2,5.3,5.5c2.4,1.4,5.3,2,8,1.2
				c1.5-0.5,2.8-1.4,3.7-2.6c-1.9,1.5-4.4,2.2-6.9,1.5c-4.4-1.1-6.4-5-6.1-9.3c0.3-5,2.3-9.8,2.1-14.9c-0.1-3.1-1.7-6.1-4-8.1
				c-0.3-0.3-0.7-0.5-1-0.7c-3.8-2.2-8.1-1.9-12.3-1.3c-6.1,0.8-12.1,2.3-18.1,0.3C239.8,23.2,239,22.8,238.2,22.4z"/>
			<path class="st0" d="M263,53c-0.7-2.3-1.1-4.8-0.8-7.3c-1.8,1.9-2.5,4.6-2.6,7.2c-0.3,5,1.2,10,0.6,15c-0.4,3.2-1.4,7.8-4.4,9.6
				c0,0.1,0,0.1,0,0.2c0.3-0.1,0.5-0.3,0.8-0.4c3-1.8,5.6-4.2,6.6-7.6c1.4-4.9,0.7-9.9,0.5-14.9c0,0,0,0,0-0.1
				C263.3,54.1,263.1,53.5,263,53z"/>
			<path class="st0" d="M259.1,43.8c1.2-0.9,2.2-1.9,2.6-3.3c-3.4,2.1-7.6,2.6-11.4,3.2c-2,0.3-3.9,0.7-5.8,1.4
				c-1.6,0.6-3.2,1.5-4.6,2.5c-2.7,1.9-4.9,4.5-5.8,7.7c-0.8,3.1-0.2,6.3,1.3,9.1c1,1.8,2.4,3.8,4.3,5c0.5,0.1,0.9,0.1,1.4,0
				c-1.8-1.5-3.3-3.3-4.1-5.5c-1.6-4.5,0.8-9.1,4-12.2c2.8-2.7,6.3-4.7,10.1-5.8C253.6,44.8,256.3,44.2,259.1,43.8z"/>
		</g>
	</g>
	<g>
		<g>
			<path class="st0" d="M339.7,112.1c-31.2-5.6-40.3-20-51.7-23.8c-7.3-2.4-14.4-4-22.1-4.4c-9-0.5-18-0.6-27-0.8
				c-18.8-0.5-37.5,0.2-56.2,1.8c-14,1.2-28.2,2.7-42,5.8c-2,0.7-4.1,1.3-6.1,2c-20.1,6.3-37.7,15.6-55.3,26.9
				c-5.2,3.4-10.5,7.3-16.4,9.5c-5.6,2.1-12,3-16.8,6.9c0.2,0.3,0.4,0.2,0.8,0.2c6.6-0.2,36.1,5.8,42.7,5.3
				c17.5-1.3,49.1-3.7,66.5-6.1c17.3-2.4,31,1,48.3-1.2c17.5-2.2,43.5-4.1,61.2-4.6C284.8,129,340.4,112.2,339.7,112.1z"/>
			<path class="st1" d="M279.3,128.3c-5.3,1-10,1.6-13.6,1.7c-18.6,0.5-44.3,2.5-61.2,4.6c-8.5,1.1-16.3,0.8-23.8,0.5
				c-7.8-0.3-15.8-0.6-24.6,0.7c-17.5,2.5-49.4,4.9-66.5,6.1c-3.5,0.3-13.3-1.3-22.7-2.8c-8.7-1.4-16.9-2.7-20.1-2.6l-0.1,0
				c-0.4,0-0.9,0-1.2-0.5c-0.1-0.2-0.1-0.5,0.1-0.7c3.5-2.8,7.7-4.1,11.8-5.3c1.7-0.5,3.5-1,5.1-1.7c4.6-1.7,9-4.6,13.1-7.4
				c1-0.7,2.1-1.4,3.1-2.1c20.1-12.9,37.2-21.2,55.5-27c1.2-0.4,2.3-0.7,3.5-1.1c0.9-0.3,1.8-0.6,2.7-0.9c14-3.1,28.5-4.7,42.1-5.8
				c19.2-1.7,38.2-2.3,56.3-1.8c2.5,0.1,5.1,0.1,7.6,0.2c6.4,0.1,13,0.3,19.4,0.6c7.2,0.4,14.3,1.8,22.2,4.4
				c3.9,1.3,7.6,3.8,11.8,6.7c8.1,5.6,19.2,13.3,39.8,17l0,0c0.3,0,0.4,0.3,0.4,0.5c0,0.4,0,0.5-9.3,3.2c-3.8,1.1-11.7,3.4-21,5.9
				C300.5,123.7,288.9,126.6,279.3,128.3z M47.3,135.7c3.5,0,11.4,1.3,19.8,2.6c9.4,1.5,19.1,3,22.5,2.7c17.1-1.3,48.9-3.6,66.4-6.1
				c8.9-1.3,16.9-1,24.7-0.7c7.5,0.3,15.2,0.5,23.6-0.5c16.9-2.1,42.7-4.1,61.3-4.6c16.7-0.5,62.8-13.8,72.2-16.8
				c-19.6-3.9-30.4-11.3-38.4-16.8c-4.2-2.9-7.8-5.4-11.6-6.6c-7.9-2.6-14.9-4-22-4.4c-6.4-0.4-13-0.5-19.4-0.6
				c-2.5-0.1-5.1-0.1-7.6-0.2c-18.1-0.5-37,0.1-56.2,1.8c-13.5,1.2-28,2.7-41.9,5.8c-0.8,0.3-1.7,0.6-2.6,0.8
				c-1.2,0.4-2.3,0.8-3.5,1.1c-18.2,5.7-35.2,14-55.2,26.9c-1,0.7-2.1,1.4-3.1,2c-4.2,2.8-8.6,5.7-13.3,7.5
				c-1.7,0.6-3.5,1.2-5.2,1.7C54.3,132.4,50.5,133.5,47.3,135.7z"/>
		</g>
		<path class="st0" d="M65.8,129.5c5.4-2.2,10.5-5.1,15.6-7.9c12.8-7,25.2-14.8,38.6-20.7c13.9-6.1,28.5-10.1,43.4-12.8
			c7.5-1.3,15-2.5,22.6-3.2c7.5-0.7,15-0.9,22.5-1c10.2-0.1,20.4,0,30.5-0.7c-0.1,0-0.1,0-0.2,0c-18.8-0.5-37.5,0.2-56.2,1.8
			c-14,1.2-28.2,2.7-42,5.8c-2,0.7-4.1,1.3-6.1,2c-20.1,6.3-37.7,15.6-55.3,26.9c-5.2,3.4-10.5,7.3-16.4,9.5c-3,1.1-6.1,1.9-9.2,2.9
			C57.9,132.1,62,131,65.8,129.5z"/>
		<path class="st5" d="M317.9,110.9c-3-1.6-6-3.4-8.9-5.3c-2.8-1.8-5.4-3.8-8.1-5.7c-3.6-2.6-7.3-5.2-11.2-7.5
			c-0.3-0.1-0.7-0.2-1-0.3c-7.2-2-14.3-3.3-22-3.5c-8.9-0.3-17.9-0.2-26.9-0.2c-18.7-0.1-37.4,0.9-56.1,2.7c-14,1.4-28.1,3-41.9,6
			c-2.1,0.6-4.1,1.3-6.1,1.9c-20.1,6.1-37.9,14.7-55.6,25.2c-5.3,3.1-10.6,6.7-16.5,8.8c-3.6,1.3-7.5,2.1-11.1,3.5
			c9.9,1.8,19.9,3.6,29.9,5c4.2,0.6,8.5,1.2,12.8,1.7c18-1.6,45.4-4,61.2-6.3c17.3-2.5,30.9,0.3,48.2-2c17.5-2.3,43.5-4.5,61.1-5.3
			c13.6-0.6,45.9-9,63-13.8C325,114.4,321.4,112.8,317.9,110.9z"/>
		<path class="st5" d="M301.3,107.9c-9.3-3.1-21.3-7.5-30.9-8.9c-11.5-1.7-25-2.6-36.6-3.1c-23.1-1.2-43.6-1.7-66.5,1.1
			c-22.4,2.7-65.7,21.9-86,31.8c-11.2,5.4-0.2,6.4-11.7,10.8c4.3,0.7,8.6,1.4,13,2c4.2,0.6,8.5,1.2,12.8,1.7c18-1.6,45.4-4,61.2-6.3
			c17.3-2.5,30.9,0.3,48.2-2c17.5-2.3,43.5-4.5,61.1-5.3c11.2-0.5,35.1-6.3,52.8-11C312.4,116.9,307.3,109.9,301.3,107.9z"/>
		<g>
			<g>
				<g>
					
						<ellipse transform="matrix(0.9162 -0.4007 0.4007 0.9162 -42.6542 50.6496)" class="st6" cx="99.8" cy="127.3" rx="15.3" ry="15.3"/>
					<path class="st7" d="M102.6,142.8c-8.5,1.6-16.8-4.1-18.3-12.6c-1.6-8.5,4.1-16.8,12.6-18.3c8.5-1.6,16.8,4.1,18.3,12.6
						C116.8,133,111.2,141.2,102.6,142.8z M97.1,112.8c-8,1.5-13.3,9.2-11.8,17.2c1.5,8,9.2,13.3,17.2,11.8
						c8-1.5,13.3-9.2,11.8-17.2C112.8,116.6,105.1,111.3,97.1,112.8z"/>
				</g>
				<path class="st6" d="M97,112.3c-8.3,1.5-13.8,9.5-12.2,17.8c1.5,8.3,9.5,13.8,17.8,12.2c8.3-1.5,13.8-9.5,12.2-17.8
					S105.3,110.8,97,112.3z M102.3,127.4c-0.9,1.8-2.2,3.4-3.7,4.7c-1.5,1.3-3.2,2.5-5.2,2.8c-4.4,0.7-7.3-3.8-7.5-7.7
					c-0.4-7.4,6.6-16.4,14.4-10.8C103.8,118.9,104.1,123.8,102.3,127.4z"/>
				<path class="st6" d="M113.4,120.4c0.1,0.5,0.1,1,0.2,1.5c0.2,3.9-1,7.7-3.5,10.7c-2.8,3.4-7,5.8-11.4,6.2
					c-2.2,0.2-4.6-0.1-6.6-1c-2.3-1.1-4.2-3-5.5-5.1c-1.1-1.7-1.7-3.6-1.9-5.6c0,1,0.1,2,0.3,3c1.5,8.3,9.5,13.8,17.8,12.2
					c8.3-1.5,13.8-9.5,12.2-17.8C114.5,123.1,114,121.7,113.4,120.4z"/>
			</g>
			<path class="st6" d="M90.7,118.2c-1.3,0.9-2.2,2.4-2.6,3.9c0,0.1-0.1,0.3-0.1,0.4c-0.3,0.8-0.5,1.7-0.2,2.5c0.8,2.1,3,1,4.2-0.1
				c1.4-1.3,2.9-3.3,2.7-5.3C94.5,117.4,92.4,117,90.7,118.2z"/>
			<path class="st6" d="M89.2,127.9C89.2,127.9,89.2,127.9,89.2,127.9C89.1,127.9,89.1,127.9,89.2,127.9c-0.1-0.1-0.2-0.1-0.3-0.1
				c-0.2,0-0.4,0-0.6,0.1c-0.2,0.1-0.4,0.3-0.5,0.5l-0.1,0.2c-0.1,0.1-0.1,0.3-0.1,0.5c0,0.1,0,0.2,0.1,0.3c0.1,0.2,0.3,0.3,0.6,0.4
				c0,0,0,0,0,0c0,0,0,0,0.1,0c0.1,0,0.1,0,0.2,0c0,0,0,0,0.1,0c0.1,0,0.3-0.1,0.4-0.2c0.1,0,0.1-0.1,0.2-0.1c0.1,0,0.1-0.1,0.2-0.1
				c0.2-0.3,0.4-0.6,0.4-0.9C89.6,128.2,89.5,128,89.2,127.9z"/>
		</g>
		<g>
			<g>
				<g>
					
						<ellipse transform="matrix(0.5677 -0.8232 0.8232 0.5677 -45.3606 154.337)" class="st6" cx="124.3" cy="120.4" rx="15.3" ry="15.3"/>
					<path class="st7" d="M127.1,135.9c-8.5,1.6-16.8-4.1-18.3-12.6c-1.6-8.5,4.1-16.8,12.6-18.3c8.5-1.6,16.8,4.1,18.3,12.6
						C141.3,126.1,135.7,134.3,127.1,135.9z M121.6,105.9c-8,1.5-13.3,9.2-11.8,17.2c1.5,8,9.2,13.3,17.2,11.8
						c8-1.5,13.3-9.2,11.8-17.2C137.3,109.7,129.6,104.4,121.6,105.9z"/>
				</g>
				<path class="st6" d="M121.5,105.4c-8.3,1.5-13.8,9.5-12.2,17.8c1.5,8.3,9.5,13.8,17.8,12.2c8.3-1.5,13.8-9.5,12.2-17.8
					C137.8,109.3,129.8,103.8,121.5,105.4z M126.8,120.5c-0.9,1.8-2.2,3.4-3.7,4.7c-1.5,1.3-3.2,2.5-5.2,2.8
					c-4.4,0.7-7.3-3.8-7.5-7.7c-0.4-7.4,6.6-16.4,14.4-10.8C128.3,111.9,128.6,116.9,126.8,120.5z"/>
				<path class="st6" d="M137.9,113.5c0.1,0.5,0.1,1,0.2,1.5c0.2,3.9-1,7.7-3.5,10.7c-2.8,3.4-7,5.8-11.4,6.2
					c-2.2,0.2-4.6-0.1-6.6-1c-2.3-1.1-4.2-3-5.5-5.1c-1.1-1.7-1.7-3.6-1.9-5.6c0,1,0.1,2,0.3,3c1.5,8.3,9.5,13.8,17.8,12.2
					c8.3-1.5,13.8-9.5,12.2-17.8C139,116.1,138.5,114.8,137.9,113.5z"/>
			</g>
			<path class="st6" d="M115.3,111.2c-1.3,0.9-2.2,2.4-2.6,3.9c0,0.1-0.1,0.3-0.1,0.4c-0.3,0.8-0.5,1.7-0.2,2.5c0.8,2.1,3,1,4.2-0.1
				c1.4-1.3,2.9-3.3,2.7-5.3C119,110.4,116.9,110.1,115.3,111.2z"/>
			<path class="st6" d="M113.7,121C113.7,121,113.7,121,113.7,121C113.6,121,113.6,121,113.7,121c-0.1-0.1-0.2-0.1-0.3-0.1
				c-0.2,0-0.4,0-0.6,0.1c-0.2,0.1-0.4,0.3-0.5,0.5l-0.1,0.2c-0.1,0.1-0.1,0.3-0.1,0.5c0,0.1,0,0.2,0.1,0.3c0.1,0.2,0.3,0.3,0.6,0.4
				c0,0,0,0,0,0c0,0,0,0,0.1,0c0.1,0,0.1,0,0.2,0c0,0,0,0,0.1,0c0.1,0,0.3-0.1,0.4-0.2c0.1,0,0.1-0.1,0.2-0.1c0.1,0,0.1-0.1,0.2-0.1
				c0.2-0.3,0.4-0.6,0.4-0.9C114.1,121.3,114,121.1,113.7,121z"/>
		</g>
		<g>
			<g>
				<g>
					<path class="st6" d="M163,110.8c1.5,8.3-4,16.2-12.2,17.8c-8.3,1.5-16.2-4-17.8-12.2c-1.5-8.3,4-16.2,12.2-17.8
						C153.5,97.1,161.4,102.5,163,110.8z"/>
					<path class="st7" d="M150.8,129.1c-8.5,1.6-16.8-4.1-18.3-12.6c-1.6-8.5,4.1-16.8,12.6-18.3c8.5-1.6,16.8,4.1,18.3,12.6
						C165,119.3,159.3,127.5,150.8,129.1z M145.3,99.1c-8,1.5-13.3,9.2-11.8,17.2c1.5,8,9.2,13.3,17.2,11.8
						c8-1.5,13.3-9.2,11.8-17.2C161,102.9,153.3,97.6,145.3,99.1z"/>
				</g>
				<path class="st6" d="M156.9,100.6c-18.3-9.3-33.1,12.2-17.9,26C157.3,135.9,172.1,114.4,156.9,100.6z M150.5,113.7
					c-0.9,1.8-2.2,3.4-3.7,4.7c-1.5,1.3-3.2,2.5-5.2,2.8c-4.4,0.7-7.3-3.8-7.5-7.7c-0.4-7.4,6.6-16.4,14.4-10.8
					C151.9,105.1,152.3,110.1,150.5,113.7z"/>
				<path class="st6" d="M161.6,106.7c0.1,0.5,0.1,1,0.2,1.5c0.2,3.9-1,7.7-3.5,10.7c-2.8,3.4-7,5.8-11.4,6.2
					c-2.2,0.2-4.6-0.1-6.6-1c-2.3-1.1-4.2-3-5.5-5.1c-1.1-1.7-1.7-3.6-1.9-5.6c-0.1,4.5,1.8,9.3,6.6,13.4c0,0,0,0,0,0
					c13.9,6.8,25.8-4.3,23.6-15.9C162.7,109.4,162.2,108,161.6,106.7z"/>
			</g>
			<path class="st6" d="M138.9,104.4c-1.3,0.9-2.2,2.4-2.6,3.9c0,0.1-0.1,0.3-0.1,0.4c-0.3,0.8-0.5,1.7-0.2,2.5c0.8,2.1,3,1,4.2-0.1
				c1.4-1.3,2.9-3.3,2.7-5.3C142.6,103.6,140.6,103.3,138.9,104.4z"/>
			<path class="st6" d="M137.4,114.2C137.4,114.2,137.3,114.2,137.4,114.2C137.3,114.2,137.3,114.2,137.4,114.2
				c-0.1-0.1-0.2-0.1-0.3-0.1c-0.2,0-0.4,0-0.6,0.1c-0.2,0.1-0.4,0.3-0.5,0.5l-0.1,0.2c-0.1,0.1-0.1,0.3-0.1,0.5
				c0,0.1,0,0.2,0.1,0.3c0.1,0.2,0.3,0.3,0.6,0.4c0,0,0,0,0,0c0,0,0,0,0.1,0c0.1,0,0.1,0,0.2,0c0,0,0,0,0.1,0c0.1,0,0.3-0.1,0.4-0.2
				c0.1,0,0.1-0.1,0.2-0.1c0.1,0,0.1-0.1,0.2-0.1c0.2-0.3,0.4-0.6,0.4-0.9C137.8,114.5,137.6,114.3,137.4,114.2z"/>
		</g>
		<g>
			<g>
				<g>
					
						<ellipse transform="matrix(0.2439 -0.9698 0.9698 0.2439 24.2479 254.1345)" class="st6" cx="175.1" cy="111.5" rx="15.3" ry="15.3"/>
					<path class="st7" d="M177.9,127c-8.5,1.6-16.8-4.1-18.3-12.6c-1.6-8.5,4.1-16.8,12.6-18.3c8.5-1.6,16.8,4.1,18.3,12.6
						C192.2,117.2,186.5,125.4,177.9,127z M172.4,97c-8,1.5-13.3,9.2-11.8,17.2c1.5,8,9.2,13.3,17.2,11.8c8-1.5,13.3-9.2,11.8-17.2
						C188.1,100.9,180.4,95.5,172.4,97z"/>
				</g>
				<path class="st6" d="M184.1,98.5c-18.3-9.3-33.1,12.2-17.9,26C184.4,133.8,199.3,112.3,184.1,98.5z M177.6,111.6
					c-0.9,1.8-2.2,3.4-3.7,4.7c-1.5,1.3-3.2,2.5-5.2,2.8c-4.4,0.7-7.3-3.8-7.5-7.7c-0.4-7.4,6.6-16.4,14.4-10.8
					C179.1,103.1,179.4,108.1,177.6,111.6z"/>
				<path class="st6" d="M188.7,104.6c0.1,0.5,0.1,1,0.2,1.5c0.2,3.9-1,7.7-3.5,10.7c-2.8,3.4-7,5.8-11.4,6.2
					c-2.2,0.2-4.6-0.1-6.6-1c-2.3-1.1-4.2-3-5.5-5.1c-1.1-1.7-1.7-3.6-1.9-5.6c-0.1,4.5,1.8,9.3,6.6,13.4c0,0,0,0,0,0
					c13.9,6.8,25.8-4.3,23.6-15.9C189.8,107.3,189.4,105.9,188.7,104.6z"/>
			</g>
			<path class="st6" d="M166.1,102.4c-1.3,0.9-2.2,2.4-2.6,3.9c0,0.1-0.1,0.3-0.1,0.4c-0.3,0.8-0.5,1.7-0.2,2.5c0.8,2.1,3,1,4.2-0.1
				c1.4-1.3,2.9-3.3,2.7-5.3C169.8,101.6,167.7,101.2,166.1,102.4z"/>
			<path class="st6" d="M164.5,112.2C164.5,112.2,164.5,112.1,164.5,112.2C164.5,112.1,164.5,112.1,164.5,112.2
				c-0.1-0.1-0.2-0.1-0.3-0.1c-0.2,0-0.4,0-0.6,0.1c-0.2,0.1-0.4,0.3-0.5,0.5l-0.1,0.2c-0.1,0.1-0.1,0.3-0.1,0.5
				c0,0.1,0,0.2,0.1,0.3c0.1,0.2,0.3,0.3,0.6,0.4c0,0,0,0,0,0c0,0,0,0,0.1,0c0.1,0,0.1,0,0.2,0c0,0,0,0,0.1,0c0.1,0,0.3-0.1,0.4-0.2
				c0.1,0,0.1-0.1,0.2-0.1c0.1,0,0.1-0.1,0.2-0.1c0.2-0.3,0.4-0.6,0.4-0.9C165,112.4,164.8,112.2,164.5,112.2z"/>
		</g>
		<g>
			<g>
				<g>
					
						<ellipse transform="matrix(0.9714 -0.2376 0.2376 0.9714 -20.4795 51.2929)" class="st6" cx="202.5" cy="110.6" rx="15.3" ry="15.3"/>
					<path class="st7" d="M205.4,126.1c-8.5,1.6-16.8-4.1-18.3-12.6c-1.6-8.5,4.1-16.8,12.6-18.3c8.5-1.6,16.8,4.1,18.3,12.6
						C219.6,116.3,213.9,124.5,205.4,126.1z M199.8,96.1c-8,1.5-13.3,9.2-11.8,17.2c1.5,8,9.2,13.3,17.2,11.8
						c8-1.5,13.3-9.2,11.8-17.2C215.6,99.9,207.8,94.6,199.8,96.1z"/>
				</g>
				<path class="st6" d="M211.5,97.6c-18.3-9.3-33.1,12.2-17.9,26C211.8,132.9,226.7,111.4,211.5,97.6z M205.1,110.7
					c-0.9,1.8-2.2,3.4-3.7,4.7c-1.5,1.3-3.2,2.5-5.2,2.8c-4.4,0.7-7.3-3.8-7.5-7.7c-0.4-7.4,6.6-16.4,14.4-10.8
					C206.5,102.1,206.8,107.1,205.1,110.7z"/>
				<path class="st6" d="M216.1,103.7c0.1,0.5,0.1,1,0.2,1.5c0.2,3.9-1,7.7-3.5,10.7c-2.8,3.4-7,5.8-11.4,6.2
					c-2.2,0.2-4.6-0.1-6.6-1c-2.3-1.1-4.2-3-5.5-5.1c-1.1-1.7-1.7-3.6-1.9-5.6c-0.1,4.5,1.8,9.3,6.6,13.4c0,0,0,0,0,0
					c13.9,6.8,25.8-4.3,23.6-15.9C217.2,106.4,216.8,105,216.1,103.7z"/>
			</g>
			<path class="st6" d="M193.5,101.4c-1.3,0.9-2.2,2.4-2.6,3.9c0,0.1-0.1,0.3-0.1,0.4c-0.3,0.8-0.5,1.7-0.2,2.5c0.8,2.1,3,1,4.2-0.1
				c1.4-1.3,2.9-3.3,2.7-5.3C197.2,100.6,195.1,100.3,193.5,101.4z"/>
			<path class="st6" d="M191.9,111.2C191.9,111.2,191.9,111.2,191.9,111.2C191.9,111.2,191.9,111.2,191.9,111.2
				c-0.1-0.1-0.2-0.1-0.3-0.1c-0.2,0-0.4,0-0.6,0.1c-0.2,0.1-0.4,0.3-0.5,0.5l-0.1,0.2c-0.1,0.1-0.1,0.3-0.1,0.5
				c0,0.1,0,0.2,0.1,0.3c0.1,0.2,0.3,0.3,0.6,0.4c0,0,0,0,0,0c0,0,0,0,0.1,0c0.1,0,0.1,0,0.2,0c0,0,0,0,0.1,0c0.1,0,0.3-0.1,0.4-0.2
				c0.1,0,0.1-0.1,0.2-0.1c0.1,0,0.1-0.1,0.2-0.1c0.2-0.3,0.4-0.6,0.4-0.9C192.4,111.5,192.2,111.3,191.9,111.2z"/>
		</g>
		<g>
			<g>
				<g>
					<path class="st6" d="M243.7,105c1.5,8.3-4,16.2-12.2,17.8c-8.3,1.5-16.2-4-17.8-12.2c-1.5-8.3,4-16.2,12.2-17.8
						C234.2,91.2,242.2,96.7,243.7,105z"/>
					<path class="st7" d="M231.5,123.2c-8.5,1.6-16.8-4.1-18.3-12.6c-1.6-8.5,4.1-16.8,12.6-18.3c8.5-1.6,16.8,4.1,18.3,12.6
						C245.8,113.4,240.1,121.7,231.5,123.2z M226,93.2c-8,1.5-13.3,9.2-11.8,17.2c1.5,8,9.2,13.3,17.2,11.8
						c8-1.5,13.3-9.2,11.8-17.2C241.7,97.1,234,91.8,226,93.2z"/>
				</g>
				<path class="st6" d="M237.7,94.7c-18.3-9.3-33.1,12.2-17.9,26C238,130,252.8,108.5,237.7,94.7z M231.2,107.9
					c-0.9,1.8-2.2,3.4-3.7,4.7c-1.5,1.3-3.2,2.5-5.2,2.8c-4.4,0.7-7.3-3.8-7.5-7.7c-0.4-7.4,6.6-16.4,14.4-10.8
					C232.7,99.3,233,104.3,231.2,107.9z"/>
				<path class="st6" d="M242.3,100.9c0.1,0.5,0.1,1,0.2,1.5c0.2,3.9-1,7.7-3.5,10.7c-2.8,3.4-7,5.8-11.4,6.2
					c-2.2,0.2-4.6-0.1-6.6-1c-2.3-1.1-4.2-3-5.5-5.1c-1.1-1.7-1.7-3.6-1.9-5.6c-0.1,4.5,1.8,9.3,6.6,13.4c0,0,0,0,0,0
					c13.9,6.8,25.8-4.3,23.6-15.9C243.4,103.5,242.9,102.1,242.3,100.9z"/>
			</g>
			<path class="st6" d="M219.7,98.6c-1.3,0.9-2.2,2.4-2.6,3.9c0,0.1-0.1,0.3-0.1,0.4c-0.3,0.8-0.5,1.7-0.2,2.5c0.8,2.1,3,1,4.2-0.1
				c1.4-1.3,2.9-3.3,2.7-5.3C223.4,97.8,221.3,97.4,219.7,98.6z"/>
			<path class="st6" d="M218.1,108.4C218.1,108.4,218.1,108.4,218.1,108.4C218.1,108.4,218.1,108.4,218.1,108.4
				c-0.1-0.1-0.2-0.1-0.3-0.1c-0.2,0-0.4,0-0.6,0.1c-0.2,0.1-0.4,0.3-0.5,0.5l-0.1,0.2c-0.1,0.1-0.1,0.3-0.1,0.5
				c0,0.1,0,0.2,0.1,0.3c0.1,0.2,0.3,0.3,0.6,0.4c0,0,0,0,0,0c0,0,0,0,0.1,0c0.1,0,0.1,0,0.2,0c0,0,0,0,0.1,0c0.1,0,0.3-0.1,0.4-0.2
				c0.1,0,0.1-0.1,0.2-0.1c0.1,0,0.1-0.1,0.2-0.1c0.2-0.3,0.4-0.6,0.4-0.9C218.6,108.6,218.4,108.4,218.1,108.4z"/>
		</g>
		<g>
			<g>
				<g>
					
						<ellipse transform="matrix(0.5677 -0.8232 0.8232 0.5677 19.4661 255.5817)" class="st6" cx="253.1" cy="109.3" rx="15.3" ry="15.3"/>
					<path class="st7" d="M255.9,124.8c-8.5,1.6-16.8-4.1-18.3-12.6c-1.6-8.5,4.1-16.8,12.6-18.3c8.5-1.6,16.8,4.1,18.3,12.6
						C270.2,115,264.5,123.2,255.9,124.8z M250.4,94.7c-8,1.5-13.3,9.2-11.8,17.2c1.5,8,9.2,13.3,17.2,11.8
						c8-1.5,13.3-9.2,11.8-17.2C266.1,98.6,258.4,93.3,250.4,94.7z"/>
				</g>
				<path class="st6" d="M262.1,96.2c-18.3-9.3-33.1,12.2-17.9,26C262.4,131.5,277.2,110.1,262.1,96.2z M255.6,109.4
					c-0.9,1.8-2.2,3.4-3.7,4.7c-1.5,1.3-3.2,2.5-5.2,2.8c-4.4,0.7-7.3-3.8-7.5-7.7c-0.4-7.4,6.6-16.4,14.4-10.8
					C257.1,100.8,257.4,105.8,255.6,109.4z"/>
				<path class="st6" d="M266.7,102.4c0.1,0.5,0.1,1,0.2,1.5c0.2,3.9-1,7.7-3.5,10.7c-2.8,3.4-7,5.8-11.4,6.2
					c-2.2,0.2-4.6-0.1-6.6-1c-2.3-1.1-4.2-3-5.5-5.1c-1.1-1.7-1.7-3.6-1.9-5.6c-0.1,4.5,1.8,9.3,6.6,13.4c0,0,0,0,0,0
					c13.9,6.8,25.8-4.3,23.6-15.9C267.8,105,267.3,103.7,266.7,102.4z"/>
			</g>
			<path class="st6" d="M244.1,100.1c-1.3,0.9-2.2,2.4-2.6,3.9c0,0.1-0.1,0.3-0.1,0.4c-0.3,0.8-0.5,1.7-0.2,2.5c0.8,2.1,3,1,4.2-0.1
				c1.4-1.3,2.9-3.3,2.7-5.3C247.8,99.3,245.7,99,244.1,100.1z"/>
			<path class="st6" d="M242.5,109.9C242.5,109.9,242.5,109.9,242.5,109.9C242.5,109.9,242.5,109.9,242.5,109.9
				c-0.1-0.1-0.2-0.1-0.3-0.1c-0.2,0-0.4,0-0.6,0.1c-0.2,0.1-0.4,0.3-0.5,0.5l-0.1,0.2c-0.1,0.1-0.1,0.3-0.1,0.5
				c0,0.1,0,0.2,0.1,0.3c0.1,0.2,0.3,0.3,0.6,0.4c0,0,0,0,0,0c0,0,0,0,0.1,0c0.1,0,0.1,0,0.2,0c0,0,0,0,0.1,0c0.1,0,0.3-0.1,0.4-0.2
				c0.1,0,0.1-0.1,0.2-0.1c0.1,0,0.1-0.1,0.2-0.1c0.2-0.3,0.4-0.6,0.4-0.9C243,110.2,242.8,110,242.5,109.9z"/>
		</g>
		<g>
			<g>
				<g>
					
						<ellipse transform="matrix(3.732228e-02 -0.9993 0.9993 3.732228e-02 155.2615 381.2548)" class="st6" cx="275.5" cy="110" rx="13.2" ry="13.2"/>
					<path class="st7" d="M278,123.5c-7.4,1.4-14.6-3.6-16-11c-1.4-7.4,3.6-14.6,11-16c7.4-1.4,14.6,3.6,16,11
						C290.4,115,285.4,122.2,278,123.5z M273.2,97.5c-6.9,1.3-11.5,7.9-10.2,14.8c1.3,6.9,7.9,11.5,14.8,10.2
						c6.9-1.3,11.5-7.9,10.2-14.8S280.1,96.3,273.2,97.5z"/>
				</g>
				<path class="st6" d="M283.3,98.8c-15.9-8-28.7,10.6-15.5,22.5C283.6,129.4,296.4,110.7,283.3,98.8z M277.7,110.2
					c-0.8,1.6-1.9,3-3.2,4.1c-1.3,1.1-2.8,2.1-4.5,2.4c-3.8,0.6-6.4-3.3-6.5-6.7c-0.3-6.4,5.7-14.2,12.5-9.4
					C279,102.7,279.3,107,277.7,110.2z"/>
				<path class="st6" d="M287.3,104.1c0.1,0.4,0.1,0.9,0.1,1.3c0.2,3.4-0.9,6.7-3,9.3c-2.4,3-6.1,5-9.9,5.3c-1.9,0.2-4-0.1-5.7-0.9
					c-2-0.9-3.6-2.6-4.8-4.4c-0.9-1.5-1.5-3.1-1.7-4.8c-0.1,3.9,1.6,8,5.7,11.6c0,0,0,0,0,0c12.1,5.9,22.3-3.7,20.5-13.8
					C288.3,106.4,287.9,105.2,287.3,104.1z"/>
			</g>
			<path class="st6" d="M267.7,102.1c-1.1,0.8-1.9,2-2.3,3.4c0,0.1-0.1,0.3-0.1,0.4c-0.3,0.7-0.4,1.5-0.2,2.2
				c0.7,1.8,2.6,0.8,3.6-0.1c1.2-1.1,2.5-2.9,2.3-4.6C270.9,101.4,269.1,101.1,267.7,102.1z"/>
			<path class="st6" d="M266.3,110.6C266.3,110.6,266.3,110.6,266.3,110.6C266.3,110.6,266.3,110.6,266.3,110.6
				c-0.1,0-0.2-0.1-0.2-0.1c-0.2,0-0.3,0-0.5,0.1c-0.2,0.1-0.3,0.2-0.4,0.4l-0.1,0.2c-0.1,0.1-0.1,0.3-0.1,0.4c0,0.1,0,0.2,0.1,0.3
				c0.1,0.2,0.3,0.3,0.5,0.3c0,0,0,0,0,0c0,0,0,0,0.1,0c0.1,0,0.1,0,0.1,0c0,0,0,0,0,0c0.1,0,0.2-0.1,0.4-0.1c0,0,0.1-0.1,0.1-0.1
				c0.1,0,0.1-0.1,0.1-0.1c0.2-0.2,0.4-0.5,0.3-0.8C266.7,110.8,266.6,110.7,266.3,110.6z"/>
		</g>
		<g>
			<path class="st0" d="M318.6,121.1c2.5-1.4,5-2.7,7.7-3.7c1.2-0.5,2.5-0.7,3.8-0.9c3.1-0.5,6.4-0.8,9.4-1.9c1.1-0.4,2.4-0.9,3-1.9
				c0.1-0.1,0.2-0.3,0.2-0.5c-3.6-0.3-7.2-0.4-10.8-0.2c-3.5,0.1-7,0.5-10.5,1.1c-3.6,0.6-7.1,2.5-10.7,2.4
				c-96.6-1.1-105.5,2-124.1,3c-18.7,1-99.9,16.1-108.7,16.3c-3.9,0.1-7.9,0.2-11.9-0.1c-2.9-0.2-5.8-0.7-8.7-1
				c-4.1-0.5-9.6-1-13.4,1.2c4.2,3.1,24.5,6.2,27.4,7.9c29.2,17.6,62,9.6,93.9,6.1c38.2-4.2,103.8,0.3,140.1-18.9
				C309.8,126.9,314,123.7,318.6,121.1z"/>
			<path class="st1" d="M271,141.5c-21.5,3.9-45.7,4.9-68.1,5.7c-13.7,0.5-26.7,1-37.4,2.2c-4.7,0.5-9.5,1.1-14.2,1.7
				c-27,3.5-55,7.1-80-7.9c-1.1-0.6-5.3-1.6-9.8-2.6c-7-1.6-15-3.4-17.6-5.3c-0.1-0.1-0.2-0.3-0.2-0.4c0-0.2,0.1-0.3,0.3-0.4
				c4.1-2.3,10.1-1.6,13.7-1.2c1.1,0.1,2.3,0.3,3.4,0.4c1.7,0.2,3.5,0.5,5.3,0.6c3.9,0.3,7.9,0.2,11.8,0.1c3.8-0.1,21-2.9,40.9-6.3
				c26.8-4.4,57.1-9.5,67.8-10c3.8-0.2,7.2-0.5,11.1-0.8c15.3-1.3,36.2-3,113.1-2.2c2.1,0,4.2-0.6,6.3-1.3c1.4-0.4,2.8-0.9,4.3-1.1
				c3.5-0.6,7-1,10.5-1.1c3.4-0.1,7-0.1,10.9,0.2c0.2,0,0.3,0.1,0.4,0.2c0.1,0.1,0.1,0.3,0.1,0.4c-0.1,0.2-0.2,0.4-0.3,0.6
				c-0.7,1.1-2,1.7-3.3,2.1c-2.4,0.9-5,1.3-7.6,1.6c-0.7,0.1-1.3,0.2-2,0.3c-1.1,0.2-2.4,0.4-3.7,0.9c-2.5,0.9-5,2.1-7.6,3.6l0,0
				c-4,2.3-7.9,5.1-11.6,7.8l-1.5,1.1c0,0,0,0-0.1,0C295.9,135.6,284,139.1,271,141.5z M45.2,134.9c3.1,1.6,10.4,3.3,16.5,4.7
				c5,1.1,8.9,2,10.1,2.8c24.8,14.9,52.5,11.3,79.4,7.8c4.7-0.6,9.5-1.2,14.2-1.7c10.8-1.2,23.8-1.7,37.5-2.2
				c35.8-1.4,76.4-2.9,102.4-16.7l1.4-1c3.7-2.7,7.6-5.5,11.7-7.9l0,0c2.7-1.6,5.2-2.8,7.8-3.7c1.4-0.5,2.7-0.8,3.9-0.9
				c0.7-0.1,1.3-0.2,2-0.3c2.5-0.4,5-0.7,7.4-1.6c1-0.4,2-0.8,2.6-1.5c-3.5-0.2-6.8-0.3-9.9-0.2c-3.5,0.1-7,0.5-10.4,1.1
				c-1.4,0.2-2.8,0.7-4.2,1.1c-2.1,0.7-4.4,1.4-6.6,1.3c-76.8-0.9-97.7,0.9-113,2.2c-3.9,0.3-7.3,0.6-11.1,0.8
				c-10.6,0.5-40.9,5.6-67.7,10c-20,3.3-37.2,6.2-41,6.3c-3.9,0.1-8,0.2-11.9-0.1c-1.8-0.1-3.6-0.4-5.3-0.6
				c-1.1-0.1-2.2-0.3-3.4-0.4C54.2,133.8,49,133.3,45.2,134.9z M318.6,121.1L318.6,121.1L318.6,121.1z"/>
		</g>
		<path class="st5" d="M298.9,127.3c-9.9,4.8-20.2,8.1-31.2,9.7c-10.8,1.6-21.7,1.6-32.5,1.2c-11.1-0.4-22.1-1.5-33.1-1.2
			c-11.2,0.3-22.3,1.5-33.3,3.2c-10.9,1.7-21.6,3.9-32.4,6.2c-9.9,2.1-20,3.4-30.2,3.3c-10.2-0.1-20.1-2.2-30-4.4
			c28,14.2,59,6.9,89.3,3.5c38.2-4.2,103.8,0.3,140.1-18.9c4.3-3.1,8.5-6.2,13.1-8.9c2.5-1.4,5-2.7,7.7-3.7c1.2-0.5,2.5-0.7,3.8-0.9
			c3.1-0.5,6.4-0.8,9.4-1.9c1.1-0.4,2.4-0.9,3-1.9c0.1-0.1,0.2-0.3,0.2-0.5c-0.3,0-0.6,0-0.9-0.1
			C326.8,114.2,312.6,120.7,298.9,127.3z"/>
		<g>
			<path class="st0" d="M99.8,134.9c9.5-1.5,18.8-3.6,28.2-5.5c10.4-2,20.8-3.8,31.2-5.3c20.9-3.1,42-5.4,63.1-6.5
				c8.9-0.5,17.9-1,26.9-0.7c7.2,0.2,14.4,0.8,21.6,0.9c7.6,0.2,15.4,0,22.8-1.6c1.1-0.2,2.3-0.5,3.4-0.8
				c-83.8-0.6-92.7,2.2-110.4,3.1c-18.7,1-99.9,16.1-108.7,16.3c-3.9,0.1-7.9,0.2-11.9-0.1c-2.9-0.2-5.8-0.7-8.7-1
				c-0.8-0.1-1.6-0.2-2.4-0.2C69.6,137.7,84.8,137.3,99.8,134.9z"/>
			<path class="st1" d="M292.1,116.9c-7.4,1.4-14.9,1.4-21.3,1.3c-3.9-0.1-7.9-0.3-11.8-0.5c-3.2-0.2-6.5-0.3-9.8-0.4
				c-8.7-0.3-17.6,0.2-26.1,0.7l-0.7,0c-20.3,1.1-41.6,3.3-63.1,6.5c-10.3,1.5-20.8,3.3-31.2,5.3c-3.2,0.6-6.5,1.3-9.6,1.9
				c-6.1,1.2-12.4,2.5-18.6,3.5c-17.5,2.7-32.1,2.3-44.8-1.5l-2.4-0.7l2.5,0.2c0.8,0.1,1.7,0.2,2.4,0.2c1.1,0.1,2.3,0.3,3.4,0.4
				c1.7,0.2,3.5,0.5,5.3,0.6c3.9,0.3,7.9,0.2,11.8,0.1c3.8-0.1,21-3,41-6.3c26.8-4.4,57.1-9.5,67.7-10c3.8-0.2,7.2-0.5,11.1-0.8
				c14.2-1.2,33.6-2.8,99.3-2.3l1.7,0l-1.7,0.5c-1.1,0.3-2.3,0.6-3.4,0.9C293.2,116.7,292.7,116.8,292.1,116.9z M134.3,128
				c8.4-1.5,16.7-2.9,24.9-4.2c21.5-3.2,42.8-5.4,63.1-6.5l0.7,0c8.6-0.5,17.5-0.9,26.2-0.7c3.3,0.1,6.6,0.3,9.8,0.4
				c3.9,0.2,7.8,0.4,11.8,0.5c6.9,0.1,15,0.1,22.8-1.6c0.5-0.1,1.1-0.2,1.6-0.4c-64.2-0.5-83.4,1.2-97.4,2.3
				c-3.9,0.3-7.3,0.6-11.1,0.8c-10.6,0.5-40.9,5.6-67.7,10c-20,3.3-37.2,6.2-41,6.3c-3.9,0.1-8,0.2-11.9-0.1
				c-1.8-0.1-3.6-0.4-5.3-0.6c-0.9-0.1-1.8-0.2-2.7-0.4c11.9,3,25.6,3.2,41.6,0.7c6.2-1,12.5-2.3,18.6-3.5c3.2-0.6,6.4-1.3,9.6-1.9
				C130.1,128.8,132.2,128.4,134.3,128z"/>
		</g>
	</g>
	<g>
		<g>
			<g>
				<g>
					
						<ellipse transform="matrix(0.7071 -0.7071 0.7071 0.7071 -57.1518 154.7758)" class="st6" cx="158.3" cy="146.4" rx="13.7" ry="13.7"/>
					<path class="st7" d="M158.3,160.6c-7.8,0-14.2-6.4-14.2-14.2s6.4-14.2,14.2-14.2c7.8,0,14.2,6.4,14.2,14.2
						S166.1,160.6,158.3,160.6z M158.3,133.1c-7.3,0-13.3,6-13.3,13.3c0,7.3,6,13.3,13.3,13.3c7.3,0,13.3-6,13.3-13.3
						C171.6,139,165.6,133.1,158.3,133.1z"/>
				</g>
				<path class="st6" d="M158.3,132.6c-7.6,0-13.7,6.2-13.7,13.7c0,7.6,6.2,13.7,13.7,13.7c7.6,0,13.7-6.2,13.7-13.7
					C172,138.8,165.8,132.6,158.3,132.6z M160.5,146.9c-1.1,1.4-2.5,2.7-4,3.6c-1.5,0.9-3.3,1.7-5.1,1.6c-4-0.1-5.9-4.6-5.4-8.1
					c0.9-6.6,8.5-13.4,14.5-7.3C163.2,139.5,162.7,144,160.5,146.9z"/>
				<path class="st6" d="M171.4,142.5c0,0.4,0,0.9-0.1,1.3c-0.4,3.5-2.2,6.7-4.8,8.9c-3.1,2.6-7.1,4-11.1,3.6c-2-0.2-4-0.8-5.7-2
					c-1.9-1.3-3.2-3.3-4.1-5.4c-0.7-1.7-0.9-3.5-0.8-5.3c-0.2,0.9-0.3,1.8-0.3,2.7c0,7.6,6.2,13.7,13.7,13.7
					c7.6,0,13.7-6.2,13.7-13.7C172,145,171.8,143.7,171.4,142.5z"/>
			</g>
			<path class="st6" d="M151.7,136.8c-1.3,0.6-2.4,1.7-3,3c-0.1,0.1-0.1,0.3-0.1,0.4c-0.4,0.7-0.7,1.4-0.6,2.2
				c0.4,2,2.5,1.3,3.7,0.6c1.5-0.9,3.1-2.5,3.2-4.3C155.2,136.7,153.4,136,151.7,136.8z"/>
			<path class="st6" d="M148.8,145.2C148.8,145.2,148.7,145.2,148.8,145.2C148.7,145.2,148.7,145.2,148.8,145.2
				c-0.1-0.1-0.1-0.1-0.2-0.1c-0.2,0-0.4,0-0.5,0c-0.2,0.1-0.4,0.2-0.5,0.3l-0.1,0.2c-0.1,0.1-0.1,0.3-0.1,0.4c0,0.1,0,0.2,0,0.3
				c0.1,0.2,0.2,0.3,0.4,0.4c0,0,0,0,0,0c0,0,0,0,0.1,0c0.1,0,0.1,0,0.2,0c0,0,0,0,0,0c0.1,0,0.3,0,0.4-0.1c0.1,0,0.1-0.1,0.2-0.1
				c0.1,0,0.1-0.1,0.2-0.1c0.2-0.2,0.5-0.4,0.5-0.8C149.1,145.5,149,145.3,148.8,145.2z"/>
		</g>
		<g>
			<g>
				<g>
					
						<ellipse transform="matrix(0.7071 -0.7071 0.7071 0.7071 -41.9412 183.7465)" class="st6" cx="200.8" cy="142.5" rx="13.7" ry="13.7"/>
					<path class="st7" d="M200.8,156.7c-7.8,0-14.2-6.4-14.2-14.2c0-7.8,6.4-14.2,14.2-14.2c7.8,0,14.2,6.4,14.2,14.2
						C215,150.3,208.7,156.7,200.8,156.7z M200.8,129.2c-7.3,0-13.3,6-13.3,13.3c0,7.3,6,13.3,13.3,13.3c7.3,0,13.3-6,13.3-13.3
						C214.1,135.2,208.2,129.2,200.8,129.2z"/>
				</g>
				<path class="st6" d="M200.8,128.8c-7.6,0-13.7,6.2-13.7,13.7c0,7.6,6.2,13.7,13.7,13.7s13.7-6.2,13.7-13.7
					C214.6,134.9,208.4,128.8,200.8,128.8z M203.1,143c-1.1,1.4-2.5,2.7-4,3.6c-1.5,0.9-3.3,1.7-5.1,1.6c-4-0.1-5.9-4.6-5.4-8.1
					c0.9-6.6,8.5-13.4,14.5-7.3C205.7,135.7,205.2,140.1,203.1,143z"/>
				<path class="st6" d="M214,138.6c0,0.4,0,0.9-0.1,1.3c-0.4,3.5-2.2,6.7-4.8,8.9c-3.1,2.6-7.1,4-11.1,3.6c-2-0.2-4-0.8-5.7-2
					c-1.9-1.3-3.2-3.3-4.1-5.4c-0.7-1.7-0.9-3.5-0.8-5.3c-0.2,0.9-0.3,1.8-0.3,2.7c0,7.6,6.2,13.7,13.7,13.7s13.7-6.2,13.7-13.7
					C214.6,141.2,214.4,139.9,214,138.6z"/>
			</g>
			<path class="st6" d="M194.3,132.9c-1.3,0.6-2.4,1.7-3,3c-0.1,0.1-0.1,0.3-0.1,0.4c-0.4,0.7-0.7,1.4-0.6,2.2
				c0.4,2,2.5,1.3,3.7,0.6c1.5-0.9,3.1-2.5,3.2-4.3C197.7,132.8,196,132.2,194.3,132.9z"/>
			<path class="st6" d="M191.4,141.3C191.3,141.3,191.3,141.3,191.4,141.3C191.3,141.3,191.3,141.3,191.4,141.3
				c-0.1-0.1-0.1-0.1-0.2-0.1c-0.2,0-0.4,0-0.5,0c-0.2,0.1-0.4,0.2-0.5,0.3l-0.1,0.2c-0.1,0.1-0.1,0.3-0.1,0.4c0,0.1,0,0.2,0,0.3
				c0.1,0.2,0.2,0.3,0.4,0.4c0,0,0,0,0,0c0,0,0,0,0.1,0c0.1,0,0.1,0,0.2,0c0,0,0,0,0,0c0.1,0,0.3,0,0.4-0.1c0.1,0,0.1-0.1,0.2-0.1
				c0.1,0,0.1-0.1,0.2-0.1c0.2-0.2,0.5-0.4,0.5-0.8C191.7,141.7,191.6,141.4,191.4,141.3z"/>
		</g>
		<g>
			<g>
				<g>
					<circle class="st6" cx="181.1" cy="154.4" r="13.7"/>
					<path class="st7" d="M181.1,168.6c-7.8,0-14.2-6.4-14.2-14.2c0-7.8,6.4-14.2,14.2-14.2c7.8,0,14.2,6.4,14.2,14.2
						C195.3,162.3,188.9,168.6,181.1,168.6z M181.1,141.1c-7.3,0-13.3,6-13.3,13.3c0,7.3,6,13.3,13.3,13.3c7.3,0,13.3-6,13.3-13.3
						C194.4,147.1,188.4,141.1,181.1,141.1z"/>
				</g>
				<path class="st6" d="M191.2,144.3c-14.7-11.2-31.4,5.4-20.1,20.1C185.8,175.7,202.4,159.1,191.2,144.3z M183.3,154.9
					c-1.1,1.4-2.5,2.7-4,3.6c-1.5,0.9-3.3,1.7-5.1,1.6c-4-0.1-5.9-4.6-5.4-8.1c0.9-6.6,8.5-13.4,14.5-7.3
					C186,147.6,185.5,152.1,183.3,154.9z"/>
				<path class="st6" d="M194.3,150.5c0,0.4,0,0.9-0.1,1.3c-0.4,3.5-2.2,6.7-4.8,8.9c-3.1,2.6-7.1,4-11.1,3.6c-2-0.2-4-0.8-5.7-2
					c-1.9-1.3-3.2-3.3-4.1-5.4c-0.7-1.7-0.9-3.5-0.8-5.3c-0.8,4,0.1,8.5,3.7,13c0,0,0,0,0,0c11.3,8.3,23.5,0.4,23.5-10.3
					C194.9,153.1,194.7,151.8,194.3,150.5z"/>
			</g>
			<path class="st6" d="M174.6,144.8c-1.3,0.6-2.4,1.7-3,3c-0.1,0.1-0.1,0.3-0.1,0.4c-0.4,0.7-0.7,1.4-0.6,2.2
				c0.4,2,2.5,1.3,3.7,0.6c1.5-0.9,3.1-2.5,3.2-4.3C178,144.7,176.2,144.1,174.6,144.8z"/>
			<path class="st6" d="M171.6,153.3C171.6,153.3,171.6,153.2,171.6,153.3C171.6,153.2,171.6,153.2,171.6,153.3
				c-0.1-0.1-0.1-0.1-0.2-0.1c-0.2,0-0.4,0-0.5,0c-0.2,0.1-0.4,0.2-0.5,0.3l-0.1,0.2c-0.1,0.1-0.1,0.3-0.1,0.4c0,0.1,0,0.2,0,0.3
				c0.1,0.2,0.2,0.3,0.4,0.4c0,0,0,0,0,0c0,0,0,0,0.1,0c0.1,0,0.1,0,0.2,0c0,0,0,0,0,0c0.1,0,0.3,0,0.4-0.1c0.1,0,0.1-0.1,0.2-0.1
				c0.1,0,0.1-0.1,0.2-0.1c0.2-0.2,0.5-0.4,0.5-0.8C172,153.6,171.8,153.4,171.6,153.3z"/>
		</g>
		<g>
			<g>
				<g>
					<circle class="st6" cx="248.8" cy="148.3" r="13.7"/>
					<path class="st7" d="M248.8,162.5c-7.8,0-14.2-6.4-14.2-14.2s6.4-14.2,14.2-14.2c7.8,0,14.2,6.4,14.2,14.2
						S256.6,162.5,248.8,162.5z M248.8,135c-7.3,0-13.3,6-13.3,13.3c0,7.3,6,13.3,13.3,13.3c7.3,0,13.3-6,13.3-13.3
						C262.1,140.9,256.1,135,248.8,135z"/>
				</g>
				<path class="st6" d="M258.8,138.2c-14.7-11.2-31.4,5.4-20.1,20.1C253.4,169.6,270.1,152.9,258.8,138.2z M251,148.8
					c-1.1,1.4-2.5,2.7-4,3.6c-1.5,0.9-3.3,1.7-5.1,1.6c-4-0.1-5.9-4.6-5.4-8.1c0.9-6.6,8.5-13.4,14.5-7.3
					C253.7,141.4,253.2,145.9,251,148.8z"/>
				<path class="st6" d="M262,144.4c0,0.4,0,0.9-0.1,1.3c-0.4,3.5-2.2,6.7-4.8,8.9c-3.1,2.6-7.1,4-11.1,3.6c-2-0.2-4-0.8-5.7-2
					c-1.9-1.3-3.2-3.3-4.1-5.4c-0.7-1.7-0.9-3.5-0.8-5.3c-0.8,4,0.1,8.5,3.7,13c0,0,0,0,0,0c11.3,8.3,23.5,0.4,23.5-10.3
					C262.5,146.9,262.3,145.6,262,144.4z"/>
			</g>
			<path class="st6" d="M242.3,138.7c-1.3,0.6-2.4,1.7-3,3c-0.1,0.1-0.1,0.3-0.1,0.4c-0.4,0.7-0.7,1.4-0.6,2.2
				c0.4,2,2.5,1.3,3.7,0.6c1.5-0.9,3.1-2.5,3.2-4.3C245.7,138.6,243.9,137.9,242.3,138.7z"/>
			<path class="st6" d="M239.3,147.1C239.3,147.1,239.3,147.1,239.3,147.1C239.3,147.1,239.3,147.1,239.3,147.1
				c-0.1-0.1-0.1-0.1-0.2-0.1c-0.2,0-0.4,0-0.5,0c-0.2,0.1-0.4,0.2-0.5,0.3l-0.1,0.2c-0.1,0.1-0.1,0.3-0.1,0.4c0,0.1,0,0.2,0,0.3
				c0.1,0.2,0.2,0.3,0.4,0.4c0,0,0,0,0,0c0,0,0,0,0.1,0c0.1,0,0.1,0,0.2,0c0,0,0,0,0,0c0.1,0,0.3,0,0.4-0.1c0.1,0,0.1-0.1,0.2-0.1
				c0.1,0,0.1-0.1,0.2-0.1c0.2-0.2,0.5-0.4,0.5-0.8C239.6,147.4,239.5,147.2,239.3,147.1z"/>
		</g>
		<g>
			<g>
				<g>
					
						<ellipse transform="matrix(0.3827 -0.9239 0.9239 0.3827 -10.751 296.9339)" class="st6" cx="216.8" cy="156.5" rx="13.7" ry="13.7"/>
					<path class="st7" d="M216.8,170.7c-7.8,0-14.2-6.4-14.2-14.2c0-7.8,6.4-14.2,14.2-14.2c7.8,0,14.2,6.4,14.2,14.2
						C231,164.3,224.7,170.7,216.8,170.7z M216.8,143.2c-7.3,0-13.3,6-13.3,13.3c0,7.3,6,13.3,13.3,13.3c7.3,0,13.3-6,13.3-13.3
						C230.1,149.2,224.2,143.2,216.8,143.2z"/>
				</g>
				<path class="st6" d="M226.9,146.4c-14.7-11.2-31.4,5.4-20.1,20.1C221.5,177.8,238.1,161.2,226.9,146.4z M219.1,157
					c-1.1,1.4-2.5,2.7-4,3.6c-1.5,0.9-3.3,1.7-5.1,1.6c-4-0.1-5.9-4.6-5.4-8.1c0.9-6.6,8.5-13.4,14.5-7.3
					C221.7,149.7,221.2,154.1,219.1,157z"/>
				<path class="st6" d="M230,152.6c0,0.4,0,0.9-0.1,1.3c-0.4,3.5-2.2,6.7-4.8,8.9c-3.1,2.6-7.1,4-11.1,3.6c-2-0.2-4-0.8-5.7-2
					c-1.9-1.3-3.2-3.3-4.1-5.4c-0.7-1.7-0.9-3.5-0.8-5.3c-0.8,4,0.1,8.5,3.7,13c0,0,0,0,0,0c11.3,8.3,23.5,0.4,23.5-10.3
					C230.6,155.2,230.4,153.9,230,152.6z"/>
			</g>
			<path class="st6" d="M210.3,146.9c-1.3,0.6-2.4,1.7-3,3c-0.1,0.1-0.1,0.3-0.1,0.4c-0.4,0.7-0.7,1.4-0.6,2.2
				c0.4,2,2.5,1.3,3.7,0.6c1.5-0.9,3.1-2.5,3.2-4.3C213.7,146.8,211.9,146.2,210.3,146.9z"/>
			<path class="st6" d="M207.3,155.4C207.3,155.3,207.3,155.3,207.3,155.4C207.3,155.3,207.3,155.3,207.3,155.4
				c-0.1-0.1-0.1-0.1-0.2-0.1c-0.2,0-0.4,0-0.5,0c-0.2,0.1-0.4,0.2-0.5,0.3l-0.1,0.2c-0.1,0.1-0.1,0.3-0.1,0.4c0,0.1,0,0.2,0,0.3
				c0.1,0.2,0.2,0.3,0.4,0.4c0,0,0,0,0,0c0,0,0,0,0.1,0c0.1,0,0.1,0,0.2,0c0,0,0,0,0,0c0.1,0,0.3,0,0.4-0.1c0.1,0,0.1-0.1,0.2-0.1
				c0.1,0,0.1-0.1,0.2-0.1c0.2-0.2,0.5-0.4,0.5-0.8C207.7,155.7,207.6,155.5,207.3,155.4z"/>
		</g>
		<g>
			<g>
				<g>
					
						<ellipse transform="matrix(0.2298 -0.9732 0.9732 0.2298 -2.3982 317.3306)" class="st6" cx="199.3" cy="160.2" rx="11.9" ry="11.9"/>
					<path class="st7" d="M199.3,172.5c-6.8,0-12.4-5.5-12.4-12.4s5.5-12.4,12.4-12.4c6.8,0,12.4,5.5,12.4,12.4
						S206.1,172.5,199.3,172.5z M199.3,148.7c-6.3,0-11.5,5.1-11.5,11.5c0,6.3,5.1,11.5,11.5,11.5s11.5-5.1,11.5-11.5
						C210.7,153.9,205.6,148.7,199.3,148.7z"/>
				</g>
				<path class="st6" d="M208,151.5c-12.7-9.7-27.2,4.7-17.4,17.4C203.3,178.6,217.7,164.2,208,151.5z M201.2,160.6
					c-0.9,1.3-2.2,2.3-3.5,3.1c-1.3,0.8-2.8,1.4-4.4,1.4c-3.5-0.1-5.1-4-4.7-7c0.8-5.8,7.4-11.6,12.6-6.3
					C203.5,154.3,203.1,158.1,201.2,160.6z"/>
				<path class="st6" d="M210.7,156.8c0,0.4,0,0.8-0.1,1.2c-0.4,3-1.9,5.8-4.2,7.7c-2.7,2.2-6.2,3.4-9.6,3.1
					c-1.8-0.2-3.5-0.7-4.9-1.7c-1.6-1.2-2.8-2.9-3.5-4.7c-0.6-1.5-0.8-3-0.7-4.6c-0.7,3.4,0.1,7.4,3.2,11.3c0,0,0,0,0,0
					c9.8,7.2,20.4,0.4,20.4-8.9C211.2,159,211,157.9,210.7,156.8z"/>
			</g>
			<path class="st6" d="M193.6,151.9c-1.1,0.5-2.1,1.5-2.6,2.6c0,0.1-0.1,0.2-0.1,0.3c-0.4,0.6-0.6,1.2-0.5,1.9
				c0.3,1.7,2.2,1.2,3.2,0.5c1.3-0.8,2.7-2.2,2.8-3.7C196.6,151.8,195.1,151.2,193.6,151.9z"/>
			<path class="st6" d="M191.1,159.2C191.1,159.2,191,159.2,191.1,159.2C191,159.2,191,159.2,191.1,159.2c-0.1-0.1-0.1-0.1-0.2-0.1
				c-0.2,0-0.3,0-0.5,0c-0.2,0.1-0.3,0.2-0.5,0.3l-0.1,0.2c-0.1,0.1-0.1,0.2-0.1,0.3c0,0.1,0,0.2,0,0.2c0.1,0.2,0.2,0.3,0.4,0.4
				c0,0,0,0,0,0c0,0,0,0,0,0c0,0,0.1,0,0.1,0c0,0,0,0,0,0c0.1,0,0.2,0,0.3-0.1c0,0,0.1,0,0.1-0.1c0.1,0,0.1-0.1,0.1-0.1
				c0.2-0.2,0.4-0.4,0.4-0.7C191.4,159.4,191.3,159.3,191.1,159.2z"/>
		</g>
	</g>
</g>
</svg>
