<?xml version="1.0" encoding="utf-8"?>
<!-- Generator: Adobe Illustrator 25.2.0, SVG Export Plug-In . SVG Version: 6.00 Build 0)  -->
<svg version="1.1" id="Layer_1" xmlns="http://www.w3.org/2000/svg" xmlns:xlink="http://www.w3.org/1999/xlink" x="0px" y="0px"
	 viewBox="0 0 800 800" style="enable-background:new 0 0 800 800;" xml:space="preserve">
<style type="text/css">
	.st0{fill:#E12827;}
	.st1{fill:#E65D42;}
	.st2{fill:#CC2322;}
	.st3{fill:#39B54A;}
	.st4{fill:#33A544;}
</style>
<g>
	<g>
		<g>
			<g>
				<g>
					<path class="st0" d="M185.3,507.1c-7.4-0.8-8.1-11.5-0.8-13.2c36.1-8.5,77.6-29.8,100.9-47.2c27.6-20.5,43-54.3,54.4-82.5
						c7.2-17.9,18-59.1,25.3-77.1c10.2-25.1,44.8-55.9,82.1-22.8c23.9,21.2,9.2,72,0.7,91.9c-23.9,55.9-70.3,119.3-132.2,136.9
						C258.4,509.5,214.9,510.5,185.3,507.1z"/>
				</g>
				<g>
					<g>
						<path class="st1" d="M313.4,447.9c24-19.5,45.5-48.8,59.2-82.8c3.8-9.4,8.2-23.9,12.9-39.3c4.4-14.4,8.7-29.4,12.4-37.8
							c9.4-21.4,17.6-24.6,17.6-24.6c-18.7-1.2-33.2,17-38,28.8c-3.4,8.5-8,23.4-12.4,37.8c-4.7,15.4-9.4,29.8-12.9,39.3
							c-29.8,80.4-96.2,106.6-112.7,110.9C264.2,476.4,291.2,465.9,313.4,447.9z"/>
					</g>
				</g>
				<g>
					<path class="st2" d="M447.8,356.4c8.5-19.9,23.2-70.7-0.7-91.9c-10.2-9.1-20.2-13.3-29.6-14.2h0c30.6,8.9,17.1,72.9-7.2,122.7
						C369,457.2,271.9,510,179.4,501.3c0.3,2.8,2.3,5.5,5.9,5.9c29.6,3.3,73.2,2.4,130.3-13.8C377.5,475.7,423.9,412.3,447.8,356.4z
						"/>
				</g>
			</g>
			<path class="st3" d="M438.5,281.6c0,0-2.3-7.6-8-11c-5.8-3.4-7.6-10-7.6-10c1,12.9-22.3,14-22.3,14s3.3-3.2,2.5-10.1
				c-0.8-6.8,2.2-8.6,2.2-8.6s0,0-9.2,0.7c-9.2,0.7-14.9-4.5-14.9-4.5s4.4,0.9,11.3-1.6c10.7-3.8,17.3-7.2,31.4-6.4
				c12.2,0.7,28.7,11,34.4,30.2c-1.7-2.6-6.9-2.7-11.8-4.7c-3-1.3-6.7-5.4-6.7-5.4S443.1,270.9,438.5,281.6z"/>
			<path class="st4" d="M458.3,274.3c-5.2-17.7-19.6-27.7-31.4-29.7l0-0.1c0,0-2.8-11.2,6.1-20.3c6.4-6.6,11.5-7.6,11.5-7.6
				s3.5-4.9-4.2-7.4c-22.7,8.8-19.2,34.8-19.2,34.8c0,0,0,0.1,0,0.1c5.3,16.4-13.4,22.4-13.4,22.4s-3.4-5.2-2.4-10.6
				c0,0-0.6,0.4-1.2,1.4c-0.7,1.2-1.4,3.4-1,7.2c0.8,6.8-2.5,10.1-2.5,10.1s23.3-1.1,22.3-14c0,0,1.8,6.6,7.6,10c5.8,3.4,8,11,8,11
				c4.5-10.6,1.3-17.4,1.3-17.4s3.8,4.1,6.7,5.4C451.4,271.6,456.6,271.7,458.3,274.3z"/>
		</g>
		<g>
			<g>
				<g>
					<path class="st0" d="M207.7,572c-9.3-3.1-7.3-16.9,2.5-17.1c48.6-1.2,107.5-17.2,142.2-33.2c40.9-18.9,69.8-58,92-91.1
						c14-21,39.1-70.9,53.2-92c19.8-29.5,72.5-59.5,111.4-7c24.9,33.6-7.6,94.8-23.9,118c-45.7,65.2-122.4,134-206.5,139.9
						C300.9,594.8,244.8,584.2,207.7,572z"/>
				</g>
				<g>
					<g>
						<path class="st1" d="M388,530.6c36.1-18.5,71.5-50.3,98.2-90.2c7.4-11,17-28.4,27.1-46.9c9.5-17.3,19.1-35.3,26.1-45.1
							c17.9-24.9,29.2-26.8,29.2-26.8c-23.6-6.6-47.2,12.8-56.4,26.7c-6.7,10-16.6,27.8-26.1,45.1c-10.2,18.4-20.1,35.6-27.1,46.9
							c-59.9,95-152.2,110.7-174.5,111.8C317.2,553.8,354.7,547.7,388,530.6z"/>
					</g>
				</g>
				<g>
					<path class="st2" d="M585.1,449.6c16.3-23.3,48.8-84.4,23.9-118c-10.7-14.4-22.3-22.5-34.1-26.2l0,0
						c36.9,19.7,2.3,98.1-42.4,155.3c-75.7,97-214.4,138.4-330.8,102.2c-0.3,3.7,1.5,7.6,6,9.1c37.1,12.3,93.2,22.8,170.9,17.5
						C462.7,583.6,539.4,514.8,585.1,449.6z"/>
				</g>
			</g>
			<path class="st3" d="M593.4,351.1c0,0-0.9-10.3-7.4-16.2c-6.5-5.9-7.1-14.8-7.1-14.8c-2.2,16.8-32.4,11.9-32.4,11.9
				s5.1-3.2,5.9-12.2c0.9-9,5.2-10.4,5.2-10.4s0,0-11.9-1.6c-11.9-1.6-17.8-9.8-17.8-9.8s5.4,2.3,14.9,1c14.8-2,24.1-4.5,41.9,0.3
				c15.5,4.2,33.8,21.9,35.9,48c-1.5-3.8-8.1-5.3-13.8-9.2c-3.5-2.4-7.2-8.7-7.2-8.7S602.1,338.7,593.4,351.1z"/>
			<path class="st4" d="M620.7,347.1c-2-24.1-17.7-40.9-32.3-46.6l0-0.1c0,0-0.5-15.2,13.3-24.4c10-6.7,16.8-6.7,16.8-6.7
				s5.8-5.3-3.4-10.6c-31.4,5.1-34,39.4-34,39.4c0,0.1,0,0.1,0,0.2c2.4,22.5-23.3,25.2-23.3,25.2s-3-7.5-0.2-14.2
				c0,0-0.9,0.3-1.9,1.5c-1.3,1.4-2.8,4-3.2,8.9c-0.9,9-5.9,12.2-5.9,12.2s30.2,4.9,32.4-11.9c0,0,0.6,8.9,7.1,14.8
				c6.5,5.9,7.4,16.2,7.4,16.2c8.7-12.4,6.3-21.9,6.3-21.9s3.7,6.3,7.2,8.7C612.6,341.8,619.2,343.3,620.7,347.1z"/>
		</g>
	</g>
</g>
</svg>
