<?xml version="1.0" encoding="UTF-8"?>
<svg viewBox="0 0 240 124" xmlns="http://www.w3.org/2000/svg">
 <path d="m8.0499 18.573h21l-1 35-10 5-10-40z" fill="#d69600"/>
 <path d="m10.3 20.336l8.9375 35.688 7.0938-3.5312 0.9062-32.156h-16.938z" fill="#ffd543"/>
 <g fill="#5a5148">
  <path d="m18.05 98.573h105v5h-105v-5z"/>
  <path d="m18.05 98.573h10l-3 22h-25l18-22z"/>
 </g>
 <path d="m27.05 98.573l-3 19-7 2 7-21h3z" fill="#8d7c6a"/>
 <g transform="matrix(.86872 0 0 1.6709 16.542 -449.69)">
  <path d="m0 313.76c0 3.3053-4.2499 5.9848-9.4924 5.9848s-9.4924-2.6794-9.4924-5.9848c0-3.3053 4.2499-5.9848 9.4924-5.9848s9.4924 2.6795 9.4924 5.9848z" fill="#d69600"/>
  <path d="m-9.4924 308.69c-4.4537 0-8.0329 2.2567-8.0329 5.0646 0 2.808 3.5793 5.0646 8.0329 5.0646 4.4537 0 8.0329-2.2566 8.0329-5.0646 0-2.8079-3.5793-5.0646-8.0329-5.0646z" fill="#ffd543"/>
 </g>
 <path d="m2.1443 75.431c-0.80739-4.0215 1.7769-7.9041 5.7984-8.7116 0.42788-0.085876 0.85849-0.11804 1.2797-0.12952-4.3082 1.0586-7.041 5.2981-6.1589 9.6915 0.24119 1.2013 0.73981 2.2732 1.4077 3.2045-1.1476-1.0284-1.9984-2.4196-2.3268-4.0549z" fill="#ffe791"/>
 <path d="m53.05 13.573s46.279-14.552 60 0c5 30 5 40 0 85h-50l-10-85z" fill="#a40000"/>
 <path d="m13.408 24.98l2.9095-0.2771 3.7408 28.68-0.8313 0.762-5.819-29.164z" fill="#ffe791"/>
 <path d="m13.05 58.573c1.9454-2.2126 4.3848-4.046 7.177-5.5583 2.5582-1.3855 5.4125-2.5016 8.4544-3.3929 2.8364-0.83118 5.8358-1.467 8.9104-1.9439 2.98-0.46222 6.0304-0.77502 9.0713-0.97162 3.0776-0.19904 6.1453-0.27893 9.1201-0.27405 3.1801 0.005005 6.2539 0.10724 9.12 0.26422 3.3758 0.18494 6.4635 0.44604 9.0972 0.7149 5.5232 0.56384 9.0497 1.1617 9.0497 1.1617v50h-65s-2.3512-2.8785-4.8144-7.311c-1.2785-2.3005-2.5871-5.0197-3.6128-7.9723-0.93731-2.6981-1.6383-5.5912-1.8641-8.5378-0.22064-2.8796 0.01258-5.8104 0.9227-8.6603 0.83268-2.6075 2.232-5.1473 4.3686-7.5186" fill="#a40000"/>
 <path d="m90.7 10.281c-2.9703 0.032898-5.9911 0.24054-8.9525 0.5603-3.0639 0.33081-6.0641 0.78168-8.879 1.2832-3.2333 0.57605-6.2221 1.2191-8.7818 1.8238-4.8251 1.14-8.1256 2.1442-8.6657 2.3089l0.90324 7.6213 0.90315 7.6205 0.90324 7.6213 0.90328 7.6216c0.062859 0.60077-0.48561 1.1914-1.093 1.1771-2.6691-0.055908-5.6118-0.012512-8.6297 0.13635-2.8557 0.14087-5.7788 0.3761-8.6014 0.71082-3.0194 0.35809-5.9237 0.83002-8.5074 1.422-2.1648 0.56287-4.3636 1.3192-6.4667 2.2148-2.1685 0.9234-4.2354 1.9948-6.0588 3.1546-2.1524 1.3692-3.9652 2.8617-5.205 4.3797-1.6161 1.8928-2.7708 3.5958-3.5684 5.2795-0.941 1.9866-1.3847 3.9465-1.5018 6.1598-0.10853 2.05 0.09152 4.1389 0.5048 6.195 0.41107 2.0451 1.0331 4.0581 1.7722 5.9686 0.99323 2.5673 2.1604 4.8991 3.2745 6.8665 2.0456 3.6122 3.9121 5.9961 4.1942 6.3536 0 0 3.6941-0.023071 8.961-0.055054 2.6743-0.015991 5.7541-0.036011 8.9616-0.055054 2.9509-0.017944 6.0098-0.036987 8.9607-0.054932 3.2071-0.02002 6.2864-0.039063 8.9604-0.055054 5.267-0.032959 8.9613-0.054932 8.9613-0.054932h47.605c0.35068-3.15 0.67524-6.1201 0.97362-8.931 0.33666-3.1716 0.64002-6.1408 0.91006-8.938 0.30812-3.1915 0.57287-6.159 0.79425-8.9474 0.25414-3.2012 0.45111-6.1666 0.59087-8.9638 0.15871-3.1764 0.24365-6.1362 0.25477-8.9789 0.0121-3.0888-0.062996-6.0392-0.22525-8.9792-0.16288-2.9509-0.41364-5.8912-0.75233-8.95-0.3137-2.833-0.70283-5.7677-1.1674-8.9066-0.41066-2.7743-0.88029-5.7082-1.4089-8.8724-1.618-1.6353-3.7578-2.8698-6.2664-3.7666-2.1564-0.77094-4.5853-1.2924-7.1898-1.6046-2.3389-0.28033-4.8194-0.39185-7.3711-0.36359h-5.3e-5" fill="#ef292a"/>
 <g fill="#a40000">
  <path d="m86.55 17.242c-11.115 0.49854-22.438 4.4062-22.438 4.4062a1.1094 1.1094 0 0 0 -0.71875 1.1875l2.9688 26.969a1.1094 1.1094 0 0 0 0.875 0.96875s7.9067 1.5058 16.625 3.0312c4.3592 0.7627 8.9243 1.5513 12.812 2.125 3.8882 0.57373 7.052 0.9375 8.8438 0.9375a1.1094 1.1094 0 0 0 1.0938 -1.0938c0-4.8972 0.71015-11.944 0.78125-18.406 0.035599-3.2311-0.069405-6.3036-0.53125-8.9688-0.46186-2.6651-1.2588-4.9462-2.7812-6.4688-4.1326-4.1326-10.864-4.9866-17.531-4.6875z"/>
  <path d="m76.712 1.6813c-14.438 2.9098-28.203 10.223-35.948 20.844-1.0357 1.4203-1.0791 2.9388-0.9676 4.432 0.055771 0.74658 0.13719 1.4526 0.61894 2.2224 0.24088 0.38489 0.64115 0.84564 1.265 1.0728 0.62386 0.22705 1.3737 0.1347 1.8763-0.10425 28.506-13.553 32.772-14.03 73.066-13.937 0.55948 0.001038 1.2112-0.20398 1.6603-0.58148 0.44907-0.37744 0.68412-0.84528 0.82077-1.2656 0.27331-0.8407 0.21748-1.6029 0.090698-2.3409-0.25371-1.4761-0.68789-2.9122-2.1228-3.9585-10.688-7.7935-25.921-9.2936-40.359-6.3838h-3.8e-5z"/>
 </g>
 <g fill="#d69600">
  <path d="m113.05 98.573c0 13.807-11.193 25-25 25s-25-11.193-25-25 11.193-25 25-25 25 11.193 25 25z"/>
  <path d="m60.55 106.07c0 9.665-7.835 17.5-17.5 17.5s-17.5-7.835-17.5-17.5 7.835-17.5 17.5-17.5 17.5 7.835 17.5 17.5z"/>
 </g>
 <g fill="#ffd543">
  <path d="m88.05 77.229c-11.826 0-21.344 9.5178-21.344 21.344s9.5178 21.344 21.344 21.344 21.344-9.5177 21.344-21.344-9.5178-21.344-21.344-21.344z"/>
  <path d="m43.05 91.264c-8.2107 0-14.809 6.5987-14.809 14.809 0 8.2107 6.5987 14.809 14.809 14.809 8.2107 0 14.809-6.5988 14.809-14.809 0-8.2107-6.5987-14.809-14.809-14.809z"/>
 </g>
 <path d="m86.675 18.867c-10.299 0.46198-20.705 3.9255-21.656 4.25l2.9062 26.25c0.3173 0.061096 7.7282 1.4777 16.25 2.9688 4.351 0.76129 8.8852 1.5235 12.75 2.0938 3.6189 0.534 6.5468 0.86206 8.1875 0.90625 0.037697-5.0048 0.68202-11.735 0.75-17.906 0.034996-3.1766-0.096901-6.1841-0.53125-8.6875-0.43433-2.5034-1.1748-4.4873-2.3125-5.625-3.593-3.593-9.8699-4.5404-16.344-4.25z" fill="#739fd0"/>
 <path d="m88.05 81.073c-9.7545 0-17.5 7.7454-17.5 17.5 0 9.7544 7.7455 17.5 17.5 17.5s17.5-7.7456 17.5-17.5c0-9.7546-7.7455-17.5-17.5-17.5z" fill="#8d7c6a"/>
 <path d="m89.124 83.329c7.6957 0 13.883 6.1877 13.883 13.884 0 0.81873-0.099899 1.6228-0.23432 2.4016-0.35621-8.316-7.1454-14.908-15.553-14.908-2.2989 0-4.4548 0.5213-6.4145 1.4059 2.3155-1.7313 5.1887-2.7826 8.3183-2.7826z" fill="#a8927a"/>
 <path d="m43.05 99.773c-3.6132 0-6.3 2.6868-6.3 6.3s2.6868 6.2999 6.3 6.2999 6.3-2.6868 6.3-6.2999c0-3.6133-2.6868-6.3-6.3-6.3z" fill="#8d7c6a"/>
 <path d="m43.606 114.98c4.1017 0 7.3997-3.298 7.3997-7.3997 0-0.4364-0.053249-0.86499-0.12489-1.2802-0.18985 4.4322-3.8084 7.9462-8.2895 7.9462-1.2253 0-2.3743-0.27795-3.4188-0.74951 1.2341 0.92285 2.7656 1.4832 4.4336 1.4832z" fill="#ffe791"/>
 <path d="m45.133 107l38.278-20.392 1.4932 2.3447-38.278 20.392-1.4931-2.3448z" fill="#312c29"/>
 <path d="m88.616 88.975c5.1149 0 9.2274 4.1126 9.2274 9.2275 0 0.54419-0.066399 1.0786-0.15573 1.5963-0.23675-5.5272-4.7491-9.9089-10.337-9.9089-1.5279 0-2.9608 0.3465-4.2633 0.93445 1.539-1.1508 3.4486-1.8494 5.5287-1.8494z" fill="#a8927a"/>
 <g fill="#5a5148">
  <path d="m90.956 84.527c1.3721 2.6501-1.1512 6.6808-5.6359 9.0027-4.4848 2.3221-9.2326 2.0562-10.605-0.59351-1.3721-2.6501 1.1512-6.6808 5.6359-9.0027 4.4848-2.3221 9.2326-2.0562 10.605 0.59351z"/>
  <path d="m47.089 107.5c0.57239 1.0575-0.41451 2.7001-2.2042 3.6688-1.7898 0.96863-3.7046 0.89661-4.277-0.16101-0.57239-1.0575 0.41453-2.7002 2.2042-3.6688 1.7898-0.96863 3.7046-0.89648 4.277 0.16101z"/>
 </g>
 <path d="m42.183 23.567c14.762-20.245 53.589-28.857 73.833-14.094 1.3466 0.982 2.2754 4.9667 0.60875 4.9628-40.311-0.092712-45.274 0.51599-73.833 14.094-1.5052 0.71564-1.5908-3.6162-0.60876-4.9628z" fill="#ef292a"/>
 <g fill="#8d7c6a">
  <path d="m20.05 98.573h2l-14 20-6 1 18-21z"/>
  <path d="m22.05 98.572l2 0.01-8 18.994-6 2 12-21v-0.00354z"/>
  <path d="m123.05 96.573h8c1.662 0 3 1.338 3 3v3c0 1.662-1.338 3-3 3h-8c-1.662 0-3-1.338-3-3v-3c0-1.662 1.338-3 3-3z"/>
 </g>
 <g fill="#97b8dc">
  <path d="m78.144 19.854c-2.4755 0.43091-4.7541 0.94403-6.7188 1.4375l3 29.281c1.291 0.23798 2.9567 0.53375 4.5 0.8125l-0.7812-31.531z"/>
  <path d="m80.362 19.479c-0.4218 0.061096-0.83567 0.1206-1.25 0.1875l0.84375 31.906c0.30855 0.05542 0.55996 0.099915 0.875 0.15625l-0.46875-32.25z"/>
 </g>
 <path d="m6.5707 16.206l23.084-2.3405c1.3223-0.13409 2.4947 0.82245 2.6288 2.1448l0.5247 5.1754c0.13407 1.3223-0.8225 2.4947-2.1448 2.6288l-23.084 2.3405c-1.3223 0.13409-2.4947-0.82251-2.6288-2.1448l-0.5248-5.1754c-0.13407-1.3223 0.8225-2.4947 2.1448-2.6288z" fill="#d69600"/>
 <path d="m6.7258 17.68c-0.55843 0.05658-0.89561 0.46057-0.8413 0.99622l0.5264 5.1921c0.05431 0.53558 0.49169 0.8924 1.0273 0.83814l23.069-2.3391c0.5356-0.054321 0.89245-0.4917 0.83814-1.0273l-0.5264-5.1921c-0.05431-0.53558-0.46571-0.86365-1.0241-0.80707l-23.069 2.3391z" fill="#ffe791"/>
 <g fill="#f46e6f">
  <path d="m46.445 55.091c1.0372 3.3542-4.6215 8.0831-12.639 10.562-8.0176 2.4792-15.358 1.77-16.395-1.5842-1.0372-3.3542 4.6215-8.0831 12.639-10.562 8.0176-2.4792 15.358-1.77 16.395 1.5842z"/>
  <path d="m62.16 11.406c-1.0935-1.3959 3.7959-4.0186 10.921-5.8578 7.1248-1.8392 13.787-2.1986 14.881-0.80267 1.0935 1.3959-3.7959 4.0186-10.921 5.8578-7.1249 1.8392-13.787 2.1986-14.881 0.80267z"/>
 </g>
 <g fill="#312c29">
  <path d="m88.05 95.323c-2.0532 0-3.25 1.1967-3.25 3.2501 0 2.0531 1.1968 3.25 3.25 3.25s3.25-1.1969 3.25-3.25c0-2.0533-1.1968-3.2501-3.25-3.2501z"/>
  <path d="m43.05 105.06c-0.57908 0-1.0097 0.43066-1.0097 1.0098 0 0.57898 0.43061 1.0096 1.0097 1.0096 0.57907 0 1.0097-0.43066 1.0097-1.0096 0-0.5791-0.43062-1.0098-1.0097-1.0098z"/>
 </g>
 <g fill="#ffd543">
  <path d="m25.053 22.898l4.125-0.4062-0.7188-7.0312-4.125 0.4062 0.7188 7.0312z"/>
  <path d="m23.459 23.054l0.9688-0.0937-0.625-7.0312-0.9688 0.0937 0.625 7.0312z"/>
 </g>
 <g fill="#ffe791">
  <path d="m41.219 94.252c-5.528 0-9.9727 4.4447-9.9727 9.9727 0 0.58826 0.071772 1.1658 0.16831 1.7253 0.25587-5.9736 5.1327-10.709 11.172-10.709 1.6514 0 3.1999 0.37451 4.6077 1.0099-1.6633-1.2436-3.7272-1.9987-5.9752-1.9987z"/>
  <path d="m43.678 118.45c5.528 0 9.9727-4.4448 9.9727-9.9728 0-0.58814-0.07177-1.1658-0.16832-1.7252-0.25587 5.9735-5.1327 10.709-11.172 10.709-1.6514 0-3.1999-0.37451-4.6077-1.0099 1.6633 1.2436 3.7272 1.9988 5.9752 1.9988z"/>
 </g>
 <path d="m87.778 113.42c-7.6957 0-13.883-6.1877-13.883-13.883 0-0.81873 0.099915-1.6228 0.23432-2.4017 0.3562 8.3159 7.1454 14.909 15.553 14.909 2.2989 0 4.4548-0.52136 6.4145-1.4059-2.3155 1.7313-5.1888 2.7825-8.3183 2.7825z" fill="#a8927a"/>
 <path d="m42.066 97.327c-4.1017 0-7.3997 3.298-7.3997 7.3997 0 0.4364 0.053249 0.86499 0.12489 1.2802 0.18985-4.4324 3.8084-7.9462 8.2895-7.9462 1.2253 0 2.3743 0.27795 3.4188 0.74951-1.2341-0.92285-2.7656-1.4832-4.4336-1.4832z" fill="#ffe791"/>
 <path d="m88.305 108.29c-5.1148 0-9.2274-4.1126-9.2274-9.2274 0-0.54419 0.066399-1.0786 0.15574-1.5963 0.23676 5.5271 4.7491 9.9088 10.337 9.9088 1.5279 0 2.9608-0.34644 4.2633-0.93445-1.539 1.1506-3.4486 1.8494-5.5287 1.8494z" fill="#a8927a"/>
 <path d="m58.288 51.894c1.9461 5.1606 3.1892 11.262 3.4867 17.838 0.31904 7.053-0.50864 13.664-2.2051 19.224 2.9748-4.3299 4.7094-11.282 4.3575-19.06-0.33569-7.421-2.5275-13.908-5.6391-18.003z" fill="#cc0001"/>
</svg>
