<?xml version="1.0" encoding="utf-8"?>
<!-- Generator: Adobe Illustrator 25.2.0, SVG Export Plug-In . SVG Version: 6.00 Build 0)  -->
<svg version="1.1" id="Layer_1" xmlns="http://www.w3.org/2000/svg" xmlns:xlink="http://www.w3.org/1999/xlink" x="0px" y="0px"
	 viewBox="0 0 4500 4500" style="enable-background:new 0 0 4500 4500;" xml:space="preserve">
<style type="text/css">
	.st0{clip-path:url(#SVGID_2_);fill:url(#SVGID_3_);}
	.st1{fill:#22A308;}
	.st2{fill:#145F00;}
	.st3{fill:none;}
	.st4{fill:#36E11D;}
	.st5{fill:#147B00;}
	.st6{clip-path:url(#SVGID_5_);fill:#A6A6A6;}
	.st7{clip-path:url(#SVGID_7_);fill:#A6A6A6;}
	.st8{clip-path:url(#SVGID_9_);fill:#A6A6A6;}
	.st9{fill:#36CC1D;}
	.st10{fill:#915329;}
	.st11{fill:#CE6024;}
	.st12{fill:#5E3519;}
	.st13{fill:#382315;}
	.st14{fill:#42230E;}
	.st15{fill:#30190A;}
	.st16{fill:#FFBF0F;}
	.st17{clip-path:url(#SVGID_11_);fill:url(#SVGID_12_);}
	.st18{filter:url(#Adobe_OpacityMaskFilter);}
	.st19{clip-path:url(#SVGID_14_);fill:url(#SVGID_16_);}
	.st20{clip-path:url(#SVGID_14_);mask:url(#SVGID_15_);fill:url(#SVGID_17_);}
	.st21{clip-path:url(#SVGID_19_);fill:url(#SVGID_20_);}
	.st22{clip-path:url(#SVGID_22_);fill:url(#SVGID_23_);}
	.st23{filter:url(#Adobe_OpacityMaskFilter_1_);}
	.st24{clip-path:url(#SVGID_25_);fill:url(#SVGID_27_);}
	.st25{clip-path:url(#SVGID_25_);mask:url(#SVGID_26_);fill:url(#SVGID_28_);}
	.st26{filter:url(#Adobe_OpacityMaskFilter_2_);}
	.st27{clip-path:url(#SVGID_30_);fill:url(#SVGID_32_);}
	.st28{clip-path:url(#SVGID_30_);mask:url(#SVGID_31_);fill:url(#SVGID_33_);}
	.st29{clip-path:url(#SVGID_35_);fill:url(#SVGID_36_);}
	.st30{clip-path:url(#SVGID_38_);fill:url(#SVGID_39_);}
	.st31{clip-path:url(#SVGID_41_);fill:url(#SVGID_42_);}
	.st32{clip-path:url(#SVGID_44_);fill:url(#SVGID_45_);}
	.st33{clip-path:url(#SVGID_47_);fill:url(#SVGID_48_);}
	.st34{clip-path:url(#SVGID_50_);fill:url(#SVGID_51_);}
	.st35{clip-path:url(#SVGID_53_);fill:url(#SVGID_54_);}
	.st36{clip-path:url(#SVGID_56_);fill:url(#SVGID_57_);}
	.st37{clip-path:url(#SVGID_59_);fill:url(#SVGID_60_);}
	.st38{clip-path:url(#SVGID_62_);fill:url(#SVGID_63_);}
	.st39{clip-path:url(#SVGID_65_);fill:url(#SVGID_66_);}
	.st40{clip-path:url(#SVGID_68_);fill:url(#SVGID_69_);}
	.st41{clip-path:url(#SVGID_71_);fill:url(#SVGID_72_);}
	.st42{clip-path:url(#SVGID_74_);fill:url(#SVGID_75_);}
	.st43{clip-path:url(#SVGID_77_);fill:url(#SVGID_78_);}
	.st44{clip-path:url(#SVGID_80_);fill:url(#SVGID_81_);}
	.st45{clip-path:url(#SVGID_83_);fill:url(#SVGID_84_);}
	.st46{clip-path:url(#SVGID_86_);fill:url(#SVGID_87_);}
	.st47{clip-path:url(#SVGID_89_);fill:url(#SVGID_90_);}
	.st48{clip-path:url(#SVGID_92_);fill:url(#SVGID_93_);}
	.st49{clip-path:url(#SVGID_95_);fill:url(#SVGID_96_);}
	.st50{clip-path:url(#SVGID_98_);fill:url(#SVGID_99_);}
	.st51{clip-path:url(#SVGID_101_);fill:url(#SVGID_102_);}
	.st52{clip-path:url(#SVGID_104_);fill:url(#SVGID_105_);}
	.st53{clip-path:url(#SVGID_107_);fill:url(#SVGID_108_);}
	.st54{clip-path:url(#SVGID_110_);fill:url(#SVGID_111_);}
	.st55{clip-path:url(#SVGID_113_);fill:url(#SVGID_114_);}
	.st56{fill:#FFF30F;}
	.st57{fill:#12A125;}
	.st58{fill:#FFFAA1;}
	.st59{opacity:0.5;fill:#FFD100;}
	.st60{fill:#147500;}
	.st61{fill:#36D11D;}
	.st62{clip-path:url(#SVGID_118_);fill:#A6A6A6;}
	.st63{fill:#36BA1D;}
	.st64{fill:#E4A400;}
</style>
<image style="overflow:visible;" width="3038" height="1171" xlink:href="14944D2D.png"  transform="matrix(1 0 0 1 746.8027 1999.3945)">
</image>
<image style="overflow:visible;" width="2214" height="854" xlink:href="14944D2F.png"  transform="matrix(1 0 0 1 941.8027 2971.3945)">
</image>
<g>
	<defs>
		<path id="SVGID_1_" d="M3535.8,1490.1c-67.9,19-96.5,43.6-163.1,110.2c29.8,49.2-32.3,167.3-62.6,216.1
			c-30.3,48.8-77.7,84.3-124.8,117.2c-47.1,32.9-96,65.2-131.8,110.2c-62.6,78.7-76.2,191-42.6,285.7
			c33.6,94.7,111,171.1,202.7,212.2c34.3,15.4,71.6,26.3,93.8,20c-34.8,0.9-61.4-36-61.2-70.8c0.3-34.8,20.1-66.4,41.8-93.5
			c128.5-160.3,336-230.2,504.9-347.1c36.1-25,70.9-52.6,98.3-86.8c25.5-31.8,44-68.6,59.7-106.2c20.7-49.8,36.9-102.3,39.2-156.2
			c1.6-38-3.9-77-21.3-110.8c-11.9-23.2-28.9-43.3-47.4-61.6c-26.9-26.6-58.2-50.3-94.9-59.5c-7.4-1.9-21-2.7-38.4-2.7
			C3713.3,1466.5,3567.4,1481.2,3535.8,1490.1"/>
	</defs>
	<clipPath id="SVGID_2_">
		<use xlink:href="#SVGID_1_"  style="overflow:visible;"/>
	</clipPath>
	
		<linearGradient id="SVGID_3_" gradientUnits="userSpaceOnUse" x1="1821.9728" y1="2664.9822" x2="1828.0861" y2="2664.9822" gradientTransform="matrix(-37.3678 -84.3548 -84.3548 37.3678 296445.6875 56291.957)">
		<stop  offset="0" style="stop-color:#22A308"/>
		<stop  offset="1" style="stop-color:#105403"/>
	</linearGradient>
	<polygon class="st0" points="3143.7,2943.7 2569.3,1647.2 3825.3,1090.8 4399.7,2387.3 	"/>
</g>
<path class="st1" d="M3125.7,1260.4c149.2,130.1,637.9,85.6,756,234.8c6.7,8.5-89.1-56-333,115.4
	c-150.4,105.7-288.6,63.2-299.4,51.8C3238.5,1650.9,2990.7,1255.8,3125.7,1260.4"/>
<path class="st2" d="M3678.8,1827.2c-12.7-21.4-25.6-44.3-44.6-60.8c10.8-16.9,20.5-34.4,28.9-52.7c19-38.9,36.6-80.6,34-124.7
	c-3.6,32.8-17.3,61.9-33.5,90.2c-28.8-11.7-61.2-8.5-91.4-4.7c-25,3.8-50.2,8.5-73.9,17.5c-39.6,16-76,39.7-108.6,67.3
	c-5.3,4.6-11.1,9.8-15.9,14.4c10.9-6.5,22.1-12.6,33.5-18.3c31.3-15.1,64-31,89.8-41.2c25.8-9.8,52.5-17,79-24.4
	c30.4-7.2,56.7-15.7,87.4-10.5c-6.7,11.6-13.7,23.1-20.7,34.7c-22.1,35.1-42.9,65.4-67.9,94c-6.6-3.4-14.2-4.4-21.6-5.3
	c-24.6-3-49.4,0.6-73.4,5.7c-83,15.9-148,72.8-216.8,117.7c-9.1,6.1-18.8,12.6-27.5,18.5c19.1-7.6,38.1-15.2,56.8-23.6
	c77-35.6,143.4-88.2,221.5-107.6c16.1-4.3,26.8-6,42.7-6.8c6.1-0.1,12.2-0.1,18,1.6c-15.5,17.8-32.7,34.9-52.8,52
	c-59.6,50.2-123,96.1-178.4,150.9c-31.8-3.2-74.5,22.2-96.3,41.9c-1.8,1.6-4.1,3.7-5.5,5.1c5-2.5,10-4.9,15-7.3
	c17.5-8.3,35.5-15.4,52.6-24.3c11.2-5.4,20.5-11.2,32.1-13.3c-9.7,9.7-19.2,19.6-28.3,29.9c-46.1,49.8-82.2,109-106.9,172.1
	c-13.5,35.5-19.3,73.4-25.8,110.7c-7.2,42.1-9.8,84.7-10.8,127.3c-0.3,9.6-0.5,20-0.7,29.1c0.4-2,0.7-3.9,1.1-5.9
	c10.5-56.9,23.3-113.3,37.6-169.4c1.2-5.3,2.5-10.9,3.8-16.5c-9.5,56.9-12.4,115.8-2.2,172.5c4.1-52,10.4-74.6,14.9-122.5
	c2.4-30.2,3.5-60.4,3.2-90.7c0.3-6.2-0.2-12.6-0.1-19c4.3-13.9,8.9-26.4,13.6-35.6c37.1-81.5,85.6-139.8,151.5-199.9
	c14.1-12.4,28.3-24,42.6-35.4c-12.5,48.7-40.2,88.7-67.4,132.9c-37.1,60.1-70.6,126.6-68.7,199c-0.1,8-0.1,16.2-0.1,24l0.5-2.4
	c5.8-28.6,11.9-57.2,22.9-84.3c33.6-81.1,109.9-171.6,115.4-271.2c30.9-24.5,62.5-48.3,95.5-77.2c9-7.5,17.6-15.3,26.1-23.4
	c3.9,10.3,4,20.6,5,31.7c5.1,84.1-39.4,164.2-63.1,248.6c-4.3,14.9-9.8,35.3-12.2,47.5c5.5-11.2,11.2-22.4,16.8-33.6
	c34.8-69.4,76.7-140.9,73.1-221.2c-0.8-19.6-4.3-39.1-10.7-57.6c-1.9-4.8-4.4-11.5-7.6-16.5c27.9-26.8,52.7-56.7,73.5-89.2
	c11.1,15.7,18,37,22.7,46.8c19.6,42.4,28.8,106.6,36.9,158.5c2.7,17.1,6.2,34.3,9.5,51.2c0.2-4.6,0.4-9.2,0.6-13.8
	C3706.4,1948.2,3709.1,1882.9,3678.8,1827.2"/>
<rect x="3168.8" y="1589" class="st3" width="536.4" height="893.4"/>
<path class="st2" d="M3886.7,1798c-26.7-52.6-64.8-101.9-116.8-131.3c-23-13.4-48-24-74.9-25.4c38.9,13.4,65.9,38.1,95.4,63
	c28,27.6,56.8,54.5,82.2,84.5c7.4,8.2,17.1,20,23.1,26.4C3892.6,1809.5,3889.7,1803.7,3886.7,1798"/>
<rect x="3695" y="1641.3" class="st3" width="200.6" height="173.9"/>
<path class="st4" d="M3310.7,1521.6c-2.1-13.5-4.9-27.1-9.7-39.9c-7.9-18.6-19.3-35.3-29.6-52.5c-9.4-14.3-17.4-29.3-24.4-44.9
	c-8-16.1-14.1-34.3-13.4-54.8c-8.2,37.1,2.7,76.3,22,108.2c9.9,17,22.9,32,33.5,48.5c5.6,9.3,12.3,24.2,15.4,31.4
	c3.2,7.5,5.6,13.1,8.6,20.2C3312.3,1532.5,3311.5,1527.1,3310.7,1521.6"/>
<rect x="3230.8" y="1329.6" class="st3" width="82.2" height="208.4"/>
<path class="st5" d="M3731,1448.5c-45.9-12.3-95.4-9.8-141,2.8c-48.1,14.6-91.4,41.6-135.3,65.3c-14.7,8.3-34.8,19.5-47.5,24.8
	c-10,3.7-20.6,9-31.5,7c16-20.6,30.4-42.6,45-64.2c20.4-31.1,51.9-63.3,85.5-86c8.7-5.9,18-11.9,26.7-17.4c-8.7,2.8-17.2,6-25.7,9.4
	c-49.6,19.1-90.7,55.5-118.1,100.9c-20,31.7-42,70.9-62.7,95.8c-6,6.6-20.9,29.6-34.7,35.1c11.6-2.1,20.9-10.8,30-17.7
	c20.6-16.1,38.1-35.3,53.9-55.8c32.1,11,109.2-28,142.3-40.7c34.4-14.6,56.9-27,87.8-37.3c43.8-13.2,75.7-19.5,117.3-18.3
	c8.3,0.2,19,1.1,25.9,1.5C3743,1451.8,3737,1450.1,3731,1448.5"/>
<rect x="3291.6" y="1380.8" class="st3" width="457.3" height="241.2"/>
<path class="st5" d="M3584.3,1394.7c-26.9,3.3-52,15.7-73.9,31.4c44.9-16,85.9-22.8,128.3-28.9
	C3620.7,1395.2,3602.4,1392.5,3584.3,1394.7"/>
<rect x="3510.4" y="1393.9" class="st3" width="128.3" height="32.2"/>
<path class="st5" d="M3314,1472.3c-16.8-42.2-56.3-78-72.2-116.7c-3-8.4-4.9-17.5-6.1-26.1c-2,14.6-1.3,29.6,3.4,43.6
	c12.9,40.5,48.3,85.3,60.9,116.1c12.2,33,17.2,63.5,4.3,96.7C3328.5,1553.8,3327.9,1508.5,3314,1472.3"/>
<rect x="3234.7" y="1329.5" class="st3" width="89" height="256.4"/>
<path class="st5" d="M3413.8,1410.2c-0.4-2.4-0.8-4.9-1.5-7.3c-3.9-11.7-9.3-25.2-9.3-32.5c-1-5-0.2-9.8-0.2-11.7
	c0.7-1.5,1-3.2,0.8-4.8c0.1-0.5,0.1-0.9,0.2-1.3c0-0.4-0.1-0.8-0.2-1.3c0,0-0.1,0-0.1,0c-0.5,0.6-1.3,0.8-2.2,0.5
	c-3.4-1.2-7-1.4-10.4-2.4c-0.1,0-0.1-0.1-0.2-0.1c0,0.1,0,0.1-0.1,0.1c-0.3,0.5-0.5,0.9-0.6,1.2c-0.1,0.2-0.2,0.3-0.3,0.5
	c-3.4,7.8-2.1,17,0.3,25.6c0.5,2.5,1.2,4.9,2,7.3c1.5,3.9,3.2,7.4,4.9,10.7c4.7,10.2,8.5,18.5,12.1,29.6c1.3,6.8,1.1,15.2,2,20.3
	c0.8-2.9,1.4-5.8,1.9-8.7c0.4,2.2,0.7,4.4,1.1,6.7C3415.8,1431.9,3416.5,1420.7,3413.8,1410.2"/>
<rect x="3387.5" y="1349.5" class="st3" width="28" height="95.1"/>
<path class="st4" d="M3402.2,1410.5c-2.2-8.8-7.6-16.2-11.5-24.2c-2.6-5.6-6.1-17.8-6.5-26.5c-2.3,9.5-2.3,19.8,0.7,29.2
	c2.6,7.8,7.9,14.3,11.4,21.6c3.3,5,5,16.8,6.7,20.6C3403.5,1424.3,3404,1417.2,3402.2,1410.5"/>
<rect x="3382.5" y="1359.7" class="st3" width="20.9" height="71.5"/>
<path class="st4" d="M3502.3,1383.7c-29,6-53.4,23.3-75.4,42.3c-28.4,23.7-47.3,55.9-66.4,87c-19.6,30-31.5,65.6-55.4,92.1
	c33.2-25.3,50.8-56.9,75.6-90c21.3-29.5,35.5-52.4,65-82.2c16.1-16,28.7-30.3,47.3-40c8-4.3,16.4-9,24.2-13.3
	C3512.2,1381.1,3507.3,1382.4,3502.3,1383.7"/>
<rect x="3305.1" y="1379.7" class="st3" width="212" height="225.4"/>
<path class="st4" d="M3607.8,1389.9c-1.2-0.4-2.4-0.7-3.5-1c-30.8-6.4-68,2.4-86.6,29.1c5.5-6,14.3-9.2,20-11.7
	c19-7.6,39.1-11.9,59.1-15.6c2.4-0.3,4.9-0.6,7.3-0.7C3605.4,1390,3606.9,1390.1,3607.8,1389.9"/>
<rect x="3517.7" y="1386.9" class="st3" width="90.1" height="31.1"/>
<g>
	<g>
		<defs>
			<rect id="SVGID_4_" x="3614" y="1429.9" width="1.3" height="0.2"/>
		</defs>
		<clipPath id="SVGID_5_">
			<use xlink:href="#SVGID_4_"  style="overflow:visible;"/>
		</clipPath>
		<path class="st6" d="M3614,1430c0.6-0.1,1-0.1,1.3-0.2C3615,1429.9,3614.5,1430,3614,1430"/>
	</g>
</g>
<g>
	<g>
		<defs>
			<rect id="SVGID_6_" x="3613.8" y="1430" width="0.1" height="0"/>
		</defs>
		<clipPath id="SVGID_7_">
			<use xlink:href="#SVGID_6_"  style="overflow:visible;"/>
		</clipPath>
		<path class="st7" d="M3614,1430c0,0-0.1,0-0.1,0h0C3613.9,1430.1,3613.9,1430,3614,1430"/>
	</g>
</g>
<path class="st4" d="M3713.4,1440.4c-20.7-7.7-42.9-11.2-64.8-12.5c-11.6-0.7-23.2,0.5-34.7,2.2c0,0,0.1,0,0.1,0c0,0,0,0-0.1,0
	c-0.1,0-0.2,0-0.2,0c0,0-0.1,0-0.1,0c0.1,0,0.2,0,0.4-0.1c-23.1,2.7-46.1,7.5-67.3,17.4c-52.7,24.5-97.9,65.1-148.7,92.8
	c49.8-15.4,95.6-42.8,143.4-64.6c28.8-14.5,99.8-40.1,164.7-32.6c6.7,0.7,15.4,2.4,22.6,2.5
	C3723.5,1444.2,3718.4,1442.3,3713.4,1440.4"/>
<rect x="3397.9" y="1427.7" class="st3" width="330.8" height="112.5"/>
<g>
	<g>
		<defs>
			<rect id="SVGID_8_" x="3615.3" y="1429.8" width="0.5" height="0.1"/>
		</defs>
		<clipPath id="SVGID_9_">
			<use xlink:href="#SVGID_8_"  style="overflow:visible;"/>
		</clipPath>
		<path class="st8" d="M3615.3,1429.9C3615.9,1429.8,3616,1429.8,3615.3,1429.9"/>
	</g>
</g>
<path class="st4" d="M3162.2,1480.4c-8.8-24.3-21.3-55-27.8-71c-12.9-31.5-26.1-63.2-33.5-96.5c-3.1-13-5.2-23.2,0.3-35.3
	c1.6-3.8,5.1-7.1,7.9-9.5c-3.3,1.6-6.5,3.4-8.9,6.2c-11.3,12.7-10.7,30.5-9.1,46.4c2.3,31.3,10.8,61.8,21.6,91.1
	c9.7,25.8,23,50,36.5,74.1c11.9,23.4,22.5,48,39.2,68.5C3176.1,1531.3,3170.3,1505.2,3162.2,1480.4"/>
<rect x="3090.2" y="1268.1" class="st3" width="98.2" height="286.2"/>
<path class="st4" d="M3301.1,1336.5c-31.9-9.5-63.4-20.2-94.9-31c-16.7-5.7-28.5-8.8-41.6-15.5c-12.4-6.3-25.3-12-35.9-21.1
	c43.3,53.9,115.8,71.9,182,75c5.2,0.3,11.1,0.6,15.9,0.8C3318.1,1341.9,3309.6,1339.2,3301.1,1336.5"/>
<rect x="3128.6" y="1268.9" class="st3" width="198" height="75.8"/>
<path class="st4" d="M3876.3,1493.7c-8.7-10.6-19.5-19.3-31.5-25.9c-59.4-54.7-137.9-70.2-216.8-74.2c39.4,11.2,77.7,26,116.7,38.5
	c37.8,11.9,61.2,20.9,92.5,37.9c1.6,1.1,3.2,2.2,4.9,3.3C3853,1480.2,3865.9,1487.3,3876.3,1493.7"/>
<rect x="3627.9" y="1393.5" class="st3" width="248.4" height="100.2"/>
<path class="st9" d="M3940.6,1815.8c-34.7,69.1-67.1,128.7-119.6,178.6c-41.1,37.6-109.6,67-163.7,103.2
	c-35.3,20.6-70.4,41.6-106.1,61.6c-38,20.9-76.4,41.7-109.5,70.1c-20,15.9-55.9,40.1-82,63.5c-22.1,19.3-41.3,41.6-60,64.2
	c-17.6,22.5-35.2,45.4-47.3,71.5c-7,15.8-10.3,32.8-13.8,49.7c-1.5,7.6,0.7-0.3,2.2-3.6c7.7-18.8,16.2-38.3,29.2-54.6
	c36.5-46.9,99.6-107,142.5-139.4c29.1-20.9,49.8-38.7,74.5-55.6c43.8-27.8,89.9-51.6,134.4-78.3c34.7-19,67.8-40.8,102.5-60
	c35.5-21.2,73.1-39.9,105.1-66.4c61.1-52.5,102.8-123.8,128.4-199.5c10.8-34.1,24.3-68.4,24.4-104.7
	C3974.5,1751.6,3955.8,1782.5,3940.6,1815.8"/>
<rect x="3238.1" y="1716" class="st3" width="743.6" height="765.2"/>
<path class="st10" d="M3032.9,1721.2c13.3-4.7,27.3-8.6,39.6-15.8c7.1-4.1,13.7-8.9,20.8-13.1c15.3-9.2,29.7-19,43.9-29.9
	c10.8-8.3,22.8-14.5,34.2-22.1c15.4-10.3,28.5-24.1,42.9-35.6c21.3-17,37.9-38.4,57.6-57.1c6.7-6.3,12.9-11.7,18.7-18.9
	c4.3-5.4,8.6-10.6,13.3-15.4c9.2-9.5,18.8-19.4,27.2-29.7c6-7.4,12.7-14,16.7-22.4c3.1-6.5,2.5-16.2,7.4-21.8
	c5.3-6.1,11.8,1,16.7,4.9c18.3,14.4,31.1,34.1,44.8,53c2.6,3.6,5,7.6,7.6,11.2c2.7,3.6,7.7,8.1,8.9,12.7c2.1,8.4-11.5,9.4-16.9,6.4
	c-6.8-3.8-12-11.5-18.7-3c-7.7,9.6-14.6,19.9-22.1,29.6c-6,7.8-9.8,17.2-15.9,25.1c-5.6,7.2-11.6,14.3-18.4,20.5
	c-18.1,16.5-36.9,32.2-55.7,47.9c-11,9.2-23.1,17-34,26.4c-10.6,9.2-22.7,17.2-34.7,24.6c-15.6,9.6-32.2,18.1-47.2,28.5
	c-12,8.3-25.7,13.5-38.2,21.1c-6.8,4.1-12.5,5.2-19.9,7c-6.7,1.6-13.5,4.3-20.3,6.1C3074.8,1765.8,3057.6,1768.6,3032.9,1721.2"/>
<path class="st11" d="M3191.2,1637.3c-30.1,26.7-49.5,37.1-84.3,61.1c0-0.9,4.2,12.2,10.4,8.9c37.4-20.1,84.2-56.7,113.4-85.3
	c62.9-61.6,112.6-126.3,107.3-130.6C3333.4,1487.6,3251,1596.1,3191.2,1637.3"/>
<rect x="3104.3" y="1488.2" class="st3" width="231.1" height="217.7"/>
<path class="st12" d="M3373.4,1458.3c-1.9,1.1-2.3,3.5-1.8,5.5c0.9,2.8,3.3,6.6,6.1,8.8c2.4,4.2,6,7.4,9.1,2.6
	C3388.3,1470,3379.6,1455,3373.4,1458.3"/>
<path class="st13" d="M3387.7,1509.1c1.8,1.3,3.6,2.5,5.4,3.5c-0.3-0.3-0.5-0.6-0.8-0.9c0.1,0.1,0.2,0.1,0.3,0.2
	c-0.5-0.6-1.1-1.1-1.6-1.7c-6-6.8-11.3-12.6-16.1-20.2c-7.6-11.3-16.8-22-22-34.5c0.7,3.6,1.7,7.1,2.8,10.6
	c-1.2-2.4-2.4-4.8-3.7-7.2c-0.3-0.5-1-0.9-1.6-0.6c-2.1,2.7-9.2,15.5-12,18c2-0.9,13.9-6.5,22.5,2.1c5.9,11.3,14.3,21.3,24.3,29
	C3386.1,1508,3386.9,1508.6,3387.7,1509.1"/>
<path class="st12" d="M3380.2,1494.1c2.8,7,9.2,13.7,14.9,17.2C3390.8,1505.1,3384.7,1500.2,3380.2,1494.1"/>
<path class="st13" d="M3387.9,1510.4c-6.2-6-13.9-9.7-19.6-16c6.8,10.4,17.8,20.9,29.6,23.5
	C3394.2,1515.4,3391,1513.3,3387.9,1510.4"/>
<path class="st12" d="M3363,1446.1c3.7-0.1,6.7,3.5,9.7,5.1C3370.7,1448.3,3366.9,1444.5,3363,1446.1"/>
<path class="st12" d="M3363.1,1459c-1.3-2.1-3-5.9-2.8-8.4c0.1-1.1,1.1-2.1,2.1-1.2c-1-1.3-2.3-0.3-2.7,0.9
	c-0.7,2.5,0.2,5.3,1.5,7.5c0.8,0.9,1.6,1.7,2.1,2.9c0.3,0.5,0.8,1.2,1.1,1.6C3363.8,1461.3,3363.5,1460.1,3363.1,1459"/>
<path class="st12" d="M3372.9,1469.3c-1.5-1.5-3.2-3.7-5.1-5c-0.5-0.4-1.3-0.1-1.4,0.6c-0.1,1.7,1.5,3.4,1.7,4.9
	c0.3,0.1,0.2-0.5,0.1-0.8c-0.2-0.9-0.3-1.8-0.4-2.6c0.3,0.4,0.6,0.9,0.9,1.2c1.2,1.5,2.3,3.3,4.3,3.7c1.5,1.2,3.3,2.8,4.1,4.5
	c0.1,0.6,0.3,2.3,0.3,0.6c0-0.4,0.2-0.7,0.1-1.1C3376.7,1472.9,3375.1,1470.1,3372.9,1469.3"/>
<path class="st12" d="M3399.8,1505.6c-6.9-7.5-9.4-12.1-15-19.1c-1.5-1.5-3.4-2.6-5.5-2.9c-1.1-0.2-2.7,0.2-3.3-1
	c0.2,1.3,1.7,1.6,2.7,2c1.8,0.7,3.4,2.3,4.5,4c2.2,3.7,4.1,7.6,7.3,10.6C3391.7,1500.6,3401.2,1507.4,3399.8,1505.6"/>
<path class="st12" d="M3416.7,1516.3c-0.4-0.9-5.1-6.8-4.1-5.1c0.5,1.2,1.2,2.5,1.7,3.7c-8.3-10.6-17.3-23.8-27.5-34.1
	c7.3,13.1,13.6,27.6,25.7,37C3414.3,1519.5,3418.4,1519.8,3416.7,1516.3"/>
<path class="st14" d="M3392.5,1480.9c9.5,9.3,15,21.8,25.5,30.9C3411.7,1499.9,3404.8,1487.5,3392.5,1480.9"/>
<path class="st15" d="M3281.4,1636.4c0.5-0.4,1.8-1.3,1.6-1.2c-58.6,47.9-111.9,78.1-158.6,98.3c-2.5,0.5-22.2-7.7-31.4-11.8
	c-0.2-0.1-0.4-0.3-0.7-0.4c-1.8-1-2.5-1.2-3.1-1.6c-0.3-0.2-0.6-0.3-0.9-0.4c-0.2-0.1-0.4-0.3-0.6-0.5c-1-0.6-2-0.8-3-0.7
	c-3.9-1.5-7.9-2.8-11.2-5.1c1.2,1.7,3.3,3.5,5.5,5.2c-0.7-0.4-1.5-0.7-2.2-1.1c-0.2-0.2-0.5-0.3-0.7-0.5c-1-1.5-2-1.9-3-2.3
	c-1.2-0.9-2.4-1.8-4-3.2c-0.2-0.2-0.4-0.4-0.6-0.6c-0.9-1.1-2.8-0.7-3.2,0.7c-0.2,0.8,0.2,1.6,0.6,2.3c2.9,3.7,6.1,7.5,9.8,10.4
	l0,0.1c0,0,0,0,0,0c0.2,0.2,0.4,0.4,0.6,0.5c0.1,0.1,0.3,0.1,0.4,0.2c3.2,4.1,6.7,8.1,10.4,11.9c4.1,6.4,8.2,12.9,11.7,19.7
	c0.5,0.9,1.1,1.8,2.2,2.1c4.8,0.8,13.5-2.6,20.9-6.4c1.3-0.4,2.5-1,3.4-1.8c0.8-0.5,1.7-0.9,2.4-1.4c0.6-0.4,2.4-1.5,4.1-2.5
	c0.4-0.2,0.9-0.3,1.3-0.5c47.2-19.1,98.6-54.8,130-80.9c67.1-53.4,103.6-79.8,128.2-137.3
	C3359.4,1570.4,3323.1,1602.3,3281.4,1636.4"/>
<path class="st12" d="M3432.8,1522.4c0.2-5.5-4.9-9.1-9.2-11.8c-0.9-2-1.9-3.9-3-5.9c-6.3-13.4-16.9-24.5-29.4-32.3
	c8.8,8.6,13.9,18.7,21.9,29.1c4.3,6.5,9.3,11.5,13.3,17.8c0.3,0.3,1.1,1.8,0.9,1.1c-0.7-3-1.8-5.9-3.1-8.7c3.4,3.9,9.3,9.1,7,13
	c-2.5,3-7.2,2.3-10.4,1.4c-4.6-1.8-10.3-7.3-16.1-5.5c5.6,0.2,9.2,5.9,14.3,7.8c3.7,1.9,11.4,0,12.1-3.3
	C3432.2,1524.7,3432.7,1523.5,3432.8,1522.4"/>
<path class="st16" d="M808.7,2251.8c124.2-10,434.1-61.5,697-324.4c574.9-575,1090.2-484.4,1349.1-368.2
	c355.6,159.5,488.5,607.9,169.8,926.6c-718.5,718.5-1989.8,542.8-2289.9,308.9c-262.5-204.7-201.3-425.3-50.9-512
	C705.3,2270.2,773.4,2254.6,808.7,2251.8"/>
<g>
	<defs>
		<path id="SVGID_10_" d="M2860.9,2369.5c-170.5,196.3-406.2,296.2-338.3,355.2c67.9,59,356.5-61.8,522.6-261.9
			c195-235,172.6-414,150.2-502.7c-4.9-19.4-12.1-28.1-21.3-28.1C3122.3,1932.1,3005.5,2203,2860.9,2369.5"/>
	</defs>
	<clipPath id="SVGID_11_">
		<use xlink:href="#SVGID_10_"  style="overflow:visible;"/>
	</clipPath>
	
		<radialGradient id="SVGID_12_" cx="1828.2321" cy="2667.7156" r="6.112" gradientTransform="matrix(103.5226 -108.7593 -31.0964 -29.5991 -103460.9766 280075.4062)" gradientUnits="userSpaceOnUse">
		<stop  offset="0" style="stop-color:#FFBF0F"/>
		<stop  offset="0.4926" style="stop-color:#FFBF0F"/>
		<stop  offset="1" style="stop-color:#DB3A0D"/>
	</radialGradient>
	<polygon class="st17" points="2029.3,2379 2828.1,1539.8 3665.5,2337 2866.8,3176.1 	"/>
</g>
<g>
	<defs>
		<path id="SVGID_13_" d="M2738.9,2074c-147.9,196-322.7,344.2-227,416.5c95.7,72.2,315.2,7.5,463.1-188.5
			c147.9-196,168.2-449.1,72.5-521.3c-15.4-11.6-30-17-44.3-17C2928.7,1763.6,2863,1909.5,2738.9,2074"/>
	</defs>
	<clipPath id="SVGID_14_">
		<use xlink:href="#SVGID_13_"  style="overflow:visible;"/>
	</clipPath>
	<defs>
		<filter id="Adobe_OpacityMaskFilter" filterUnits="userSpaceOnUse" x="2026" y="1408.6" width="1507.4" height="1509.1">
			<feColorMatrix  type="matrix" values="1 0 0 0 0  0 1 0 0 0  0 0 1 0 0  0 0 0 1 0"/>
		</filter>
	</defs>
	<mask maskUnits="userSpaceOnUse" x="2026" y="1408.6" width="1507.4" height="1509.1" id="SVGID_15_">
		<g class="st18">
			
				<radialGradient id="SVGID_16_" cx="1832.1698" cy="2688.022" r="6.1137" gradientTransform="matrix(36.8262 -45.8373 22.0287 17.6981 -123835.5547 38597.7305)" gradientUnits="userSpaceOnUse">
				<stop  offset="0" style="stop-color:#C7C7C7"/>
				<stop  offset="0.1749" style="stop-color:#D8D8D8"/>
				<stop  offset="0.4638" style="stop-color:#EEEEEE"/>
				<stop  offset="0.7431" style="stop-color:#FBFBFB"/>
				<stop  offset="1" style="stop-color:#FFFFFF"/>
			</radialGradient>
			<polygon class="st19" points="2858.1,2917.7 3533.4,2077 2701.4,1408.6 2026,2249.2 			"/>
		</g>
	</mask>
	
		<radialGradient id="SVGID_17_" cx="1832.1823" cy="2688.0286" r="6.1137" gradientTransform="matrix(36.8262 -45.8373 22.0287 17.6981 -123835.5859 38597.7461)" gradientUnits="userSpaceOnUse">
		<stop  offset="0" style="stop-color:#FF7029"/>
		<stop  offset="6.690037e-02" style="stop-color:#FF7A26"/>
		<stop  offset="0.3127" style="stop-color:#FF981C"/>
		<stop  offset="0.5539" style="stop-color:#FFAE15"/>
		<stop  offset="0.7863" style="stop-color:#FFBB10"/>
		<stop  offset="1" style="stop-color:#FFBF0F"/>
	</radialGradient>
	<polygon class="st20" points="2858.1,2917.7 3533.4,2077 2701.4,1408.6 2026,2249.2 	"/>
</g>
<g>
	<defs>
		<path id="SVGID_18_" d="M595.9,2633.5c44.2,76.1,156.8,230.2,455.6,293.6c254.3,54,555.7-30.2,572.4-118.6
			c9.6-50.7-67.6-50-183.4-49.4c-86,0.5-193.4,1-302.2-19.6C944.4,2702.9,694.3,2595,613.9,2595
			C588.3,2595,579.9,2605.9,595.9,2633.5"/>
	</defs>
	<clipPath id="SVGID_19_">
		<use xlink:href="#SVGID_18_"  style="overflow:visible;"/>
	</clipPath>
	
		<radialGradient id="SVGID_20_" cx="1832.1285" cy="2665.4763" r="6.116" gradientTransform="matrix(-150.6371 -21.4187 6.124 -43.07 260744.7031 156701.9062)" gradientUnits="userSpaceOnUse">
		<stop  offset="0" style="stop-color:#FFBF0F"/>
		<stop  offset="0.4926" style="stop-color:#FFBF0F"/>
		<stop  offset="1" style="stop-color:#40940C"/>
	</radialGradient>
	<polygon class="st21" points="1687.2,2602.6 600.8,2448.2 526.1,2973.4 1612.5,3127.9 	"/>
</g>
<g>
	<defs>
		<path id="SVGID_21_" d="M2349.2,1477.4c-270.1,21.2-485.5,166.8-584.9,230.9c-78.2,107.7-60.6,108.2,668-33.1
			c124.2-24.1,253.3-12.1,356.4-0.2c124.9,14.5,211.5,29,204.4-20.7c-58.4-81.8-306.9-180.9-558.4-180.9
			C2406.1,1473.4,2377.5,1474.6,2349.2,1477.4"/>
	</defs>
	<clipPath id="SVGID_22_">
		<use xlink:href="#SVGID_21_"  style="overflow:visible;"/>
	</clipPath>
	
		<radialGradient id="SVGID_23_" cx="1825.7229" cy="2667.4329" r="6.1109" gradientTransform="matrix(-181.6102 11.6256 -5.740000e-02 49.0234 334046.4688 -150224.5)" gradientUnits="userSpaceOnUse">
		<stop  offset="0" style="stop-color:#FFBF0F"/>
		<stop  offset="0.5716" style="stop-color:#FFBF0F"/>
		<stop  offset="1" style="stop-color:#DB6A0D"/>
	</radialGradient>
	<polygon class="st22" points="3000.2,1816.4 1685.5,1900.5 1686,1473.4 3000.7,1389.2 	"/>
</g>
<rect x="1020.4" y="2172" class="st3" width="2013.2" height="757.3"/>
<g>
	<defs>
		<path id="SVGID_24_" d="M1625.9,1851.3c-269,188.9-395.4,437.2-329.3,531.3c66.1,94.1,283.3-117.4,552.3-306.3
			c269-188.9,487.9-283.7,421.8-377.8c-20.9-29.8-66.2-44.3-126.9-44.3C2012.7,1654.3,1809.7,1722.2,1625.9,1851.3"/>
	</defs>
	<clipPath id="SVGID_25_">
		<use xlink:href="#SVGID_24_"  style="overflow:visible;"/>
	</clipPath>
	<defs>
		<filter id="Adobe_OpacityMaskFilter_1_" filterUnits="userSpaceOnUse" x="837.9" y="1126.3" width="1891.4" height="1878.5">
			<feColorMatrix  type="matrix" values="1 0 0 0 0  0 1 0 0 0  0 0 1 0 0  0 0 0 1 0"/>
		</filter>
	</defs>
	<mask maskUnits="userSpaceOnUse" x="837.9" y="1126.3" width="1891.4" height="1878.5" id="SVGID_26_">
		<g class="st23">
			
				<radialGradient id="SVGID_27_" cx="1823.3944" cy="2693.1638" r="6.1137" gradientTransform="matrix(63.4125 -46.6245 -16.0487 -21.8275 -70668.9922 145771.0625)" gradientUnits="userSpaceOnUse">
				<stop  offset="0" style="stop-color:#C7C7C7"/>
				<stop  offset="1" style="stop-color:#FFFFFF"/>
			</radialGradient>
			<polygon class="st24" points="837.9,1942.9 1948.5,1126.3 2729.3,2188.2 1618.6,3004.8 			"/>
		</g>
	</mask>
	
		<radialGradient id="SVGID_28_" cx="1823.3944" cy="2693.1638" r="6.1137" gradientTransform="matrix(63.4125 -46.6245 -16.0487 -21.8275 -70668.9922 145771.0625)" gradientUnits="userSpaceOnUse">
		<stop  offset="0" style="stop-color:#FCFCC5"/>
		<stop  offset="1" style="stop-color:#FFBF0F"/>
	</radialGradient>
	<polygon class="st25" points="837.9,1942.9 1948.5,1126.3 2729.3,2188.2 1618.6,3004.8 	"/>
</g>
<g>
	<defs>
		<path id="SVGID_29_" d="M667.6,2253.6c-75.8,41.8-115.9,133.9-83,193.7c32.9,59.7,48.8,25.3,120.1-23.8
			c162.6-111.9,327.7-86.1,294.8-145.9c-18.9-34.3-100.5-50.9-181-50.9C758.8,2226.7,699.8,2235.8,667.6,2253.6"/>
	</defs>
	<clipPath id="SVGID_30_">
		<use xlink:href="#SVGID_29_"  style="overflow:visible;"/>
	</clipPath>
	<defs>
		<filter id="Adobe_OpacityMaskFilter_2_" filterUnits="userSpaceOnUse" x="471" y="2088.4" width="642" height="556.9">
			<feColorMatrix  type="matrix" values="1 0 0 0 0  0 1 0 0 0  0 0 1 0 0  0 0 0 1 0"/>
		</filter>
	</defs>
	<mask maskUnits="userSpaceOnUse" x="471" y="2088.4" width="642" height="556.9" id="SVGID_31_">
		<g class="st26">
			
				<radialGradient id="SVGID_32_" cx="1783.4738" cy="2711.3174" r="6.1134" gradientTransform="matrix(26.9988 -8.5466 -2.9336 -9.2674 -39431.2266 42685.4492)" gradientUnits="userSpaceOnUse">
				<stop  offset="0" style="stop-color:#C7C7C7"/>
				<stop  offset="1" style="stop-color:#000000"/>
			</radialGradient>
			<polygon class="st27" points="471,2252.2 988.6,2088.4 1113,2481.5 595.5,2645.3 			"/>
		</g>
	</mask>
	
		<radialGradient id="SVGID_33_" cx="1783.4713" cy="2711.3169" r="6.1134" gradientTransform="matrix(26.9988 -8.5466 -2.9336 -9.2674 -39431.2422 42685.4492)" gradientUnits="userSpaceOnUse">
		<stop  offset="0" style="stop-color:#FCFCC5"/>
		<stop  offset="1" style="stop-color:#FFBF0F"/>
	</radialGradient>
	<polygon class="st28" points="471,2252.2 988.6,2088.4 1113,2481.5 595.5,2645.3 	"/>
</g>
<g>
	<defs>
		<path id="SVGID_34_" d="M1739.5,2437c-0.9,19.2,88.3,182.6,93.4,187.9c5,5.3,0.6-209.6-3.2-218c-40.6-23.6-74.8-63.7-96.2-98.2
			C1733.4,2346.1,1733,2377.7,1739.5,2437"/>
	</defs>
	<clipPath id="SVGID_35_">
		<use xlink:href="#SVGID_34_"  style="overflow:visible;"/>
	</clipPath>
	
		<linearGradient id="SVGID_36_" gradientUnits="userSpaceOnUse" x1="1801.674" y1="2688.9587" x2="1807.7882" y2="2688.9587" gradientTransform="matrix(10.1168 -12.9726 -12.9726 -10.1168 18422.3633 53069.4531)">
		<stop  offset="0" style="stop-color:#CF8918"/>
		<stop  offset="1" style="stop-color:#FFF30F"/>
	</linearGradient>
	<polygon class="st29" points="1577.1,2508.6 1772.7,2257.8 1993.8,2430.3 1798.2,2681 	"/>
</g>
<g>
	<defs>
		<path id="SVGID_37_" d="M1290.4,2721.7c-0.9,19.2,74.8,158.3,79.9,163.7c5,5.3,12-227.9,8.2-236.4c-40.6-23.5-74.8-63.7-96.2-98.2
			C1282.3,2588.2,1283.9,2662.4,1290.4,2721.7"/>
	</defs>
	<clipPath id="SVGID_38_">
		<use xlink:href="#SVGID_37_"  style="overflow:visible;"/>
	</clipPath>
	
		<linearGradient id="SVGID_39_" gradientUnits="userSpaceOnUse" x1="1782.5669" y1="2697.1936" x2="1788.6799" y2="2697.1936" gradientTransform="matrix(11.2717 -14.4535 -14.4535 -11.2717 20201.3867 58915.5898)">
		<stop  offset="0" style="stop-color:#CF8918"/>
		<stop  offset="1" style="stop-color:#FFF30F"/>
	</linearGradient>
	<polygon class="st30" points="1117.5,2762.1 1320.1,2502.3 1547.2,2679.3 1344.5,2939.2 	"/>
</g>
<g>
	<defs>
		<path id="SVGID_40_" d="M1008.4,3059.9c-0.9,19.2,47.3,91.1,52.3,96.4c5,5.3-22-169.4-25.8-177.9c-15-19.2-19.3-19.8-40.8-54.3
			C994.1,2961.6,1001.9,3000.6,1008.4,3059.9"/>
	</defs>
	<clipPath id="SVGID_41_">
		<use xlink:href="#SVGID_40_"  style="overflow:visible;"/>
	</clipPath>
	
		<linearGradient id="SVGID_42_" gradientUnits="userSpaceOnUse" x1="1732.6078" y1="2709.4788" x2="1738.7208" y2="2709.4788" gradientTransform="matrix(7.6417 -9.7989 -9.7989 -7.6417 14325.6143 40743.7383)">
		<stop  offset="0" style="stop-color:#CF8918"/>
		<stop  offset="1" style="stop-color:#FFF30F"/>
	</linearGradient>
	<polygon class="st31" points="879,3071.9 1021.2,2889.5 1180.9,3014 1038.6,3196.4 	"/>
</g>
<g>
	<defs>
		<path id="SVGID_43_" d="M2237.3,2397.5c-3.6,18.9,34.9,79.2,32.1,72.3c-2.5-6.1,5.2-138.7,2.6-147.6c-12.2-21.1-11.8-7-28.1-44.3
			C2238.6,2315,2239.3,2337.9,2237.3,2397.5"/>
	</defs>
	<clipPath id="SVGID_44_">
		<use xlink:href="#SVGID_43_"  style="overflow:visible;"/>
	</clipPath>
	
		<linearGradient id="SVGID_45_" gradientUnits="userSpaceOnUse" x1="1818.2247" y1="2670.2087" x2="1824.3381" y2="2670.2087" gradientTransform="matrix(7.2488 -6.9813 -6.9813 -7.2488 7704.9023 34437.1094)">
		<stop  offset="0" style="stop-color:#CF8918"/>
		<stop  offset="1" style="stop-color:#FFF30F"/>
	</linearGradient>
	<polygon class="st32" points="2134.4,2373.5 2254.9,2257.4 2373.9,2381 2253.4,2497.1 	"/>
</g>
<g>
	<defs>
		<path id="SVGID_46_" d="M1378.8,2653.8c0,76.4-8.5,178.6-8.5,247.3c0,7.2,407.1-284.2,407.1-284.2l-10.8-179.9
			C1766.6,2437,1389.3,2644.6,1378.8,2653.8"/>
	</defs>
	<clipPath id="SVGID_47_">
		<use xlink:href="#SVGID_46_"  style="overflow:visible;"/>
	</clipPath>
	
		<linearGradient id="SVGID_48_" gradientUnits="userSpaceOnUse" x1="1821.2996" y1="2692.4404" x2="1827.413" y2="2692.4404" gradientTransform="matrix(-12.7931 -26.0483 -38.6947 12.8059 129056.5781 15634.1904)">
		<stop  offset="0" style="stop-color:#CF8918"/>
		<stop  offset="1" style="stop-color:#FFF30F"/>
	</linearGradient>
	<polygon class="st33" points="1427.3,3024.3 1171.2,2502.9 1720.5,2321.1 1976.6,2842.5 	"/>
</g>
<g>
	<defs>
		<path id="SVGID_49_" d="M2273.1,2326.1c-5.4,35.8-3.2,105.8-7.3,176.4c-0.6,10,144.6-88.2,144.6-88.2l11.5-88.9
			c0,0-58-4.1-101.8-4.1C2296.7,2321.3,2277.3,2322.5,2273.1,2326.1"/>
	</defs>
	<clipPath id="SVGID_50_">
		<use xlink:href="#SVGID_49_"  style="overflow:visible;"/>
	</clipPath>
	
		<linearGradient id="SVGID_51_" gradientUnits="userSpaceOnUse" x1="1818.4507" y1="2673.2048" x2="1824.5647" y2="2673.2048" gradientTransform="matrix(-2.9526 -15.5402 -15.5402 2.9526 49252.1484 22768.8652)">
		<stop  offset="0" style="stop-color:#CF8918"/>
		<stop  offset="1" style="stop-color:#FFF30F"/>
	</linearGradient>
	<polygon class="st34" points="2270.7,2541.2 2230.2,2328 2416.4,2292.6 2457,2505.8 	"/>
</g>
<g>
	<defs>
		<path id="SVGID_52_" d="M1029.1,2970c17.3,74.4,22.5,150.6,38.1,217.6c1.6,7,265.9-368.5,265.9-368.5L1304,2709
			C1304,2709,1037.2,2958.6,1029.1,2970"/>
	</defs>
	<clipPath id="SVGID_53_">
		<use xlink:href="#SVGID_52_"  style="overflow:visible;"/>
	</clipPath>
	
		<linearGradient id="SVGID_54_" gradientUnits="userSpaceOnUse" x1="1825.4031" y1="2705.1584" x2="1831.5164" y2="2705.1584" gradientTransform="matrix(-16.5528 -20.2321 -31.3231 19.1518 116132.3594 -11922.9473)">
		<stop  offset="0" style="stop-color:#CF8918"/>
		<stop  offset="1" style="stop-color:#FFF30F"/>
	</linearGradient>
	<polygon class="st35" points="1130.5,3318.5 764.2,2870.9 1231.7,2585.1 1598,3032.7 	"/>
</g>
<g>
	<defs>
		<path id="SVGID_55_" d="M898,3174.3c7.5,7.5,8.5,6.5,22.5,24.3c4.5,5.7,105.5-94.9,105.5-94.9l-26.1-78
			C999.9,3025.8,903.5,3156.7,898,3174.3"/>
	</defs>
	<clipPath id="SVGID_56_">
		<use xlink:href="#SVGID_55_"  style="overflow:visible;"/>
	</clipPath>
	
		<linearGradient id="SVGID_57_" gradientUnits="userSpaceOnUse" x1="1849.149" y1="2771.4844" x2="1855.2618" y2="2771.4844" gradientTransform="matrix(-8.9882 -4.8918 -8.9632 8.7008 42451.9844 -11938.0947)">
		<stop  offset="0" style="stop-color:#CF8918"/>
		<stop  offset="1" style="stop-color:#FFF30F"/>
	</linearGradient>
	<polygon class="st36" points="980,3249 780.1,3140.2 944,2981.1 1143.9,3089.9 	"/>
</g>
<g>
	<defs>
		<path id="SVGID_58_" d="M1829.6,2406.9c0,71-4.1,146.6-4.1,217.9c0,7.2,385.4-217.8,385.4-217.8l-4.7-79.1
			C2206.2,2327.8,1934.2,2343.7,1829.6,2406.9"/>
	</defs>
	<clipPath id="SVGID_59_">
		<use xlink:href="#SVGID_58_"  style="overflow:visible;"/>
	</clipPath>
	
		<linearGradient id="SVGID_60_" gradientUnits="userSpaceOnUse" x1="1819.6796" y1="2683.6389" x2="1825.7933" y2="2683.6389" gradientTransform="matrix(-6.0407 -22.0185 -31.7933 4.1835 98331.3438 31316.7969)">
		<stop  offset="0" style="stop-color:#CF8918"/>
		<stop  offset="1" style="stop-color:#FFF30F"/>
	</linearGradient>
	<polygon class="st37" points="1839,2680.9 1745,2338.4 2197.5,2278.9 2291.5,2621.4 	"/>
</g>
<g>
	<defs>
		<path id="SVGID_61_" d="M2302.1,2373.4c-4.4,23.8-9.8,48-19.1,111c-0.9,19.2,12.5,176.4,45.5,283c25.7,83.1,71.8,122.2,76.9,127.6
			c5,5.3,10.3,10.7,17.2,13c19.3-21.3,19.6-53,24.5-81.3c7.5-42.8,27.8-83.9,25.7-127.3c-1.5-29.9-13.5-58.1-25.5-89
			c-1.7-4.5-3.5-9-6.1-16.5c-1.3-4.2-2.6-8.4-5.2-17.8c-1.4-4.5-2.9-9-6.1-19.1c-2-4.2-4.1-8.4-8.3-18.7c-1.4-3.6-2.9-7.2-6.9-17.4
			c-1.6-3.7-3.2-7.5-7-16c-18.9-32.9-37.8-65.8-55.1-99.5c-3.7-7.2-9.4-13.1-13.3-17.9c-7.4-9.1-18.9-14.7-31.8-14.7
			C2305.7,2373.1,2303.9,2373.2,2302.1,2373.4"/>
	</defs>
	<clipPath id="SVGID_62_">
		<use xlink:href="#SVGID_61_"  style="overflow:visible;"/>
	</clipPath>
	
		<linearGradient id="SVGID_63_" gradientUnits="userSpaceOnUse" x1="1820.8186" y1="2659.7183" x2="1826.932" y2="2659.7183" gradientTransform="matrix(16.9177 -9.6413 -9.6413 -16.9177 -2816.814 65211.625)">
		<stop  offset="0" style="stop-color:#CF8918"/>
		<stop  offset="1" style="stop-color:#FFF30F"/>
	</linearGradient>
	<polygon class="st38" points="2052,2504.3 2427.7,2290.2 2705.1,2776.9 2329.4,2991 	"/>
</g>
<g>
	<defs>
		<path id="SVGID_64_" d="M1874.2,2482.6c-4.4,23.8-9.8,48-19.1,111c-0.9,19.2,12.5,176.4,45.5,283c25.7,83.1,71.8,122.2,76.9,127.6
			c5,5.3,10.3,10.7,17.2,13.1c19.2-21.4,8.9-56,13.8-84.3c7.5-42.8,11.3-98.9,9.2-142.3c-1.5-29.9-55.5-141.6-59.4-150
			c-18.7-32.7-68.4-158-83.9-158C1874.4,2482.6,1874.3,2482.6,1874.2,2482.6"/>
	</defs>
	<clipPath id="SVGID_65_">
		<use xlink:href="#SVGID_64_"  style="overflow:visible;"/>
	</clipPath>
	
		<linearGradient id="SVGID_66_" gradientUnits="userSpaceOnUse" x1="1799.2621" y1="2663.7712" x2="1805.3761" y2="2663.7712" gradientTransform="matrix(15.0614 -8.5834 -8.5834 -15.0614 -2329.3738 58331.6484)">
		<stop  offset="0" style="stop-color:#CF8918"/>
		<stop  offset="1" style="stop-color:#FFF30F"/>
	</linearGradient>
	<polygon class="st39" points="1624.2,2613.7 1979.2,2411.4 2249.8,2886.2 1894.8,3088.5 	"/>
</g>
<g>
	<defs>
		<path id="SVGID_67_" d="M1415.3,2735.8c-6,23.4-19.1,106.8-32.6,169.1c-2.2,19.1,38.9,53,64.6,161.6
			c20,84.7,96.7,209.3,98.5,180.6c2.5-40.9,9.9-178.7,10.8-222.1c0.6-29.9-72.7-124.3-82.6-155.9c-1.4-4.6-35.7-80.8-39.3-85.9
			c-7.6-10.7-4.1-47.4-18.8-47.4C1415.6,2735.8,1415.5,2735.8,1415.3,2735.8"/>
	</defs>
	<clipPath id="SVGID_68_">
		<use xlink:href="#SVGID_67_"  style="overflow:visible;"/>
	</clipPath>
	
		<linearGradient id="SVGID_69_" gradientUnits="userSpaceOnUse" x1="1754.0729" y1="2654.1716" x2="1760.1859" y2="2654.1716" gradientTransform="matrix(10.9099 -5.2753 -5.2753 -10.9099 -3673.9272 41219.4453)">
		<stop  offset="0" style="stop-color:#CF8918"/>
		<stop  offset="1" style="stop-color:#FFF30F"/>
	</linearGradient>
	<polygon class="st40" points="1168.9,2838.1 1523.6,2666.6 1768.7,3173.5 1414,3345 	"/>
</g>
<g>
	<defs>
		<path id="SVGID_70_" d="M1069.3,3032c-2,24.1,1,84-2.1,147.7c1,19.2,16.6,105.4,59.9,208.3c81,192.3,105.1-19,98.7-62
			c-4.4-29.6-61.7-142.7-76.7-172.3c-2.2-4.3-48.6-73.8-53-78.2c-9-9-11.7-43.8-25.1-43.8C1070.5,3031.8,1069.9,3031.9,1069.3,3032"
			/>
	</defs>
	<clipPath id="SVGID_71_">
		<use xlink:href="#SVGID_70_"  style="overflow:visible;"/>
	</clipPath>
	
		<linearGradient id="SVGID_72_" gradientUnits="userSpaceOnUse" x1="1747.5363" y1="2665.1199" x2="1753.6497" y2="2665.1199" gradientTransform="matrix(13.1988 -9.3606 -9.3606 -13.1988 3020.9453 54847.9023)">
		<stop  offset="0" style="stop-color:#CF8918"/>
		<stop  offset="1" style="stop-color:#FFF30F"/>
	</linearGradient>
	<polygon class="st41" points="808.4,3215.4 1176.9,2954 1491,3396.8 1122.4,3658.2 	"/>
</g>
<g>
	<defs>
		<path id="SVGID_73_" d="M2466.2,2683.7c-7.9,29.6-42.4,278.4-65.2,348.7c-3.1,9.5,475.7-304.5,475.7-304.5l7.9-108.7
			C2884.7,2619.2,2478.3,2673.4,2466.2,2683.7"/>
	</defs>
	<clipPath id="SVGID_74_">
		<use xlink:href="#SVGID_73_"  style="overflow:visible;"/>
	</clipPath>
	
		<linearGradient id="SVGID_75_" gradientUnits="userSpaceOnUse" x1="1809.1239" y1="2668.5818" x2="1815.2373" y2="2668.5818" gradientTransform="matrix(-5.6372 -29.6693 -29.6693 5.6372 92013.0859 41454.2461)">
		<stop  offset="0" style="stop-color:#CF8918"/>
		<stop  offset="1" style="stop-color:#FFF30F"/>
	</linearGradient>
	<polygon class="st42" points="2414.9,3131.1 2320.5,2633.9 2867.8,2530 2962.2,3027.2 	"/>
</g>
<g>
	<defs>
		<path id="SVGID_76_" d="M2017.7,2790.7c-7.7,90.3-17,178.1-24.9,271.7c-0.8,10,348.3-142.9,348.3-142.9l24.2-224.2
			C2365.3,2695.3,2029.8,2780.4,2017.7,2790.7"/>
	</defs>
	<clipPath id="SVGID_77_">
		<use xlink:href="#SVGID_76_"  style="overflow:visible;"/>
	</clipPath>
	
		<linearGradient id="SVGID_78_" gradientUnits="userSpaceOnUse" x1="1807.5973" y1="2682.1777" x2="1813.7108" y2="2682.1777" gradientTransform="matrix(-4.9504 -26.0546 -26.0546 4.9504 81009.8281 36701.1836)">
		<stop  offset="0" style="stop-color:#CF8918"/>
		<stop  offset="1" style="stop-color:#FFF30F"/>
	</linearGradient>
	<polygon class="st43" points="2005,3140.8 1922.8,2708.4 2352.3,2626.8 2434.4,3059.2 	"/>
</g>
<g>
	<defs>
		<path id="SVGID_79_" d="M1558.4,3010.1c-13.7,98.5-5.6,167.6-15,265.1c-1,10,381.5-201.1,381.5-201.1l27.8-240.6
			C1952.8,2833.6,1568.3,2997.7,1558.4,3010.1"/>
	</defs>
	<clipPath id="SVGID_80_">
		<use xlink:href="#SVGID_79_"  style="overflow:visible;"/>
	</clipPath>
	
		<linearGradient id="SVGID_81_" gradientUnits="userSpaceOnUse" x1="1806.9357" y1="2703.0615" x2="1813.049" y2="2703.0615" gradientTransform="matrix(-8.728 -22.0741 -22.0741 8.728 77185.9453 19352.8438)">
		<stop  offset="0" style="stop-color:#CF8918"/>
		<stop  offset="1" style="stop-color:#FFF30F"/>
	</linearGradient>
	<polygon class="st44" points="1598,3425.5 1388.1,2894.6 1897.3,2693.3 2107.2,3224.1 	"/>
</g>
<g>
	<defs>
		<path id="SVGID_82_" d="M1186.8,3234c0,94.2,4,158.1,4,258.7c0,10,280.7-194.5,280.7-194.5l8-243.6
			C1479.5,3054.6,1196.7,3221.6,1186.8,3234"/>
	</defs>
	<clipPath id="SVGID_83_">
		<use xlink:href="#SVGID_82_"  style="overflow:visible;"/>
	</clipPath>
	
		<linearGradient id="SVGID_84_" gradientUnits="userSpaceOnUse" x1="1806.4952" y1="2710.9468" x2="1812.6083" y2="2710.9468" gradientTransform="matrix(-9.9508 -27.3801 -27.3801 9.9508 93552.625 25812.4824)">
		<stop  offset="0" style="stop-color:#CF8918"/>
		<stop  offset="1" style="stop-color:#FFF30F"/>
	</linearGradient>
	<polygon class="st45" points="1221,3596.6 1043,3106.8 1445.3,2960.6 1623.3,3450.4 	"/>
</g>
<g>
	<defs>
		<path id="SVGID_85_" d="M872.4,3471.5c13.8,24,63.5,94.6,63.5,94.6l208.5-137.9l-19.2-144.3
			C1125.2,3283.9,882.3,3459.1,872.4,3471.5"/>
	</defs>
	<clipPath id="SVGID_86_">
		<use xlink:href="#SVGID_85_"  style="overflow:visible;"/>
	</clipPath>
	
		<linearGradient id="SVGID_87_" gradientUnits="userSpaceOnUse" x1="1811.0337" y1="2752.1113" x2="1817.1469" y2="2752.1113" gradientTransform="matrix(-10.326 -15.3853 -15.3853 10.326 62092.168 2931.1011)">
		<stop  offset="0" style="stop-color:#CF8918"/>
		<stop  offset="1" style="stop-color:#FFF30F"/>
	</linearGradient>
	<polygon class="st46" points="956.8,3692 741.8,3371.5 1059.9,3158.1 1274.9,3478.5 	"/>
</g>
<g>
	<defs>
		<path id="SVGID_88_" d="M2498.1,2769.1c-19.4,43.6-38,121.4-46.1,216.8c-1.2,14-6.4,27.5-6.1,41.6c0.3,15.4,4.8,30.4,9.2,45.2
			c18.3,61.1,36.5,122.1,54.8,183.2c4.9,16.3,10,33.1,20.7,46.4c3.2,4,7.3,7.8,12.3,8.5c7.5,1.1,14.1-4.9,19.3-10.4
			c16-16.6,31.9-33.2,47.9-49.9c10.2-10.6,20.8-22,24.5-36.3c2.7-10.3,1.5-21.1,0.2-31.6c-5.9-48.6-13.4-97-22.4-145.1
			c-16.3-87.3-38.2-175.2-83.6-251.5c-6.1-10.2-18.6-18.5-26.2-18.5C2500.8,2767.4,2499.2,2768,2498.1,2769.1"/>
	</defs>
	<clipPath id="SVGID_89_">
		<use xlink:href="#SVGID_88_"  style="overflow:visible;"/>
	</clipPath>
	
		<linearGradient id="SVGID_90_" gradientUnits="userSpaceOnUse" x1="1820.6534" y1="2652.0312" x2="1826.7662" y2="2652.0312" gradientTransform="matrix(26.2343 -11.0574 -11.0574 -26.2343 -16027.8418 92800.4531)">
		<stop  offset="0" style="stop-color:#B8571C"/>
		<stop  offset="1" style="stop-color:#FFF30F"/>
	</linearGradient>
	<polygon class="st47" points="2250.8,2849.6 2608.4,2698.8 2832.2,3229.7 2474.6,3380.4 	"/>
</g>
<g>
	<defs>
		<path id="SVGID_91_" d="M2052.1,2878.8c-15,52.6-28.7,105.8-57.5,206.7c-3.9,13.5-0.3,38.2,0,52.3c0.3,15.4-4.2,29.6,0.2,44.4
			c18.3,61.1,33.3,115.3,51.5,176.4c4.9,16.3,48.2,30,58.9,43.3c3.2,4,7.3,7.8,12.3,8.5c7.5,1.1,14.1-4.9,19.3-10.4
			c16-16.6,31.9-33.2,47.9-49.9c10.2-10.6,20.8-22,24.5-36.3c2.7-10.3,1.5-21.1,0.2-31.6c-5.9-48.6-13.4-97-22.4-145.1
			c-16.3-87.3-38.2-175.2-83.6-251.5c-4.5-7.6-19.8-10.6-32.7-10.6C2062,2875.1,2054.3,2876.5,2052.1,2878.8"/>
	</defs>
	<clipPath id="SVGID_92_">
		<use xlink:href="#SVGID_91_"  style="overflow:visible;"/>
	</clipPath>
	
		<linearGradient id="SVGID_93_" gradientUnits="userSpaceOnUse" x1="1809.6139" y1="2657.3628" x2="1815.7274" y2="2657.3628" gradientTransform="matrix(30.6219 -12.9068 -12.9068 -30.6219 -19166.8418 107937.3516)">
		<stop  offset="0" style="stop-color:#B8571C"/>
		<stop  offset="1" style="stop-color:#FFF30F"/>
	</linearGradient>
	<polygon class="st48" points="1798.4,2956.1 2178.5,2795.8 2404,3330.7 2023.8,3490.9 	"/>
</g>
<g>
	<defs>
		<path id="SVGID_94_" d="M1587,3084.2c-11.4,52.7-21.7,105.8-43.5,206.7c-2.9,13.5,96.5,213.2,104.5,226.5
			c2.4,4,62.8,50.1,66.7,50.9c5.7,1.1,50-39.2,53.9-44.7c12.1-16.6,6-6.3,18.1-23c7.7-10.6,12.7-9.7,15.5-24
			c1-5.1-10.9-2.4-23.1,0.3c-12.4,2.7-25.2,5.4-25.7,0.2c-4.5-48.6-43.8-84.8-50.6-132.9c-12.3-87.3-53.4-137-87.7-213.3
			c-5.4-12-21.7-47.2-27.2-47.2C1587.6,3083.7,1587.3,3083.9,1587,3084.2"/>
	</defs>
	<clipPath id="SVGID_95_">
		<use xlink:href="#SVGID_94_"  style="overflow:visible;"/>
	</clipPath>
	
		<linearGradient id="SVGID_96_" gradientUnits="userSpaceOnUse" x1="1787.2511" y1="2649.3523" x2="1793.3651" y2="2649.3523" gradientTransform="matrix(21.5037 -9.0636 -9.0636 -21.5037 -12866.4365 76546.3281)">
		<stop  offset="0" style="stop-color:#B8571C"/>
		<stop  offset="1" style="stop-color:#FFF30F"/>
	</linearGradient>
	<polygon class="st49" points="1366.7,3157 1763.7,2989.7 1977.1,3496.2 1580.2,3663.4 	"/>
</g>
<g>
	<defs>
		<path id="SVGID_97_" d="M1230.4,3304.1c-11.4,52.7-21.7,105.8-43.5,206.7c-2.9,13.5,56.7,146,64.8,159.2
			c2.4,4,61.3,86.6,65.2,87.3c5.7,1.1,97.8-46.9,96.9-57.4c-4.5-48.6-60.6-87.8-67.4-135.9c-12.3-87.3-53.4-137-87.7-213.3
			c-5.4-12-21.7-47.2-27.2-47.2C1231,3303.6,1230.7,3303.7,1230.4,3304.1"/>
	</defs>
	<clipPath id="SVGID_98_">
		<use xlink:href="#SVGID_97_"  style="overflow:visible;"/>
	</clipPath>
	
		<linearGradient id="SVGID_99_" gradientUnits="userSpaceOnUse" x1="1763.0531" y1="2642.8428" x2="1769.1667" y2="2642.8428" gradientTransform="matrix(18.302 -7.7141 -7.7141 -18.302 -10690.7627 65546.9922)">
		<stop  offset="0" style="stop-color:#B8571C"/>
		<stop  offset="1" style="stop-color:#FFF30F"/>
	</linearGradient>
	<polygon class="st50" points="1021.2,3372.2 1379.9,3221 1577.5,3689.8 1218.8,3841 	"/>
</g>
<g>
	<defs>
		<path id="SVGID_100_" d="M1283.8,3699.5c-62.9,28.2-128.1,44.9-196.2,55.6c-23.1,3.6-46.9,6.2-69.6,0.8c-4.2-1-25.3-3.9-23-1.9
			c30.3,26.1,73.3,71,73.3,71s51.8-2.5,118.5-18c61.3-14.3,106.7-34.9,163.5-62c-17.3-15.6-33.7-32.7-50.1-47.9
			c-2-1.8,2.7-1.9,0-2.4c-0.2,0-0.3,0-0.6,0C1296.2,3694.5,1286.3,3698.4,1283.8,3699.5"/>
	</defs>
	<clipPath id="SVGID_101_">
		<use xlink:href="#SVGID_100_"  style="overflow:visible;"/>
	</clipPath>
	
		<linearGradient id="SVGID_102_" gradientUnits="userSpaceOnUse" x1="1727.2806" y1="2777.7793" x2="1733.3934" y2="2777.7793" gradientTransform="matrix(-2.0559 -10.8888 -10.8888 2.0559 34978.4453 16905.0605)">
		<stop  offset="0" style="stop-color:#D69816"/>
		<stop  offset="1" style="stop-color:#FFF30F"/>
	</linearGradient>
	<polygon class="st51" points="1005.1,3890.1 969,3699 1338,3629.3 1374.1,3820.4 	"/>
</g>
<g>
	<defs>
		<path id="SVGID_103_" d="M2068.6,3325.1c-5.3,0.5-10,1-13.1,1c-4.7,0-6.2,5.1-10.5,7.1c-85.1,38.3-172,72.5-260.5,102.2
			c-12.7,4.3-26.9,8.3-38.9,2.5c-6.5,46.3-17,89-30.8,130.6c62.4-24.3,126.9-53.5,203.8-89.6c62.5-29.4,132.6-39.6,196.1-66.6
			c2-0.8,4.2-2.1,4.4-4.2c0.1-1.3-0.6-2.6-1.3-3.7c-11.6-18.5-4.3-56.6-15.9-75.1c-2.5-4-9.4-5.1-17.3-5.1
			C2079.3,3324.1,2073.7,3324.6,2068.6,3325.1"/>
	</defs>
	<clipPath id="SVGID_104_">
		<use xlink:href="#SVGID_103_"  style="overflow:visible;"/>
	</clipPath>
	
		<linearGradient id="SVGID_105_" gradientUnits="userSpaceOnUse" x1="1745.9169" y1="2728.449" x2="1752.0303" y2="2728.449" gradientTransform="matrix(-3.3153 -10.388 -10.388 3.3153 36057.6953 12566.5068)">
		<stop  offset="0" style="stop-color:#D69816"/>
		<stop  offset="0.1823" style="stop-color:#DAA115"/>
		<stop  offset="0.4829" style="stop-color:#E5BA13"/>
		<stop  offset="0.8625" style="stop-color:#F8E310"/>
		<stop  offset="1" style="stop-color:#FFF30F"/>
	</linearGradient>
	<polygon class="st52" points="1752.1,3685.5 1644,3346.7 2081.8,3207 2190,3545.8 	"/>
</g>
<g>
	<defs>
		<path id="SVGID_106_" d="M2436.8,3239c-83.6,18.4-167.2,36.8-250.8,55.2c-1.8,4.4-6.8,13.8-11,23.1
			c-11.7,25.8-50.9,67.5-54.3,95.6c127.4-32,289.1-67.3,415.6-102.5c-9.9-27.6-18.2-55.7-25-84.2
			C2486.2,3228.2,2461.5,3233.6,2436.8,3239"/>
	</defs>
	<clipPath id="SVGID_107_">
		<use xlink:href="#SVGID_106_"  style="overflow:visible;"/>
	</clipPath>
	
		<linearGradient id="SVGID_108_" gradientUnits="userSpaceOnUse" x1="1762.4082" y1="2685.1157" x2="1768.5216" y2="2685.1157" gradientTransform="matrix(-2.973 -13.8101 -13.8101 2.973 44657.6953 19711.9219)">
		<stop  offset="0" style="stop-color:#DFAC15"/>
		<stop  offset="1" style="stop-color:#FFF30F"/>
	</linearGradient>
	<polygon class="st53" points="2139.2,3498.5 2082.3,3234.5 2518,3140.7 2574.8,3404.7 	"/>
</g>
<g>
	<defs>
		<path id="SVGID_109_" d="M2983.9,3039c-42.6,14.2-83.3,33.4-123.6,53.2c-44.9,22.1-89.5,45-132,71.3c-24,14.8-47.4,30.7-72.9,42.7
			c-16.4,7.7-29.1,6.2-41.2,16.6c-15.8,22.4-45.3,60.8-78.9,89.5c9.9-1.8,68.4-16.9,78.1-19.6c108-29.4,217.1-59.2,315.3-112.9
			c46.3-25.3,91.1-57.1,118.1-102.3c3.9-6.5,7.5-13.9,6.5-21.5c-0.8-6-4.5-11.4-9.2-15.2c-7.5-6.1-16.8-8.4-26.5-8.4
			C3006.5,3032.3,2994.6,3035.4,2983.9,3039"/>
	</defs>
	<clipPath id="SVGID_110_">
		<use xlink:href="#SVGID_109_"  style="overflow:visible;"/>
	</clipPath>
	
		<linearGradient id="SVGID_111_" gradientUnits="userSpaceOnUse" x1="1720.3655" y1="2657.2168" x2="1726.479" y2="2657.2168" gradientTransform="matrix(-2.9519 -8.1177 -8.1177 2.9519 29465.6152 9353.9824)">
		<stop  offset="0" style="stop-color:#CF8918"/>
		<stop  offset="1" style="stop-color:#FFF30F"/>
	</linearGradient>
	<polygon class="st54" points="2596,3478.9 2445.5,3065 2993.8,2865.7 3144.3,3279.5 	"/>
</g>
<g>
	<defs>
		<path id="SVGID_112_" d="M1450.2,3607.3c-17.1,8.5-34.3,17-49.9,28.1c-2.8,2-5.5,4.1-7.7,6.7c-2.5,3-4,6.6-5.6,10.2
			c-13.4,30.7-26.9,61.4-40.3,92.1c8.3,1.6,16.7-1.5,24.5-4.7c33-13.5,64.6-30.1,96.2-46.7c74.2-39.1,213.7-104.6,213.7-104.6
			s19.3-7.5,35.6-22c0.4-10-50.6-66.5-54.4-69.4C1593.4,3531.1,1519.1,3573.2,1450.2,3607.3"/>
	</defs>
	<clipPath id="SVGID_113_">
		<use xlink:href="#SVGID_112_"  style="overflow:visible;"/>
	</clipPath>
	
		<linearGradient id="SVGID_114_" gradientUnits="userSpaceOnUse" x1="1770.5881" y1="2750.9346" x2="1776.7019" y2="2750.9346" gradientTransform="matrix(-6.0884 -12.4866 -12.4866 6.0884 46674.4258 9007.2354)">
		<stop  offset="0" style="stop-color:#D69816"/>
		<stop  offset="1" style="stop-color:#FFF30F"/>
	</linearGradient>
	<polygon class="st55" points="1417.9,3891.8 1248.7,3544.8 1646,3351.1 1815.2,3698.1 	"/>
</g>
<path class="st56" d="M1282.4,2554c42.8-48.5,98.7-83.3,153.6-117.3c66.2-41,134.3-82.8,210.8-97.2c2.9-0.5,6-1.1,8.8-0.2
	c3.6,1,6.2,3.9,8.8,6.6c31.1,33.9,65.1,65.1,101.5,93.3c-23.6,15.3-48,29.2-72.5,43c-101.9,57.5-203.8,115.1-305.7,172.6
	c-3.6,2-7.5,4.1-11.6,3.7c-4.6-0.5-8.3-4-11.5-7.3c-24.2-24.7-48.4-49.4-72.5-74.1c-4.6-4.7-9.5-9.9-10.7-16.4
	C1280.2,2554.1,1284.6,2546.2,1282.4,2554"/>
<path class="st56" d="M994.1,2934.8c8.7,12.6,17.4,25.3,26.1,37.9c2.2,3.2,4.9,6.7,8.7,7.3c4.4,0.6,8.2-2.8,11.4-6
	c83.1-85.4,157.2-181.4,254.9-249.6c3.1-2.1,6.3-4.5,7.6-7.9c2.3-6.2-2.3-12.6-6.7-17.6l-70.9-80.6c-1.9-2.2-4.4-4.6-7.2-4.1
	c-1.9,0.3-3.4,1.7-4.7,3.1c-66.8,69.5-120.5,150.4-173.8,230.8C1020.7,2876.2,1001.8,2905,994.1,2934.8"/>
<path class="st56" d="M1413.8,2736.3c33.9,102.8,71.8,190,130.6,265.5c6,7.7,9.8,20,19.5,19.1c3.1-0.3,5.9-1.9,8.6-3.4
	c123.1-68.6,250.1-130.1,380.2-184c-45.9-113.4-93.6-206.6-157.7-310.8C1633.6,2589.6,1421.8,2728.4,1413.8,2736.3"/>
<path class="st56" d="M1067.2,3027.9c86-84.7,176.8-164.3,272-238.6c48.9,83.5,94.8,168.7,137.6,255.5c2,4,4,8.3,3.4,12.7
	c-0.8,6.3-6.5,10.7-11.7,14.4c-85.4,60-175.7,113.1-269.7,158.5c-4.8,2.3-10.2,4.6-15.2,2.9c-5.1-1.8-8-7.1-10.3-12
	c-27.7-57.6-57.8-114.1-90.2-169.3C1077.5,3042.4,1071.6,3032.5,1067.2,3027.9"/>
<path class="st56" d="M1733.4,2308.7c117.8-45.4,245.2-65.5,371.2-58.7c10.9,0.6,22,1.4,32.1,5.5c10.3,4.1,19.1,11.4,27.2,19
	c14.6,13.7,27.7,28.9,39.1,45.3c2.2,3.1,4.3,7.2,2.4,10.5c-1.5,2.7-5,3.4-8.1,3.9c-60.2,8.6-121.2,10.3-181.6,17.6
	c-60.4,7.3-121.1,20.6-174.2,50.3c-3.8,2.1-7.7,4.4-12,4.7c-7.1,0.6-13.5-4.1-19-8.7c-25.3-20.9-48.5-44.3-68.9-69.9
	c-3.1-3.9-6.3-8.1-7-13.1C1733.9,2310.2,1736.7,2304.4,1733.4,2308.7"/>
<path class="st56" d="M2249.2,2277.7c19.1,0,38.2,2.3,59.8,7.6c40,9,79,23,115.6,41.4c-13.7,3.6-28.2,3.2-42.4,2.9
	c-34.7-0.9-69.3-1.8-104-2.7c-1.7,0-3.5-0.1-5.1-0.8c-2-0.9-3.5-2.7-4.9-4.5c-9.4-12.2-17.4-25.5-23.8-39.5
	C2248.6,2279.7,2253.5,2278.6,2249.2,2277.7"/>
<path class="st56" d="M2310.6,2370.3c92.5-19.5,191.3-7.4,276.4,33.6c26.1,12.6,50.8,27.8,75.5,43c44.9,27.8,89.7,56,131.6,88.2
	c31,23.8,60.4,49.9,85.8,79.6c2.1,2.4,4.1,5,4.7,8.1c1.5,9.3-10.7,14.2-20.1,15.4c-127.2,15.9-257.1,13.4-381.6,44.2
	c-6.6,1.6-13.8,3.3-19.9,0.3c-3.9-1.9-6.6-5.4-9.2-8.8C2427.8,2639,2312.3,2369.8,2310.6,2370.3"/>
<path class="st56" d="M1876.3,2475.4c108.6-40.4,218.4-81.1,333.3-96.5c5.8-0.8,12.1-1.4,17.3,1.2c5.4,2.7,8.6,8.4,11.4,13.8
	c50.9,96.6,93.4,197.5,126.9,301.4c0.5,1.6,1,3.3,0.5,4.9c-0.7,2.2-3.2,3.3-5.3,4.1c-87.9,33.5-180.3,53.4-272.3,73.1
	c-20.8,4.5-41.6,8.9-62.5,13.4c-2.7,0.6-5.5,1.1-8-0.1c-2.3-1.2-3.6-3.6-4.8-6c-46.4-93.7-82.1-192.8-133.9-283.6
	c-3-5.3-6.2-10.9-5.8-17C1873.5,2478,1879.1,2471.9,1876.3,2475.4"/>
<path class="st56" d="M1231,3302.6c83.7-50,167.4-100.1,251-150.1c7.6-4.5,16.3-9.3,24.8-7c9.8,2.6,15,13.1,18.9,22.5
	c45.3,109.2,90.7,218.4,136,327.5c1.3,3.1,2.6,6.4,1.8,9.6c-1,4.2-5.2,6.7-9,8.8c-88,47.6-177,93.4-266.9,137.3
	c-24.1-26.8-39.1-60.4-53.5-93.4c-34.6-79.2-67.7-159-99.5-239.4C1231.5,3310.5,1230.3,3298.5,1231,3302.6"/>
<path class="st56" d="M1000.9,3023.9c-8.4-15.2-16.8-30.4-25.2-45.7c-2.2-4-5.4-8.5-9.9-8.2c-3.3,0.2-5.8,3-7.8,5.6
	c-43.2,55.4-55.5,128.6-60,198.8c5.3-0.2,8.7-5.4,11.3-10c21.6-37.9,45.7-74.3,72.2-109C991.1,3042.8,1002.7,3027.2,1000.9,3023.9"
	/>
<path class="st56" d="M894.6,3240c-22.3,75.1-31.2,154.3-26,232.5c30.9-7.5,57.4-27,82.6-46.4c55.9-42.8,110.8-86.9,164.7-132.1
	c4.8-4,9.9-8.6,11-14.8c0.9-5.2-1.3-10.4-3.5-15.2c-27.7-60.6-60-119.2-96.5-175C976.6,3140.4,910.8,3185.5,894.6,3240"/>
<path class="st56" d="M901.5,3544.7c73.2-74.4,160.8-132.6,247.8-190.3c5.8-3.9,14.1-7.6,19.2-2.8c1.7,1.6,2.6,3.8,3.4,6
	c43.8,112.6,87.7,225.3,131.5,337.9c-79.5,36.4-164.8,60.2-251.7,70c-9,1-18.2,1.9-27.2,0.6c-19.3-2.7-36.2-15.1-48.4-30.4
	c-12.2-15.2-20.3-33.3-28.3-51.1c-10.8-24-21.6-48.1-32.4-72.1C903.9,3586.8,890.2,3556.2,901.5,3544.7"/>
<path class="st56" d="M1586.6,3083.6c54.3-31.6,111.1-59,177-85.9c58.2-31.2,118.4-58.6,180.2-81.8c4.7-1.8,9.9-3.5,14.6-1.8
	c5.8,2.1,8.6,8.5,10.8,14.2c47.4,128.1,134.1,399.8,132.6,400.9c-73.3,47.8-191.2,81.9-274.1,109.7c-19.6,6.6-39.1,13.1-58.7,19.7
	c-6.9,2.3-14.6,4.6-21.3,1.9c-7.4-3-11.3-11.1-14.4-18.5c-37.6-88-75.3-175.9-112.9-263.9
	C1605.9,3144.4,1591.3,3109.8,1586.6,3083.6"/>
<path class="st56" d="M2052.1,2878.8c114.5-34.9,221.6-58.1,343.7-80.9c15.3,40.9,35.4,101.1,44.8,143.7
	c25.2,114.1,46.7,191.6,76.5,292.3c0.9,3-8.9-3.1-9.3,0c-1.2,10.2-20.2,16.2-30.4,17.4c-94.9,11-189,29.3-281.1,54.7
	c-6.8,1.9-14.3,3.7-20.7,0.7c-3.5-1.7-6.2-4.8-8.5-8c-9-12.4-13.6-27.4-17.7-42.1c-24.9-90-36.6-184.1-73.1-270.1
	C2061.1,2950.7,2041.2,2911.5,2052.1,2878.8"/>
<path class="st56" d="M2500.6,2758.3c125.6-35.9,257.3-43.5,387.8-50.8c13.3-0.8,27-1.5,39.7,2.6c21.8,7,36.9,26.6,49,46.1
	c46,74.2,69.6,162.1,66.7,249.4c-0.4,13.2-1.5,26.7-7.1,38.7c-4.9,10.5-12.9,19.2-21.1,27.4c-50.8,50.4-114.5,86.5-181.7,110.8
	c-67.2,24.3-138.2,37.2-209.2,45c-4.7,0.5-10,0.8-13.4-2.4c-2-1.9-2.9-4.7-3.8-7.3c-6.9-21.8-13.8-43.7-20.7-65.5
	c-10-31.7-20-63.4-29-95.4c-24.9-88.6-41.7-179.2-58.5-269.6c-1.4-7.3-2.7-15.1,0.1-22C2502,2758.3,2510.6,2753.2,2500.6,2758.3"/>
<path class="st57" d="M2909.1,3187.1c-15.9,7.3-32.9,11.5-48.7,19c-4.6,2-7.2,3.2-11.6,4.8c-70.3,24.2-141.4,45.9-211.9,69.6
	c-67.1,22.7-128.5,30-192.6,40.3c-39.1,8-77.2,19.8-115.9,29.3c-73.4,18.2-147.4,34.1-220,55.4c-32.7,9-63.8,22.3-96,32.7
	c-38.2,13.8-77.1,25.3-115.3,39c-23.4,7.5-44.4,20.5-66.6,30.8c-31.7,14-61.3,32.3-93.2,45.8c-25.4,12.5-41.8,16.2-70.4,30
	c-41.5,22.3-63.9,30.3-102.1,46.7c-25.9,11.5-49.8,27-74.7,40.4c-23.2,11.9-45.3,25.8-68.8,37.1c-24.3,11.9-36.9,14.7-63,27.4
	c-38.7,22.1-57.6,28.5-88.3,42.5c-16.4,9.2-30.3,15.3-49.3,17.9c-16.7,3.7-32.8,9.5-49.4,13.6c-14.4,3.5-28.4,8.6-42.9,12
	c5.5-0.2,11-0.7,16.5-1.4c23.1-2.9,47.1-5.2,69.6-9.2c11.4-1.6,23.2-1.2,34.3-4.5c26.3-8.8,41.7-16.7,69.5-25.7
	c22.9-10.3,34.3-15.5,58.4-27.6c14.6-5.9,48.7-19.1,71.6-31.5c31.1-18.1,63.4-33.9,94.2-52.7c25.4-15.3,55.7-26,71.5-33
	c18.2-6.6,60.5-28.6,66.9-31.3c25.2-10.4,56.3-22.5,93.8-41c26.9-14.1,54.4-27.2,81.5-40.9c30-17.3,49.6-24.1,83.9-35.7
	c66.7-18.2,118.9-41.8,180.5-60.1c84.7-24.2,170.9-42.9,256.1-65.3c81.4-25.6,153.3-27.2,236.5-50.7c52.4-15.6,105-31.3,156.6-49.5
	c37.8-13.6,75.5-27.6,110.1-48.2c36.3-16.1,68-40.2,97.9-66C2955.5,3161.3,2933.3,3176.2,2909.1,3187.1"/>
<path class="st58" d="M1640.9,2364.2C1640.8,2364.2,1640.8,2364.1,1640.9,2364.2"/>
<path class="st58" d="M1689.6,2398.9c-8.9-11-18.7-21.4-28.1-32.1c-6.6-6-12.1-17.1-22.4-15.7c-7.2,0.5-13.7,3.6-20.2,6.6
	c-14,6.2-27.9,12.6-41.2,20.2c-21.8,12-44.6,22.5-65.4,36.1c24.1-9.9,50.5-16.5,76.4-27.1c10.7-4.4,21.8-8.2,32.2-13.5
	c8.1-4.3,17.8-9.6,19.5-9.1c0.2,0,0.3,0,0.3,0c0,0,0,0,0.1,0c0,0,0,0-0.1,0c0.1,0-0.2-0.1-0.4-0.1c-0.6-0.2-0.4-0.4,1.1,0.4
	c-0.2-0.1-0.4-0.1-0.5-0.2c0.1,0,0.2,0.1,0.3,0.2c3.6,3,6.9,6.3,10.3,9.5c8.3,7.6,10.5,9,18.1,14.8c8.2,6,17.2,10.9,25.1,17.4
	C1693,2403.7,1691.3,2401.2,1689.6,2398.9"/>
<path class="st58" d="M1770.2,2318.8c-1.6-2-1.7-2.3-2.5-3.3c3.1-0.8,6.1-1.6,9.1-2.6c26.6-8.6,48.6-16.7,73.8-28.1
	c-29.7,6.2-60.1,9.8-88.6,20.5c-4.9,1.3-7.5,6.8-5.6,11.5c2.9,8.9,10,12.8,18,20.6c7.2,5.6,15.2,10.5,22.8,15.2
	c-0.9-1.1-1.7-2.1-2.6-3.2C1785.9,2339.7,1775.2,2325.1,1770.2,2318.8"/>
<path class="st58" d="M1224,2633.5c-1.1-0.2-5.6-4.2-12.1-2.6c-11.2,5.7-12.7,9.5-21.4,19.3c-14.6,16.6-26,33.8-37.9,56.6
	c-11.2,19.1-23.1,38-32.4,58.2c18.1-22.7,47.3-56,59.4-74.1c11-14.7,19.8-24.7,34-45.8c0.4-0.4,1.5-1.6,2.5-2.5c0,0,0.1,0,0.1,0
	c0.2,0.1,0.2,0.1,0.3,0.1c0.1,0.1,0.3,0.2,0.5,0.2c-0.1,0-0.2-0.1-0.2-0.1c0.5,0.3,1.7,1,0.7,0.3c-0.7-0.5-0.7-0.5,0.1,0.1
	c4,2.5,3.5,1.8,6.3,4.3c9,7.4,18.7,16.7,26.1,24.6C1243.1,2658.3,1235.9,2643.5,1224,2633.5"/>
<path class="st58" d="M1827.8,2611.2c-4.6-13.3-8-27.1-14.8-39.5c-7.3-11.8-5.2-7.9-13.9-19.5c-11.9-14.5-18.5-15.1-35.3-7.8
	c-21.4,8.5-40.3,21.5-59.4,34.2c-15.9,9.7-32.3,18.7-45.9,31.6c14.4-8.1,29-12.4,45.1-18.2c31-12.3,50.1-24.1,76.2-32.2
	c8.7,6.5,24.8,22.8,32.1,36.2c6.5,10.6,14.3,21.6,20.6,31.6C1831.2,2622,1829.7,2616.5,1827.8,2611.2"/>
<path class="st58" d="M2250.2,2452.5c-4.1-12.7-9.1-25.1-13.4-37.8c-3.8-10.7-9.2-24-21.7-26.3c-19.9-1.5-39.2,5.9-57.7,12.4
	c-24.2,8-49.1,16.8-70.2,31.3c24.3-7.7,50.3-9.9,75.4-14.5c18.6-3.8,37.2-8.8,49.6-9.3c0,0,0,0,0,0l0,0c0.6,0.5,1.2,0.9,1.7,1.5
	c0.2-0.1,1.5,1.7,4,6c8.3,16.1,18.2,31.2,27.8,46.6c4,6.9,9.1,14.4,13.6,20.3C2256,2472.8,2253.4,2462.6,2250.2,2452.5"/>
<path class="st58" d="M1987,3035.9c-1.9-9.2-4.6-18.2-7.3-27.2c-2.2-10.2-4.5-28.1-5-31.7c-1.9-15.9-3.7-34.2-15.5-46.2
	c-8.4-7.7-20.4-5.4-29.9-1.2c-41.1,17.6-79.5,40.7-115.4,67.3c41-16.7,109.3-38.9,131.1-48.8c0.1,0,0.3,0,0.4,0
	c1.6,1.4,0.8,0.5,3.9,6.1c3.7,4.9,11.7,38.3,21.5,58.1c6.1,9.9,12.1,20.3,17.8,30.3C1988,3040.4,1987.5,3038.1,1987,3035.9"/>
<path class="st58" d="M2425.7,2980.9c-2.3-19.1-3.3-33.6-6.9-52.1c-2.2-16.7-6.2-32.6-7.3-50.5c-0.7-21.1-2.2-44.4-17-60.9
	c-24.6-20.3-83.2,7-111.7,14.2c-20,5.4-39.8,11.3-59.2,18.8c-10.1,2.8-22.4,10-32.7,9.1c4.3,2.1,9.4,1,14,0.9
	c11.3-1,22.7-2,33.9-3.5c19.4-2,39.1-2.9,58.4-6.2c31.4-4.4,64.1-14.6,79.8-11.5c0.1,0.1,0.2,0.3,0.3,0.4c0.1,0.2,0.2,0.3,0.4,0.6
	c8.9,13,8.6,31.2,14.5,53.2c9.1,28.5,19.2,50.7,28.6,75.6c1.4,4.4,3.2,9,5.2,13C2425.8,2981.6,2425.7,2981.2,2425.7,2980.9"/>
<path class="st58" d="M3007,2893.7c-2.2-14.7-3.2-30.6-8.1-45.5c-10.2-26.1-16.2-53.6-27.8-79.2c-11.5-21.4-28.4-42.1-52.6-49
	c-17.8-3.6-36.3,1.1-54.2,2.2c-21.7,2.6-21.2,2.3-46.6,6.5c-20.6,4.5-41.4,10.1-62,12.9c37.6,3.8,75.6,1.6,113.3,3.8
	c17,1,36-0.8,43,1.8c0.8,0.4,1.7,0.8,2.5,1.2c2.1,0.5,7.9,4.4,10.5,6.1c13.3,12.2,16.2,15.9,24.2,27.5c10.6,17.7,18.1,37,28.8,54.6
	c11.6,17.6,18.9,32.6,25.3,49.4c1.3,3.1,2.7,6.2,4,9.2C3007.2,2894.6,3007.1,2894.2,3007,2893.7"/>
<path class="st58" d="M2424.3,2386.6c10.4-0.4,20.9-1.6,31.1-3.3c-0.8-0.1-1.6-0.3-2.4-0.4c-25.3-3.6-50.3-11.5-76-11.2
	c-10.9-0.6-21.8,0.8-31.5,6.1c-4.9,2.2-10.7,6.1-8.9,12.2c3,9,6.7,18,12.6,25.6c0.1,0.2,0.2,0.3,0.3,0.4c-0.1-0.1-0.1-0.1-0.1-0.2
	c9.2,9.8,15.5,19.5,22.4,32.4c-2.4-9.5-4.5-19.1-8.6-28c-3-6.3-5.9-11.2-7-15c-1.4-4.3-2.6-8.6-3.6-13c1.8-0.6,3.6-1.3,5.4-1.8
	C2372.9,2386.4,2402.3,2388,2424.3,2386.6"/>
<path class="st58" d="M2349.5,2416C2350.1,2416.8,2350.1,2416.8,2349.5,2416"/>
<path class="st58" d="M2168.9,2295.4c-5.4-7.9-13-13.8-20.2-19.9c-5.8-5.1-10.7-11.4-17.5-15.3c-7.3-3.7-15.7-2.8-23.6-3
	c-17.8,0.7-35.6,3.1-52.9,7.2c23.7,1.3,42.5,4.7,66.5,6.1c0.3,0,0.6,0.1,0.9,0.1c1,0.2,2,0.5,3,0.8c0.2,0.1,0.2,0.1,0.3,0.1
	c0,0,0,0,0.1,0c6.3,3.4,6.7,4.9,13.3,9.2c6.7,4.8,14.4,7.9,21.4,12.1c5.2,3,8.7,6.6,13.3,10.2
	C2171.9,2300.5,2170.5,2297.9,2168.9,2295.4"/>
<path class="st58" d="M1393.1,2926.6c-4.7-19-13.1-36.7-22.9-53.6c-7-11.1-13.2-22.6-19.4-34.1c-4-8.2-9.9-16.6-19.2-18.9
	c-5.9-1.4-11.2,2.1-15.5,5.7c-10.2,8.2-18.5,18.3-27.7,27.6c-6.7,6.5-12.4,14-19,20.7c-4.8,5-9.9,9.9-13.3,15.9
	c11.1-9.4,24.7-15.3,36.2-24.2c14.8-9.4,27.7-20.9,35.9-26c0.1,0.1,0.2,0.2,0.4,0.4c2.2,2.5,13.2,21.7,20.8,30.8
	c15,18.4,29.8,34,41.7,52.9c0.7,1,1.3,2.1,2,3.1C1393.2,2926.8,1393.2,2926.7,1393.1,2926.6"/>
<path class="st58" d="M926.9,3048.9c-3.3,13.8-3.9,25.3-6,39.7c4.5-10.9,8.5-22.2,12.3-33.6c5-11.7,13.7-32.5,18.4-52.5
	C941.9,3017,931.8,3032,926.9,3048.9"/>
<path class="st58" d="M1072.7,3196.3c-3.6-10-7-20.1-11.1-29.9c-2.9-5.5-6.5-10.7-8.8-16.5c-0.2-0.4,0.2,0.5,0.4,0.9
	c-3.2-7.1-9.8-27.1-20.1-36c-9.5-8.7-19.2-4.2-26.8,4.3c-18.1,17.1-34.7,35.4-49.2,54.4c18.8-13.4,38.2-25.9,56.7-39.7
	c4.4-3.6,6.6-5.4,7.9-6.3c1.1,0.9,2.6,2.4,4.5,4.6c4.8,7.6,19.6,32.7,28.8,41.1c5.9,8.7,12.3,17.3,18.7,25.5
	C1073.3,3198,1073,3197.1,1072.7,3196.3"/>
<path class="st58" d="M1562.3,3326.3c-9.9-27.6-15.9-56.2-22.4-84.7c-4.5-18.9-14.5-45.3-17.7-53.1c3,7.1-1.1-2.7-2.4-5.4
	c-0.2-0.4-0.3-0.8-0.5-1c-0.2-0.5-0.4-0.9-0.6-1.4c-7.8-18.8-24.8-27.6-42.4-14.3c-25.9,15.5-37.8,28-60.5,46.5
	c-7.1,6-31.5,21.2-42.1,32.8c16.1-9,31.5-13,48.7-21.2c21.2-10.6,53-30.7,69.1-37.3c0.1,0.2,0.2,0.3,0.3,0.5
	c5.7,12.5,17.1,40.5,24.8,59.1c11.3,31.4,22.6,58.5,45.7,91.9c2.5,3.5,5.8,8.4,7.9,11C1567.4,3341.8,1564.8,3334,1562.3,3326.3"/>
<path class="st58" d="M1214.9,3535.1c-5-22-12.1-43.5-16.9-65.5c-4.1-20.9-9.5-41.3-17.1-61.1c-7-16.2-19.1-47.2-41.5-36.2
	c-21.7,14.5-41.5,31.4-60.2,49.5c-8.4,8.5-18.2,16-24.9,26c9.8-8.1,21.9-12.9,32.7-19.6c19.6-11.5,39.3-22.7,59.5-33.2
	c0.3,0.5,0.6,0.9,0.7,1.3c3.8,6.4,15.6,39.7,30.6,82.6c9.6,25,22.6,48.6,35,72.4c3.5,6.3,7.2,12.6,11,18.5
	C1220.4,3558.3,1217.6,3546.7,1214.9,3535.1"/>
<path class="st59" d="M3030.8,3085.6c-7.5,16.9-21.1,30.2-35.1,42.3c-70.8,61.1-157.6,100.5-245.6,131.8
	c-249.2,88.7-516.2,118.7-765.6,206.9c-173.1,61.2-335.1,149.5-498.3,233.6c-126.3,65-261.6,129.3-403.3,119.3
	c116.6-54.6,217.3-137.4,323.4-210.4c145-99.8,301.9-182.3,466.3-245.3c71.6-27.4,144.6-51.1,217.9-73.8c3.8,12,9.4,30,10.1,33
	c1,4.5,1.8,7.4,3,9.8c1.3,2.4,3.4,5,5.5,27.2c2.1,22.3,3.5,37.5,8.8,42.8l6.5-2c0,0,5.7-14,26.1-44.5s24.9-37,28.4-47.8
	c-10.3-6-14.5-12.5-18.6-21.5c-2.9-6.2-5.2-12.9-6.4-16.4c110.3-33.6,220.7-66.8,327.9-108.8c4.5-1.8,9-3.6,13.6-5.4
	c7.9,25.7,20.4,67.1,20.1,71.4c-0.3,6.2-1.5,10.7,0,14.1s18.9,62.9,18.9,62.9l11-0.9c0,0,59.8-61.8,67.7-77.7
	c-4.6-4.3-7-15.9-11.7-28c-3.5-9.1-17.5-54.8-24.3-77c164.1-76,316.6-180.6,417.2-329.3c34.2,71.4,39.5,151,43.6,226.8
	C3038.9,3041.3,3040,3064.9,3030.8,3085.6z"/>
<g>
	<g>
		<defs>
			<path id="SVGID_115_" d="M2064.3,2205.6"/>
		</defs>
		<clipPath id="SVGID_116_">
			<use xlink:href="#SVGID_115_"  style="overflow:visible;"/>
		</clipPath>
	</g>
</g>
<path class="st60" d="M3103.3,1593c-0.6-0.5-1.2-1-0.6-0.5c0,0-1.5,0-1.5,0c0,0,0,0,0,0c0,0,2.8-2.1,2.8-2.2
	c-0.3-0.3-13.1-0.1-13.7,2.4c-0.6,2.7,6.6,4.5,8.2,6.2c1,0.9,1.9,1.7,2.8,2.4c12.5,15.9,23.5,33.8,32.2,52.5
	c1.3,2.9,0.8,1.5,2.5,6.1c0.3,3.8,2.8,7.1,6.4,8.1c5.5,1.3,18.7-4,20.3-12.7C3141.6,1611,3112.4,1595.4,3103.3,1593"/>
<path class="st60" d="M875,1410.3c69.6-56.3,141.2-113.3,225.4-143.7c122.1-44,264.5-29.9,373.9-99.7
	c103.6-66.1,168.4-202,290.4-217.1c50.7-6.3,101,10.8,150.7,23c118.5,29.1,243.8,30.5,362.9,4c107.5-23.8,211.4-70.1,321.5-71.4
	c124.4-1.5,248.1,59,323.3,158.1c37.4,49.3,62.9,106.6,85.7,164.1c48.9,123.1,87.6,250.3,115.6,379.8
	c-196.4-119.5-352.8-310.2-572.1-379.1c-139.8-43.9-290.7-32.9-435.4-10c-178.2,28.1-353.7,73.6-523.1,135.5
	c-160.8,58.8-316.5,132.4-481.7,177.3c-100.5,27.3-210.2,43.1-306.9,4.4c-13.8-5.5-29.3-15.5-28.3-30.3c0.6-9.2,7.7-16.6,14.5-22.9
	C838.2,1438.5,891.5,1401.8,875,1410.3"/>
<path class="st1" d="M3109.1,1613.3c-101.9-84.8-216.2-154.8-338.2-207c-114.9-49.1-237.3-82.7-362.1-88.5
	c-365.3-17.1-698.3,198.8-1056.8,271.2c-322.8,65.1-668.6,8.5-953.8-156.1c186.5,41.3,382.5,4.5,561.7-61.7
	c88.7-32.8,178.3-8.8,263.3-50.3c86.7-42.3,168.7-150.1,256.4-190.3c143.1-65.7,258.1-34.8,409-79.8
	c100.6-30,236.9-141.9,341.9-139.7c102.2,2.2,202.3,30.6,296.5,70.2C2809.2,1100,3056.1,1342.9,3109.1,1613.3"/>
<path class="st60" d="M2956.4,1449.2c-24.8-18.9-50.8-36.2-77.5-52.1c-16.5-24.2-34.2-47-52.7-69c-24-28.8-48.7-57-76.7-81.9
	c-53.8-47.9-115.1-86.5-177.8-121.6c-86.4-48-174.2-97.2-270.8-121.4c-39.8-10.1-76.6-17.4-116.6-24.8
	c53.1,19.8,100.6,37.5,154,59.1c103.8,42.9,254.4,119.6,362.8,199c28.7,21,71,61,103.3,93.4c18.8,18.5,37.7,37,55.8,56.1
	c-32.9-18.6-66.8-35.2-101.4-50.3c-42-17.1-83.8-35.8-127.9-46.7c-21.8-5.2-43-9.5-64-13.2c-16.3-10.3-33.5-19.5-50.4-28.8
	c-50-26.9-103.1-48.1-158.5-61c-92.2-23.2-188.2-22.4-282.7-22.1c-44.5,0.2-88.7,6.8-133.1,9.1c-43.8,3-87.8,1.5-131.5-2.5
	c-65.8-6.3-131.9-10.1-198-10.6c-13.1-0.2-26.8-0.5-39.4-0.6c2.9,0.5,5.8,1,8.6,1.5c88,15.2,176,32.4,265.4,36.7
	c62.9,4.2,125.7-3.4,188.4-8.2c60.9-2.7,122.1-3.1,183-0.4c85,3.1,163.4,22.2,247.6,53.5c26.6,10.1,52.4,19.3,77.6,30
	c-57.2-8.5-113.6-11.9-176.8-12.7c-39.6-0.8-95,8.1-122.8,11.9c-32.7,4.3-65.5,7.9-98.1,13.3c-32-6.8-64.4-12.4-96.8-16.4
	c-44-4.4-88.4-2.4-132.3,1.9c-64.1,7.6-126.5,24.6-190.3,34.5c-34.4,5.4-53,9.4-88.8,10.6c-65.6,1.3-131-6.1-196.5-6.1
	c-32,0-72.2,0.5-99.8,1.8c24.7,3.5,49.3,7.2,73.9,10.8c72,10.5,142.9,21.1,221.1,18.7c42.3-1.8,74.6-8.7,120.4-16.9
	c62.2-11.2,125.2-29,180.1-33.3c39.9-3.1,79.9-5.8,119.9-4.5c21,1.1,42,2.3,62.9,3.8c-3.1,0.6-6.2,1.2-9.3,1.9
	c-108.3,24-214.4,56.9-319,93.7c-54.3,17.5-109,34.1-162.4,54.3c-8.8,3.1-17.6,6.3-26.3,9.5c-6.8,0.9-13.5,1.9-20.2,2.8
	c-45.7,6.2-105.6,11.9-157.2,17.5c-42.9,4-86.4,7.2-129.4,2c-35.9-3.8-107.2-22.9-154.1-35.3c-43.6-11.7-87.7-21.4-131.8-31
	c-2.3-0.5-4.4-1-6.4-1.4c0.2,0.1,0.5,0.2,0.7,0.3c33.6,13.8,67.3,27.7,101.3,40.7c67.4,26.4,137.6,48,210.2,52.9
	c38.9,2,77.8-1.4,116.4-5.6c28.9-3.1,65.2-8.8,101.4-16.3c-57.8,22.5-115.9,44.2-177,55.8c-66.2,12.6-141.3,16.3-216.4,17.1
	c15.7-2.7,31.3-6.7,46.4-11.9c-69.5,10.8-130.2-1.4-197.8-18c-48.7-12.3-97.5-24.1-146.6-34.7c-11-2.4-23.2-5.1-33.5-7.2
	c11.1,4.8,22.2,9.5,33.3,14.2c53.3,21.7,107.2,43.8,163.8,55.5c4,0.7,7.9,1.4,11.9,2c-49.3-0.3-98.6-1.3-147.7-4.2
	c-43.7-3.9-73.7-10.2-120.7-15.8c-55.7-6.7-111.7-9.7-167.7-12.4c-5-0.2-10-0.5-15-0.7c0.7,0.1,1.4,0.3,2,0.4
	c71.7,15.4,143.3,31.6,215.8,42.9c91.2,16.1,184.1,14.8,276.4,14.3c100.4,0.1,201.3-1.2,300.5-18.3c93.6-16.9,180.2-58.1,269.8-88.7
	c55.8-21,112.8-38.4,169.5-56.7c107.4-37.8,216-72.5,327.5-95.9c43.8-8.9,75.2-11.4,122.2-17.7c48.3-6.9,82.7-12,134.1-11.2
	c43.1,0.8,86.1,5,129,9c51.3,5.3,103.2,13.2,158.3,33.3c85.4,30.1,160.7,67.8,241.6,118c26.1,15.5,52.3,30.9,77.6,47.8
	c20.4,13.7,41.4,28.4,55.1,49.3C3026.9,1502.1,2989.9,1475.5,2956.4,1449.2"/>
<path class="st61" d="M2848.1,1410.8c-39.9-19.5-81.6-34.8-123.6-49.3c-51.8-19.6-103.7-39.3-158-50.7
	c-76.5-16.5-155-22.6-233.2-24.4c-82.2,0.1-163.9,16.4-243.5,36.1c-73.2,16.2-143.9,40.9-215.1,64.2c-95.5,29.6-188.3,67-283,98.9
	c-72.3,23-141.6,54.8-215.7,72.1c-83.3,16.5-151.5,26.2-235.4,30.2c-44.4,1.6-88.8-1-133.1-4.1c-41.6-1.7-82.9-5.9-124.2-10.7
	c-54.4-4.2-99.2-11-153.8-21.7c27.6,10.6,55.3,21.3,83.8,29.4c33.4,8.8,67.5,14.5,101.5,20.3c32.4,6,65.3,6.3,98.1,8.6
	c39.3,2.5,78.6,5.1,118,3.6c50.1-1.3,99.9-7.6,149.4-15c38.6-5.5,77.4-11,115.1-21.1c50.3-12.9,98.7-32.1,147.5-49.6
	c68.8-23.5,137.9-46.5,206-72c59-21.4,119.2-39.6,178.8-59.3c59.9-21.4,121.1-38.1,182.9-52.8c66-15.7,124.1-26.3,185.4-30.7
	c88.5-2.9,174.6,5.3,253.6,20.2c81.7,16.3,163,50,241.4,79.5c28,9.9,71.1,34.4,105.9,54.5c55.5,28.8,110.8,58.4,168.1,83.6
	C2994.1,1501.8,2924.1,1451.2,2848.1,1410.8"/>
<rect x="729.5" y="1286.4" class="st3" width="2335.3" height="327.2"/>
<g>
	<g>
		<defs>
			<rect id="SVGID_117_" x="2213.2" y="972" width="660.5" height="415.2"/>
		</defs>
		<clipPath id="SVGID_118_">
			<use xlink:href="#SVGID_117_"  style="overflow:visible;"/>
		</clipPath>
		<path class="st62" d="M2737.3,1212.7c-47.6-37-96.8-72.5-150.4-100.4c-51.1-29.7-102.8-58.3-157.3-81.2
			c-33.6-13.7-68.5-24-103.2-34.7c-36.2-11.7-73.5-19.7-111.3-24.1c-6.2-1.1,5,2,6.8,2.7c49.7,15.8,92.9,36.8,134,53.7
			c74.5,28.7,135.7,56.7,213.5,103c68.4,36.5,130.6,80.8,182.8,126.7c44.7,38.6,87.5,80.2,121.4,128.8
			C2841.8,1319.9,2793.3,1261.4,2737.3,1212.7"/>
	</g>
</g>
<path class="st63" d="M2484.6,1219.5c-49.3-29-102.7-52.7-158.6-65.6c-70.4-14.3-142.5-14-214-13.1c-95.2-0.7-190.3,9.7-285.5,6.2
	c-41.9-3-83.7-6.5-125.5-10c-16.7-2.9-56.9-9.3-80.9-13.5c2.5,0.9,5,1.9,7.5,2.8c39.8,14.9,79.9,29.3,122.3,34.6
	c42.6,8.6,85.9,14,129.4,12.4c86.3-1.8,172.4-7.9,258.7-7.1c66.1-1,127.1,1,184.4,13c57,14.6,115.2,37.4,163.2,57.5
	c27.8,11.4,50.5,19.5,78.3,35.3C2540,1251.1,2512,1235.4,2484.6,1219.5"/>
<rect x="1620" y="1123.5" class="st3" width="943.9" height="148.5"/>
<path class="st63" d="M2094.1,1264.2c-39.1-11.6-79.8-18.3-120.4-21.6c-68.4-2.6-136.3,11-202.6,26.7
	c-60.7,13.7-105.5,18.2-166.5,22.2c-31.1,2.2-62.2,4.6-93.4,3.1c-34.1-1.8-68.1-3.9-102.2-6.6c1.7,0.4,3.5,0.9,5.2,1.3
	c40.6,10.2,81.2,21.4,122.9,25.4c70.2,5.8,140.7-2.4,209.8-14.4c48.7-10.1,96.9-22.9,146.5-28.7c14.9-2.2,57.8-5.5,84.6-5.9
	c28.4,0.4,56.7,1.9,85,3.7c14.6,1,29,3.1,43.5,4.4c11.7,1.2,23,2.4,34.2,7.1C2126.5,1272.3,2109.9,1269.1,2094.1,1264.2"/>
<rect x="1409" y="1242.3" class="st3" width="731.8" height="74.5"/>
<path class="st63" d="M1737.6,1387.9c0.2,5-9.2,7.5-12.8,9.8c-14.5,7.4-29.9,12.1-46,16.1c-61.4,16.8-118.3,18.4-185,24.5
	c-59.5,3.8-119,12.3-178.7,8.9c-57.3-2.4-106.4-14.4-167.6-27.6c-49.3-11.7-99.7-17.9-150.1-22c-2.2-0.1-9.2-1.1-4.1,0
	c39.8,10.6,79.4,21.9,118.7,34.2c58.6,19.3,118.8,34.2,180.4,39.3c49,4.5,98.3,1.6,147.2-3c83.4-7.3,170-8.6,247-45.2
	c16.8-7.4,32.8-16.4,47-28C1735.4,1393,1738.7,1391,1737.6,1387.9"/>
<rect x="991.4" y="1387.9" class="st3" width="746.4" height="85.6"/>
<path class="st61" d="M1781.2,1068.3c-32-0.8-64.1-1.4-95.9,2.5c-75.6,7.4-151.4,28.5-217,67.4c-58.5,36.2-106.8,85.8-161.4,127.1
	c-20.9,16-50.3,40.2-82,56.3c-7.5,3.9-36.5,13.4-55.2,17.5c-55.2,15-102.2,12-161.9,25.6c-36.4,7.7-70.3,23.5-106.1,33.2
	c-74.9,18.6-150.6,34.9-227,45.9c-22.1,2.4-63.2,9.2-96.1,9.1c-45.9-2.4-91.7,3.8-137.1,9.7c-4.2,0.7-9.1,1.1-12.1,1.7
	c5.4,0.3,10.7,0.6,16.1,0.9c32,1.9,64,2.8,96,5.1c19.9,1.7,39.8,5.8,59.9,5.4c45.1-1.6,89.7-7.7,134-15.7c2.4,0.7,4.8,1.4,7.3,2.1
	c66.1,19.7,132.9,36.9,200,52.5c44.1,11.4,87.5,26.3,133,31.1c33,3.8,66.5,5.3,99.6,2.1c35.1-4.3,64.7-8.9,100.4-12.4
	c-36.8-3.4-73.6-3.4-110.5-4.4c-37-2.2-63.1-6.2-94.2-11.1c-47.6-7.1-93-23.4-139.8-34.3c-57.8-12.4-116.3-21.4-174.9-28.7
	c-0.8-0.1-1.6-0.2-2.5-0.3c42.8-8.3,85.4-18,128-27.1c43.6-9.2,84.2-28.2,127.3-38.8c53.5-13.7,105.7-10.9,165.2-26.4
	c22.6-5.5,45.3-11.7,66.2-22c32.3-17.1,60.7-40.6,89.5-62.9c55.3-42.4,96.2-85.4,151.3-119.2c108.5-65.6,246-69,373.6-90.8
	C1830.4,1067.7,1805.8,1068.4,1781.2,1068.3"/>
<rect x="429.4" y="1067.7" class="st3" width="1425.5" height="481.7"/>
<path class="st61" d="M2882.6,1217.8c-37.3-42.9-84.9-75.5-105.7-92.3c-56.6-44.7-142.8-106.3-220.6-139.2
	c-66.5-29.2-136.8-48.5-207.6-64c-56.7-10.1-117.2-24.7-173.4-4.9c-43,15.3-109,52.8-132.8,71.7c51.9-20.4,118.7-49.5,163.7-55.2
	c66.8-4.5,123.1,9.7,191.7,26.4c104.8,25.7,190.9,61.6,279.6,124.3c41.8,27,66.8,48.8,106.2,76.4c54.3,36.4,93.3,62,139,111.1
	C2911.2,1251.4,2896.4,1235.6,2882.6,1217.8"/>
<rect x="2042.5" y="907.6" class="st3" width="880.1" height="364.4"/>
<path class="st64" d="M1611.2,1829.8c-94.6,94-190.2,188.8-303.3,259.6c-106.3,66.5-225.4,110-346.3,143.4
	c32.7,12.7,69.3,7.5,103.7,0.7c119.5-23.6,238.3-65.3,332-143.1c65.1-54.1,115.5-123.5,165.2-192.1
	C1579.9,1874.2,1597.3,1850.2,1611.2,1829.8"/>
<path class="st63" d="M3654.3,1675.7c-14.1,23.4-31,44.9-47.1,67c-29.6,40.1-49.6,68.2-95.9,109.5c-48.5,40.8-94.8,72.8-150.4,119.2
	c-30.3,27-57.7,57.4-83.4,88.7c-25.8,31.8-43.7,69-62.5,105.2c1.6-2.2,3.1-4.4,4.7-6.5c24.7-34,41.3-56.4,62.1-81.9
	c36.2-40.6,75.6-78.8,118.5-112.3c35.4-29.3,84.3-61.6,131.7-103.5c53.4-48.9,96.3-108.8,128.9-173.2c11.5-25.1,18.2-52,27.5-77.9
	C3676.8,1631.7,3666.4,1654.2,3654.3,1675.7"/>
<rect x="3215" y="1609.9" class="st3" width="473.5" height="555.3"/>
<path class="st63" d="M3685.9,1816.5c-11.8-15.5-23.5-31.9-39.2-43.7c13.9,16.6,27.6,47.1,33.9,61.1c16,46.9,16.6,85.1,21.7,133.6
	c1,10.3,2.2,21.4,3.4,31.2c1.2-8.1,2.3-16.2,3.3-24.3C3716,1921.5,3719.4,1861.5,3685.9,1816.5"/>
<rect x="3646.6" y="1772.8" class="st3" width="67" height="225.9"/>
<path class="st63" d="M3901.3,1808.5c-10.3-38.8-22.1-80.8-55.2-106.4c-18.2-15-39.4-25.7-60.3-36.4c-17.1-10-35-19.5-55-21.5
	c27.5,10,50.7,35.1,70,47.9c11.8,8.8,35.1,24.3,51,42.8c10.4,11.5,28,42.9,38.9,64c5.5,10,11.5,20.9,16.6,30.5
	C3905.2,1822.5,3903.2,1815.5,3901.3,1808.5"/>
<rect x="3730.8" y="1644.2" class="st3" width="176.4" height="185.2"/>
<path class="st63" d="M3518.6,1683.1c-27.5,7.9-56.1,14.5-81.2,28.7c-28.3,17.7-53.6,41.3-72.5,68.8c22.4-22.6,50-39.1,78.6-55.3
	c25.2-13.1,50.3-22,78.1-38c5.4-3,11.2-6.1,16.4-9.1C3531.5,1679.7,3525.1,1681.4,3518.6,1683.1"/>
<rect x="3364.9" y="1678.2" class="st3" width="173" height="102.4"/>
<path class="st63" d="M3517.7,1793.8c-46.1-1.9-88.6,17.6-128.9,37.8c-52.5,27.5-103.2,59.7-148,98.7
	c51.3-29.8,105.7-53.8,157.5-82.7c39.1-21.1,71.7-40.7,113.9-49.2c6.2-1.5,14.1-3.1,19.3-4.3
	C3526.9,1793.9,3522.3,1793.8,3517.7,1793.8"/>
<rect x="3240.8" y="1793.7" class="st3" width="290.7" height="136.6"/>
<path class="st63" d="M3237.1,2046.5c11.9-8.4,23.7-12.6,35.2-17.7c9.3-3.7,30.6-13.6,45.3-21.2
	C3288.2,2012.8,3256,2021.5,3237.1,2046.5"/>
<rect x="3237.1" y="2007.7" class="st3" width="80.6" height="38.9"/>
<path class="st63" d="M3577.2,1874.2c6.2,44.4,1.2,80.7-11.3,122.7c-11.3,43.9-26.8,86.4-42.9,128.8c-4.1,11.5-8.8,24.2-12.4,35.1
	c3.8-5.8,7.6-11.7,11.4-17.6c23.2-36.6,46.1-74.3,57.8-116.5c6.9-26.5,12.4-53.8,12.3-81.3C3591.6,1921,3585.8,1897,3577.2,1874.2"
	/>
<rect x="3510.6" y="1874.2" class="st3" width="81.5" height="286.6"/>
<path class="st63" d="M3373.6,2068.2c-24.3,39.9-52.3,78.2-70.8,121.3c-15.8,38.3-15,81-16.8,121.8c-0.2,5.9-0.3,12.2-0.5,17.8
	c1.7-7.8,3.4-15.6,5.2-23.4c9-35.8,17.7-78.3,30.6-104.2c21.3-39.6,42.7-74.6,60.6-116.5c14-30.7,28.6-60.2,35.4-95.5
	C3407.5,2017.8,3389.7,2042.9,3373.6,2068.2"/>
<rect x="3285.5" y="1989.4" class="st3" width="131.9" height="339.7"/>
<path class="st63" d="M3233.7,2224.9c-9.2,39.5-12.7,71-16,109.4c-3.2,30.3-4.7,60.9-0.9,91.1c0.1,1.2,0.3,2.4,0.4,3.4
	c0.1-1.1,0.3-2.3,0.4-3.4c4.3-31.9,13.6-64,17.1-96.4C3237.9,2294.3,3233.9,2259.5,3233.7,2224.9"/>
<rect x="3214.6" y="2224.9" class="st3" width="21.4" height="203.9"/>
<path class="st63" d="M3172.6,2503c-4.2-34.9-3.1-70.2-2.5-105.3c-0.5-25.6,2-58.8,5.2-80.2c1.6-10.3,2.7-25.3,7.3-37.9
	c-12.7,24.7-21.1,51.8-27.5,78.8c-9.1,53.9-3.3,110.6,18.4,160.9c0.7,1.7,1.4,3.5,2.1,5.1c0-0.1,0-0.3-0.1-0.4
	C3174.2,2515.8,3173.5,2510.4,3172.6,2503"/>
<rect x="3150.9" y="2279.6" class="st3" width="31.7" height="244.8"/>
</svg>
