<?xml version="1.0" encoding="utf-8"?>
<!-- Generator: Adobe Illustrator 25.2.0, SVG Export Plug-In . SVG Version: 6.00 Build 0)  -->
<svg version="1.1" xmlns="http://www.w3.org/2000/svg" xmlns:xlink="http://www.w3.org/1999/xlink" x="0px" y="0px"
	 viewBox="0 0 1122 1122" style="enable-background:new 0 0 1122 1122;" xml:space="preserve">
<style type="text/css">
	.st0{fill:#FD9027;}
	.st1{opacity:0.15;fill:#FFFFFF;}
	.st2{opacity:0.26;fill:#CC681D;}
	.st3{fill:#768439;}
	.st4{fill:#7E912F;}
	.st5{fill:#6A7733;}
	.st6{opacity:0.4;fill:#BC5B19;}
	.st7{fill:#849A31;}
</style>
<g id="Bg">
</g>
<g id="Object">
	<g>
		<path class="st0" d="M372.4,371.2c-73.9,69.9-113.6,175.8-98.9,276.4S358.9,840,454.3,875.4c34.6,12.8,71.6,18.4,108.5,20.8
			c118.4,7.7,280.5-17.7,330.3-142.3c22.9-57.2,39.8-117.7,39.5-179.3c-0.9-142.9-132.8-306.2-284-304.2
			C548.9,271.7,445.9,301.7,372.4,371.2z"/>
		<path class="st1" d="M638.8,364c-8.5,33.5,18.2,64.3,38.8,92.1c24.3,32.8,42.3,70.2,52.8,109.6c4.5,16.9,8.6,35.6,22.5,46.2
			c21.6,16.4,53.5,3,72.9-16c42.5-41.8,56.6-109.6,35.1-165.2C838.3,372.1,668,248.7,638.8,364z"/>
		<path class="st2" d="M433,748.1c22.4,21.2,42.7,46.1,71.5,56.7c15,5.5,31.2,6.7,47.2,7.8c21.9,1.5,43.9,3.1,65.8,4.6
			c7.1,0.5,14.9,1.3,19.9,6.4c4.9,5,5.5,13,3.5,19.7c-14.2,45.5-117.1,26.1-149.8,18.7c-38.7-8.7-77.1-24.9-106.9-51.7
			c-20.6-18.6-55-76.8-5.9-87.2c18-3.8,35.6,7.6,49.3,19.9C429.4,744.7,431.2,746.4,433,748.1z"/>
		<path class="st2" d="M543.9,340.1c-8.7-0.1-17.4-0.8-26.1-1.5c-4.1-0.3-8.4-0.7-12.2-2.2c-7-2.7-10.2-7.4-5.9-14
			c4.9-7.6,15.1-9.7,24.1-9.4c9,0.3,18.1,2.4,27,0.8c9.5-1.8,17.7-7.8,26.7-11.3c9-3.5,20.7-4,26.9,3.5
			c18.9,22.8-27.6,32.1-41.4,33.5C556.5,340.1,550.2,340.2,543.9,340.1z"/>
		<path class="st3" d="M529.9,228.4c-0.4-1.9-0.8-3.8-1.1-5.8c-0.3-2.2-0.3-4.7,1.1-6.5c2.6-3.6,13.6-2.6,17.3-2.4
			c2.7,0.1,5.5,0.8,8.1,1.4c2.7,19.9,4,39.4,8.5,59.3c4.4,19.3,9.1,38.5,10.6,58.3c-0.1-1.6-21.7,3.8-23.9,3.6
			c-12.4-1.3-18.3-19.3-25.4-29c-3.3-4.5-6.7-8.9-11.1-12.3c-8.2-6.5-18.7-9.2-28.2-13.5c-1-0.5-2.1-1-2.5-2c-0.7-1.4,0.1-3,1.1-4.1
			c4.3-4.9,19.4-7.3,25.1-4.9c5.2,2.2,9.2,6.5,13.1,10.6c4.7,5,10.6,14,16.8,16.2c3.8-11.6-3.7-27.3-5.7-39
			C531.9,248.3,532.2,238.5,529.9,228.4z"/>
		<path class="st4" d="M424.6,312.1c-89.9-2.7-177.9-45.8-235.2-115.2c58.1,10.5,117.8,6.7,176.6,11.3c51,4.1,104.7,15.4,146.4,46.6
			C573.7,300.6,457.3,313.1,424.6,312.1z"/>
		<g>
			<path class="st5" d="M533.7,217.9c0.1,0,0.2,0,0.3,0.1c0.2-0.3,0.4-0.6,0.6-0.9L533.7,217.9z"/>
			<path class="st5" d="M548.8,218.5c-2.3-1.1-5-0.9-7.5-0.5c-2.4,0.4-5,0.8-7.3,0c-0.5,0.7-0.9,1.3-1.4,2
				c2.2,6.4,10.7,9.8,16.6,6.5c0.8-0.4,1.5-0.9,2-1.6C552.6,222.7,551.1,219.6,548.8,218.5z"/>
		</g>
		<path class="st0" d="M578.9,315.9c7.4-4.6,14.6-10.1,23.2-11.3c2.1-0.3,4.4-0.3,6.3,0.7c2.6,1.4,3.9,4.6,4,7.6
			c0.4,9.6-8.6,16.9-17.2,21.3c-10.7,5.6-22.2,9.6-34.2,10.7c-17.5,1.6-34.9-3.2-51.8-7.8c-2.2-0.6-4.2-1.2-5.8-2.7
			c5.9-1.2,13.2,0.2,19.5-0.3c6.5-0.5,13-1.5,19.4-3C555.2,328,567.6,322.9,578.9,315.9z"/>
		<path class="st6" d="M578.9,315.9c7.4-4.6,14.6-10.1,23.2-11.3c2.1-0.3,4.4-0.3,6.3,0.7c2.6,1.4,3.9,4.6,4,7.6
			c0.4,9.6-8.6,16.9-17.2,21.3c-10.7,5.6-22.2,9.6-34.2,10.7c-17.5,1.6-34.9-3.2-51.8-7.8c-2.2-0.6-4.2-1.2-5.8-2.7
			c5.9-1.2,13.2,0.2,19.5-0.3c6.5-0.5,13-1.5,19.4-3C555.2,328,567.6,322.9,578.9,315.9z"/>
		<path class="st7" d="M529.6,275.6c-1.4-6-6.6-12.9-17.1-20.7c-41.7-31.2-95.5-42.5-146.4-46.6c-58.9-4.7-118.5-0.8-176.6-11.3
			c57.2,21.8,113.6,38.2,174.4,45.1c21,2.4,42.3,3,62.7,8.1C461.9,258.9,493.4,277.3,529.6,275.6z"/>
	</g>
</g>
</svg>
