<?xml version="1.0" encoding="utf-8"?>
<!-- Generator: Adobe Illustrator 25.2.0, SVG Export Plug-In . SVG Version: 6.00 Build 0)  -->
<svg version="1.1" id="Layer_1" xmlns="http://www.w3.org/2000/svg" xmlns:xlink="http://www.w3.org/1999/xlink" x="0px" y="0px"
	 viewBox="0 0 325.7 216.4" style="enable-background:new 0 0 325.7 216.4;" xml:space="preserve">
<style type="text/css">
	.st0{fill:#302F2F;}
	.st1{fill:#B5B7B5;}
	.st2{opacity:0.5;fill:#302F2F;}
	.st3{fill:#4F4E4D;}
	.st4{fill:#010000;}
	.st5{fill:#FEC900;}
	.st6{fill:#FDD400;}
	.st7{opacity:0.43;fill:#302F2F;}
	.st8{fill:#2E2C2B;}
	.st9{fill:#FBA900;}
	.st10{fill:#4F7DA5;}
	.st11{fill:#555656;}
	.st12{opacity:0.44;fill:#555656;}
	.st13{fill:#FB7100;}
	.st14{opacity:0.56;}
	.st15{fill:#FB8C00;}
	.st16{fill:#FFF189;}
</style>
<g>
	<g>
		<g>
			<path class="st0" d="M35.5,85.6H24.9c-1.7,0-3.1-1.4-3.1-3.1V53.1c0-1.7,1.4-3.1,3.1-3.1h10.6c1.7,0,3.1,1.4,3.1,3.1v29.3
				C38.6,84.2,37.2,85.6,35.5,85.6z"/>
			<path d="M35.5,86H24.9c-2,0-3.6-1.6-3.6-3.6V53.1c0-2,1.6-3.6,3.6-3.6h10.6c2,0,3.6,1.6,3.6,3.6v29.3C39.1,84.4,37.5,86,35.5,86z
				 M24.9,50.5c-1.4,0-2.6,1.2-2.6,2.6v29.3c0,1.4,1.2,2.6,2.6,2.6h10.6c1.4,0,2.6-1.2,2.6-2.6V53.1c0-1.4-1.2-2.6-2.6-2.6H24.9z"/>
		</g>
		<g>
			<path class="st1" d="M35.5,50h-2.8v35.5h2.8c1.7,0,3.1-1.4,3.1-3.1V53.1C38.6,51.4,37.2,50,35.5,50z"/>
			<path d="M35.5,86h-2.8c-0.3,0-0.5-0.2-0.5-0.5V50c0-0.3,0.2-0.5,0.5-0.5h2.8c2,0,3.6,1.6,3.6,3.6v29.3C39.1,84.4,37.5,86,35.5,86
				z M33.2,85.1h2.3c1.4,0,2.6-1.2,2.6-2.6V53.1c0-1.4-1.2-2.6-2.6-2.6h-2.3V85.1z"/>
		</g>
		<g>
			<path class="st0" d="M31.8,50h-1.9v-6.6c0-2.4,0.9-3.2,3.2-3.2h3.7v1.9h-3.7c-1.3,0-1.3,0-1.3,1.3V50z"/>
			<path d="M31.8,50.5h-1.9c-0.3,0-0.5-0.2-0.5-0.5v-6.6c0-2.7,1.1-3.7,3.7-3.7h3.7c0.3,0,0.5,0.2,0.5,0.5v1.9
				c0,0.3-0.2,0.5-0.5,0.5h-3.7c-0.4,0-0.7,0-0.8,0c0,0,0,0.4,0,0.8V50C32.2,50.3,32,50.5,31.8,50.5z M30.3,49.5h1v-6.1
				c0-1.6,0.2-1.8,1.8-1.8h3.2v-1h-3.2c-2.1,0-2.8,0.6-2.8,2.8V49.5z"/>
		</g>
		<path class="st2" d="M35.5,50h-0.2c0,1.7,0.1,3.3,0.1,5c0,2.5,0,5.1-0.3,7.6c-0.4,3-1.5,5.8-3.3,8.2c-1.7,2.2-3.9,3.8-6.4,5
			c-1.2,0.6-2.4,1.1-3.6,1.5v5.2c0,1.7,1.4,3.1,3.1,3.1h10.6c1.7,0,3.1-1.4,3.1-3.1V53.1C38.6,51.4,37.2,50,35.5,50z"/>
	</g>
	<g>
		<g>
			<path class="st0" d="M294.3,132.7h-21.7c0,0-0.9-25,11-25S295.7,124.8,294.3,132.7z"/>
			<path d="M294.3,133.2h-21.7c-0.3,0-0.5-0.2-0.5-0.5c0-0.7-0.5-16.6,5.6-23c1.6-1.7,3.6-2.6,5.9-2.6c3.2,0,5.8,1.2,7.7,3.5
				c4.8,5.7,4.4,16.6,3.4,22.1C294.8,133.1,294.6,133.2,294.3,133.2z M273.1,132.3h20.9c0.8-5.2,1.1-15.6-3.3-20.9
				c-1.8-2.1-4.1-3.2-7-3.2c-2,0-3.7,0.8-5.2,2.3C273.1,115.9,273,129.6,273.1,132.3z"/>
		</g>
		<g>
			<g>
				<path class="st3" d="M265.1,113.2h-7.8c-5.2-0.6-10.1,8.8-11.1,21c-1,12.2,2.5,22.6,7.6,23.2c0.3,0,0.6,0,1,0h6.9l0.7-8.8
					c1.3-3.4,2.2-7.6,2.6-12.1c0.4-4.6,0.1-8.9-0.6-12.5L265.1,113.2z"/>
				<path d="M254.3,157.8c-0.2,0-0.4,0-0.5,0c-5.5-0.7-9-11.1-8.1-23.7c0.7-9,3.6-16.8,7.5-20c1.4-1.1,2.8-1.6,4.2-1.4l7.8,0
					c0.1,0,0.3,0.1,0.4,0.2c0.1,0.1,0.1,0.2,0.1,0.4l-0.8,10.6c0.8,3.8,1,8.1,0.6,12.6c-0.3,4.4-1.2,8.6-2.6,12.2l-0.7,8.8
					c0,0.3-0.2,0.4-0.5,0.4h-6.9C254.6,157.8,254.5,157.8,254.3,157.8z M256.8,113.6c-1,0-2,0.4-3,1.2c-3.6,3-6.4,10.6-7.1,19.3
					c-0.9,11.7,2.4,22.1,7.2,22.7c0.3,0,0.6,0,0.9,0l6.5,0l0.7-8.4c0,0,0-0.1,0-0.1c1.3-3.5,2.2-7.6,2.5-12
					c0.3-4.4,0.1-8.6-0.6-12.4c0,0,0-0.1,0-0.1l0.8-10.2h-7.3C257.1,113.6,257,113.6,256.8,113.6z"/>
			</g>
			<g>
				<path class="st4" d="M272.7,136.4c-1,12.2-5.9,21.6-11.1,21c-5.2-0.6-8.6-11-7.6-23.2c1-12.2,5.9-21.6,11.1-21
					C270.3,113.8,273.7,124.2,272.7,136.4z"/>
				<path d="M262.1,157.8c-0.2,0-0.4,0-0.5,0c-5.5-0.7-9-11.1-8.1-23.7c0.7-9,3.6-16.8,7.5-20c1.4-1.1,2.8-1.6,4.2-1.4
					c5.5,0.7,9,11.1,8.1,23.7c-0.7,9-3.6,16.8-7.5,20C264.6,157.3,263.4,157.8,262.1,157.8z M264.6,113.6c-1,0-2,0.4-3,1.2
					c-3.6,3-6.4,10.6-7.1,19.3c-0.9,11.7,2.4,22.1,7.2,22.7c1.1,0.1,2.3-0.3,3.4-1.2c3.6-3,6.4-10.6,7.1-19.3l0,0
					c0.9-11.7-2.4-22.1-7.2-22.7C264.9,113.6,264.8,113.6,264.6,113.6z"/>
			</g>
			<g>
				<path class="st5" d="M270,136c-0.7,8.5-4.1,15-7.7,14.6c-3.6-0.4-6-7.7-5.3-16.1c0.7-8.5,4.1-15,7.7-14.6
					C268.3,120.3,270.7,127.6,270,136z"/>
				<path d="M262.7,151.1c-0.1,0-0.3,0-0.4,0c-3.9-0.5-6.4-7.8-5.7-16.7c0.5-6.3,2.6-11.8,5.2-14c1-0.8,2-1.1,3-1
					c3.9,0.5,6.4,7.8,5.7,16.7l0,0c-0.5,6.3-2.6,11.8-5.2,14C264.4,150.8,263.5,151.1,262.7,151.1z M264.4,120.4
					c-0.7,0-1.3,0.3-2,0.8c-2.5,2.1-4.4,7.3-4.9,13.3c-0.6,8.1,1.6,15.2,4.9,15.6c0.7,0.1,1.5-0.2,2.3-0.8c2.5-2.1,4.4-7.3,4.9-13.3
					l0,0c0.6-8.1-1.6-15.2-4.9-15.6C264.6,120.4,264.5,120.4,264.4,120.4z"/>
			</g>
		</g>
		<g>
			<g>
				<path class="st3" d="M284.1,113.2h-7.8c-5.2-0.6-10.1,8.8-11.1,21c-1,12.2,2.5,22.6,7.6,23.2c0.3,0,0.6,0,1,0h6.9l0.7-8.8
					c1.3-3.4,2.2-7.6,2.6-12.1c0.4-4.6,0.1-8.9-0.6-12.5L284.1,113.2z"/>
				<path d="M273.2,157.8c-0.2,0-0.4,0-0.5,0c-5.5-0.7-9-11.1-8.1-23.7c0.7-9,3.6-16.8,7.5-20c1.4-1.1,2.8-1.6,4.2-1.4l7.8,0
					c0.1,0,0.3,0.1,0.4,0.2c0.1,0.1,0.1,0.2,0.1,0.4l-0.8,10.6c0.8,3.8,1,8.1,0.6,12.6c-0.3,4.4-1.2,8.6-2.6,12.2l-0.7,8.8
					c0,0.3-0.2,0.4-0.5,0.4h-6.9C273.6,157.8,273.4,157.8,273.2,157.8z M275.8,113.6c-1,0-2,0.4-3,1.2c-3.6,3-6.4,10.6-7.1,19.3
					c-0.9,11.7,2.4,22.1,7.2,22.7c0.3,0,0.6,0,0.9,0l6.5,0l0.7-8.4c0,0,0-0.1,0-0.1c1.3-3.5,2.2-7.6,2.5-12
					c0.3-4.4,0.1-8.6-0.6-12.4c0,0,0-0.1,0-0.1l0.8-10.2h-7.3C276.1,113.6,275.9,113.6,275.8,113.6z"/>
			</g>
			<g>
				<path class="st4" d="M291.7,136.4c-1,12.2-5.9,21.6-11.1,21c-5.2-0.6-8.6-11-7.6-23.2c1-12.2,5.9-21.6,11.1-21
					C289.2,113.8,292.7,124.2,291.7,136.4z"/>
				<path d="M281.1,157.8c-0.2,0-0.4,0-0.5,0c-5.5-0.7-9-11.1-8.1-23.7c0.7-9,3.6-16.8,7.5-20c1.4-1.1,2.8-1.6,4.2-1.4
					c5.5,0.7,9,11.1,8.1,23.7c-0.7,9-3.6,16.8-7.5,20C283.5,157.3,282.3,157.8,281.1,157.8z M283.6,113.6c-1,0-2,0.4-3,1.2
					c-3.6,3-6.4,10.6-7.1,19.3c-0.9,11.7,2.4,22.1,7.2,22.7c1.1,0.1,2.3-0.3,3.4-1.2c3.6-3,6.4-10.6,7.1-19.3l0,0
					c0.9-11.7-2.4-22.1-7.2-22.7C283.9,113.6,283.7,113.6,283.6,113.6z"/>
			</g>
			<g>
				<path class="st5" d="M289,136c-0.7,8.5-4.1,15-7.7,14.6c-3.6-0.4-6-7.7-5.3-16.1c0.7-8.5,4.1-15,7.7-14.6
					C287.3,120.3,289.7,127.6,289,136z"/>
				<path d="M281.6,151.1c-0.1,0-0.3,0-0.4,0c-3.9-0.5-6.4-7.8-5.7-16.7c0.5-6.3,2.6-11.8,5.2-14c1-0.8,2-1.1,3-1
					c3.9,0.5,6.4,7.8,5.7,16.7l0,0c-0.5,6.3-2.6,11.8-5.2,14C283.4,150.8,282.5,151.1,281.6,151.1z M283.4,120.4
					c-0.7,0-1.3,0.3-2,0.8c-2.5,2.1-4.4,7.3-4.9,13.3c-0.6,8.1,1.6,15.2,4.9,15.6c0.7,0.1,1.5-0.2,2.3-0.8c2.5-2.1,4.4-7.3,4.9-13.3
					l0,0c0.6-8.1-1.6-15.2-4.9-15.6C283.5,120.4,283.5,120.4,283.4,120.4z"/>
			</g>
			<path class="st5" d="M287,135.8c-0.5,5.9-2.8,10.4-5.3,10.1c-2.5-0.3-4.1-5.3-3.7-11.1c0.5-5.9,2.8-10.4,5.3-10.1
				C285.8,125,287.4,129.9,287,135.8z"/>
		</g>
		<g>
			<path class="st6" d="M291.3,18C265,13.8,164.8,5,143.2,4.1c-9.3-0.4-29.5-1-50,0.9c7.9-0.2,35.9-0.3,56.7,6.5
				c23.2,9.3,20.9,22.5,16.7,29.6c-0.3,0.4-0.5,0.8-0.7,1.3h27.5v129.4c0.2,1.7,0.4,2.6,0.4,2.6V162l80.9-31
				c1.1-8.4,3.8-19.2,10.3-20.7c5.9-1.3,8.1,6.5,8.9,13.3l23.7-9.1c0.8-16.1,2.8-54.8,2.8-70C320.3,25.2,308.4,20.7,291.3,18z"/>
			<path d="M193.7,174.8c-0.2,0-0.4-0.2-0.5-0.4c0,0-0.1-0.9-0.4-2.6l0-128.9h-27c-0.2,0-0.3-0.1-0.4-0.2c-0.1-0.1-0.1-0.3,0-0.5
				c0.2-0.5,0.5-0.9,0.8-1.3c1.5-2.6,3.8-7.8,1.8-13.6c-2.1-6.1-8.2-11.3-18.3-15.3C129,5.2,101.2,5.3,93.2,5.5
				c-0.2,0-0.5-0.2-0.5-0.5c0-0.3,0.2-0.5,0.4-0.5c19.1-1.8,37.7-1.3,50.1-0.9c21.5,0.8,122.2,9.7,148.1,13.8
				c15.5,2.5,29.5,6.4,29.5,27c0,15.2-1.9,54-2.8,70c0,0.2-0.1,0.4-0.3,0.4l-23.7,9.1c-0.1,0.1-0.3,0-0.4,0
				c-0.1-0.1-0.2-0.2-0.2-0.4c-0.8-6.4-2.4-10.6-4.7-12.2c-1.1-0.7-2.2-1-3.6-0.7c-6.2,1.4-8.8,11.8-10,20.3c0,0.2-0.1,0.3-0.3,0.4
				l-80.6,30.9v12C194.2,174.6,194,174.8,193.7,174.8C193.7,174.8,193.7,174.8,193.7,174.8z M166.7,41.9h26.6c0.3,0,0.5,0.2,0.5,0.5
				v119.1l80.3-30.8c1.2-8.7,4-19.3,10.7-20.8c1.6-0.4,3.1-0.1,4.4,0.8c2.5,1.8,4.2,5.9,5.1,12.3l22.9-8.8
				c0.8-16.2,2.7-54.6,2.7-69.7c0-18.1-10.1-23.2-28.7-26.1c-25.9-4.1-126.5-13-148-13.8c-9.4-0.4-22.6-0.7-36.8,0
				c12.2,0.4,29.6,1.8,43.6,6.5c10.4,4.2,16.8,9.5,18.9,15.9c2.1,6.1-0.3,11.6-1.9,14.4C166.9,41.6,166.8,41.7,166.7,41.9z
				 M317.6,114.6L317.6,114.6L317.6,114.6z"/>
		</g>
		<path class="st5" d="M169.1,34.3c-0.4,2.6-1.4,4.9-2.5,6.8c-0.3,0.4-0.5,0.8-0.7,1.3h27.5v129.4c0.2,1.7,0.4,2.6,0.4,2.6V162
			l80.9-31c1.1-8.4,3.8-19.2,10.3-20.7c5.9-1.3,8.1,6.5,8.9,13.3l23.7-9.1c0.8-16.1,2.8-54.8,2.8-70c0-4-0.5-7.4-1.5-10.3H169.1z"/>
		<g>
			<path class="st5" d="M193.3,116.4v55.3c0.2,1.7,0.4,2.6,0.4,2.6V162l80.9-31c1.1-8.4,3.8-19.2,10.3-20.7
				c5.9-1.3,8.1,6.5,8.9,13.3l23.7-9.1c0.4-7,0.9-18.2,1.4-29.9L193.3,116.4z"/>
		</g>
		<g>
			<g>
				<path class="st3" d="M59,141H44.4c-9.6-0.9-18.8,13.2-20.6,31.5c-1.8,18.3,4.6,34,14.2,34.9c0.6,0.1,1.2,0.1,1.8,0h12.8
					l1.3-13.3c2.4-5.1,4.1-11.4,4.7-18.2c0.7-6.9,0.2-13.3-1.2-18.8L59,141z"/>
				<path d="M38.9,208c-0.3,0-0.6,0-0.9,0c-9.8-1-16.4-16.8-14.6-35.4c0.9-8.9,3.5-17.2,7.4-23.2c4-6.1,8.8-9.2,13.7-8.8l14.5,0
					c0.1,0,0.3,0.1,0.4,0.2c0.1,0.1,0.1,0.2,0.1,0.4l-1.5,16c1.4,5.7,1.8,12.2,1.2,18.9c-0.6,6.7-2.3,13-4.7,18.3l-1.3,13.2
					c0,0.2-0.2,0.4-0.5,0.4H39.8C39.5,207.9,39.2,208,38.9,208z M43.6,141.5c-4.2,0-8.4,2.9-12,8.4c-3.8,5.9-6.4,14-7.3,22.8
					c-1.7,18,4.4,33.5,13.7,34.4c0.6,0.1,1.1,0.1,1.7,0l12.4,0l1.2-12.9c0-0.1,0-0.1,0-0.2c2.4-5.2,4.1-11.5,4.7-18.1
					c0.6-6.6,0.2-13-1.1-18.6c0-0.1,0-0.1,0-0.2l1.5-15.6h-14C44.2,141.5,43.9,141.5,43.6,141.5z"/>
			</g>
			<path class="st7" d="M24.9,190.9c2.2,9.4,7,15.9,13.1,16.5c0.6,0.1,1.2,0.1,1.8,0h12.8l1.3-13.3c0.5-1,0.9-2.1,1.3-3.2H24.9z"/>
			<g>
				
					<ellipse transform="matrix(9.631327e-02 -0.9954 0.9954 9.631327e-02 -122.9885 212.9814)" class="st4" cx="55.8" cy="174.2" rx="33.4" ry="17.5"/>
				<path d="M53.5,208c-0.3,0-0.6,0-0.9,0c-9.8-1-16.4-16.8-14.6-35.4c0.9-8.9,3.5-17.2,7.4-23.2c4-6.1,8.8-9.2,13.7-8.8
					c4.8,0.5,9,4.5,11.7,11.2c2.7,6.7,3.7,15.3,2.9,24.2C71.9,193.9,63,208,53.5,208z M58.1,141.5c-4.2,0-8.4,2.9-11.9,8.4
					c-3.8,5.9-6.4,14-7.3,22.8c-1.7,18,4.4,33.5,13.7,34.4c9.3,0.9,18.3-13,20.1-31.1c0.9-8.8-0.1-17.2-2.8-23.7
					c-2.6-6.4-6.5-10.2-10.9-10.6C58.7,141.5,58.4,141.5,58.1,141.5z"/>
			</g>
			<g>
				
					<ellipse transform="matrix(9.631543e-02 -0.9954 0.9954 9.631543e-02 -122.7641 213.2822)" class="st5" cx="56.1" cy="174.2" rx="23.2" ry="12.1"/>
				<path d="M54.5,197.9c-0.2,0-0.4,0-0.7,0c-3.4-0.3-6.4-3.1-8.3-7.9c-1.9-4.7-2.6-10.7-2-16.9c0.6-6.2,2.5-12,5.2-16.2
					c2.8-4.3,6.2-6.5,9.7-6.2c3.4,0.3,6.4,3.1,8.3,7.9c1.9,4.7,2.6,10.7,2,16.9l0,0C67.4,188.1,61.1,197.9,54.5,197.9z M57.7,151.6
					c-2.9,0-5.7,2-8.2,5.8c-2.7,4.1-4.5,9.7-5,15.8c-0.6,6.1,0.1,11.9,1.9,16.5c1.8,4.4,4.5,7,7.5,7.3c6.4,0.6,12.6-9,13.8-21.5
					c0.6-6.1-0.1-11.9-1.9-16.5c-1.8-4.4-4.5-7-7.5-7.3C58.1,151.6,57.9,151.6,57.7,151.6z M68.2,175.4L68.2,175.4L68.2,175.4z"/>
			</g>
		</g>
		<path class="st8" d="M190.7,178.7h-59.2c0,0,9.7-46.8,32.2-49.1S190,146.3,190.7,178.7z"/>
		<g>
			<path class="st8" d="M167.4,129.5c-1.2,0-2.4,0-3.7,0.2c-22.5,2.3-32.2,49.1-32.2,49.1h49.4C181.7,142.7,172.7,132.4,167.4,129.5
				z"/>
		</g>
		<g>
			<g>
				<path class="st3" d="M171.7,146.2h-14.6c-9.6-0.9-18.8,13.2-20.6,31.5c-1.8,18.3,4.6,34,14.2,34.9c0.6,0.1,1.2,0.1,1.8,0h12.8
					l1.3-13.3c2.4-5.1,4.1-11.4,4.7-18.2c0.7-6.9,0.2-13.3-1.2-18.8L171.7,146.2z"/>
				<path d="M151.6,213.1c-0.3,0-0.6,0-0.9,0c-4.8-0.5-9-4.5-11.7-11.2c-2.7-6.7-3.7-15.3-2.9-24.2c1.8-18.6,11.3-32.9,21.1-32
					l14.5,0c0.1,0,0.3,0.1,0.4,0.2c0.1,0.1,0.1,0.2,0.1,0.4l-1.5,16c1.4,5.7,1.8,12.2,1.2,18.9c-0.6,6.7-2.3,13-4.7,18.3l-1.3,13.2
					c0,0.2-0.2,0.4-0.5,0.4h-12.8C152.2,213.1,151.9,213.1,151.6,213.1z M156.2,146.6c-9,0-17.6,13.6-19.2,31.1
					c-0.9,8.8,0.1,17.2,2.8,23.7c2.6,6.4,6.5,10.2,10.9,10.6c0.6,0.1,1.1,0.1,1.7,0l12.4,0l1.2-12.9c0-0.1,0-0.1,0-0.2
					c2.4-5.2,4.1-11.5,4.7-18.1c0.6-6.6,0.2-13-1.1-18.6c0-0.1,0-0.1,0-0.2l1.5-15.6h-14C156.8,146.6,156.5,146.6,156.2,146.6z"/>
			</g>
			<path class="st7" d="M137.6,196c2.2,9.4,7,15.9,13.1,16.5c0.6,0.1,1.2,0.1,1.8,0h12.8l1.3-13.3c0.5-1,0.9-2.1,1.3-3.2H137.6z"/>
			<g>
				
					<ellipse transform="matrix(9.631857e-02 -0.9954 0.9954 9.631857e-02 -26.3191 329.7551)" class="st4" cx="168.4" cy="179.4" rx="33.4" ry="17.5"/>
				<path d="M166.1,213.1c-0.3,0-0.6,0-0.9,0c-4.8-0.5-9-4.5-11.7-11.2c-2.7-6.7-3.7-15.3-2.9-24.2c1.8-18.6,11.3-32.9,21.1-32
					c4.8,0.5,9,4.5,11.7,11.2c2.7,6.7,3.7,15.3,2.9,24.2C184.6,199.1,175.6,213.1,166.1,213.1z M170.8,146.6
					c-9,0-17.5,13.6-19.2,31.1c-0.9,8.8,0.1,17.2,2.8,23.7c2.6,6.4,6.5,10.2,10.9,10.6c0.3,0,0.6,0,0.9,0c9,0,17.5-13.6,19.2-31.1
					l0,0c0.9-8.8-0.1-17.2-2.8-23.7c-2.6-6.4-6.5-10.2-10.9-10.6C171.3,146.6,171,146.6,170.8,146.6z"/>
			</g>
			<g>
				
					<ellipse transform="matrix(9.631713e-02 -0.9954 0.9954 9.631713e-02 -26.0943 330.0565)" class="st5" cx="168.7" cy="179.4" rx="23.2" ry="12.1"/>
				<path d="M167.1,203c-0.2,0-0.4,0-0.7,0c-3.4-0.3-6.4-3.1-8.3-7.9c-1.9-4.7-2.6-10.7-2-16.9c1.3-13,7.9-23,14.9-22.4
					c3.4,0.3,6.4,3.1,8.3,7.9c1.9,4.7,2.6,10.7,2,16.9l0,0C180.1,193.2,173.8,203,167.1,203z M170.3,156.7c-6.2,0-12,9.4-13.2,21.5
					c-0.6,6.1,0.1,11.9,1.9,16.5c1.8,4.4,4.5,7,7.5,7.3c6.4,0.6,12.6-9,13.8-21.5l0.5,0l-0.5,0c0.6-6.1-0.1-11.9-1.9-16.5
					c-1.8-4.4-4.5-7-7.5-7.3C170.7,156.8,170.5,156.7,170.3,156.7z"/>
			</g>
		</g>
		<path class="st5" d="M181.5,180.2c-0.9,9.5-5.7,16.8-10.7,16.3c-5-0.5-8.3-8.6-7.3-18.1c0.9-9.5,5.7-16.8,10.7-16.3
			C179.2,162.6,182.5,170.7,181.5,180.2z"/>
		<g>
			
				<ellipse transform="matrix(9.631471e-02 -0.9954 0.9954 9.631471e-02 -20.6256 336.0263)" class="st5" cx="174.7" cy="179.4" rx="15" ry="7.8"/>
			<path d="M173.7,194.8c-0.2,0-0.3,0-0.5,0c-2.3-0.2-4.2-2.1-5.5-5.2c-1.2-3-1.7-6.9-1.3-11c0.8-8.6,5.2-15,9.8-14.6
				c2.3,0.2,4.2,2.1,5.5,5.2c1.2,3,1.7,6.9,1.3,11c-0.4,4.1-1.6,7.8-3.4,10.5C177.9,193.4,175.8,194.8,173.7,194.8z M175.8,164.9
				c-3.9,0-7.6,6-8.4,13.7c-0.4,3.9,0.1,7.7,1.2,10.5c1.1,2.8,2.8,4.4,4.7,4.6c1.9,0.2,3.8-1.1,5.5-3.6c1.7-2.6,2.9-6.2,3.2-10.1
				l0,0c0.4-3.9-0.1-7.7-1.2-10.5c-1.1-2.8-2.8-4.4-4.7-4.6C176,164.9,175.9,164.9,175.8,164.9z"/>
		</g>
		<g>
			<path d="M177.2,167.5c-0.1,1.1-0.7,2-1.3,2c-0.6-0.1-1-1-0.9-2.2c0.1-1.1,0.7-2,1.3-2C176.9,165.4,177.3,166.4,177.2,167.5z"/>
			<path d="M180.4,170.5c-0.1,1.1-0.7,2-1.3,2c-0.6-0.1-1-1-0.9-2.2c0.1-1.1,0.7-2,1.3-2C180.1,168.4,180.5,169.4,180.4,170.5z"/>
			<path d="M181.5,175.6c-0.1,1.1-0.7,2-1.3,2c-0.6-0.1-1-1-0.9-2.2c0.1-1.1,0.7-2,1.3-2C181.3,173.5,181.7,174.5,181.5,175.6z"/>
			<path d="M181.5,180.8c-0.1,1.1-0.7,2-1.3,2c-0.6-0.1-1-1-0.9-2.2c0.1-1.1,0.7-2,1.3-2C181.2,178.7,181.6,179.6,181.5,180.8z"/>
			<path d="M180.5,185.3c-0.1,1.1-0.7,2-1.3,2c-0.6-0.1-1-1-0.9-2.2c0.1-1.1,0.7-2,1.3-2C180.2,183.1,180.6,184.1,180.5,185.3z"/>
			<path d="M178.3,189.2c-0.1,1.1-0.7,2-1.3,2c-0.6-0.1-1-1-0.9-2.2c0.1-1.1,0.7-2,1.3-2C178,187.1,178.4,188,178.3,189.2z"/>
			<path d="M174,169.5c-0.1,1.1-0.7,2-1.3,2c-0.6-0.1-1-1-0.9-2.2s0.7-2,1.3-2C173.7,167.3,174.1,168.3,174,169.5z"/>
			<path d="M171.4,173.8c-0.1,1.1-0.7,2-1.3,2c-0.6-0.1-1-1-0.9-2.2c0.1-1.1,0.7-2,1.3-2C171.2,171.7,171.6,172.7,171.4,173.8z"/>
			<path d="M170.2,179.7c-0.1,1.1-0.7,2-1.3,2s-1-1-0.9-2.2c0.1-1.1,0.7-2,1.3-2C169.9,177.5,170.3,178.5,170.2,179.7z"/>
			<path d="M170.7,185.2c-0.1,1.1-0.7,2-1.3,2c-0.6-0.1-1-1-0.9-2.2c0.1-1.1,0.7-2,1.3-2C170.4,183,170.8,184,170.7,185.2z"/>
			<path d="M172.3,189.2c-0.1,1.1-0.7,2-1.3,2c-0.6-0.1-1-1-0.9-2.2c0.1-1.1,0.7-2,1.3-2C172.1,187.1,172.4,188,172.3,189.2z"/>
			<path d="M175.3,191c-0.1,1.1-0.7,2-1.3,2c-0.6-0.1-1-1-0.9-2.2c0.1-1.1,0.7-2,1.3-2C175,188.9,175.4,189.9,175.3,191z"/>
		</g>
		<g>
			<path class="st5" d="M187.8,139.3c-4.2-22.2-25.1-24.8-25.1-24.8s0-6.5,0-14.6C98.3,77.9,41.9,97,41.9,97s-9.2,8.9-15.1,22.5
				c-30.1,25.5-18.8,39.7-18.8,39.7s9.7,4.8,71,7c57.9,0.6,66.7-2,66.7-2c5.8-1.3,5.6-3.3,5.8-9c0.2-5.8,9-20.8,19.2-22.5
				c10.2-1.6,14.2,8.1,16.7,24.6c2.5,16.8,3.2,21.5,3.2,21.5l3-1v-3.3C193.7,174.4,192,161.5,187.8,139.3z"/>
			<path d="M190.7,179.2c-0.1,0-0.2,0-0.3-0.1c-0.1-0.1-0.2-0.2-0.2-0.3c0,0-0.7-4.7-3.2-21.5c-1.9-12.6-4.6-19.6-8.7-22.6
				c-2.1-1.5-4.5-2-7.5-1.6c-10.1,1.6-18.6,16.6-18.8,22l0,0.7c-0.2,5.2-0.2,7.4-6.1,8.8c-0.3,0.1-9.6,2.6-66.8,2
				c-60.6-2.2-70.8-6.9-71.2-7.1c-0.1,0-0.1-0.1-0.2-0.1c-0.5-0.6-11.3-14.8,18.7-40.3c5.8-13.4,15-22.4,15.1-22.5
				c0.1-0.1,0.1-0.1,0.2-0.1c0.6-0.2,57.3-18.9,121.1,3c0.2,0.1,0.3,0.3,0.3,0.5v14.2c3,0.5,21.2,4.6,25.1,25.1
				c4.1,22,5.8,35,5.8,35.1l0,3.4c0,0.2-0.1,0.4-0.3,0.5l-3,1C190.8,179.2,190.7,179.2,190.7,179.2z M172.9,132c2.3,0,4.3,0.6,6,1.9
				c4.4,3.2,7.1,10.2,9.1,23.2c2,13.6,2.8,19.3,3.1,20.9l2.1-0.7v-3c0-0.1-1.7-13-5.8-35c-4.1-21.6-24.5-24.4-24.7-24.4
				c-0.2,0-0.4-0.2-0.4-0.5v-14.2c-62.1-21.1-117.3-3.8-120-2.9c-0.9,0.9-9.4,9.6-14.9,22.2c0,0.1-0.1,0.1-0.1,0.2
				C-1,143.6,7.6,157.5,8.4,158.7c1.2,0.5,13.5,4.9,70.7,6.9c56.9,0.6,66.5-1.9,66.6-2c5.2-1.2,5.2-2.6,5.4-7.9l0-0.7
				c0.2-5.6,9.1-21.2,19.6-22.9C171.5,132,172.2,132,172.9,132z M193.7,177.7L193.7,177.7L193.7,177.7z"/>
		</g>
		<g>
			<path class="st9" d="M162.7,99.9c0-10.1,0-22.7,0-28.6c0-10.6-0.3-23.8,3.9-30.3c4.2-7.1,6.4-20.3-16.7-29.6
				C129.1,4.7,101.1,4.8,93.2,5C77,6.5,58.1,8.8,44.5,18.6c-5.3,3.8-10.3,9.6-9.8,16.5c0.3,5.5,5,9.1,5.3,14.7
				c0.3,7.2,2,47.1,2,47.1S98.3,77.9,162.7,99.9z"/>
			<path d="M162.7,100.4c-0.1,0-0.1,0-0.2,0c-63.5-21.7-119.9-3.2-120.5-3c-0.1,0-0.3,0-0.4-0.1c-0.1-0.1-0.2-0.2-0.2-0.4
				c0-0.4-1.7-40-2-47.1c-0.1-2.7-1.3-4.9-2.6-7.2c-1.2-2.3-2.5-4.6-2.7-7.5c-0.5-8.1,6.1-14.1,10-17C57.8,8.5,76.6,6.1,93.1,4.5
				c8.1-0.2,36.1-0.3,56.9,6.5c10.4,4.2,16.8,9.5,18.9,15.9c2.1,6.1-0.3,11.6-1.9,14.4c-3.8,5.9-3.8,17.6-3.8,27.9l0,30.7
				c0,0.2-0.1,0.3-0.2,0.4C162.9,100.4,162.8,100.4,162.7,100.4z M97.7,88.9c19,0,41.3,2.5,64.5,10.4l0-30c0-10.4,0-22.3,3.9-28.4
				c1.5-2.6,3.8-7.8,1.8-13.6c-2.1-6.1-8.2-11.3-18.3-15.3C129,5.2,101.2,5.3,93.2,5.5C76.8,7,58.1,9.4,44.8,19
				c-3.8,2.7-10.1,8.4-9.6,16.1c0.2,2.6,1.3,4.8,2.6,7.1c1.3,2.3,2.6,4.7,2.7,7.6c0.3,6.6,1.7,41.4,2,46.5
				C46.2,95.1,67.8,88.9,97.7,88.9z"/>
		</g>
		<g>
			<path class="st10" d="M43.8,56c-1,8.5,0.8,37.1,0.8,37.1s21.8-7.5,53-7.8l0.2-45.3C51.2,41.2,44.9,47.6,43.8,56z"/>
			<path d="M44.6,93.6c-0.1,0-0.2,0-0.3-0.1c-0.1-0.1-0.2-0.2-0.2-0.4C44,92,42.3,64.4,43.3,56l0.5,0.1L43.3,56
				c1.2-9.8,10.2-15.3,54.4-16.4c0.1,0,0.3,0,0.4,0.1c0.1,0.1,0.1,0.2,0.1,0.3l-0.2,45.3c0,0.3-0.2,0.5-0.5,0.5
				c-30.7,0.3-52.6,7.7-52.8,7.8C44.7,93.6,44.7,93.6,44.6,93.6z M97.3,40.6c-47.3,1.2-52.1,8-53,15.5l0,0
				c-0.9,7.7,0.5,32.2,0.7,36.4c3.7-1.2,24.3-7.3,52-7.6L97.3,40.6z"/>
		</g>
		<g>
			<path class="st10" d="M159.4,52.9c0-8.4-5.8-13.6-58.7-12.9l-0.2,45.4c17.6,0.1,37.9,2.5,58.9,9.8
				C159.9,61.2,159.4,61.4,159.4,52.9z"/>
			<path d="M159.4,95.7c-0.1,0-0.1,0-0.2,0c-18.4-6.4-38.1-9.7-58.7-9.8c-0.3,0-0.5-0.2-0.5-0.5l0.2-45.4c0-0.3,0.2-0.5,0.5-0.5
				c35-0.4,51.4,1.5,56.7,6.8c2.1,2.1,2.4,4.6,2.4,6.6c0,2.4,0,4.1,0.1,6c0.1,5,0.3,11.8-0.1,36.3c0,0.2-0.1,0.3-0.2,0.4
				C159.6,95.7,159.5,95.7,159.4,95.7z M101,84.9c20.3,0.2,39.8,3.4,57.9,9.6c0.4-23.9,0.2-30.6,0.1-35.5c0-2-0.1-3.7-0.1-6.1
				c0-2.7-0.6-4.4-2.1-5.9c-5-5-21.7-6.9-55.6-6.5L101,84.9z"/>
		</g>
		<path class="st10" d="M148.8,57.6c-9.1,4.2-18,9.1-26,15.2c-5,3.8-9.7,8-13.7,12.8c15.5,0.8,32.7,3.4,50.4,9.6
			c0.5-33.8,0-33.8,0-42.1C155.8,54.5,152.3,56,148.8,57.6z"/>
		<g>
			<path class="st11" d="M31.7,133.2c0,0,1.6,11.3,6.7,19.4c3.8,5.8,6.5,5.6,24.4,6.2c16.8,0.5,20.5,1.1,21.8,0
				c1.3-1.1,7.4-6.1,10-16.1c2.6-10,4.5-15.2-1.1-17.3c-5.5-2.1-31.1-3-36.7-2.9C38.1,122.9,29.4,122.1,31.7,133.2z"/>
			<path d="M80.9,159.9c-1.7,0-4.1-0.1-7.6-0.2c-2.8-0.1-6.2-0.2-10.5-0.4l-2.2-0.1c-15.9-0.5-18.8-0.6-22.6-6.4
				c-5.1-7.9-6.7-19.1-6.8-19.6c-0.7-3.4-0.4-5.8,0.9-7.5c2.7-3.4,9.4-3.5,20.6-3.7c1.3,0,2.7,0,4.2-0.1c5.5-0.1,31.2,0.8,36.9,2.9
				c5.6,2.1,4.3,7,1.9,15.8l-0.6,2.1c-2.5,9.4-8,14.6-10.2,16.4C84.3,159.7,83.3,159.9,80.9,159.9z M58,122.9c-0.4,0-0.8,0-1,0
				c-1.5,0-2.9,0.1-4.2,0.1c-10.5,0.2-17.4,0.3-19.8,3.4c-1.1,1.4-1.4,3.6-0.7,6.7c0,0,0,0,0,0c0,0.1,1.6,11.3,6.7,19.2
				c3.5,5.3,6,5.4,21.8,5.9l2.2,0.1c4.3,0.1,7.7,0.3,10.5,0.4c7.6,0.3,10.1,0.4,11-0.3c2.2-1.7,7.5-6.7,9.9-15.8l0.6-2.1
				c2.4-9.1,3.2-12.9-1.3-14.6C88.3,123.9,65,122.9,58,122.9z"/>
		</g>
		<path class="st12" d="M93.6,125.4c-0.6-0.2-1.3-0.4-2.2-0.6c-0.4,1.3-0.8,2.6-1.4,3.8c-1.5,3.2-3.7,6.1-6.3,8.5
			c-5.9,5.4-13.8,8.2-21.6,9.6c-8,1.4-16.2,1.5-24.4,1.5c-0.6,0-1.1,0-1.7,0c0.7,1.5,1.5,3,2.4,4.5c3.8,5.8,6.5,5.6,24.4,6.2
			c16.8,0.5,20.5,1.1,21.8,0c1.3-1.1,7.4-6.1,10-16.1C97.3,132.6,99.2,127.5,93.6,125.4z"/>
		<g>
			<polygon class="st1" points="195.5,122.9 195.5,135.8 318,97.4 318,89.6 			"/>
			<path d="M195.5,136.3c-0.1,0-0.2,0-0.3-0.1c-0.1-0.1-0.2-0.2-0.2-0.4v-12.9c0-0.2,0.1-0.4,0.4-0.5l122.5-33.3
				c0.1,0,0.3,0,0.4,0.1c0.1,0.1,0.2,0.2,0.2,0.4v7.7c0,0.2-0.1,0.4-0.3,0.5l-122.5,38.4C195.6,136.3,195.5,136.3,195.5,136.3z
				 M195.9,123.3v11.8L317.5,97v-6.7L195.9,123.3z"/>
		</g>
		<g>
			<polygon class="st0" points="197.7,129.6 197.7,135.1 318,97.4 318,95.4 			"/>
			<path d="M197.7,135.6c-0.1,0-0.2,0-0.3-0.1c-0.1-0.1-0.2-0.2-0.2-0.4v-5.4c0-0.2,0.1-0.4,0.4-0.5l120.2-34.2c0.1,0,0.3,0,0.4,0.1
				c0.1,0.1,0.2,0.2,0.2,0.4v2c0,0.2-0.1,0.4-0.3,0.5l-120.2,37.7C197.8,135.5,197.8,135.6,197.7,135.6z M198.2,130v4.4L317.5,97v-1
				L198.2,130z"/>
		</g>
		<g>
			<polygon class="st0" points="197.7,124.4 197.7,127.6 318,93.5 318,91.6 			"/>
			<path d="M197.7,128.1c-0.1,0-0.2,0-0.3-0.1c-0.1-0.1-0.2-0.2-0.2-0.4v-3.2c0-0.2,0.1-0.4,0.4-0.5l120.2-32.8c0.1,0,0.3,0,0.4,0.1
				c0.1,0.1,0.2,0.2,0.2,0.4v2c0,0.2-0.1,0.4-0.4,0.5l-120.2,34.1C197.8,128.1,197.8,128.1,197.7,128.1z M198.2,124.7v2.2
				l119.3-33.8v-1L198.2,124.7z"/>
		</g>
		<g>
			<path d="M34.5,124.4c5-0.1,10,0,15,0c5,0,10,0.2,15,0.3c5,0.2,10,0.3,15,0.5l7.5,0.3c2.5,0.1,5,0.3,7.5,0.4c-2.5,0-5,0-7.5,0
				l-7.5-0.1c-5-0.1-10-0.2-15-0.3c-5-0.2-10-0.3-15-0.5C44.5,125,39.5,124.8,34.5,124.4z"/>
			<path d="M32,126.6c5.4-0.1,10.8-0.1,16.2,0c5.4,0,10.8,0.1,16.1,0.2c5.4,0.1,10.8,0.3,16.1,0.4l8.1,0.3c2.7,0.1,5.4,0.2,8.1,0.4
				c-2.7,0.1-5.4,0-8.1,0.1l-8.1,0c-5.4,0-10.8-0.1-16.1-0.2c-5.4-0.2-10.8-0.3-16.1-0.4C42.8,127.2,37.4,127,32,126.6z"/>
			<path d="M31.6,128.6c5.5-0.1,10.9,0,16.4,0c5.5,0.1,10.9,0.2,16.4,0.3c5.5,0.2,10.9,0.3,16.4,0.5l8.2,0.3
				c2.7,0.1,5.5,0.3,8.2,0.4c-2.7,0-5.5,0-8.2,0l-8.2-0.1c-5.5-0.1-10.9-0.2-16.4-0.3c-5.5-0.2-10.9-0.3-16.4-0.5
				C42.5,129.2,37,129,31.6,128.6z"/>
			<path d="M31.6,130.9c5.4-0.1,10.9,0,16.3,0.1c5.4,0.1,10.9,0.2,16.3,0.3c5.4,0.2,10.9,0.3,16.3,0.6l8.2,0.4
				c2.7,0.2,5.4,0.3,8.1,0.5c-2.7,0-5.4,0-8.2,0l-8.2-0.1c-5.4-0.1-10.9-0.2-16.3-0.3c-5.4-0.2-10.9-0.3-16.3-0.6
				C42.4,131.5,37,131.3,31.6,130.9z"/>
			<path d="M31.7,133.2c5.4-0.1,10.8,0,16.2,0.1c5.4,0.1,10.8,0.2,16.2,0.3c5.4,0.2,10.8,0.3,16.2,0.5l8.1,0.4
				c2.7,0.2,5.4,0.3,8.1,0.5c-2.7,0-5.4,0-8.1,0l-8.1-0.1c-5.4-0.1-10.8-0.2-16.2-0.3c-5.4-0.2-10.8-0.3-16.2-0.5
				C42.5,133.7,37.1,133.5,31.7,133.2z"/>
			<path d="M32.3,136c5.3-0.1,10.6,0,15.9,0.1c5.3,0.1,10.6,0.2,15.9,0.3c5.3,0.2,10.6,0.3,15.9,0.6l7.9,0.4
				c2.6,0.2,5.3,0.3,7.9,0.5c-2.6,0-5.3,0-7.9,0l-7.9-0.1c-5.3-0.1-10.6-0.2-15.9-0.3c-5.3-0.2-10.6-0.3-15.9-0.6
				C42.9,136.6,37.6,136.3,32.3,136z"/>
			<path d="M32.9,138.4c5.2,0,10.4,0,15.6,0.1c5.2,0.1,10.4,0.2,15.6,0.4c5.2,0.2,10.4,0.3,15.6,0.6l7.8,0.4
				c2.6,0.2,5.2,0.3,7.8,0.5c-2.6,0-5.2,0-7.8,0l-7.8-0.1c-5.2-0.1-10.4-0.2-15.6-0.4c-5.2-0.2-10.4-0.3-15.6-0.6
				C43.3,139,38.1,138.8,32.9,138.4z"/>
			<path d="M33.7,141.3c5.1-0.1,10.1,0,15.2,0c5.1,0,10.1,0.2,15.2,0.3c5.1,0.2,10.1,0.3,15.2,0.5l7.6,0.3c2.5,0.1,5.1,0.3,7.6,0.4
				c-2.5,0-5.1,0-7.6,0.1l-7.6-0.1c-5.1,0-10.1-0.2-15.2-0.3c-5.1-0.2-10.1-0.3-15.2-0.5C43.8,141.8,38.7,141.6,33.7,141.3z"/>
			<path d="M34.4,143.7c4.9,0,9.9,0,14.8,0.1c4.9,0.1,9.9,0.2,14.8,0.3c4.9,0.2,9.9,0.3,14.8,0.6l7.4,0.4c2.5,0.2,4.9,0.3,7.4,0.5
				c-2.5,0-4.9,0-7.4,0l-7.4-0.1c-4.9-0.1-9.9-0.2-14.8-0.3c-4.9-0.2-9.9-0.3-14.8-0.6C44.2,144.3,39.3,144.1,34.4,143.7z"/>
			<path d="M35.3,146.5c4.8-0.1,9.5,0,14.3,0.1c4.8,0.1,9.5,0.2,14.3,0.3c4.8,0.2,9.5,0.3,14.3,0.5l7.1,0.4c2.4,0.2,4.8,0.3,7.1,0.5
				c-2.4,0-4.8,0-7.2,0l-7.2-0.1c-4.8-0.1-9.5-0.2-14.3-0.3c-4.8-0.2-9.5-0.3-14.3-0.5C44.8,147.1,40.1,146.8,35.3,146.5z"/>
			<path d="M36.6,149.3c4.6-0.1,9.1,0,13.7,0.1c4.6,0.1,9.1,0.2,13.7,0.3c4.6,0.2,9.1,0.3,13.7,0.5l6.8,0.4c2.3,0.2,4.6,0.3,6.8,0.5
				c-2.3,0-4.6,0-6.8,0l-6.8-0.1c-4.6-0.1-9.1-0.2-13.7-0.3c-4.6-0.2-9.1-0.3-13.7-0.5C45.7,149.8,41.1,149.6,36.6,149.3z"/>
			<path d="M38.5,152.5c4.2-0.1,8.5-0.1,12.7-0.1c4.2,0,8.5,0.1,12.7,0.2c4.2,0.1,8.5,0.2,12.7,0.4l6.4,0.3c2.1,0.1,4.2,0.2,6.4,0.4
				c-2.1,0.1-4.2,0.1-6.4,0.1l-6.4,0c-4.2,0-8.5-0.1-12.7-0.2c-4.2-0.1-8.5-0.2-12.7-0.4C47,153,42.8,152.8,38.5,152.5z"/>
			<path d="M40.4,154.7c3.9-0.1,7.9-0.1,11.8,0c3.9,0,7.9,0.2,11.8,0.2c3.9,0.2,7.9,0.3,11.8,0.5l5.9,0.3c2,0.1,3.9,0.2,5.9,0.4
				c-2,0.1-3.9,0-5.9,0.1l-5.9,0c-3.9,0-7.9-0.2-11.8-0.2c-3.9-0.2-7.9-0.3-11.8-0.5C48.2,155.2,44.3,155,40.4,154.7z"/>
		</g>
		<g>
			<path class="st1" d="M145.7,166.1c0-0.7,0-1.3,0-2c0,0-8.9,2.6-66.7,2c-61.2-2.2-71-7-71-7s-0.7,0.3-1.5,1.4
				c6.7,2.5,27.1,8,78,8.8C121.1,169.5,139.1,167.2,145.7,166.1z"/>
			<path d="M87.8,169.8c-1,0-2.1,0-3.1,0c-51.2-0.8-71.7-6.5-78.2-8.9c-0.1-0.1-0.2-0.2-0.3-0.3c0-0.1,0-0.3,0-0.4
				c0.8-1.3,1.6-1.6,1.7-1.6c0.1,0,0.3,0,0.4,0c0.1,0,10.6,4.8,70.8,7c56.9,0.6,66.5-1.9,66.6-2c0.1,0,0.3,0,0.4,0.1
				c0.1,0.1,0.2,0.2,0.2,0.4c0,0.7,0,1.4,0,2c0,0.2-0.2,0.4-0.4,0.5C139.9,167.6,122.7,169.8,87.8,169.8z M7.4,160.3
				c7,2.5,27.7,7.8,77.3,8.6c36.1,0.1,54.2-2.1,60.6-3.1c0-0.3,0-0.7,0-1c-2.8,0.5-16.1,2.4-66.2,1.9c-56.5-2-69.1-6.2-70.9-6.9
				C8,159.7,7.7,159.9,7.4,160.3z M145.7,166.1L145.7,166.1L145.7,166.1z"/>
		</g>
		<g>
			<path class="st0" d="M84.7,169.3c-50.9-0.8-71.4-6.4-78-8.8c-0.8,1.3-1.5,3.6-1.2,7.8c0.6,8.1,2.8,13.1,18.4,16.6
				c15.5,3.4,67.4,9.7,103.2,7.3c12.1-0.8,18.2-3,18.7-26.1C139.1,167.2,121.1,169.5,84.7,169.3z"/>
			<path d="M109.7,193.2c-32.9,0-71.9-4.7-86-7.8C8.6,182,5.6,177.2,5,168.3c-0.3-3.6,0.2-6.3,1.3-8.1c0.1-0.2,0.4-0.3,0.6-0.2
				c6.4,2.4,26.8,7.9,77.9,8.8c1.1,0,2.1,0,3.1,0c34.8,0,52-2.2,57.8-3.2c0.1,0,0.3,0,0.4,0.1c0.1,0.1,0.2,0.2,0.2,0.4
				c-0.5,22.8-6.5,25.7-19.2,26.5C121.6,193,115.7,193.2,109.7,193.2z M6.9,161.1c-0.6,1.2-1.2,3.4-0.9,7.1
				c0.6,7.5,2.1,12.6,18,16.1c16.6,3.7,68.1,9.6,103.1,7.3c11.2-0.8,17.7-2.3,18.3-25c-6.6,1.1-24.7,3.2-60.6,3.1c0,0,0,0,0,0
				C34.4,169,13.7,163.6,6.9,161.1z"/>
		</g>
		<g>
			<g>
				<path class="st0" d="M193.7,174.4l80.1-33.1c0,0,0-4.6,0.8-10.2l-80.9,31V174.4z"/>
				<path d="M193.7,174.8c-0.1,0-0.2,0-0.3-0.1c-0.1-0.1-0.2-0.2-0.2-0.4V162c0-0.2,0.1-0.4,0.3-0.5l80.9-31c0.2-0.1,0.3,0,0.5,0.1
					c0.1,0.1,0.2,0.3,0.2,0.4c-0.7,5.5-0.8,10.1-0.8,10.1c0,0.2-0.1,0.4-0.3,0.4l-80.1,33.1C193.8,174.8,193.7,174.8,193.7,174.8z
					 M194.2,162.4v11.3l79.1-32.7c0-1.1,0.1-4.7,0.7-9.1L194.2,162.4z"/>
			</g>
			<g>
				<path class="st0" d="M293.8,123.7c0.6,4.8,0.5,9.1,0.5,9.1l22.9-11c0,0,0.1-2.7,0.4-7.1L293.8,123.7z"/>
				<path d="M294.3,133.2c-0.1,0-0.2,0-0.3-0.1c-0.1-0.1-0.2-0.3-0.2-0.4c0,0,0.1-4.3-0.5-9c0-0.2,0.1-0.4,0.3-0.5l23.7-9.1
					c0.2-0.1,0.3,0,0.5,0.1c0.1,0.1,0.2,0.3,0.2,0.4c-0.2,4.4-0.4,7.1-0.4,7.1c0,0.2-0.1,0.3-0.3,0.4l-22.9,11
					C294.5,133.2,294.4,133.2,294.3,133.2z M294.4,124c0.4,3.4,0.5,6.6,0.5,8l21.9-10.6c0-0.7,0.2-2.9,0.3-6.1L294.4,124z"/>
			</g>
		</g>
		<g>
			<g>
				
					<ellipse transform="matrix(0.977 -0.2134 0.2134 0.977 -29.0625 29.5015)" class="st1" cx="122.1" cy="149.4" rx="15.6" ry="9"/>
				<path d="M118.6,159.3c-2.1,0-4.2-0.3-6-0.9c-3.4-1.1-5.6-3.1-6.1-5.6c-0.6-2.5,0.6-5.3,3.2-7.7c2.6-2.4,6.3-4.1,10.4-5.1
					c8.6-1.9,16.6,0.8,17.7,5.9c0.6,2.5-0.6,5.3-3.2,7.7c-2.6,2.4-6.3,4.1-10.4,5.1C122.3,159.1,120.4,159.3,118.6,159.3z
					 M125.7,140.4c-1.7,0-3.5,0.2-5.4,0.6c-4,0.9-7.5,2.6-10,4.8c-2.4,2.2-3.4,4.6-2.9,6.8c0.5,2.2,2.4,3.9,5.5,4.9
					c3.2,1,7.1,1.1,11.1,0.2c4-0.9,7.5-2.6,10-4.8c2.4-2.2,3.4-4.6,2.9-6.8C136.1,142.6,131.5,140.4,125.7,140.4z"/>
			</g>
			<g>
				<path class="st13" d="M134.9,146.6c0.9,4.1-4.1,8.7-11.2,10.3c-7.1,1.5-13.5-0.5-14.4-4.7c-0.9-4.1,4.1-8.7,11.2-10.3
					C127.6,140.4,134,142.5,134.9,146.6z"/>
				<path d="M119.1,157.8c-1.8,0-3.5-0.2-5.1-0.7c-2.9-0.9-4.8-2.6-5.2-4.8c-1-4.4,4.2-9.2,11.6-10.8c3.5-0.8,7-0.7,9.8,0.2
					c2.9,0.9,4.8,2.6,5.2,4.8l0,0c1,4.4-4.2,9.2-11.6,10.8C122.3,157.7,120.7,157.8,119.1,157.8z M125.1,141.9c-1.5,0-3,0.2-4.5,0.5
					c-6.8,1.5-11.7,5.8-10.8,9.7c0.4,1.8,2,3.3,4.6,4.1c2.6,0.9,5.9,0.9,9.3,0.2c6.8-1.5,11.7-5.8,10.8-9.7l0,0
					c-0.4-1.8-2-3.3-4.6-4.1C128.5,142.1,126.8,141.9,125.1,141.9z"/>
			</g>
			<g>
				<path class="st1" d="M121.9,148.8c0.1-2.5,0.6-5.1,1.6-7.3c-1,0.1-2,0.2-3.1,0.4c-7.1,1.5-12.1,6.1-11.2,10.3
					c0.9,3.9,6.7,6,13.4,4.9C122.1,154.3,121.8,151.5,121.9,148.8z"/>
				<path d="M119.1,157.8c-5.3,0-9.5-2.1-10.3-5.5c-1-4.4,4.2-9.2,11.6-10.8c1-0.2,2.1-0.4,3.1-0.5c0.2,0,0.3,0.1,0.4,0.2
					c0.1,0.1,0.1,0.3,0,0.5c-0.9,2-1.5,4.5-1.6,7.2l0,0c-0.1,2.7,0.1,5.4,0.8,8.1c0,0.1,0,0.3-0.1,0.4c-0.1,0.1-0.2,0.2-0.3,0.2
					C121.5,157.7,120.3,157.8,119.1,157.8z M122.8,142c-0.8,0.1-1.5,0.2-2.2,0.4c-6.8,1.5-11.7,5.8-10.8,9.7
					c0.8,3.5,6.1,5.5,12.3,4.6c-0.6-2.6-0.8-5.2-0.7-7.8l0,0C121.6,146.3,122,144,122.8,142z M121.9,148.8L121.9,148.8L121.9,148.8z
					"/>
			</g>
		</g>
		<g>
			<path class="st0" d="M100,37.7c0,0,18.9-0.4,41.8,1.6c16.9,2,21.3-2.2,19.7-10.6c-1.6-8.4-14.9-22.1-64.1-20.5
				c-38.6,2.4-56.8,13.7-57,23.9c-0.2,10.2,25.5,7.4,41.2,6.4C97.4,37.5,100,37.7,100,37.7z"/>
			<path d="M149.2,40.3c-2.2,0-4.7-0.2-7.5-0.5c-22.6-2-41.6-1.6-41.8-1.6c0,0,0,0,0,0c-0.1,0-2.8-0.2-18.3,0.8
				c-1.4,0.1-2.9,0.2-4.5,0.3c-13.4,0.9-30.2,2.1-35.5-3c-1.2-1.1-1.8-2.5-1.7-4.2c0.2-10.4,18-21.9,57.4-24.4
				c21.8-0.7,38.7,1.5,50.1,6.6c11.6,5.1,14,11.7,14.5,14.3c0.7,3.8,0.2,6.5-1.6,8.4C158.4,39.2,154.8,40.3,149.2,40.3z M104.1,37.2
				c6.8,0,21.3,0.2,37.7,1.6c9.5,1.1,15.3,0.3,17.9-2.4c1.5-1.7,2-4.1,1.3-7.6c-0.7-3.7-7.1-22-63.6-20.1c-17.7,1.1-32.5,4.2-42.7,9
				C45.9,21.9,41,27,40.9,32.2c0,1.4,0.4,2.5,1.4,3.4c5.1,4.8,22.3,3.6,34.8,2.7c1.5-0.1,3-0.2,4.5-0.3c15-0.9,18-0.8,18.4-0.8
				C100.2,37.2,101.6,37.2,104.1,37.2z"/>
		</g>
		<g>
			<path class="st6" d="M100.3,33.7c0,0,13.3-0.3,29.5,1.1c11.9,1.4,15-1.5,13.9-7.4c-1.1-5.9-10.5-15.6-45.2-14.5
				c-27.2,1.7-40,9.7-40.1,16.8c-0.1,7.2,18,5.2,29,4.5C98.5,33.5,100.3,33.7,100.3,33.7z"/>
			<path d="M135,35.6c-1.6,0-3.3-0.1-5.3-0.4c-15.9-1.4-29.3-1.1-29.4-1.1c0,0,0,0,0,0c-0.1,0-2-0.1-12.8,0.6c-1,0.1-2,0.1-3.1,0.2
				c-9.5,0.7-21.3,1.5-25.2-2.2c-0.9-0.8-1.3-1.8-1.3-3c0.1-7.4,12.7-15.6,40.6-17.3c15.4-0.5,27.3,1.1,35.4,4.6
				c7.9,3.5,9.9,7.9,10.3,10.2c0.5,2.7,0.1,4.7-1.1,6C141.5,34.9,139,35.6,135,35.6z M103.2,33.2c4.8,0,15,0.1,26.6,1.1
				c6.6,0.8,10.7,0.2,12.5-1.7c1.1-1.1,1.3-2.8,0.9-5.2c-0.5-2.6-5-15.3-44.7-14.1C71.4,15.1,59,23,58.8,29.7c0,0.9,0.3,1.7,1,2.3
				c3.5,3.3,15.6,2.5,24.4,1.9c1.1-0.1,2.1-0.1,3.1-0.2c10.4-0.7,12.7-0.6,13-0.6C100.5,33.2,101.5,33.2,103.2,33.2z"/>
		</g>
		<path class="st6" d="M137.6,19.6c-5.2-0.2-10.3-0.2-15.5,0c-10,0.4-19.9,1.6-29.7,3.6c-7.9,1.6-15.9,3.9-23.4,6.8
			c-2.6,1-5.2,2.2-7.7,3.5c5.6,2.4,17.8,1.2,26.1,0.6c11.1-0.7,12.9-0.6,12.9-0.6s13.3-0.3,29.5,1.1c11.9,1.4,15-1.5,13.9-7.4
			C143.2,25.1,141.5,22.2,137.6,19.6z"/>
		<g>
			<path class="st0" d="M71.7,176c48.1,2.9,66.6-2.1,73.9-5.5c0.1-1.4,0.1-2.8,0.2-4.4c-6.6,1.1-24.6,3.3-61.1,3.2
				c-50.9-0.8-71.4-6.4-78-8.8c-0.8,1.3-1.3,2.4-1.4,6.6c-0.2,8.3,3.7,15.8,22.9,18.4c6,0.8,12.7,2.3,26.1,3.8
				C54.4,182.2,58.4,175,71.7,176z"/>
		</g>
		<g class="st14">
			<g>
				<path class="st15" d="M43.8,56c-1,8.5,0.8,37.1,0.8,37.1s8.2-2.8,21.7-5V42.3C47.9,45.1,44.6,50.1,43.8,56z"/>
				<path d="M44.6,93.6c-0.1,0-0.2,0-0.3-0.1c-0.1-0.1-0.2-0.2-0.2-0.4C44,92,42.3,64.4,43.3,56l0,0c1.1-9,9.6-12.1,22.9-14.1
					c0.1,0,0.3,0,0.4,0.1c0.1,0.1,0.2,0.2,0.2,0.4v45.8c0,0.2-0.2,0.4-0.4,0.5c-13.3,2.2-21.5,5-21.6,5
					C44.7,93.6,44.7,93.6,44.6,93.6z M65.8,42.9c-16.9,2.6-20.8,7-21.5,13.2l0,0c-0.9,7.7,0.5,32.2,0.7,36.4
					c2.1-0.7,9.7-2.9,20.8-4.8V42.9z M43.8,56L43.8,56L43.8,56z"/>
			</g>
		</g>
		<g>
			<path class="st10" d="M62.5,49.1V84c0,0-10.4,1.5-15.1,4.2V53.5C47.4,53.5,54.3,49.7,62.5,49.1z"/>
			<path d="M47.4,88.7c-0.1,0-0.2,0-0.2-0.1c-0.2-0.1-0.2-0.2-0.2-0.4V53.5c0-0.2,0.1-0.3,0.3-0.4c0.1,0,7.1-3.9,15.3-4.4
				c0.1,0,0.3,0,0.4,0.1c0.1,0.1,0.2,0.2,0.2,0.4V84c0,0.2-0.2,0.4-0.4,0.5c-0.1,0-10.3,1.5-14.9,4.1C47.6,88.7,47.5,88.7,47.4,88.7
				z M47.9,53.8v33.6c4.4-2.2,12.2-3.5,14.1-3.8v-34C55.1,50.2,49.1,53.1,47.9,53.8z"/>
		</g>
		<g>
			<path class="st9" d="M165.9,42.4c-3.4,6.8-3.1,19-3.1,29c0,10.6,0,43.1,0,43.1s20.9,2.6,25.1,24.8c3.1,16.4,4.8,27.7,5.5,32.5
				V42.4H165.9z"/>
			<path d="M193.3,172.3c-0.2,0-0.4-0.2-0.5-0.4c-0.7-5.2-2.4-16.3-5.5-32.5c-4.1-21.6-24.5-24.4-24.7-24.4c-0.2,0-0.4-0.2-0.4-0.5
				l0-45.3c0-9.7,0-20.6,3.2-27.1c0.1-0.2,0.3-0.3,0.4-0.3h27.5c0.3,0,0.5,0.2,0.5,0.5v129.4C193.8,172,193.6,172.2,193.3,172.3
				C193.3,172.3,193.3,172.3,193.3,172.3z M163.2,114.1c3,0.5,21.2,4.6,25.1,25.1c2.1,11.2,3.6,20,4.5,26V42.9h-26.7
				c-3,6.3-3,16.9-2.9,26.4l0,2.1V114.1z"/>
		</g>
		<g>
			<path class="st10" d="M171.2,75.6c0,0,0,24.6,0,30.4c0,5.9,1.5,5.4,4.9,9.9c3.4,4.6,11.1,13.7,11.1-1.6c0-15.3,0-43.3,0-50.9
				c0-7.6,0.7-9.6-2.9-9.6c-3.6,0-12.5,0-12.5,0L171.2,75.6z"/>
			<path d="M184,123.3c-2,0-4.8-2.3-8.3-7.1c-0.9-1.2-1.7-2-2.3-2.7c-1.8-2-2.7-3-2.7-7.5V75.6c0,0,0,0,0,0l0.5-21.8
				c0-0.3,0.2-0.5,0.5-0.5h12.5c1.2,0,2,0.2,2.6,0.8c1,1,0.9,2.7,0.9,6.3c0,0.9,0,1.9,0,3v50.9c0,5.3-0.9,8.2-2.8,8.9
				C184.5,123.3,184.3,123.3,184,123.3z M171.7,75.6V106c0,4.1,0.7,4.9,2.4,6.8c0.6,0.7,1.4,1.6,2.3,2.8c4.6,6.1,6.9,7,8,6.6
				c1-0.3,2.1-2,2.1-7.9V63.4c0-1.1,0-2.1,0-3c0-3.2,0.1-4.9-0.6-5.6c-0.3-0.3-0.9-0.5-1.9-0.5h-12.1L171.7,75.6z"/>
		</g>
		<path class="st10" d="M177.8,79.1c3-2.2,6.2-4.3,9.3-6.4v-9.3c0-7.6,0.7-9.6-2.9-9.6c-3.6,0-12.5,0-12.5,0l-0.5,21.8
			c0,0,0,3.7,0,8.6C173.3,82.4,175.6,80.7,177.8,79.1z"/>
		<g>
			<g>
				<polygon class="st10" points="244.2,45.2 244.2,63.9 257.7,63 257.7,45.2 				"/>
				<path d="M244.2,64.4c-0.1,0-0.2,0-0.3-0.1c-0.1-0.1-0.2-0.2-0.2-0.4V45.2c0-0.3,0.2-0.5,0.5-0.5l13.5-0.1c0.2,0,0.3,0.1,0.3,0.1
					c0.1,0.1,0.1,0.2,0.1,0.3V63c0,0.3-0.2,0.5-0.5,0.5L244.2,64.4C244.2,64.4,244.2,64.4,244.2,64.4z M244.6,45.7v17.7l12.5-0.9
					V45.7L244.6,45.7z"/>
			</g>
			<g>
				<polygon class="st10" points="244.2,86.1 257.7,83.9 257.7,63 244.2,63.9 				"/>
				<path d="M244.2,86.6c-0.1,0-0.2,0-0.3-0.1c-0.1-0.1-0.2-0.2-0.2-0.4V63.9c0-0.3,0.2-0.5,0.5-0.5l13.5-0.9c0.1,0,0.3,0,0.4,0.1
					c0.1,0.1,0.2,0.2,0.2,0.4v20.9c0,0.2-0.2,0.4-0.4,0.5L244.2,86.6C244.2,86.6,244.2,86.6,244.2,86.6z M244.6,64.4v21.2l12.5-2.1
					v-20L244.6,64.4z"/>
			</g>
			<g>
				<polygon class="st10" points="196.8,45.5 196.8,67.2 216.2,65.9 216.2,45.4 				"/>
				<path d="M196.8,67.7c-0.1,0-0.2,0-0.3-0.1c-0.1-0.1-0.2-0.2-0.2-0.4V45.5c0-0.3,0.2-0.5,0.5-0.5l19.4-0.1c0.1,0,0.3,0.1,0.3,0.1
					c0.1,0.1,0.1,0.2,0.1,0.3v20.5c0,0.3-0.2,0.5-0.5,0.5L196.8,67.7C196.8,67.7,196.8,67.7,196.8,67.7z M197.3,46v20.7l18.4-1.3
					V45.9L197.3,46z"/>
			</g>
			<g>
				<polygon class="st10" points="196.8,93.9 216.2,90.7 216.2,65.9 196.8,67.2 				"/>
				<path d="M196.8,94.4c-0.1,0-0.2,0-0.3-0.1c-0.1-0.1-0.2-0.2-0.2-0.4V67.2c0-0.3,0.2-0.5,0.5-0.5l19.4-1.3c0.1,0,0.3,0,0.4,0.1
					c0.1,0.1,0.2,0.2,0.2,0.4v24.9c0,0.2-0.2,0.4-0.4,0.5L196.8,94.4C196.9,94.4,196.8,94.4,196.8,94.4z M197.3,67.7v25.7l18.4-3
					V66.4L197.3,67.7z"/>
			</g>
			<g>
				<polygon class="st10" points="220.7,45.4 220.7,65.6 239.7,64.2 239.7,45.3 				"/>
				<path d="M220.7,66c-0.1,0-0.2,0-0.3-0.1c-0.1-0.1-0.2-0.2-0.2-0.4V45.4c0-0.3,0.2-0.5,0.5-0.5l19-0.1c0.1,0,0.3,0.1,0.3,0.1
					c0.1,0.1,0.1,0.2,0.1,0.3v19c0,0.3-0.2,0.5-0.5,0.5L220.7,66C220.7,66,220.7,66,220.7,66z M221.1,45.8V65l18-1.3v-18L221.1,45.8
					z"/>
			</g>
			<g>
				<polygon class="st10" points="220.7,90 239.7,86.9 239.7,64.2 220.7,65.6 				"/>
				<path d="M220.7,90.5c-0.1,0-0.2,0-0.3-0.1c-0.1-0.1-0.2-0.2-0.2-0.4V65.6c0-0.3,0.2-0.5,0.5-0.5l19-1.3c0.1,0,0.3,0,0.4,0.1
					c0.1,0.1,0.2,0.2,0.2,0.4v22.6c0,0.2-0.2,0.4-0.4,0.5L220.7,90.5C220.7,90.5,220.7,90.5,220.7,90.5z M221.1,66v23.4l18-3V64.8
					L221.1,66z"/>
			</g>
			<g>
				<polygon class="st10" points="313.2,44.9 306.6,44.9 306.6,59.6 313.2,59.1 				"/>
				<path d="M306.6,60.1c-0.1,0-0.2,0-0.3-0.1c-0.1-0.1-0.2-0.2-0.2-0.4V44.9c0-0.3,0.2-0.5,0.5-0.5l6.6,0c0,0,0,0,0,0
					c0.1,0,0.3,0.1,0.3,0.1c0.1,0.1,0.1,0.2,0.1,0.3v14.2c0,0.3-0.2,0.5-0.5,0.5L306.6,60.1C306.6,60.1,306.6,60.1,306.6,60.1z
					 M307.1,45.4v13.7l5.6-0.4V45.4L307.1,45.4z"/>
			</g>
			<g>
				<polygon class="st10" points="306.6,59.6 306.6,75.8 313.2,74.7 313.2,59.1 				"/>
				<path d="M306.6,76.3c-0.1,0-0.2,0-0.3-0.1c-0.1-0.1-0.2-0.2-0.2-0.4V59.6c0-0.3,0.2-0.5,0.5-0.5l6.6-0.5c0.1,0,0.3,0,0.4,0.1
					c0.1,0.1,0.2,0.2,0.2,0.4v15.6c0,0.2-0.2,0.4-0.4,0.5L306.6,76.3C306.6,76.3,306.6,76.3,306.6,76.3z M307.1,60v15.2l5.6-0.9
					V59.7L307.1,60z"/>
			</g>
			<g>
				<polygon class="st10" points="293.7,77.9 302.1,76.5 302.1,59.9 293.7,60.5 				"/>
				<path d="M293.7,78.4c-0.1,0-0.2,0-0.3-0.1c-0.1-0.1-0.2-0.2-0.2-0.4V60.5c0-0.3,0.2-0.5,0.5-0.5l8.4-0.6c0.1,0,0.3,0,0.4,0.1
					c0.1,0.1,0.2,0.2,0.2,0.4v16.6c0,0.2-0.2,0.4-0.4,0.5L293.7,78.4C293.8,78.4,293.7,78.4,293.7,78.4z M294.2,60.9v16.4l7.4-1.2
					V60.4L294.2,60.9z"/>
			</g>
			<g>
				<polygon class="st10" points="293.7,45 293.7,60.5 302.1,59.9 302.1,44.9 				"/>
				<path d="M293.7,61c-0.1,0-0.2,0-0.3-0.1c-0.1-0.1-0.2-0.2-0.2-0.4V45c0-0.3,0.2-0.5,0.5-0.5l8.4,0c0,0,0,0,0,0
					c0.1,0,0.3,0.1,0.3,0.1c0.1,0.1,0.1,0.2,0.1,0.3v15c0,0.3-0.2,0.5-0.5,0.5L293.7,61C293.7,61,293.7,61,293.7,61z M294.2,45.5V60
					l7.4-0.5v-14L294.2,45.5z"/>
			</g>
			<g>
				<polygon class="st10" points="262.2,83.1 275.1,81 275.1,61.8 262.2,62.7 				"/>
				<path d="M262.2,83.6c-0.1,0-0.2,0-0.3-0.1c-0.1-0.1-0.2-0.2-0.2-0.4V62.7c0-0.3,0.2-0.5,0.5-0.5l12.9-0.9c0.1,0,0.3,0,0.4,0.1
					c0.1,0.1,0.2,0.2,0.2,0.4V81c0,0.2-0.2,0.4-0.4,0.5L262.2,83.6C262.2,83.6,262.2,83.6,262.2,83.6z M262.7,63.1v19.4l11.9-2V62.3
					L262.7,63.1z"/>
			</g>
			<g>
				<polygon class="st10" points="262.2,45.1 262.2,62.7 275.1,61.8 275.1,45.1 				"/>
				<path d="M262.2,63.2c-0.1,0-0.2,0-0.3-0.1c-0.1-0.1-0.2-0.2-0.2-0.4V45.1c0-0.3,0.2-0.5,0.5-0.5l12.9-0.1c0.2,0,0.3,0.1,0.3,0.1
					c0.1,0.1,0.1,0.2,0.1,0.3v16.7c0,0.3-0.2,0.5-0.5,0.5L262.2,63.2C262.2,63.2,262.2,63.2,262.2,63.2z M262.7,45.6v16.5l11.9-0.8
					V45.6L262.7,45.6z"/>
			</g>
			<g>
				<polygon class="st10" points="279.6,45.1 279.6,61.5 289.2,60.8 289.2,45 				"/>
				<path d="M279.6,62c-0.1,0-0.2,0-0.3-0.1c-0.1-0.1-0.2-0.2-0.2-0.4V45.1c0-0.3,0.2-0.5,0.5-0.5l9.7,0c0.2,0,0.3,0.1,0.3,0.1
					c0.1,0.1,0.1,0.2,0.1,0.3v15.8c0,0.3-0.2,0.5-0.5,0.5L279.6,62C279.6,62,279.6,62,279.6,62z M280,45.5v15.4l8.7-0.6V45.5
					L280,45.5z"/>
			</g>
			<g>
				<polygon class="st10" points="279.6,80.3 289.2,78.7 289.2,60.8 279.6,61.5 				"/>
				<path d="M279.6,80.7c-0.1,0-0.2,0-0.3-0.1c-0.1-0.1-0.2-0.2-0.2-0.4V61.5c0-0.3,0.2-0.5,0.5-0.5l9.7-0.7c0.1,0,0.3,0,0.4,0.1
					c0.1,0.1,0.2,0.2,0.2,0.4v17.9c0,0.2-0.2,0.4-0.4,0.5L279.6,80.7C279.6,80.7,279.6,80.7,279.6,80.7z M280,61.9v17.8l8.7-1.4
					V61.3L280,61.9z"/>
			</g>
		</g>
		<g>
			<path d="M26.9,119.4c-0.2,1.6-0.4,3.1-0.5,4.7l-0.1,2.4c0,0.8,0,1.6,0,2.4c0,3.1,0.3,6.3,0.8,9.4c0.2,1.6,0.6,3.1,0.9,4.6
				c0.4,1.5,0.8,3,1.3,4.5c0.3,0.7,0.5,1.5,0.8,2.2l0.9,2.2c0.3,0.7,0.6,1.4,1,2.1c0.4,0.7,0.7,1.4,1,2.1c-1.7-2.6-3.3-5.4-4.4-8.4
				c-0.6-1.5-1-3-1.5-4.5c-0.3-1.6-0.7-3.1-1-4.7c-0.5-3.1-0.7-6.3-0.5-9.5C25.6,125.6,26,122.5,26.9,119.4z"/>
			<path class="st16" d="M26.6,123.7c0.1-0.4,0.4-0.8,0.7-1.1c0.3-0.3,0.7-0.5,1-0.8c0.4-0.2,0.8-0.4,1.2-0.6l1.2-0.5
				c1.6-0.5,3.3-0.9,5-1.3c3.4-0.6,6.8-0.9,10.2-1.2c1.7-0.1,3.4-0.2,5.1-0.2l5.1-0.1c3.4,0,6.8,0.1,10.2,0.2
				c6.8,0.3,13.6,0.6,20.3,1.4c3.4,0.4,6.8,0.9,10.1,1.8c1.7,0.4,3.3,1,4.8,1.8c0.4,0.2,0.8,0.4,1.1,0.7c0.3,0.3,0.7,0.5,1,0.9
				l0.4,0.5l0.3,0.6l0.1,0.3c0,0.1,0.1,0.2,0.1,0.3l0.1,0.6c-0.4-1.7-1.9-2.7-3.4-3.4c-1.5-0.7-3.2-1.1-4.8-1.3
				c-3.3-0.6-6.6-0.9-10-1.2c-3.4-0.2-6.7-0.5-10.1-0.6c-3.4-0.2-6.8-0.3-10.1-0.4c-6.8-0.2-13.5-0.5-20.2-0.3
				c-3.4,0.1-6.7,0.2-10.1,0.6c-1.7,0.2-3.3,0.4-5,0.8l-1.2,0.3l-1.2,0.5c-0.4,0.2-0.8,0.4-1.1,0.6C27,123,26.7,123.3,26.6,123.7z"
				/>
		</g>
		<path class="st5" d="M97.2,151.3c0,0,4.5-27.4,19.8-35.3c15.3-8,45.7-16,45.7-16v15.6c0,0-14.7-2.3-28.7,2.6
			C119.9,123,106.4,133.8,97.2,151.3z"/>
		<path class="st16" d="M30.4,118.5c0,0,19.7-4.8,63.4-0.9c19.1-14.5,37-18.2,44.1-19C101.5,91.9,52,90.7,30.4,118.5z"/>
		<g>
			<path class="st5" d="M165.9,127c-14.1,2-20.8,14.7-23.5,21c-2.7,6.3-5.6,10.9-22.1,11.8c-16.5,0.9-24.9,0.3-24.7-4.8
				c-2.7,6-15.3,6.8-39.2,5.3s-24-3.1-28.4-15.7c-2.8-8.8-2.5-18.2-1.8-24.5c-0.6,0.5-1.2,1-1.8,1.6c-0.9,8.4,0.1,17.1,1.9,23.1
				c2,7.2,7.3,13.3-3.4,12.8c-9.9-0.4-14.6-2.9-16.8-5.7c0.1,4.8,2.1,7.3,2.1,7.3s9.7,4.8,71,7c57.9,0.6,66.7-2,66.7-2
				c5.8-1.3,5.6-3.3,5.8-9c0.2-5.8,9-20.8,19.2-22.5c10.2-1.6,14.2,8.1,16.7,24.6c2.5,16.8,3.2,21.5,3.2,21.5l3-1v-3.3
				c0,0-1.4-10.7-4.8-29.5C184.4,130.5,179.2,125.5,165.9,127z"/>
		</g>
		<path class="st16" d="M133,139c0,0,11.6-8.4,28.5-15.9c11.2-4.5-20-7.7-34.8,2.4c-14.4,9.9-15.9,15.9-8.2,13.3
			C126.4,136.2,133,139,133,139z"/>
		<g>
			<g>
				<path class="st1" d="M8.5,144.3c-1.1,3.4,1.6,7.8,6,9.8c4.4,2,8.8,0.8,9.8-2.7c1.1-3.4-1.6-7.8-6-9.8
					C13.9,139.7,9.5,140.9,8.5,144.3z"/>
				<path d="M18.6,155.5c-1.4,0-2.9-0.3-4.3-1c-4.6-2-7.4-6.7-6.2-10.3c0.5-1.5,1.5-2.6,3-3.3c2.1-1,4.9-0.8,7.5,0.3
					c4.6,2,7.4,6.7,6.2,10.3c-0.5,1.5-1.5,2.6-3,3.3C20.8,155.3,19.7,155.5,18.6,155.5z M14.1,141.2c-1,0-1.9,0.2-2.7,0.5
					c-1.2,0.6-2.1,1.5-2.5,2.7c-1,3.2,1.6,7.3,5.7,9.2c2.3,1,4.8,1.2,6.7,0.3c1.2-0.6,2.1-1.5,2.5-2.7c1-3.2-1.6-7.3-5.7-9.2
					C16.8,141.5,15.4,141.2,14.1,141.2z"/>
			</g>
			<g>
				
					<ellipse transform="matrix(0.5371 -0.8435 0.8435 0.5371 -117.134 82.251)" class="st13" cx="16.4" cy="147.8" rx="5.4" ry="7.4"/>
				<path d="M18.2,154.4c-1.2,0-2.5-0.3-3.7-0.8c-3.9-1.7-6.3-5.7-5.3-8.8l0,0c0.4-1.3,1.3-2.3,2.6-2.9c1.8-0.8,4.1-0.7,6.4,0.3
					c3.9,1.7,6.3,5.7,5.3,8.8c-0.4,1.3-1.3,2.3-2.6,2.9C20.1,154.2,19.2,154.4,18.2,154.4z M10.2,145c-0.8,2.7,1.3,6.1,4.8,7.6
					c2,0.9,4,1,5.6,0.3c1-0.5,1.7-1.2,2.1-2.3c0.8-2.7-1.3-6.1-4.8-7.6c-2-0.9-4-1-5.6-0.3C11.2,143.2,10.5,144,10.2,145L10.2,145z"
					/>
			</g>
			<g>
				<path class="st1" d="M16.5,147.5c0.2-1.8,0.2-3.7-0.2-5.4c0.5,0.1,1.1,0.3,1.6,0.6c3.7,1.6,5.9,5.3,5,8.2
					c-0.9,2.8-4.3,3.8-7.7,2.5C15.9,151.4,16.3,149.4,16.5,147.5z"/>
				<path d="M18.2,154.4c-1,0-2.1-0.2-3.1-0.6c-0.2-0.1-0.4-0.4-0.3-0.6c0.6-1.9,1-3.8,1.2-5.8l0,0c0.2-1.9,0.1-3.7-0.1-5.3
					c0-0.2,0-0.3,0.1-0.4c0.1-0.1,0.3-0.2,0.4-0.1c0.6,0.1,1.2,0.3,1.7,0.6c3.9,1.7,6.3,5.7,5.3,8.8c-0.4,1.2-1.2,2.2-2.4,2.8
					C20.2,154.2,19.3,154.4,18.2,154.4z M15.9,153c1.7,0.6,3.4,0.5,4.7-0.1c1-0.5,1.6-1.2,1.9-2.2c0.8-2.7-1.3-6.1-4.8-7.6
					c-0.3-0.1-0.5-0.2-0.8-0.3c0.2,1.5,0.2,3.1,0,4.8l0,0C16.8,149.3,16.4,151.2,15.9,153z"/>
			</g>
		</g>
		<path class="st16" d="M22.3,141.5c0,0-5.1-3.5-9.3-2.9C18.8,127.8,24.4,123.4,22.3,141.5z"/>
		<path class="st16" d="M94.8,156.8c1.7-4.8,4.1-9.3,6.8-13.7c2.7-4.3,5.9-8.4,9.6-12c3.6-3.7,7.7-6.8,12.2-9.5
			c4.5-2.6,9.3-4.5,14.4-5.7l1.9-0.4l1.9-0.3c1.3-0.2,2.5-0.4,3.8-0.5c2.5-0.3,5.1-0.6,7.7-0.6c5.1-0.2,10.4,0.1,15.4,1.8
			c2.5,0.9,4.8,2.1,6.9,3.7c2.1,1.6,3.8,3.6,5.2,5.8c2.7,4.4,4.2,9.4,5,14.4c-1.2-4.9-2.9-9.8-5.8-13.9c-1.4-2-3.2-3.9-5.2-5.3
			c-2-1.4-4.2-2.5-6.6-3.3c-4.7-1.4-9.8-1.7-14.8-1.4c-2.5,0.1-5,0.4-7.5,0.7c-1.2,0.2-2.5,0.4-3.7,0.5l-1.9,0.3l-1.8,0.4
			c-9.8,2.2-18.7,7.4-25.9,14.3c-3.6,3.5-6.9,7.3-9.8,11.5C99.4,147.8,96.9,152.2,94.8,156.8z"/>
		<g>
			<path d="M71.7,25.7c0.2,0,0.4,0.1,0.6,0.1c0.2,0,0.4,0.1,0.6,0.1c0.2,0,0.4,0,0.5,0.1c0.2,0,0.3,0,0.4,0.1
				c0.4,0.1,0.7,0.2,1.1,0.3c0.4,0.1,0.7,0.3,1,0.6c0.2,0.2,0.4,0.5,0.5,0.8c0.1,0.3,0.1,0.6,0,0.9c-0.1,0.3-0.2,0.6-0.5,0.9
				c-0.2,0.3-0.5,0.5-0.9,0.7c-0.3,0.2-0.6,0.3-1,0.4c-0.3,0.1-0.7,0.2-1.1,0.3C72.5,31,72.2,31,71.8,31c-0.4,0-0.7-0.1-1-0.2
				c-0.2-0.1-0.3-0.1-0.4-0.2c-0.1-0.1-0.2-0.2-0.3-0.3c-0.1-0.3-0.2-0.5-0.1-0.7c0-0.2,0.1-0.4,0.2-0.5c0.1-0.1,0.3-0.2,0.5-0.3
				c0.2-0.1,0.4,0,0.7,0c0.1,0,0.3,0,0.4,0.1c0.1,0,0.3,0,0.4,0c0.2,0,0.3,0,0.5,0c0.1,0,0.3,0,0.4,0c0.3-0.1,0.5-0.2,0.6-0.3
				c0.1-0.1,0.1-0.2,0.1-0.3c0-0.1-0.1-0.2-0.3-0.2c-0.2-0.1-0.3-0.1-0.5-0.2c-0.4-0.1-0.7-0.1-1.1-0.1c-0.4,0-0.7-0.1-1.1-0.1
				c-0.6-0.1-1-0.3-1.5-0.5c-0.4-0.3-0.7-0.6-0.9-1c-0.2-0.4-0.2-0.8-0.1-1.3c0.1-0.5,0.3-0.9,0.8-1.3c0.2-0.2,0.5-0.4,0.8-0.6
				c0.3-0.2,0.7-0.3,1.1-0.4c0.4-0.1,0.8-0.2,1.2-0.2c0.4,0,0.8,0,1.2,0c0.4,0,0.7,0.2,1,0.3c0.3,0.2,0.5,0.4,0.7,0.6
				c0.1,0.2,0.2,0.4,0.1,0.6c0,0.2-0.1,0.4-0.2,0.5c-0.1,0.1-0.2,0.2-0.3,0.3c-0.1,0-0.2,0.1-0.3,0.1c-0.1,0-0.2,0-0.3-0.1
				c-0.1,0-0.2-0.1-0.3-0.1c-0.2-0.1-0.4-0.2-0.7-0.3c-0.3-0.1-0.6-0.1-0.9-0.1c-0.3,0-0.6,0.1-0.9,0.2c-0.3,0.1-0.4,0.3-0.5,0.5
				c-0.1,0.2,0,0.3,0.1,0.5C70.9,25.5,71.2,25.6,71.7,25.7z"/>
			<path d="M81.4,26.3c0-0.2,0.1-0.3,0.3-0.4c0.1-0.1,0.3-0.1,0.4-0.1c0.2,0,0.3,0,0.5,0.1c0.2,0.1,0.3,0.2,0.4,0.3
				c0.1,0.1,0.2,0.3,0.3,0.5c0.1,0.2,0.1,0.4,0,0.7c-0.2,0.6-0.5,1.1-0.9,1.5c-0.4,0.4-0.9,0.7-1.5,0.8c-0.4,0.1-0.8,0-1.1,0
				c-0.3-0.1-0.7-0.2-1-0.4c-0.3-0.2-0.6-0.4-0.8-0.7c-0.2-0.3-0.5-0.6-0.7-0.9c-0.2-0.3-0.3-0.7-0.5-1c-0.1-0.3-0.2-0.7-0.2-1
				c-0.1-0.5-0.1-1,0-1.5c0.1-0.5,0.3-0.9,0.5-1.4c0.2-0.4,0.6-0.8,0.9-1.1c0.4-0.3,0.8-0.5,1.4-0.6c0.5-0.1,0.9-0.1,1.3,0
				c0.4,0.1,0.8,0.2,1.1,0.4c0.3,0.2,0.6,0.5,0.7,0.8c0.2,0.3,0.3,0.7,0.3,1.1c0,0.2,0,0.4-0.1,0.5c-0.1,0.1-0.2,0.3-0.3,0.3
				c-0.1,0.1-0.3,0.1-0.4,0.2c-0.2,0-0.3,0-0.4,0c-0.1,0-0.3-0.1-0.4-0.1c-0.1-0.1-0.2-0.2-0.2-0.3c0-0.4-0.2-0.7-0.4-0.8
				C80.5,23,80.2,22.9,80,23c-0.3,0.1-0.6,0.2-0.8,0.5c-0.2,0.3-0.3,0.6-0.4,0.9c-0.1,0.3-0.1,0.7,0,1.1c0.1,0.4,0.1,0.7,0.3,1
				c0.1,0.3,0.3,0.5,0.6,0.7c0.2,0.2,0.5,0.2,0.8,0.2c0.2,0,0.4-0.2,0.6-0.3C81.2,26.9,81.3,26.6,81.4,26.3z"/>
			<path d="M89.9,22c0,0.8,0,1.6,0,2.3c0,0.8,0.1,1.6,0.3,2.4c0,0.3,0.1,0.6,0.1,0.9c0,0.2,0.1,0.4,0.1,0.4c0.1,0.1,0,0.3-0.2,0.4
				c-0.2,0.1-0.4,0.2-0.7,0.3c-0.3,0.1-0.5,0.1-0.8,0c-0.3,0-0.4-0.2-0.5-0.4c-0.2-0.3-0.3-0.7-0.3-1c-0.1-0.4-0.1-0.8-0.2-1.1
				c-0.3,0-0.5,0.1-0.8,0.1c-0.3,0-0.5,0-0.8,0c0,0.2,0,0.3,0.1,0.4c0,0.1,0.1,0.3,0.1,0.4c0.1,0.3,0.1,0.6,0.2,0.8
				c0,0.2,0.1,0.3,0.1,0.3c0.1,0.1,0,0.3-0.2,0.4c-0.2,0.1-0.4,0.2-0.7,0.3c-0.1,0-0.2,0.1-0.4,0.1c-0.1,0-0.3,0-0.4,0
				c-0.1,0-0.2-0.1-0.3-0.1c-0.1-0.1-0.2-0.1-0.2-0.2c-0.1-0.2-0.2-0.4-0.2-0.7c-0.1-0.3-0.2-0.6-0.2-1c-0.2-1-0.3-1.9-0.3-2.9
				c0-1,0-2,0.2-2.9c0,0,0-0.1,0-0.2c0-0.1,0-0.2,0.1-0.3c0.1-0.1,0.1-0.2,0.3-0.3c0.1-0.1,0.3-0.1,0.5-0.1c0.3,0,0.6,0,0.7,0.1
				c0.2,0.1,0.3,0.2,0.3,0.3c0,0.1,0.1,0.1,0.1,0.1c0,0,0,0.1,0,0.1c0,0,0,0.1,0,0.1c0,0.1,0,0.2,0,0.3c0,0.2,0,0.5,0,0.8
				c0,0.3,0,0.6,0,0.9c0,0.3,0,0.7,0.1,1c0.1,0,0.2,0,0.3-0.1c0.1,0,0.2,0,0.3,0c0.2,0,0.4-0.1,0.6-0.1c0.2,0,0.4-0.1,0.5-0.1
				c0-0.4,0-0.7,0-1.1c0-0.3,0-0.6,0.1-0.9c0-0.3,0-0.5,0.1-0.6c0-0.2,0-0.3,0.1-0.3c0,0,0-0.1,0-0.2c0-0.1,0-0.2,0.1-0.3
				c0.1-0.1,0.1-0.2,0.3-0.3c0.1-0.1,0.3-0.1,0.5-0.1c0.3,0,0.6,0.1,0.7,0.1c0.1,0.1,0.3,0.2,0.3,0.3c0,0.1,0,0.1,0.1,0.1
				c0,0,0,0.1,0,0.1c0,0,0,0.1,0,0.1c0,0.1,0,0.2,0,0.3c0,0.1,0,0.2,0,0.3C89.9,21.7,89.9,21.8,89.9,22z"/>
			<path d="M93.8,19.7c0.5,0,1,0.1,1.4,0.3c0.4,0.2,0.8,0.5,1.1,0.9c0.3,0.4,0.5,0.8,0.7,1.3c0.2,0.5,0.2,1,0.3,1.6
				c0,0.5,0,1.1-0.1,1.6s-0.3,1-0.5,1.4c-0.2,0.4-0.5,0.8-0.9,1c-0.4,0.3-0.8,0.4-1.4,0.5c-0.6,0-1,0-1.5-0.3
				c-0.4-0.2-0.8-0.5-1.1-0.9c-0.3-0.4-0.5-0.8-0.7-1.3c-0.2-0.5-0.3-1-0.3-1.6c0-0.5,0-1.1,0.1-1.6c0.1-0.5,0.3-1,0.5-1.4
				c0.3-0.4,0.6-0.8,1-1.1C92.8,19.9,93.3,19.7,93.8,19.7z M95.3,23.8c0-0.5-0.1-0.9-0.2-1.2c-0.1-0.3-0.3-0.5-0.5-0.7
				c-0.2-0.1-0.4-0.2-0.6-0.2c-0.2,0-0.4,0.1-0.6,0.3c-0.2,0.2-0.3,0.5-0.5,0.8c-0.1,0.3-0.2,0.8-0.2,1.2c0,0.6,0.1,1,0.2,1.4
				c0.1,0.4,0.3,0.6,0.5,0.8c0.2,0.2,0.4,0.2,0.6,0.2c0.2,0,0.4-0.1,0.6-0.4c0.2-0.2,0.3-0.5,0.5-0.9C95.3,24.8,95.3,24.3,95.3,23.8
				z"/>
			<path d="M100.9,19.5c0.5,0,1,0.1,1.4,0.3c0.4,0.2,0.7,0.6,1,1c0.3,0.4,0.5,0.9,0.6,1.4c0.1,0.5,0.2,1,0.2,1.6
				c0,0.5-0.1,1.1-0.2,1.6c-0.1,0.5-0.3,1-0.6,1.4c-0.3,0.4-0.6,0.7-1,1c-0.4,0.3-0.8,0.4-1.4,0.4c-0.6,0-1-0.1-1.5-0.3
				c-0.4-0.2-0.8-0.5-1.1-0.9c-0.3-0.4-0.5-0.8-0.7-1.4c-0.1-0.5-0.2-1-0.2-1.6c0-0.5,0-1.1,0.2-1.6c0.1-0.5,0.3-1,0.6-1.4
				c0.3-0.4,0.6-0.8,1-1C99.9,19.6,100.4,19.5,100.9,19.5z M102.3,23.6c0-0.5-0.1-0.9-0.2-1.2c-0.1-0.3-0.3-0.6-0.5-0.7
				c-0.2-0.1-0.4-0.2-0.6-0.2c-0.2,0-0.4,0.1-0.6,0.3c-0.2,0.2-0.4,0.4-0.5,0.8c-0.1,0.3-0.2,0.7-0.2,1.2c0,0.6,0,1,0.2,1.4
				c0.1,0.4,0.3,0.6,0.5,0.8c0.2,0.2,0.4,0.3,0.6,0.2c0.2,0,0.4-0.1,0.6-0.3c0.2-0.2,0.4-0.5,0.5-0.9
				C102.2,24.7,102.3,24.2,102.3,23.6z"/>
			<path d="M109.9,25.9c0.1,0,0.1,0.1,0.1,0.2c0,0.1,0,0.3,0,0.5c0,0.2,0,0.4,0,0.6c0,0.2-0.1,0.4-0.1,0.6c-0.1,0.2-0.2,0.3-0.3,0.4
				c-0.1,0-0.3,0.1-0.5,0.1c-0.2,0-0.5,0-0.8,0c-0.3,0-0.6,0-0.9,0c-0.3,0-0.5,0-0.8,0c-0.2,0-0.4,0-0.5,0c-0.2,0-0.4,0-0.5-0.1
				c-0.2,0-0.3-0.1-0.4-0.2c-0.1-0.1-0.2-0.2-0.3-0.4c-0.1-0.2-0.1-0.3-0.1-0.6c0-0.3,0-0.7,0-1.2c0-0.5,0-0.9,0-1.4
				c0-0.5,0-1,0.1-1.5c0-0.5,0.1-1,0.1-1.4c0-0.4,0.1-0.8,0.1-1c0-0.3,0-0.4,0.1-0.5c0,0,0-0.1,0-0.1c0-0.1,0-0.1,0.1-0.2
				c0.1-0.1,0.1-0.1,0.3-0.2c0.1,0,0.3-0.1,0.5-0.1c0.3,0,0.5,0,0.7,0.1c0.2,0.1,0.3,0.2,0.3,0.3c0.1,0.1,0.1,0.3,0.1,0.4
				c0,0.7,0,1.4,0,2.1c0,0.3,0,0.6,0,0.9c0,0.3,0,0.6,0,1c0,0.3,0,0.6,0,1c0,0.3,0,0.6,0,0.9c0.2,0,0.4,0,0.7,0c0.3,0,0.6,0,0.9,0
				C109.1,25.9,109.5,25.9,109.9,25.9z"/>
			<path d="M118.8,24.2c0.2,0.1,0.4,0.2,0.6,0.3c0.2,0.1,0.3,0.3,0.4,0.5c0.1,0.2,0.2,0.4,0.3,0.6c0.1,0.2,0.1,0.4,0.1,0.6
				c0,0.5-0.1,1-0.4,1.3c-0.3,0.4-0.6,0.6-1,0.8c-0.4,0.2-0.9,0.3-1.4,0.4c-0.5,0.1-1,0.1-1.4,0c0,0,0,0,0,0c-0.2,0-0.3,0-0.5,0
				c-0.2,0-0.4,0-0.5-0.1c-0.2-0.1-0.3-0.1-0.4-0.2c-0.1-0.1-0.2-0.2-0.2-0.4c0-0.2,0-0.4,0-0.8c0-0.4,0-0.8,0.1-1.3
				c0-0.5,0.1-1,0.1-1.6c0-0.5,0.1-1.1,0.1-1.6c0-0.5,0.1-0.9,0.1-1.3c0-0.4,0.1-0.6,0.1-0.8c0,0,0-0.1,0-0.2c0-0.1,0-0.2,0.1-0.3
				c0-0.1,0.1-0.2,0.3-0.3c0.1-0.1,0.3-0.1,0.5-0.1c0.2,0,0.4,0,0.6,0c0.1,0,0.3,0.1,0.3,0.2c0.4,0,0.8,0,1.1,0.1
				c0.4,0.1,0.7,0.3,1,0.5c0.3,0.2,0.5,0.4,0.7,0.7c0.2,0.3,0.3,0.6,0.4,0.9c0,0.3,0,0.6-0.1,1C119.4,23.6,119.2,23.9,118.8,24.2z
				 M116.6,23.4c0.3,0,0.5,0,0.6-0.1c0.2-0.1,0.3-0.2,0.4-0.3c0.1-0.1,0.2-0.3,0.2-0.4c0-0.2,0-0.3-0.1-0.4
				c-0.1-0.1-0.2-0.2-0.4-0.3c-0.2-0.1-0.4-0.1-0.7-0.1c0,0.1,0,0.2,0,0.4c0,0.2,0,0.4,0,0.5c0,0.2,0,0.4,0,0.5
				C116.7,23.2,116.7,23.3,116.6,23.4z M116.5,27c0.4,0,0.7,0,1,0c0.3-0.1,0.5-0.2,0.6-0.3c0.1-0.1,0.2-0.3,0.2-0.4
				c0-0.2-0.1-0.3-0.2-0.5c-0.1-0.1-0.3-0.3-0.6-0.4c-0.3-0.1-0.6-0.1-0.9-0.1c0,0.1,0,0.2,0,0.4c0,0.2,0,0.3,0,0.5
				c0,0.2,0,0.3,0,0.5C116.5,26.8,116.5,26.9,116.5,27z"/>
			<path d="M123.9,21.6c-0.2,0.5-0.4,1.1-0.5,1.6c-0.2,0.5-0.3,1-0.3,1.5c0,0.6,0,1.1,0.1,1.5c0.1,0.4,0.3,0.7,0.5,0.9
				c0.2,0.2,0.4,0.3,0.7,0.3c0.3,0,0.5-0.1,0.8-0.2c0.3-0.2,0.5-0.4,0.7-0.7c0.2-0.3,0.4-0.7,0.4-1.2c0-0.2,0.1-0.4,0.1-0.7
				c0-0.3,0-0.6,0-0.9c0-0.3,0-0.6-0.1-0.9c0-0.3-0.1-0.5-0.1-0.7c0-0.1,0-0.3,0-0.4c0-0.1,0.1-0.2,0.2-0.3c0.1-0.1,0.2-0.1,0.3-0.2
				c0.1,0,0.2-0.1,0.4-0.1c0.4-0.1,0.7,0,0.9,0.1c0.2,0.1,0.4,0.4,0.5,0.7c0.1,0.6,0.2,1.2,0.2,1.8c0,0.6-0.1,1.2-0.2,1.8
				c-0.1,0.6-0.3,1.1-0.6,1.7c-0.3,0.5-0.7,1-1.1,1.4c-0.4,0.3-0.8,0.5-1.2,0.7c-0.4,0.2-0.9,0.2-1.4,0.2c-0.5-0.1-1-0.2-1.4-0.5
				c-0.4-0.3-0.7-0.6-1-1c-0.3-0.4-0.5-0.8-0.6-1.3c-0.1-0.5-0.2-0.9-0.2-1.4c0-0.4,0-0.8,0.1-1.1c0-0.4,0.1-0.7,0.2-1.1
				c0.1-0.4,0.2-0.7,0.3-1.1c0.1-0.3,0.2-0.7,0.4-1c0.1-0.1,0.2-0.3,0.3-0.4c0.1-0.1,0.4-0.1,0.7-0.1c0.2,0,0.3,0.1,0.4,0.1
				c0.1,0,0.3,0.1,0.4,0.2c0.1,0.1,0.2,0.2,0.2,0.3C124,21.3,124,21.4,123.9,21.6z"/>
			<path d="M132.6,25.6c0.2,0.1,0.3,0.2,0.5,0.3c0.2,0.1,0.4,0.2,0.5,0.3c0.2,0.1,0.3,0.2,0.5,0.2c0.1,0.1,0.3,0.1,0.3,0.2
				c0.3,0.2,0.6,0.4,0.9,0.6c0.3,0.2,0.5,0.5,0.7,0.9c0.1,0.3,0.2,0.6,0.2,0.9c0,0.3-0.2,0.6-0.3,0.8c-0.2,0.3-0.4,0.5-0.8,0.7
				c-0.3,0.2-0.7,0.3-1.1,0.4c-0.3,0.1-0.7,0.1-1,0.1c-0.4,0-0.7-0.1-1.1-0.1c-0.4-0.1-0.7-0.2-1-0.3c-0.3-0.1-0.6-0.3-0.9-0.5
				c-0.1-0.1-0.2-0.2-0.3-0.4c-0.1-0.1-0.2-0.3-0.2-0.4c0-0.3,0-0.5,0.1-0.7c0.1-0.2,0.2-0.3,0.4-0.4c0.2-0.1,0.4-0.1,0.6-0.1
				c0.2,0,0.4,0.1,0.6,0.3c0.1,0.1,0.2,0.1,0.4,0.2c0.1,0.1,0.3,0.1,0.4,0.2c0.1,0.1,0.3,0.1,0.4,0.2c0.1,0.1,0.3,0.1,0.4,0.1
				c0.3,0,0.5,0,0.6,0c0.1-0.1,0.2-0.1,0.2-0.2c0-0.1-0.1-0.2-0.2-0.3c-0.1-0.1-0.3-0.2-0.4-0.3c-0.3-0.2-0.7-0.4-1-0.5
				c-0.3-0.1-0.7-0.3-1-0.5c-0.5-0.3-0.9-0.6-1.2-1c-0.3-0.4-0.4-0.8-0.5-1.3c0-0.4,0.1-0.8,0.3-1.2c0.2-0.4,0.6-0.7,1.2-1
				c0.3-0.1,0.6-0.2,0.9-0.2c0.4,0,0.7-0.1,1.1,0c0.4,0,0.8,0.1,1.2,0.2c0.4,0.1,0.8,0.3,1.1,0.4c0.3,0.2,0.6,0.4,0.8,0.6
				c0.2,0.3,0.4,0.5,0.4,0.8c0,0.2,0,0.5-0.1,0.6c-0.1,0.2-0.2,0.3-0.3,0.4c-0.1,0.1-0.2,0.1-0.3,0.1c-0.1,0-0.2,0-0.3,0
				c-0.1,0-0.2-0.1-0.3-0.2c-0.1-0.1-0.1-0.1-0.2-0.2c-0.1-0.2-0.3-0.3-0.6-0.5c-0.3-0.2-0.6-0.3-0.9-0.4c-0.3-0.1-0.6-0.1-0.9-0.1
				c-0.3,0-0.5,0.1-0.7,0.3c-0.1,0.1-0.1,0.3-0.1,0.5C131.9,25.1,132.2,25.3,132.6,25.6z"/>
		</g>
		<path class="st10" d="M255.9,52.8c0.6-0.1,1.2-0.2,1.8-0.3v-7.4l-13.5,0.1v9.5C248.1,54.1,252,53.4,255.9,52.8z"/>
		<path class="st10" d="M216.2,60.9V45.4l-19.4,0.1v21.7l1.5-0.1C204,64.5,210.1,62.5,216.2,60.9z"/>
		<path class="st10" d="M239.7,55.6V45.3l-19,0.1v14.4C227,58.2,233.3,56.9,239.7,55.6z"/>
		<path class="st10" d="M313.2,47.1v-2.2l-6.6,0v2.5C308.8,47.3,311,47.2,313.2,47.1z"/>
		<path class="st10" d="M295.7,48.2c2.1-0.2,4.2-0.3,6.3-0.5v-2.8l-8.4,0v3.4C294.4,48.3,295.1,48.3,295.7,48.2z"/>
		<path class="st10" d="M275.1,50.2v-5.1l-12.9,0.1v6.7C266.5,51.3,270.8,50.7,275.1,50.2z"/>
		<path class="st10" d="M289.2,48.8V45l-9.7,0v4.7C282.8,49.4,286,49.1,289.2,48.8z"/>
		<g>
			<path class="st16" d="M169.4,20.6c1.8,2.5,3.2,5.2,4,8.1h135.4c0,0-0.9-4.8-23.6-7.8c-16.4-2.2-88.7-7.9-128.5-11
				C161.6,12.5,166.1,16.2,169.4,20.6z"/>
		</g>
		<g>
			<g>
				<path class="st1" d="M193.7,162v11.9l3-10.2l77.6-29.9c0.1-0.9,0.2-1.8,0.3-2.7L193.7,162z"/>
				<path d="M193.7,174.4C193.6,174.4,193.6,174.4,193.7,174.4c-0.3,0-0.5-0.2-0.5-0.5V162c0-0.2,0.1-0.4,0.3-0.5l80.9-31
					c0.2-0.1,0.3,0,0.5,0.1c0.1,0.1,0.2,0.3,0.2,0.4c-0.1,0.9-0.2,1.9-0.3,2.7c0,0.2-0.1,0.3-0.3,0.4l-77.4,29.9l-2.9,10
					C194.1,174.3,193.9,174.4,193.7,174.4z M194.2,162.4v8.2l2-7c0-0.1,0.1-0.3,0.3-0.3l77.3-29.8c0.1-0.5,0.1-1.1,0.2-1.7
					L194.2,162.4z"/>
			</g>
			<g>
				<path class="st1" d="M317.6,114.6l-23.7,9.1c0.1,0.8,0.2,1.7,0.3,2.5l23.3-9C317.5,116.3,317.5,115.5,317.6,114.6z"/>
				<path d="M294.1,126.6c-0.1,0-0.2,0-0.3-0.1c-0.1-0.1-0.2-0.2-0.2-0.4c-0.1-0.8-0.1-1.6-0.3-2.4c0-0.2,0.1-0.4,0.3-0.5l23.7-9.1
					c0.2-0.1,0.3,0,0.5,0.1c0.1,0.1,0.2,0.3,0.2,0.4l-0.1,2.5c0,0.2-0.1,0.4-0.3,0.4l-23.3,9C294.2,126.6,294.1,126.6,294.1,126.6z
					 M294.4,124c0.1,0.5,0.1,1,0.2,1.5l22.4-8.7l0.1-1.5L294.4,124z"/>
			</g>
		</g>
	</g>
	<g>
		<g>
			<path class="st0" d="M177.4,85.6h-10.6c-1.7,0-3.1-1.4-3.1-3.1V53.1c0-1.7,1.4-3.1,3.1-3.1h10.6c1.7,0,3.1,1.4,3.1,3.1v29.3
				C180.5,84.2,179.1,85.6,177.4,85.6z"/>
			<path d="M177.4,86h-10.6c-2,0-3.6-1.6-3.6-3.6V53.1c0-2,1.6-3.6,3.6-3.6h10.6c2,0,3.6,1.6,3.6,3.6v29.3
				C181,84.4,179.4,86,177.4,86z M166.8,50.5c-1.4,0-2.6,1.2-2.6,2.6v29.3c0,1.4,1.2,2.6,2.6,2.6h10.6c1.4,0,2.6-1.2,2.6-2.6V53.1
				c0-1.4-1.2-2.6-2.6-2.6H166.8z"/>
		</g>
		<g>
			<path class="st1" d="M177.4,50h-2.8v35.5h2.8c1.7,0,3.1-1.4,3.1-3.1V53.1C180.5,51.4,179.1,50,177.4,50z"/>
			<path d="M177.4,86h-2.8c-0.3,0-0.5-0.2-0.5-0.5V50c0-0.3,0.2-0.5,0.5-0.5h2.8c2,0,3.6,1.6,3.6,3.6v29.3
				C181,84.4,179.4,86,177.4,86z M175.1,85.1h2.3c1.4,0,2.6-1.2,2.6-2.6V53.1c0-1.4-1.2-2.6-2.6-2.6h-2.3V85.1z"/>
		</g>
		<g>
			<path class="st0" d="M170.3,40.2h-3c-0.3,0.5-0.5,0.9-0.8,1.4v0.5h3.7c1.3,0,1.3,0,1.3,1.3V50h1.9v-6.6
				C173.6,41,172.7,40.2,170.3,40.2z"/>
			<path d="M173.6,50.5h-1.9c-0.3,0-0.5-0.2-0.5-0.5v-6.6c0-0.4,0-0.7,0-0.8c0,0-0.4,0-0.8,0h-3.7c-0.3,0-0.5-0.2-0.5-0.5v-0.5
				c0-0.1,0-0.2,0.1-0.2c0.3-0.5,0.5-0.9,0.8-1.4c0.1-0.2,0.2-0.2,0.4-0.2h3c2.7,0,3.7,1.1,3.7,3.7V50
				C174.1,50.3,173.8,50.5,173.6,50.5z M172.1,49.5h1v-6.1c0-2.1-0.6-2.8-2.8-2.8h-2.7c-0.2,0.3-0.4,0.6-0.5,1h3.2
				c1.6,0,1.8,0.2,1.8,1.8V49.5z"/>
		</g>
		<path class="st2" d="M177.4,50h-0.2c0,1.7,0.1,3.3,0.1,5c0,2.5,0,5.1-0.3,7.6c-0.4,3-1.5,5.8-3.3,8.2c-1.7,2.2-3.9,3.8-6.4,5
			c-1.2,0.6-2.4,1.1-3.6,1.5v5.2c0,1.7,1.4,3.1,3.1,3.1h10.6c1.7,0,3.1-1.4,3.1-3.1V53.1C180.5,51.4,179.1,50,177.4,50z"/>
	</g>
</g>
</svg>
