<?xml version="1.0" encoding="utf-8"?>
<!-- Generator: Adobe Illustrator 25.2.0, SVG Export Plug-In . SVG Version: 6.00 Build 0)  -->
<svg version="1.1" xmlns="http://www.w3.org/2000/svg" xmlns:xlink="http://www.w3.org/1999/xlink" x="0px" y="0px"
	 viewBox="0 0 750 500" style="enable-background:new 0 0 750 500;" xml:space="preserve">
<style type="text/css">
	.st0{fill:none;}
	.st1{fill:#342447;}
	.st2{fill:#241933;}
	.st3{fill:#EF701B;}
	.st4{fill:#47315D;}
	.st5{fill:#BF5208;}
	.st6{fill:#FFBE3D;}
	.st7{fill:#583D71;}
	.st8{fill:#FDA635;}
	.st9{fill:#FFF5DF;}
	.st10{fill:none;stroke:#FDA635;stroke-miterlimit:10;}
	.st11{fill:#FFE08A;}
	.st12{fill:#CBE3F8;}
	.st13{fill:#E1F1FF;}
	.st14{fill:#A1C5EB;}
</style>
<g id="BACKGROUND">
	<rect class="st0" width="750" height="500"/>
</g>
<g id="OBJECTS">
	<path class="st1" d="M98.2,455.7c-1.7,0.3-1.5,2.8,0.3,2.8l261.4-1.5c22.5-0.1,45-2.7,67-7.8l243.7-56.3c1.4-0.3,1.2-2.4-0.2-2.4
		l-198.7-4L98.2,455.7z"/>
	<g>
		<g>
			<g>
				<path class="st2" d="M655.5,343.6l0.2,3.4l-7.3-0.3l0.2-11.1l-295.5-5.2c0,0,16,39.6,18.1,39.7c2.1,0.1,277-6.4,277-6.4l0.1-4.7
					h8.3l0.4,5.8h6.9l1.3-21.9L655.5,343.6z"/>
				<polygon class="st3" points="661.7,345.7 661.7,361.7 665.7,361.7 666.5,345.7 				"/>
			</g>
			<g>
				<path class="st2" d="M620.9,339.6c-8.6,0-15.5,13.1-15.5,29.2c0,16.1,6.9,29.2,15.5,29.2h16.9v-58.4H620.9z"/>
				<g>
					<ellipse class="st2" cx="637.8" cy="368.8" rx="15.5" ry="29.2"/>
					<ellipse class="st1" cx="639.2" cy="368.8" rx="9.3" ry="17.6"/>
					<ellipse class="st4" cx="639.2" cy="368.8" rx="4.4" ry="8.3"/>
				</g>
			</g>
			<g>
				<path class="st2" d="M573.9,339.5c-10.2,0-18.5,15.6-18.5,34.9c0,19.3,8.3,34.9,18.5,34.9h20.2v-69.8H573.9z"/>
				<g>
					<ellipse class="st2" cx="594.1" cy="374.4" rx="18.5" ry="34.9"/>
					<ellipse class="st1" cx="595.8" cy="374.4" rx="11.2" ry="21.1"/>
					<ellipse class="st4" cx="595.8" cy="374.4" rx="5.3" ry="9.9"/>
				</g>
			</g>
			<g>
				<polygon class="st4" points="541,347.3 541,378.5 580.2,372.5 580.2,347.2 				"/>
				<polygon class="st1" points="541,347.3 514.7,347.3 518.1,378.5 541,378.5 				"/>
			</g>
			<g>
				<path class="st2" d="M487.3,335.6c-12.8,0-23.2,19.6-23.2,43.8c0,24.2,10.4,43.8,23.2,43.8h25.3v-87.5H487.3z"/>
				<g>
					<ellipse class="st2" cx="512.6" cy="379.4" rx="23.2" ry="43.8"/>
					<ellipse class="st1" cx="514.7" cy="379.4" rx="14" ry="26.4"/>
					<ellipse class="st4" cx="514.7" cy="379.4" rx="6.6" ry="12.4"/>
				</g>
			</g>
			<g>
				<path class="st3" d="M470.6,338h-96l37.5,77.2l48.9-5.3c7.7-0.8,13.3-7.5,12.9-15.2L470.6,338z"/>
				<path class="st2" d="M397,338h-52.7c6.2,11.9,17.3,39,13.1,75.7l54.7,1.6c1.9-7.5,3-15.9,3-24.8C415,367,407.6,346.9,397,338z"
					/>
				<g>
					<polygon class="st5" points="423,386.5 423.5,398.7 432.7,398 433.3,386.5 					"/>
					<polygon class="st5" points="421.6,360.4 423,373.7 432.7,373.7 433.3,359.6 					"/>
					<polygon class="st5" points="412.2,347.4 413.9,353.8 467.2,353 467.2,347.1 					"/>
					<path class="st6" d="M451.9,387.8c0,4.6-2.3,8.4-5.1,8.4c-2.8,0-5.1-3.8-5.1-8.4c0-4.6,2.3-8.4,5.1-8.4
						C449.6,379.4,451.9,383.2,451.9,387.8z"/>
				</g>
			</g>
		</g>
		<g>
			<g>
				<polygon class="st4" points="413.4,68.1 414.2,342.5 213.7,344.1 202.4,78.1 				"/>
				<polygon class="st7" points="215.9,93.8 225.7,335.4 400,331.1 400,85.4 				"/>
				<path class="st8" d="M378.2,83.3l21.8-1.2c1-0.1,1.8,0.9,1.7,2l-0.4,6.6c-0.1,1-0.8,1.7-1.7,1.7h-20.8c-0.8,0-1.5-0.7-1.7-1.6
					l-0.6-5.4C376.5,84.3,377.2,83.3,378.2,83.3z M212.4,90.4l0.5,4.1c0.2,1.8,1.8,3.2,3.6,3.2l18.9-0.5c1.8-0.1,3.3-1.5,3.4-3.3
					l0.3-3.5c0.2-2.1-1.5-3.9-3.5-3.9h-19.6C213.8,86.4,212.1,88.3,212.4,90.4z"/>
			</g>
			<g>
				<polygon class="st1" points="413.4,68.1 670.8,182.8 668.3,338.5 414.2,342.5 				"/>
				<polygon class="st2" points="432.3,97.6 431.4,326.1 658.9,326.8 654.9,190.9 				"/>
				<path class="st1" d="M504.2,326.3l-3.9,0V126.1l3.9,1.7V326.3z M518.5,133.7l-3.9-1.7v194.3l3.9,0V133.7z M532.8,139.7l-3.9-1.7
					v188.3l3.9,0V139.7z M489.8,121.7l-3.9-1.7v206.2l3.9,0V121.7z M547.2,145.7l-3.9-1.7v182.4l3.9,0V145.7z M461.2,109.7l-3.9-1.7
					v218.1l3.9,0V109.7z M475.5,115.7l-3.9-1.7v212.2l3.9,0V115.7z M442.9,326.1l3.9,0V103.7l-3.9-1.7V326.1z M633.1,181.8l-3.9-1.7
					v146.6l3.9,0V181.8z M618.8,175.8l-3.9-1.7v152.5l3.9,0V175.8z M647.5,187.8l-3.9-1.7v140.6l3.9,0V187.8z M604.5,169.8l-3.9-1.7
					v158.5l3.9,0V169.8z M575.8,157.8l-3.9-1.7v170.4l3.9,0V157.8z M561.5,151.8l-3.9-1.7v176.4l3.9,0V151.8z M590.1,163.8l-3.9-1.7
					v164.5l3.9,0V163.8z"/>
				<path class="st3" d="M434.1,95.2l15.7,5.5c0.7,0.2,1.1,0.8,1.1,1.4v3.4c0,1.1-1.2,1.8-2.4,1.4l-15.7-5.3
					c-0.7-0.2-1.1-0.8-1.1-1.4v-3.6C431.7,95.6,432.9,94.8,434.1,95.2z M645,186.5v1.9c0,0.4,0.3,0.8,0.7,0.9l9.2,3.4
					c0.6,0.2,1.3-0.2,1.3-0.8l0.2-2c0.1-0.5-0.2-0.9-0.7-1l-9.4-3.3C645.6,185.3,645,185.8,645,186.5z M650.3,326.1l0.1,1.3
					c0,0.5,0.5,0.9,1,0.9h8.8c0.6,0,1-0.5,1-1V326c0-0.6-0.5-1-1-1h-9C650.7,325,650.2,325.5,650.3,326.1z M426.9,323.8v3.6
					c0,0.8,0.7,1.5,1.5,1.5h12.9c0.8,0,1.4-0.6,1.5-1.4l0.2-2.9c0-0.8-0.6-1.5-1.4-1.5l-13.1-0.7C427.6,322.3,426.9,323,426.9,323.8
					z"/>
			</g>
		</g>
		<g>
			<g>
				<path class="st2" d="M109.2,230.3c1.6,13.2,1.4,27.5-0.1,42.6c-0.3,3.2-2.9,5.7-6.1,5.9c-5.1,0.3-10.6,0.1-15.4-0.5
					c-2.9-0.4-5.2-2.7-5.5-5.6c-1.9-14.8-3.1-28.9-2.8-42.7c0.1-3.5,3-6.4,6.5-6.4c5.9,0,12.3,0.4,17.9,1.2
					C106.6,225.1,108.8,227.4,109.2,230.3z"/>
				<path class="st2" d="M107.1,209.2c-0.1-1.4,0.4-2.7,1.4-3.7s2.2-1.6,3.6-1.6l4.2-0.1c0.4-0.9,1.3-1.5,2.4-1.5h7
					c1.4,0,2.6,1.2,2.6,2.6v1.9c0,1.4-1.2,2.6-2.6,2.6h-7c-0.9,0-1.7-0.5-2.2-1.2l-4.3,0.1c-0.3,0-0.5,0.2-0.5,0.2
					c-0.1,0.1-0.2,0.3-0.2,0.6l-8.6,64.1l11.3,5V278c0-2.2,1.8-4,4-4h6.2c2.2,0,4,1.8,4,4v6.2c0,2.2-1.8,4-4,4h-6.2
					c-2.2,0-4-1.8-4-4v-1.4L98.5,276L107.1,209.2z"/>
			</g>
			<path class="st2" d="M190.9,347.1C190.9,347.1,190.9,347.1,190.9,347.1l-29.5,0c-14.9,0-27,22.8-27,51c0,28.2,12.1,51,27,51h29.5
				l0,0l0,0c14.9,0,27-22.8,27-51C217.9,369.9,205.8,347.1,190.9,347.1z"/>
			<rect x="111.5" y="416.5" class="st1" width="220.3" height="19.3"/>
			<g>
				<path class="st2" d="M340.6,347.1c-14.9,0-27,22.8-27,51c0,28.2,12.1,51,27,51H370v-102H340.6z"/>
				<g>
					<ellipse class="st2" cx="370" cy="398" rx="27" ry="51"/>
					<ellipse class="st1" cx="372.5" cy="398" rx="16.3" ry="30.8"/>
					<ellipse class="st4" cx="372.5" cy="398" rx="7.7" ry="14.5"/>
				</g>
			</g>
			<g>
				<path class="st8" d="M220.3,108c-34.7,1.1-66.7,33.2-83.7,69c-31.9,67.1-26,170.7-21.3,208.2c0.9,7,5.4,12.1,10.7,12.1h164.9
					L380.2,105L220.3,108z"/>
				<g>
					<path class="st3" d="M314.5,106.2l-1.1,0c-3.5,6.9-8.8,16.1-16,25.1c-12.7,15.8-34.1,34.1-64.9,34.1c-1.2,0-2.5,0-3.8-0.1
						c-14.5-0.7-23.3-4.7-26-11.9c-4.8-12.9,10.6-33.4,21.3-45.5l-1.4,0c-10.8,12.4-25.7,32.6-20.8,45.9
						c2.8,7.6,11.9,11.8,26.8,12.5c1.3,0.1,2.6,0.1,3.8,0.1c31.2,0,52.9-18.6,65.7-34.5C305.6,122.7,311,113.2,314.5,106.2z"/>
					<path class="st3" d="M134.7,181.1h222.3l0.6-2h-222C135.2,179.8,134.9,180.5,134.7,181.1z"/>
				</g>
			</g>
			<path class="st3" d="M356.2,327.8c0,0,21.4-1,35.6,0.5c1.9-45.8,3.9-108.2-1.3-185.6c-0.6-8.3-5.2-38.1-11.4-37.6
				c-25.7,2.2-60.2,40.9-71.8,72c-30.2,80.9-16.5,220.2-16.5,220.2l43.4-0.7C330.2,332.3,356.2,327.8,356.2,327.8z"/>
			<path class="st5" d="M305.8,181.1h86.8c0-0.7-0.1-1.3-0.1-2h-86C306.3,179.8,306,180.5,305.8,181.1z"/>
			<polygon class="st2" points="137.5,350.1 147.3,382.4 241.7,382.4 254,350.1 			"/>
			<path class="st8" d="M114.9,301.5l-4.4,2.9c-5.5,3.6-8.9,9.8-8.9,16.5v20.9c0,6.2,2.9,12.1,7.8,15.8l4.7,3.6
				c2.3,1.7,5,2.6,7.9,2.6h160.5l3.1-2.5c6.4-5.2,10.2-13.1,10.2-21.5v-35.3l-14.4-7.3L114.9,301.5z"/>
			<path class="st9" d="M164.3,299.7l2.8,6.2c0.6,1.2,1.8,2,3.1,2h42.5c1.3,0,2.5-0.8,3.1-2l2.6-5.4c1.1-2.3-0.5-4.9-3-4.9
				l-47.9-0.8C165,294.9,163.3,297.4,164.3,299.7z"/>
			<g>
				<path class="st4" d="M227.6,307.1l-3.8,4.9c-1.1,1.4-2.7,2.2-4.5,2.3l-49.6,1c-1.6,0-3.2-0.6-4.3-1.8l-5.8-6
					c-1.1-1.2-2.7-1.8-4.3-1.8l-20,0.2c-3.5,0-6.2,3.2-5.7,6.7c1.2,9,3.8,17.3,8.4,24.7c4.6,7.4,12.8,11.7,21.4,11.7h67.4
					c7.5,0,14.6-3.3,19.4-9c7-8.3,11.2-18,13.2-28.7c0.7-3.6-2.2-6.9-5.8-6.9l-21.5,0.3C230.3,304.8,228.7,305.7,227.6,307.1z"/>
				<path class="st2" d="M261.2,306.5c-1.5-2.9-4.4-4.5-7.6-4.5l-21.4,0.3c-2.6,0-5.1,1.3-6.6,3.3l-3.8,4.9
					c-0.6,0.8-1.5,1.3-2.5,1.3l-49.6,1c-0.9,0-1.8-0.3-2.4-1l-5.8-6c-1.6-1.7-3.8-2.6-6.2-2.6l-19.8,0.2c-1.2,0-2.4,0.2-3.6,0.7
					c-3.5,1.6-5.4,5.3-4.9,8.9c1.4,10,4.2,18.4,8.8,25.7c5,8,14,13,23.6,13h67.4c8.3,0,16.1-3.6,21.4-9.9c7-8.4,11.6-18.3,13.7-29.7
					C262.3,310.2,262.1,308.2,261.2,306.5z M244.3,338.5c-4.3,5.1-10.6,8.1-17.4,8.1h-67.4c-7.8,0-15.2-4-19.3-10.5
					c0-0.1-0.1-0.1-0.1-0.2c-1.4-2.3,0.3-5.4,3-5.4h100.2c2.9,0,4.6,3.3,2.8,5.7C245.5,336.9,244.9,337.7,244.3,338.5z M256.9,311.1
					c-0.6,3.4-1.5,6.7-2.7,9.9c-1.3,3.5-4.7,5.8-8.4,5.8H142c-3.9,0-7.3-2.6-8.3-6.4c-0.6-2.5-1.2-5.1-1.5-7.9
					c-0.1-0.8,0-1.7,0.4-2.4c0.6-1,1.6-1.5,2.7-1.5l20-0.2l0,0c0.9,0,1.8,0.4,2.4,1l5.7,6c1.6,1.7,3.9,2.6,6.2,2.6l49.6-1
					c2.6-0.1,4.9-1.2,6.5-3.3l3.8-4.9h0c0.6-0.8,1.5-1.3,2.6-1.3l21.5-0.3c1.2,0,2.4,0.6,3,1.8C257,309.6,257,310.4,256.9,311.1z"/>
			</g>
			<path class="st3" d="M321.2,400.5c0,0-11.6-67.9,30.9-74.9c16.2-2.6,39.7,2.6,39.7,2.6l-9.7,17.1c0,0-23.4-10.7-35.7,10.6
				c-6.9,12-6,45.4-6,45.4L321.2,400.5z"/>
			<path class="st1" d="M342.1,313.7l1.6,9.2c0.3,2,2.2,3.4,4.2,3.2l3.2-0.3c1.8-0.2,3.2-1.5,3.5-3.2l1.5-8.8
				c0.4-2.3-1.4-4.5-3.7-4.5l-6.3-0.2C343.6,309,341.7,311.2,342.1,313.7z"/>
			<path class="st10" d="M364.1,270.3l0.9,28c0.1,3,1.7,5.4,3.7,5.4h10.4c2,0,3.6-2.3,3.7-5.4l1-27.7c0.1-3.2-1.5-5.9-3.7-6
				l-12.4-0.3C365.7,264.3,364,267.1,364.1,270.3z"/>
			<g>
				<path class="st8" d="M309.6,342v3.5c0,1.1,0.9,2,2,2h14.1c1.1,0,1.9-0.9,2-1.9l0-3.5c0-1.1-0.9-2-2-2h-14.2
					C310.5,340,309.6,340.9,309.6,342z"/>
				<path class="st11" d="M312,342.8v1.6c0,0.5,0.4,0.9,0.9,0.9h6.6c0.5,0,0.9-0.4,0.9-0.9l0-1.6c0-0.5-0.4-0.9-0.9-0.9H313
					C312.4,341.9,312,342.3,312,342.8z"/>
			</g>
			<path class="st3" d="M336.3,375.2l-48.6,0.2c0,0.1,0,3.4,0,3.5v51h44.9c4.5,0,8.2-4.4,8.2-9.9l4.2-35
				C345,379.4,341,374.9,336.3,375.2z"/>
			<g>
				<g>
					<path class="st12" d="M311.2,204.5c-7.1,19.8-11.4,67.4-10,94.8c0.2,3,2,5.3,4.2,5.3l9.7,0c1.2,0,2.3-0.7,3.1-1.9l35.1-61.2
						c0.7-1.1,1.1-2.4,1.1-3.9v-31.6c0-3.2-1.9-5.8-4.2-5.7l-35.2,0.9C313.4,201.3,311.9,202.6,311.2,204.5z"/>
					<path class="st1" d="M315.1,306.9h-9.7c-3.4,0-6.1-3.2-6.4-7.4c-1.4-27.4,2.7-75.2,10.1-95.7c1-2.8,3.2-4.6,5.7-4.6l35.2-0.9
						c1.5,0,2.9,0.6,4.1,1.7c1.5,1.5,2.4,3.8,2.4,6.2v31.6c0,1.8-0.5,3.6-1.4,5l-35.1,61.2c0,0-0.1,0.1-0.1,0.1
						C318.8,305.8,317,306.9,315.1,306.9z M350.2,202.6C350.2,202.6,350.2,202.6,350.2,202.6l-35.2,0.9c-0.6,0-1.3,0.7-1.7,1.7
						c0,0,0,0,0,0c-7.1,19.7-11.2,67.6-9.9,94c0.1,1.9,1.1,3.3,2,3.3h9.7c0.4,0,0.8-0.3,1.2-0.8l35.1-61.2c0,0,0.1-0.1,0.1-0.1
						c0.5-0.7,0.7-1.7,0.7-2.6v-31.6c0-1.2-0.4-2.4-1.1-3.1C350.8,202.8,350.5,202.6,350.2,202.6z M311.2,204.5L311.2,204.5
						L311.2,204.5z"/>
					<path class="st1" d="M301,281.7c-0.1,6.4-0.1,12.3,0.2,17.6c0.2,3,2,5.3,4.2,5.3h9.7c1.2,0,2.3-0.7,3.1-1.9l12.1-21.1H301z"/>
				</g>
				<g>
					<path class="st2" d="M320,230.3c-1.6,13.2-1.4,27.5,0.1,42.6c0.3,3.2,2.9,5.7,6.1,5.9c5.1,0.3,10.6,0.1,15.4-0.5
						c2.9-0.4,5.2-2.7,5.5-5.6c1.9-14.8,3.1-28.9,2.8-42.7c-0.1-3.5-3-6.4-6.5-6.4c-5.9,0-12.3,0.4-17.9,1.2
						C322.6,225.1,320.4,227.4,320,230.3z"/>
					<path class="st2" d="M332.7,209.2c0.1-1.4-0.4-2.7-1.4-3.7s-2.2-1.6-3.6-1.6l-4.2-0.1c-0.4-0.9-1.3-1.5-2.4-1.5h-7
						c-1.4,0-2.6,1.2-2.6,2.6v1.9c0,1.4,1.2,2.6,2.6,2.6h7c0.9,0,1.7-0.5,2.2-1.2l4.3,0.1c0.3,0,0.5,0.2,0.5,0.2
						c0.1,0.1,0.2,0.3,0.2,0.6l-2.8,64.1l-11.3,5V278c0-2.2-1.8-4-4-4h-6.2c-2.2,0-4,1.8-4,4v6.2c0,2.2,1.8,4,4,4h6.2
						c2.2,0,4-1.8,4-4v-1.4l15.5-6.8L332.7,209.2z"/>
				</g>
			</g>
			<path class="st3" d="M243.8,379.8l-2-0.9l23.7-52.1l8.6-70.1l2.2,0.3l-8.7,70.4L243.8,379.8z M141.2,378.9l-23.6-52l6.4-69.3
				l-2.2-0.2l-6.4,69.9l23.9,52.5L141.2,378.9z"/>
			<path class="st4" d="M265.4,325.4l-11.5,22.5c-1.4,2.7,0.6,5.9,3.6,5.9h0c7,0,13.6-3.6,17.3-9.6l8.8-14c1.9-3.1-0.3-7.1-3.9-7.1
				l-10.7,0C267.4,323.2,266,324.1,265.4,325.4z"/>
			<path class="st4" d="M124.1,325.4l11.5,22.5c1.4,2.7-0.6,5.9-3.6,5.9l0,0c-7,0-13.6-3.6-17.3-9.6l-8.8-14
				c-1.9-3.1,0.3-7.1,3.9-7.1l10.7,0C122.1,323.2,123.4,324.1,124.1,325.4z"/>
			<path class="st8" d="M287.9,429.9H108.5c-4.4,0-7.9-3.6-7.9-7.9v-37.6c0-4.4,3.6-7.9,7.9-7.9h179.3c4.4,0,7.9,3.6,7.9,7.9V422
				C295.8,426.4,292.2,429.9,287.9,429.9z"/>
			<path class="st2" d="M146.3,433.5h91.4l-4.7-7.6c-2.5-4.1-4.7-4.7-9.4-4.6l-63-0.8c-5.2,0.1-9.9,3.3-12.1,8.2L146.3,433.5z"/>
			<path class="st3" d="M335.7,374.3H114l0.2,2.2h16.1l12.7,27.2c2.2,4.7,7,7.8,12.2,7.8l74.8,0.3c0,0,0,0,0.1,0
				c4.7,0,9.1-2.5,11.6-6.6l17.2-28.7h76.9V374.3z M239.8,404.1c-2,3.4-5.7,5.5-9.7,5.5c0,0,0,0,0,0l-74.8-0.3
				c-4.3,0-8.3-2.6-10.2-6.5l-12.3-26.3h123.5L239.8,404.1z"/>
			<path class="st2" d="M146.3,386.7h91.4l-4.7,7.6c-2.5,4.1-6.9,6.5-11.6,6.4l-60.8-1c-5.2-0.1-9.9-3.3-12.1-8.2L146.3,386.7z"/>
			<g>
				<path class="st13" d="M161.4,376.7l1,10.4c0.2,2.3,2.1,4.1,4.5,4.1l41.9,1c2.4,0.1,4.4-1.7,4.7-4.1l1.3-11.3
					c0.3-2.7-1.8-5.1-4.6-5.1H166C163.3,371.6,161.2,374,161.4,376.7z"/>
				<path class="st2" d="M208.9,393.3c0,0-0.1,0-0.1,0l-41.9-1c-2.9-0.1-5.3-2.3-5.6-5.2l-1-10.4c-0.2-1.6,0.4-3.2,1.5-4.4
					c1.1-1.2,2.6-1.9,4.2-1.9h44.2c1.6,0,3.2,0.7,4.3,1.9c1.1,1.2,1.6,2.8,1.4,4.5l-1.3,11.3C214.3,391.1,211.9,393.3,208.9,393.3z
					 M162.6,376.5l1,10.4c0.2,1.7,1.6,3.1,3.3,3.1l41.9,1c1.8,0.1,3.3-1.3,3.5-3l1.3-11.3c0.1-1-0.2-1.9-0.8-2.7
					c-0.7-0.7-1.6-1.1-2.6-1.1H166c-1,0-1.9,0.4-2.5,1.1C162.8,374.6,162.5,375.6,162.6,376.5L162.6,376.5z"/>
			</g>
			<g>
				<path class="st12" d="M114.5,271.5l7.5,5.6c1.3,0.9,2.8,1.5,4.4,1.5h139.4c1.6,0,3.1-0.5,4.4-1.4l10-7.4c1.8-1.3,2.9-3.4,3-5.6
					c0.8-19.4,4.9-41.6,7.3-53.6c0.9-4.6-2.6-8.9-7.3-8.9H130.2c-3,0-5.8,1.8-6.9,4.7c-7.1,18.1-10.5,38.7-11.7,58.9
					C111.4,267.5,112.5,270,114.5,271.5z"/>
				<path class="st14" d="M112.6,252.5c-0.5,4.2-0.8,8.3-1.1,12.5c-0.2,2.5,1,5,3,6.5l7.5,5.6c1.3,0.9,2.8,1.5,4.4,1.5h139.4
					c1.6,0,3.1-0.5,4.4-1.4l10-7.4c1.8-1.3,2.9-3.4,3-5.6c0.2-3.8,0.4-7.6,0.8-11.5H112.6z"/>
				<g>
					<polygon class="st13" points="208.6,201.5 188.5,201.5 157.8,278.5 177.9,278.5 					"/>
					<polygon class="st13" points="244,201.5 214.2,201.5 183.5,278.5 213.3,278.5 					"/>
					<polygon class="st13" points="143.6,278.5 153.7,278.5 184.4,201.5 174.4,201.5 					"/>
				</g>
				<path class="st2" d="M290.9,202.8c-1.8-2.2-4.6-3.5-7.5-3.5H130.2c-3.9,0-7.5,2.4-8.9,6.1c-6.4,16.5-10.4,36.5-11.9,59.5
					c-0.2,3.3,1.2,6.4,3.9,8.4l7.5,5.6c1.6,1.2,3.7,1.9,5.7,1.9h139.4c2.1,0,4-0.6,5.7-1.9l10-7.4c2.4-1.7,3.8-4.4,3.9-7.3
					c0.8-19.4,4.9-41.7,7.3-53.3C293.4,208,292.7,205.1,290.9,202.8z M288.5,210c-2.4,11.7-6.6,34.3-7.4,54c-0.1,1.6-0.8,3-2.1,4
					l-0.5,0.4L116.2,270l-0.4-0.3c0,0,0,0,0,0c-1.4-1.1-2.2-2.8-2.1-4.6c1.4-22.5,5.3-42.1,11.6-58.2c0.8-2,2.7-3.3,4.9-3.3h153.2
					c1.6,0,3.1,0.7,4.1,1.9C288.5,206.8,288.8,208.4,288.5,210z"/>
				<g>
					<path class="st2" d="M123.2,198.3c-1.4,0-2.7,1-2.9,2.4c-0.9,4.4-2,13.4,3.5,15.1c7.3,2.3,153.5-0.1,153.5-0.1
						s14.5,1.1,18.4-14.5c0.5-1.9-1-3.8-3-3.8L123.2,198.3z"/>
					<path class="st13" d="M280.5,207.1H270c-1.4,0-2.5-1.1-2.5-2.5l0,0c0-1.4,1.1-2.5,2.5-2.5h10.4c1.4,0,2.5,1.1,2.5,2.5l0,0
						C283,206,281.8,207.1,280.5,207.1z"/>
					<path class="st13" d="M133.5,207.1h-10.4c-1.4,0-2.5-1.1-2.5-2.5l0,0c0-1.4,1.1-2.5,2.5-2.5h10.4c1.4,0,2.5,1.1,2.5,2.5l0,0
						C136,206,134.9,207.1,133.5,207.1z"/>
				</g>
				<g>
					<path class="st2" d="M188.8,272.1l-8.8-11.6c-0.1-0.9-0.9-1.6-1.8-1.5l-36.5,1.9c-0.6,0-1.2,0.4-1.5,0.9c0,0,0,0,0,0l-19.4,0.6
						c-0.5,0-0.9,0.2-1.1,0.4c-0.5,0.5,0.2,1.2,1.1,1.2h19.7c0.3,0.3,0.7,0.4,1.1,0.4h35l6.6,9.4c0.3,0.4,0.7,0.6,1.2,0.6h3.1
						C188.8,274.4,189.5,273,188.8,272.1z"/>
					<path class="st2" d="M265.6,270.1l-8.8-11.6c-0.1-0.9-0.9-1.6-1.8-1.5l-36.5,1.9c-0.6,0-1.2,0.4-1.5,0.9c0,0,0,0,0,0l-19.4,0.6
						c-0.5,0-0.9,0.2-1.1,0.4c-0.5,0.5,0.2,1.2,1.1,1.2h19.7c0.3,0.3,0.7,0.4,1.1,0.4h35l6.6,9.4c0.3,0.4,0.7,0.6,1.2,0.6h3.1
						C265.7,272.4,266.4,271,265.6,270.1z"/>
				</g>
			</g>
			<g>
				<g>
					<path class="st14" d="M109.1,401.6h16.6c2.1,0,3.8-1.7,3.8-3.8v-11.1c0-2.1-1.7-3.8-3.8-3.8h-16.6c-2.1,0-3.8,1.7-3.8,3.8v11.1
						C105.2,399.9,106.9,401.6,109.1,401.6z"/>
					<path class="st13" d="M125.6,382.8h-16.5c-0.4,1.8-0.5,3.6-0.3,5.3c0.3,1.7,0.9,3.3,2,4.8c2.6,3.7,7.4,6.1,12.4,6.1
						c2.2,0,4.4-0.4,6.3-1.4v-11C129.5,384.5,127.8,382.8,125.6,382.8z"/>
				</g>
				<g>
					<path class="st14" d="M128.8,408.8v9c0,1.8-1.1,3.2-2.5,3.1c-7.7-0.9-14.1-0.9-19.8-6.4c-1.8-1.8-1.3-8.7,0.9-8.7h19.1
						C127.8,405.8,128.8,407.1,128.8,408.8z"/>
					<path class="st13" d="M126.5,405.8l-15.5,0c0,0.7,0.1,1.4,0.3,2.2c0.7,3,2,5.8,4,8.2c1.4,1.6,3,3,4.9,4.1
						c1.9,0.2,4,0.4,6.1,0.7c1.3,0.2,2.5-1.3,2.5-3.1v-9C128.8,407.1,127.8,405.8,126.5,405.8z"/>
				</g>
			</g>
			<g>
				<g>
					<path class="st14" d="M281.5,401.6h-16.6c-2.1,0-3.8-1.7-3.8-3.8v-11.1c0-2.1,1.7-3.8,3.8-3.8h16.6c2.1,0,3.8,1.7,3.8,3.8v11.1
						C285.3,399.9,283.6,401.6,281.5,401.6z"/>
					<path class="st13" d="M264.9,382.8h16.5c0.4,1.8,0.5,3.6,0.3,5.3c-0.3,1.7-0.9,3.3-2,4.8c-2.6,3.7-7.4,6.1-12.4,6.1
						c-2.2,0-4.4-0.4-6.3-1.4v-11C261.1,384.5,262.8,382.8,264.9,382.8z"/>
				</g>
				<g>
					<path class="st14" d="M261.8,408.8v9c0,1.8,1.1,3.2,2.5,3.1c7.7-0.9,14.1-0.9,19.8-6.4c1.8-1.8,1.3-8.7-0.9-8.7H264
						C262.8,405.8,261.8,407.1,261.8,408.8z"/>
					<path class="st13" d="M264,405.8l15.5,0c0,0.7-0.1,1.4-0.3,2.2c-0.7,3-2,5.8-4,8.2c-1.4,1.6-3,3-4.9,4.1
						c-1.9,0.2-4,0.4-6.1,0.7c-1.3,0.2-2.5-1.3-2.5-3.1v-9C261.8,407.1,262.8,405.8,264,405.8z"/>
				</g>
			</g>
		</g>
	</g>
</g>
</svg>
