<?xml version="1.0" encoding="utf-8"?>
<!-- Generator: Adobe Illustrator 25.2.0, SVG Export Plug-In . SVG Version: 6.00 Build 0)  -->
<svg version="1.1" id="Layer_1" xmlns="http://www.w3.org/2000/svg" xmlns:xlink="http://www.w3.org/1999/xlink" x="0px" y="0px"
	 viewBox="0 0 263.3 223.8" style="enable-background:new 0 0 263.3 223.8;" xml:space="preserve">
<style type="text/css">
	.st0{fill:#3A3A3A;}
	.st1{fill:#121212;}
	.st2{opacity:0.5;fill:#3A3A3A;}
	.st3{fill:#FFFFFF;}
	.st4{fill:#C9C9C9;}
	.st5{fill:#F0F0F0;}
	.st6{opacity:0.4;fill:#BAB9B9;}
	.st7{opacity:0.5;fill:#BAB9B9;}
	.st8{fill:#F3BBB4;}
	.st9{fill:#F09783;}
	.st10{opacity:0.5;}
	.st11{fill:url(#SVGID_1_);}
	.st12{fill:#BAB9B9;}
	.st13{fill:url(#SVGID_2_);}
	.st14{fill:url(#SVGID_3_);}
	.st15{fill:url(#SVGID_4_);}
	.st16{fill:url(#SVGID_5_);}
	.st17{fill:#87675D;}
	.st18{fill:#56372F;}
	.st19{fill:url(#SVGID_6_);}
	.st20{filter:url(#Adobe_OpacityMaskFilter);}
	.st21{filter:url(#Adobe_OpacityMaskFilter_1_);}
	.st22{mask:url(#SVGID_7_);fill:url(#SVGID_8_);}
	.st23{opacity:0.5;fill:url(#SVGID_9_);}
	.st24{fill:url(#SVGID_10_);}
	.st25{filter:url(#Adobe_OpacityMaskFilter_2_);}
	.st26{filter:url(#Adobe_OpacityMaskFilter_3_);}
	.st27{mask:url(#SVGID_11_);fill:url(#SVGID_12_);}
	.st28{fill:url(#SVGID_13_);}
	.st29{opacity:0.4;fill:#F3BBB4;}
	.st30{opacity:0.4;}
	.st31{fill:#EF7970;}
	.st32{fill:#B37263;}
	.st33{fill:url(#SVGID_14_);}
	.st34{fill:url(#SVGID_15_);}
	.st35{fill:url(#SVGID_16_);}
	.st36{opacity:0.5;fill:url(#SVGID_17_);}
	.st37{fill:url(#SVGID_18_);}
	.st38{filter:url(#Adobe_OpacityMaskFilter_4_);}
	.st39{filter:url(#Adobe_OpacityMaskFilter_5_);}
	.st40{mask:url(#SVGID_19_);fill:url(#SVGID_20_);}
	.st41{fill:url(#SVGID_21_);}
	.st42{filter:url(#Adobe_OpacityMaskFilter_6_);}
	.st43{filter:url(#Adobe_OpacityMaskFilter_7_);}
	.st44{mask:url(#SVGID_22_);fill:url(#SVGID_23_);}
	.st45{fill:url(#SVGID_24_);}
	.st46{opacity:0.5;fill:#F3BBB4;}
</style>
<g>
	<g>
		<g>
			<g>
				<path class="st0" d="M171.1,197.3c0,0-7,4.6-7.7,10.5c-0.3,1.9,3,0.4,3,0.4s-0.7,1.8,2.8,1.9c9.8,0.3,17.6-0.8,18.3-4.6
					c0.7-3.8,0.1-5.4,0.1-5.4S181.2,193.9,171.1,197.3z"/>
				<path class="st1" d="M172,210.5L172,210.5c-0.9,0-1.8,0-2.7,0c-1.6,0-2.6-0.4-3-1.1c-0.1-0.2-0.2-0.4-0.2-0.6
					c-0.5,0.2-1.1,0.3-1.7,0.3c-0.5,0-0.9-0.1-1.1-0.4c-0.2-0.3-0.3-0.6-0.2-1c0.8-6,7.6-10.6,7.9-10.8c0,0,0.1,0,0.1,0
					c2-0.7,4.1-1,6.1-1c6.7,0,10.7,3.8,10.9,4c0,0,0.1,0.1,0.1,0.1c0,0.1,0.6,1.8-0.1,5.6C187.3,208.9,182.1,210.5,172,210.5z
					 M166.4,207.8c0.1,0,0.2,0,0.3,0.1c0.1,0.1,0.2,0.3,0.1,0.4c0,0-0.1,0.3,0.1,0.6c0.3,0.4,1.2,0.7,2.4,0.7c0.9,0,1.8,0,2.7,0
					c9.4,0,14.7-1.5,15.2-4.3c0.6-3.2,0.3-4.8,0.2-5.2c-0.6-0.5-4.4-3.7-10.3-3.7c-1.9,0-3.8,0.3-5.8,1c-0.6,0.4-6.8,4.8-7.5,10.2
					c0,0.1,0,0.3,0,0.4c0.1,0.1,0.2,0.1,0.5,0.1c0.8,0,2-0.5,2-0.5C166.3,207.8,166.3,207.8,166.4,207.8z"/>
			</g>
			<path class="st2" d="M187.6,200.1c0,0-1.5-1.4-4.1-2.5c-1.8,3.8-3.3,8.1-7.5,9.7c-2.8,1.1-6.3,2-9.6,1.9c0.3,0.4,1,0.9,2.7,0.9
				c9.8,0.3,17.6-0.8,18.3-4.6C188.2,201.8,187.6,200.1,187.6,200.1z"/>
			<path d="M166.4,208.2c0,0,0-0.2,0.1-0.5c0.1-0.3,0.2-0.8,0.4-1.3c0.2-0.5,0.4-1.1,0.7-1.8c0.1-0.3,0.3-0.6,0.5-1
				c0.2-0.3,0.4-0.6,0.6-0.9c0.2-0.3,0.4-0.6,0.6-0.9c0.2-0.3,0.5-0.6,0.7-0.8c0.2-0.3,0.5-0.5,0.7-0.7c0.2-0.2,0.5-0.4,0.7-0.6
				c0.2-0.2,0.4-0.3,0.6-0.5c0.2-0.1,0.4-0.2,0.5-0.3c0.3-0.2,0.4-0.2,0.4-0.2s-0.1,0.1-0.4,0.3c-0.1,0.1-0.3,0.2-0.5,0.4
				c-0.2,0.2-0.3,0.3-0.5,0.5c-0.2,0.2-0.4,0.4-0.6,0.6c-0.2,0.2-0.4,0.5-0.6,0.7c-0.2,0.3-0.4,0.5-0.6,0.8
				c-0.2,0.3-0.4,0.6-0.6,0.9c-0.2,0.3-0.4,0.6-0.6,0.9c-0.2,0.3-0.4,0.6-0.5,0.9c-0.3,0.6-0.6,1.2-0.8,1.7
				c-0.2,0.5-0.4,0.9-0.5,1.2C166.5,208,166.4,208.2,166.4,208.2z"/>
		</g>
		<g>
			<g>
				<path class="st0" d="M218.3,199.4c0,0-5.2,5.5-5.8,10.6c-0.4,2.3,2.7,2,3.8,1.5c-0.1,1.6,6.1,1.9,12.4-0.3
					c6.4-2.2,9.7-6.3,8.5-10.7C236,196.1,224.5,194.6,218.3,199.4z"/>
				<path class="st1" d="M220.1,213.2L220.1,213.2c-1.1,0-3.1-0.1-3.9-0.9c-0.1-0.1-0.1-0.2-0.2-0.3c-0.4,0.1-1,0.2-1.6,0.2
					c-0.9,0-1.5-0.2-1.9-0.7c-0.3-0.4-0.5-0.9-0.4-1.6c0.6-5.2,5.7-10.6,5.9-10.8c2.5-2,6.1-3.1,10-3.1c4.9,0,8.8,1.8,9.6,4.4
					c1.3,4.6-2,8.9-8.7,11.2C225.9,212.6,222.7,213.2,220.1,213.2z M216.3,211.1c0.1,0,0.2,0,0.2,0.1c0.1,0.1,0.2,0.2,0.2,0.3
					c0,0,0,0.1,0.1,0.2c0.3,0.3,1.3,0.7,3.3,0.7c2.5,0,5.7-0.6,8.5-1.5c6.3-2.1,9.4-6.1,8.2-10.2c-0.6-2.2-4.3-3.8-8.8-3.8
					c-3.6,0-7.1,1.1-9.5,2.9c0,0-5.1,5.4-5.6,10.3c-0.1,0.4,0,0.8,0.2,1c0.2,0.3,0.7,0.4,1.3,0.4c0.7,0,1.3-0.2,1.7-0.3
					C216.2,211.1,216.2,211.1,216.3,211.1z"/>
			</g>
			<path class="st2" d="M237.2,200.5c-0.5-1.9-2.9-3.2-5.9-3.8c-1.5,2.7-2.4,5.8-4.3,8.4c-1.7,2.2-3.9,4.2-6.5,5.4
				c-1.1,0.5-2.6,1-4.2,1.3c0.6,1.4,6.4,1.5,12.4-0.6C235.1,209,238.5,205,237.2,200.5z"/>
			<path d="M216.3,211.5c0,0,0-0.2,0-0.5c0-0.3,0.1-0.8,0.2-1.3c0.1-0.3,0.1-0.6,0.2-0.9c0.1-0.3,0.2-0.6,0.3-1
				c0.1-0.3,0.2-0.7,0.4-1c0.1-0.3,0.3-0.7,0.4-1c0.2-0.3,0.3-0.7,0.5-1c0.2-0.3,0.4-0.6,0.6-0.9c0.2-0.3,0.4-0.6,0.6-0.8
				c0.2-0.3,0.4-0.5,0.6-0.7c0.2-0.2,0.3-0.4,0.5-0.6c0.2-0.2,0.3-0.3,0.4-0.4c0.2-0.2,0.4-0.4,0.4-0.4s-0.1,0.2-0.3,0.4
				c-0.1,0.1-0.2,0.3-0.3,0.5c-0.1,0.2-0.3,0.4-0.4,0.6c-0.2,0.2-0.3,0.5-0.5,0.8c-0.2,0.3-0.3,0.6-0.5,0.9
				c-0.2,0.3-0.4,0.6-0.5,0.9c-0.2,0.3-0.3,0.7-0.5,1c-0.2,0.3-0.3,0.7-0.5,1c-0.1,0.3-0.3,0.7-0.4,1c-0.2,0.6-0.5,1.3-0.6,1.8
				C216.5,210.8,216.3,211.5,216.3,211.5z"/>
		</g>
		<g>
			<g>
				<path class="st0" d="M121.2,204.3c0,0-7.2,5.2-8,12c-0.1,1.4,3.1,0.6,3.1,0.6s-0.1,1.4,3.4,1.7c3.4,0.4,14.8,0,16.7-3.4
					c1.9-3.4-0.2-8.8-0.2-8.8S126.9,200.8,121.2,204.3z"/>
				<path class="st1" d="M122.4,219.2c-1.1,0-2.1,0-2.8-0.1c-2.6-0.3-3.4-1.1-3.6-1.7c-0.3,0.1-0.8,0.1-1.3,0.1
					c-0.8,0-1.3-0.2-1.6-0.5c-0.2-0.2-0.3-0.5-0.3-0.8c0.8-6.9,7.8-12.1,8.1-12.3c1.3-0.8,2.9-1.2,4.6-1.2c5.2,0,10.5,3.3,10.8,3.4
					c0.1,0,0.1,0.1,0.2,0.2c0.1,0.2,2.1,5.7,0.2,9.1C134.8,219.1,123.7,219.2,122.4,219.2z M116.7,217c0,0,0.1,1,3,1.3
					c0.7,0.1,1.6,0.1,2.7,0.1c5.9,0,12.4-1,13.6-3.3c1.6-2.9,0.1-7.5-0.2-8.4c-0.8-0.5-5.7-3.2-10.2-3.2c-1.6,0-3.1,0.4-4.2,1.1
					c0,0-7,5.2-7.8,11.8c0,0.1,0,0.1,0.1,0.2c0.1,0.1,0.3,0.2,1,0.2c0.7,0,1.5-0.2,1.5-0.2c0.1,0,0.2,0,0.3,0.1
					C116.7,216.7,116.7,216.9,116.7,217L116.7,217z"/>
			</g>
			<path class="st2" d="M136.2,206.5c0,0-1.7-1-4.1-2c-2,4.7-4.4,9.5-9,11.8c-1.5,0.7-4.1,1.4-6.4,1.4c0.4,0.4,1.2,0.8,3,1
				c3.4,0.4,14.8,0,16.7-3.4C138.3,211.9,136.2,206.5,136.2,206.5z"/>
			<path d="M116.3,217c0,0,0.2-0.7,0.6-1.8c0.2-0.5,0.5-1.1,0.8-1.8c0.3-0.6,0.7-1.3,1.1-1.9c0.2-0.3,0.4-0.6,0.6-0.9
				c0.2-0.3,0.4-0.6,0.7-0.9c0.2-0.3,0.4-0.5,0.7-0.8c0.2-0.2,0.4-0.5,0.6-0.7c0.2-0.2,0.4-0.4,0.6-0.5c0.2-0.2,0.3-0.3,0.5-0.4
				c0.3-0.2,0.4-0.3,0.4-0.3s-0.1,0.1-0.4,0.4c-0.1,0.1-0.3,0.3-0.4,0.4c-0.2,0.2-0.3,0.4-0.5,0.6c-0.2,0.2-0.4,0.5-0.6,0.7
				c-0.2,0.2-0.4,0.5-0.6,0.8c-0.2,0.3-0.4,0.6-0.6,0.9c-0.2,0.3-0.4,0.6-0.6,0.9c-0.2,0.3-0.4,0.6-0.6,1c-0.2,0.3-0.4,0.6-0.5,0.9
				c-0.3,0.6-0.7,1.2-0.9,1.7c-0.3,0.5-0.5,0.9-0.6,1.2C116.4,216.8,116.3,217,116.3,217z"/>
		</g>
		<g>
			<g>
				<path class="st0" d="M92,198.7c0,0-12.9,6.2-13.6,13.3c0,1.5,3.1,1.5,3.5,1.5c1.4,0.5,13,0.7,19.6-1.4c2.2-0.7,3.6-2.4,2.9-9.7
					C103.7,198.6,92,198.7,92,198.7z"/>
				<path class="st1" d="M87,214.2L87,214.2c-2.4,0-4.4-0.1-5.1-0.3c-0.1,0-0.2,0-0.3,0c-0.6,0-3.6-0.1-3.6-1.9
					c0.7-7.2,13.3-13.4,13.8-13.6c0.1,0,0.1,0,0.2,0h0.2c2.8,0,11.9,0.3,12.6,4c0.7,7.3-0.7,9.3-3.2,10.1
					C96.6,214.1,89.1,214.2,87,214.2z M81.9,213.1c0,0,0.1,0,0.1,0c0.4,0.1,2.3,0.3,4.9,0.3c2.1,0,9.5-0.1,14.4-1.7
					c1.7-0.6,3.4-1.7,2.6-9.3c-0.5-2.6-7.7-3.3-11.8-3.3l-0.1,0c-1.1,0.5-12.7,6.4-13.3,12.9c0,0.8,1.7,1.1,2.8,1.1
					C81.7,213.1,81.8,213.1,81.9,213.1C81.9,213.1,81.9,213.1,81.9,213.1z"/>
			</g>
			<path class="st2" d="M104.4,202.4c-0.2-1.3-1.8-2.2-3.8-2.7c-2.2,5.1-5.1,10.5-10.4,12c-2.3,0.6-6.6,1.9-10.1,1.7
				c0.8,0.2,1.6,0.2,1.8,0.1c1.4,0.5,13,0.7,19.6-1.4C103.7,211.4,105.1,209.6,104.4,202.4z"/>
			<path d="M81.9,213.5c0,0-0.1-0.2-0.1-0.6c0-0.2,0-0.4,0-0.7c0-0.3,0-0.5,0.1-0.9c0.1-0.3,0.1-0.7,0.2-1c0.1-0.4,0.2-0.7,0.4-1.1
				c0.2-0.4,0.3-0.7,0.5-1.1c0.2-0.4,0.4-0.7,0.7-1.1c0.3-0.3,0.5-0.7,0.8-1c0.3-0.3,0.5-0.6,0.8-0.9c0.3-0.3,0.6-0.5,0.8-0.8
				c0.3-0.2,0.6-0.4,0.8-0.6c0.1-0.1,0.2-0.2,0.4-0.3c0.1-0.1,0.2-0.2,0.3-0.2c0.2-0.1,0.4-0.3,0.6-0.4c0.3-0.2,0.5-0.3,0.5-0.3
				s-0.2,0.1-0.4,0.4c-0.3,0.2-0.7,0.5-1.2,1c-0.2,0.2-0.5,0.4-0.8,0.7c-0.3,0.2-0.5,0.5-0.8,0.8c-0.3,0.3-0.5,0.6-0.8,0.9
				c-0.3,0.3-0.5,0.6-0.8,1c-0.3,0.3-0.5,0.7-0.7,1c-0.2,0.4-0.4,0.7-0.6,1c-0.2,0.4-0.3,0.7-0.4,1c-0.1,0.3-0.2,0.7-0.3,1
				c-0.1,0.3-0.1,0.6-0.2,0.8c0,0.2-0.1,0.5-0.1,0.7C81.9,213.3,81.9,213.5,81.9,213.5z"/>
		</g>
		<g>
			<path class="st3" d="M183.1,152.2c0,0,5,4.4,8.4,7.6c0,0-0.5,1.2,0.2,4c0.3,2.7-9,16.7-12.6,23.4c-3.8,6.5-7.1,7.9-10.5,8.8
				c1.1,2.4,4.4,2.9,5.4,2.9c0,0-2,2.1-1.6,2.6c0.4,0.5,6-0.8,7.3-1.6c-1.4,1.4-1.2,2.4-0.4,2.4c0.8,0,6.4-2.9,6.4-2.9
				s1.6,2.5,2.3,2.5c0.7,0,0.4-2.1,0.4-2.1s2.6,1.2,3.1,0c0.6-1.2-2.6-2.4-0.8-6.4c1.8-4,4.9-11.5,7.5-19.8
				c2.6-8.3,5.5-10.1,6.5-12.7c1-2.6-0.7-3.1-1.6-4.1c-0.9-1.1-2.4-3-2.5-4.2c-0.1-1.3-1-3.2-5-3
				C191.6,149.9,183.9,149.8,183.1,152.2z"/>
			<path class="st4" d="M179.3,202.6c-0.4,0-0.8-0.2-0.9-0.6c-0.1-0.4-0.1-0.8,0.2-1.3c-1.8,0.6-4.5,1.2-5.6,1.2l0,0
				c-0.4,0-0.7-0.1-0.8-0.3c-0.3-0.4,0-1.3,1.1-2.5c-1.5-0.2-4-1-4.9-3c0-0.1,0-0.2,0-0.3c0-0.1,0.1-0.2,0.3-0.2
				c3.2-0.8,6.5-2.1,10.3-8.6c1.1-2,2.7-4.8,4.5-7.7c3.7-6.2,8.3-13.8,8.1-15.5c-0.5-2.2-0.4-3.4-0.3-3.9c-3.3-3.2-8.1-7.4-8.2-7.5
				c-0.1-0.1-0.2-0.3-0.1-0.4c0.7-2.3,6.2-2.5,10.6-2.8c0.8,0,1.6-0.1,2.3-0.1c4.7-0.3,5.4,2.2,5.4,3.3c0.1,1.2,1.8,3.3,2.4,4
				c0.2,0.2,0.4,0.4,0.6,0.6c0.8,0.7,1.9,1.7,1,3.9c-0.3,0.9-0.9,1.7-1.6,2.7c-1.3,1.9-3.2,4.5-4.9,10c-1.9,6.2-4.4,12.9-7.5,19.8
				c-1.1,2.4-0.3,3.6,0.4,4.6c0.4,0.6,0.7,1.2,0.4,1.8c-0.2,0.3-0.6,0.7-1.4,0.7c-0.6,0-1.2-0.2-1.6-0.3c0,0.6,0,1.3-0.3,1.6
				c-0.1,0.2-0.3,0.2-0.5,0.2c-0.7,0-1.7-1.4-2.4-2.3C184,200.7,180.1,202.6,179.3,202.6z M179.7,199.5c0.1,0,0.2,0,0.3,0.1
				c0.1,0.2,0.1,0.4,0,0.5c-0.9,0.9-1,1.4-0.9,1.6c0,0,0,0.1,0.2,0.1c0.5,0,3.5-1.4,6.2-2.8c0.2-0.1,0.4,0,0.5,0.1
				c0.7,1.2,1.7,2.2,1.9,2.3c0.1-0.1,0.1-0.9,0-1.6c0-0.1,0-0.3,0.2-0.4c0.1-0.1,0.3-0.1,0.4,0c0,0,1.1,0.5,1.9,0.5
				c0.6,0,0.7-0.2,0.7-0.3c0.1-0.2-0.1-0.5-0.4-1c-0.6-1-1.6-2.6-0.4-5.4c3-6.9,5.6-13.6,7.5-19.7c1.7-5.6,3.6-8.2,5-10.2
				c0.7-1,1.2-1.7,1.5-2.5c0.7-1.7,0-2.3-0.8-3c-0.2-0.2-0.5-0.4-0.7-0.7c-1.1-1.4-2.4-3.1-2.5-4.4c-0.1-1.1-0.8-2.9-4.6-2.6
				c-0.7,0-1.5,0.1-2.3,0.1c-3.6,0.2-8.9,0.4-9.8,2c1,0.9,5.2,4.6,8.2,7.5c0.1,0.1,0.2,0.3,0.1,0.4c0,0-0.4,1.1,0.2,3.8
				c0.2,1.9-3.3,7.8-8.2,16.1c-1.7,2.9-3.4,5.6-4.5,7.6c-3.8,6.4-7,7.9-10.3,8.8c1.2,1.8,4.1,2.2,4.8,2.2c0.2,0,0.3,0.1,0.4,0.2
				c0.1,0.1,0,0.3-0.1,0.4c-0.7,0.8-1.4,1.6-1.5,2c0,0,0.1,0,0.2,0c1.5,0,5.6-1,6.6-1.6C179.6,199.5,179.6,199.5,179.7,199.5z"/>
		</g>
		<g>
			<path class="st5" d="M183.1,152.2c0,0,5,4.4,8.4,7.6c0,0-0.5,1.2,0.2,4c0.3,2.7-9,16.7-12.6,23.4c-3.8,6.5-7.1,7.9-10.5,8.8
				c1.1,2.4,4.4,2.9,5.4,2.9c0,0-2,2.1-1.6,2.6c0.4,0.5,6-0.8,7.3-1.6c-1.4,1.4-1.2,2.4-0.4,2.4c0.8,0,6.4-2.9,6.4-2.9
				s1.6,2.5,2.3,2.5c0.7,0,0.4-2.1,0.4-2.1s2.6,1.2,3.1,0c0.6-1.2-2.6-2.4-0.8-6.4c1.8-4,4.9-11.5,7.5-19.8
				c2.6-8.3,5.5-10.1,6.5-12.7c1-2.6-0.7-3.1-1.6-4.1c-0.9-1.1-2.4-3-2.5-4.2c-0.1-1.3-1-3.2-5-3
				C191.6,149.9,183.9,149.8,183.1,152.2z"/>
			<path class="st4" d="M179.3,202.6c-0.4,0-0.8-0.2-0.9-0.6c-0.1-0.4-0.1-0.8,0.2-1.3c-1.8,0.6-4.5,1.2-5.6,1.2l0,0
				c-0.4,0-0.7-0.1-0.8-0.3c-0.3-0.4,0-1.3,1.1-2.5c-1.5-0.2-4-1-4.9-3c0-0.1,0-0.2,0-0.3c0-0.1,0.1-0.2,0.3-0.2
				c3.2-0.8,6.5-2.1,10.3-8.6c1.1-2,2.7-4.8,4.5-7.7c3.7-6.2,8.3-13.8,8.1-15.5c-0.5-2.2-0.4-3.4-0.3-3.9c-3.3-3.2-8.1-7.4-8.2-7.5
				c-0.1-0.1-0.2-0.3-0.1-0.4c0.7-2.3,6.2-2.5,10.6-2.8c0.8,0,1.6-0.1,2.3-0.1c4.7-0.3,5.4,2.2,5.4,3.3c0.1,1.2,1.8,3.3,2.4,4
				c0.2,0.2,0.4,0.4,0.6,0.6c0.8,0.7,1.9,1.7,1,3.9c-0.3,0.9-0.9,1.7-1.6,2.7c-1.3,1.9-3.2,4.5-4.9,10c-1.9,6.2-4.4,12.9-7.5,19.8
				c-1.1,2.4-0.3,3.6,0.4,4.6c0.4,0.6,0.7,1.2,0.4,1.8c-0.2,0.3-0.6,0.7-1.4,0.7c-0.6,0-1.2-0.2-1.6-0.3c0,0.6,0,1.3-0.3,1.6
				c-0.1,0.2-0.3,0.2-0.5,0.2c-0.7,0-1.7-1.4-2.4-2.3C184,200.7,180.1,202.6,179.3,202.6z M179.7,199.5c0.1,0,0.2,0,0.3,0.1
				c0.1,0.2,0.1,0.4,0,0.5c-0.9,0.9-1,1.4-0.9,1.6c0,0,0,0.1,0.2,0.1c0.5,0,3.5-1.4,6.2-2.8c0.2-0.1,0.4,0,0.5,0.1
				c0.7,1.2,1.7,2.2,1.9,2.3c0.1-0.1,0.1-0.9,0-1.6c0-0.1,0-0.3,0.2-0.4c0.1-0.1,0.3-0.1,0.4,0c0,0,1.1,0.5,1.9,0.5
				c0.6,0,0.7-0.2,0.7-0.3c0.1-0.2-0.1-0.5-0.4-1c-0.6-1-1.6-2.6-0.4-5.4c3-6.9,5.6-13.6,7.5-19.7c1.7-5.6,3.6-8.2,5-10.2
				c0.7-1,1.2-1.7,1.5-2.5c0.7-1.7,0-2.3-0.8-3c-0.2-0.2-0.5-0.4-0.7-0.7c-1.1-1.4-2.4-3.1-2.5-4.4c-0.1-1.1-0.8-2.9-4.6-2.6
				c-0.7,0-1.5,0.1-2.3,0.1c-3.6,0.2-8.9,0.4-9.8,2c1,0.9,5.2,4.6,8.2,7.5c0.1,0.1,0.2,0.3,0.1,0.4c0,0-0.4,1.1,0.2,3.8
				c0.2,1.9-3.3,7.8-8.2,16.1c-1.7,2.9-3.4,5.6-4.5,7.6c-3.8,6.4-7,7.9-10.3,8.8c1.2,1.8,4.1,2.2,4.8,2.2c0.2,0,0.3,0.1,0.4,0.2
				c0.1,0.1,0,0.3-0.1,0.4c-0.7,0.8-1.4,1.6-1.5,2c0,0,0.1,0,0.2,0c1.5,0,5.6-1,6.6-1.6C179.6,199.5,179.6,199.5,179.7,199.5z"/>
		</g>
		<path class="st6" d="M203.1,156.7c-0.9-1.1-2.4-3-2.5-4.2c-0.1-1.3-1-3.2-5-3c-1.6,0.1-3.7,0.2-5.8,0.3c2.3,2.3,4.7,4.4,6.7,6.9
			c0.4,0.5,0,1.2-0.6,1c-0.7-0.1-1.3-0.3-2-0.4c6.3,4.4-7.2,30.8-10.9,35.6c-2.7,3.4-6.3,7.1-10.7,8.1c0,0.1,0,0.2,0,0.3
			c0.4,0.5,6-0.8,7.3-1.6c-1.4,1.4-1.2,2.4-0.4,2.4c0.8,0,6.4-2.9,6.4-2.9s1.6,2.5,2.3,2.5c0.7,0,0.4-2.1,0.4-2.1s2.6,1.2,3.1,0
			c0.6-1.2-2.6-2.4-0.8-6.4c1.8-4,4.9-11.5,7.5-19.8c2.6-8.3,5.5-10.1,6.5-12.7C205.7,158.3,204,157.8,203.1,156.7z"/>
		<g>
			<g>
				<g>
					<path class="st3" d="M32.5,22.1c0,0-10.2-5-18.7-1.7C10,22.1,8.5,22.2,8.6,23c0.1,0.8,6.5,13.4,16.8,13.9
						C28.4,36.1,32.5,28.4,32.5,22.1z"/>
					<path class="st4" d="M25.4,37.3C25.4,37.3,25.4,37.3,25.4,37.3C14.9,36.8,8.3,23.9,8.2,23c-0.1-0.9,0.7-1.1,2.3-1.8
						c0.8-0.3,1.8-0.7,3.1-1.2c2-0.8,4.2-1.2,6.7-1.2c6.5,0,12.1,2.7,12.4,2.8c0.1,0.1,0.2,0.2,0.2,0.3c0,6.7-4.2,14.4-7.3,15.2
						C25.5,37.3,25.5,37.3,25.4,37.3z M20.3,19.6c-2.3,0-4.5,0.4-6.4,1.1c-1.3,0.6-2.3,0.9-3.1,1.2C9.7,22.4,9,22.7,9,23
						c0.2,0.9,6.4,13,16.4,13.6c2.8-0.8,6.6-8.2,6.7-14.2C31,21.8,25.9,19.6,20.3,19.6z"/>
				</g>
				<path class="st7" d="M13.8,20.4c-2.6,1.1-4,1.5-4.7,1.9c3.7-0.4,7.1-1.4,10.9-0.7c1.9,0.3,3.7,0.8,5.4,1.7
					c1.2,0.6,2.9,1,3.8,2.1c1.5,1.7,0.3,3.5-1.1,5c-1.9,2-3.8,3.9-5.3,6.1c0.9,0.2,1.8,0.4,2.7,0.4c3-0.8,7.1-8.5,7.1-14.9
					C32.5,22.1,22.3,17.1,13.8,20.4z"/>
				<g>
					<path class="st8" d="M12.6,24.7c0,0,1.8-3.9,6.5-2.3c4.8,1.7,8.7,7.2,8.7,7.2s-1.1,2.6-6.9,1.2C17,29.9,16,26.3,12.6,24.7z"/>
					<path class="st9" d="M24.1,31.7c-0.9,0-2-0.1-3.1-0.4c-2.4-0.6-3.8-2-5.1-3.4c-1-1.1-2-2.1-3.3-2.7c-0.2-0.1-0.3-0.3-0.2-0.5
						c0-0.1,1.3-2.9,4.7-2.9c0.7,0,1.5,0.1,2.4,0.4c4.8,1.7,8.8,7.1,8.9,7.3c0.1,0.1,0.1,0.3,0,0.4C28.2,29.9,27.4,31.7,24.1,31.7z
						 M13.2,24.6c1.3,0.7,2.3,1.7,3.2,2.7c1.3,1.4,2.6,2.7,4.8,3.2c1.1,0.3,2.1,0.4,2.9,0.4c2.2,0,3.1-0.9,3.4-1.2
						c-0.8-1-4.3-5.4-8.4-6.8c-0.7-0.3-1.4-0.4-2.1-0.4C14.7,22.4,13.6,23.9,13.2,24.6z"/>
				</g>
				<g class="st10">
					<radialGradient id="SVGID_1_" cx="13.825" cy="26.9623" r="19.794" gradientUnits="userSpaceOnUse">
						<stop  offset="1.347260e-02" style="stop-color:#F6E2D7"/>
						<stop  offset="0.3591" style="stop-color:#F9BAA8"/>
						<stop  offset="0.5783" style="stop-color:#F6AFA3"/>
						<stop  offset="0.7015" style="stop-color:#F3A6A0"/>
						<stop  offset="0.8275" style="stop-color:#F09B9B"/>
						<stop  offset="1" style="stop-color:#E98492"/>
					</radialGradient>
					<path class="st11" d="M19.2,22.5c-2-0.7-3.4-0.4-4.4,0.1c2.3-0.1,5.7,0.4,8.4,3.3c2.9,3.2,2.3,4.4,0.4,4.5
						c-1.8,0.1-4.5-0.4-8.5-4.2c-0.8-0.8-1.5-1.2-2.2-1.4c3.1,1.6,4.2,5,8.1,6c5.7,1.4,6.9-1.2,6.9-1.2S24,24.1,19.2,22.5z"/>
				</g>
			</g>
			<path class="st3" d="M24.1,21.8c0.2-0.6-1.4-2-4.4-1.9c-1.6,0-2.7,0.1-3.5,0.3C18.9,20.2,21.8,20.6,24.1,21.8z"/>
		</g>
		<g>
			<path class="st5" d="M245.5,148.8c-5.6-4.7-9.2-5.8-8-18.9c1.3-13.1,3.2-22.8,5.4-32.7c2.1-9.9,1.9-16.3,1.9-16.3
				s6.7,7.3,2.8,18.9c-4.5,11.8-8.2,17-6.5,22.8c0,0.1-0.1,0.1-0.1,0.2c0.7-0.5,1.4-0.8,2.2-0.5c-1.4-1.3-1.7-3.5,0.1-7.4
				c3.6-7.4,12.2-24.8,10.1-36.2c-2.2-11.4-18.2-32.3-38.9-43.1c-10.8-5.6-18.3-6-33.6-1.9c-15.3,4.1-31.2,6-35.7,5.4
				c-4.5-0.6-15.3-5-23.9-4.9c-8.6,0.1-10.4,1.9-16,4c-5.6,2.2-7.5,2.8-13.5,1.1c-0.4-0.1-0.8-0.2-1.1-0.3c-5-1.3-5.9-1-8.2-5.3
				c-2.4-4.6-6.5-7.6-6.5-7.6s7.9-3,10-11.2c2.1-8.2,1.9-10-1-10C82,5,68,5.4,61.8,14.4c-2.4,4.4-1.3,5.5-1.8,8.2
				c-0.5,2.7-2.7-2.4-17-0.2c0,0-10.4,2.2-17.4,13.1c-3.3,4.7-3.9,5.5-2.2,10.2c1.7,4.7,0.2,4.1-3.9,8.9c-4.1,4.8-6.3,8.4-6.3,8.4
				S8,77,7.7,81.7c-0.5,2-2.8,1.3-2.6,3.3c0.2,2,5.1,3.5,10.3,2.1c3.7-1.3,4.8-1.3,5.5,0.1c0.6,1.4-2.6,6.6,2.9,7.3
				c6.3,0.9,17.9-0.1,27.9-8.6c7.7-3.8,13.2,33.7,18.1,40c2.7,3.5,5.9,3.5,8.7,6.1c2.8,2.7,3.3,2.7,8.7,15c5.9,12.8,6.6,14,8.4,16
				c0.3,3.2,1.7,5.1,2.9,7c-0.4,5.7-2.6,15.4-5.8,21.3c-4.2,6.8-4.7,9.9-4.7,9.9s1.9-1.6,3.2-2.2c-1.4,2.7-2.3,3.5-2.3,3.5
				s4.7-0.6,7.2-1.9c-2.5,2.5-2.5,2.5-2.5,2.5s5.2-0.6,8.2-2.6c1.4,1.9,3.1,3,3.1,3l-0.7-3.1c0,0,0.9,1.3,2,1.7
				c-1.4-3-1.6-5.2-0.3-14.3c1.2-9,1.9-16.2,2.9-17.4c1-1.2,3.9-3.1,1.9-7.8c-2-4.7-2.5-8.9-0.4-21.6c3,0.4,4.5,0.3,6.2,3.1
				c1.8,2.8,8.8,14.8,8,20.2c-0.8,5.3,0.6,7.6,2.3,9c1.8,1.4,3.5,3.9,1.4,14.4c-1.9,8.6-7.5,15.4-9.4,17.2c2.4,0.6,5.5-0.7,5.5-0.7
				s-1.6,1.3-2.5,2c-0.9,0.7,4.7,1.9,8-0.4c-0.4,1.6-0.4,1.6-0.4,1.6s3.5-0.4,4.1-1.6c1.7,2.5,3.1,2.8,3.1,2.8v-2.6
				c0,0,1.8,0.8,2.6,0.9c-1.4-2.6-1.7-3.9-1.1-6.6c0.6-2.7,0.9-16.3,0.7-25.6c0.2-2.1,3.8-3.8,1.4-9.2c-2.3-5.5-3.2-7.9-1.6-15.4
				c1.7-7.5,2.5-9.6,2.5-9.6s10.7,0.4,17.6-1.1c2.8,2.4,4.5,3.6,5.3,3.8c-1.3,2.8-2.2,4-0.1,4.9c2.1,0.9,4.2-3,4.2-3
				s4.2,3.6,11.8,5.7c0,0-1.2,3.9,1.5,4.7c2.7,0.8,3.4-3.7,3.4-3.7s9.1-0.3,13.1-1.4c-0.1,2.3,1.8,3.4,3.1,3.2
				c1.3-0.2,1.3-4.3,1.3-4.3s5.5-2.1,8.9-5.7c5.4,3.2,11.9,5,15.6,5.9c3.7,0.9,6.2,2.6,6.3,4.6c0.1,2-0.3,3,1.4,6.3
				c1.7,3.3-0.1,5.7-2.6,12.9c-2.4,7.2-5,14.5-9.6,20.4c-4.3,5.2-6,5.9-6,5.9s3.4,1.1,6.5-0.6c-1.6,1.7-1.6,1.7-1.6,1.7
				s5,1.3,9.3-1.3c-1,2.1-0.9,2.4,0.3,2.3c1.1-0.1,3.7-2.4,3.7-2.4s3.4,3.3,4.2,3.4c0.7,0.1-0.1-2.2-0.1-2.2s2.6,0.9,3.2,0.6
				c0.6-0.3-3.7-5-2.4-13.5c1.3-8.5,3.3-20.8,6.9-26.4S251.1,153.6,245.5,148.8z"/>
			<path class="st4" d="M136.9,209.1C136.8,209.1,136.8,209.1,136.9,209.1c-0.1,0-1.5-0.4-3.2-2.6c-1.1,0.9-3.7,1.3-4,1.3
				c-0.1,0-0.3,0-0.3-0.1c-0.1-0.1-0.1-0.2-0.1-0.4l0.2-0.6c-1.6,0.8-3.3,0.9-4.3,0.9c-1.1,0-3.3-0.2-3.5-1c-0.1-0.2,0-0.5,0.2-0.6
				c0.3-0.2,0.6-0.5,1-0.8c-1.1,0.3-2.7,0.4-3.8,0.1c-0.1,0-0.2-0.1-0.3-0.3c0-0.1,0-0.3,0.1-0.4c1.8-1.7,7.4-8.5,9.2-17
				c2-10.3,0.4-12.6-1.3-14c-1.7-1.4-3.3-3.6-2.5-9.4c0.7-5-5.7-16.3-8-19.9c-1.5-2.3-2.7-2.5-5-2.8c-0.2,0-0.4,0-0.5-0.1
				c-1.9,12.5-1.4,16.6,0.5,21c1.8,4.3-0.2,6.4-1.5,7.7c-0.2,0.2-0.4,0.4-0.5,0.5c-0.7,0.9-1.3,5.8-2.1,11.4
				c-0.2,1.8-0.5,3.7-0.8,5.7c-1.2,9.1-1.1,11.2,0.3,14c0.1,0.1,0.1,0.2,0.1,0.3c0,0.2-0.2,0.4-0.4,0.4c0,0,0,0,0,0c0,0-0.1,0-0.1,0
				c-0.5-0.1-0.9-0.4-1.2-0.7l0.3,1.6c0,0.1,0,0.1,0,0.2c0,0.2-0.2,0.4-0.4,0.4c-0.1,0-0.2,0-0.2-0.1c-0.1,0-1.6-1.1-3-2.8
				c-3.1,1.9-7.9,2.4-8.1,2.4c-0.2,0-0.3-0.1-0.4-0.2c-0.1-0.1,0-0.3,0.1-0.4l1.1-1.1c-2.5,0.8-5.4,1.2-5.6,1.2
				c-0.2,0-0.3-0.1-0.4-0.2c-0.1-0.2,0-0.3,0.1-0.4c0,0,0.6-0.5,1.5-2.1c-1,0.7-1.9,1.4-1.9,1.4c-0.1,0.1-0.3,0.1-0.4,0
				c-0.1-0.1-0.2-0.2-0.2-0.4c0-0.1,0.5-3.3,4.7-10.1c3.1-5.6,5.2-15,5.7-21l-0.1-0.2c-1.2-1.8-2.4-3.7-2.7-6.7
				c-1.8-2-2.6-3.7-8.3-16c-5-11.5-5.7-12.2-8.1-14.4l-0.5-0.5c-1.2-1.1-2.4-1.8-3.7-2.4c-1.7-0.9-3.4-1.7-5-3.8
				c-1.8-2.4-3.7-8.8-5.8-16.3C60.4,98.6,56.4,84.3,52,86.4c-9.2,7.8-19.1,8.9-24.2,8.9c-1.4,0-2.7-0.1-3.9-0.2
				c-1.4-0.2-2.4-0.7-3-1.5c-0.9-1.3-0.6-3-0.3-4.3c0.1-0.7,0.3-1.4,0.1-1.7c-0.3-0.6-0.6-0.8-1.3-0.8c-0.7,0-1.8,0.3-3.7,0.9
				c-1.4,0.4-2.8,0.6-4.2,0.6c-3.6,0-6.4-1.3-6.6-3C4.6,83.8,5.4,83.3,6,83c0.5-0.3,1.1-0.6,1.3-1.4c0.3-4.7,5.3-18.2,5.5-18.7
				c0,0,0-0.1,0-0.1c0,0,2.3-3.6,6.4-8.4c1-1.2,1.9-2.1,2.6-2.8c2-2.1,2.4-2.4,1.2-5.7c-1.8-4.9-1.2-5.8,2.2-10.6
				c7-11,17.6-13.3,17.7-13.3c2.5-0.4,4.7-0.6,6.8-0.6c4.3,0,6.8,0.8,8.3,1.3c0.5,0.2,1,0.3,1.2,0.3c0.1,0,0.2,0,0.3-0.5
				c0.2-0.8,0.2-1.5,0.2-2.2c0-1.5,0-3,1.7-6.1c4.1-6,12.4-9.4,23.5-9.6h0.2c0.6,0,1.6,0.1,2.1,0.8c0.9,1.2,0.7,3.5-0.9,9.6
				c-1.8,7-7.7,10.3-9.6,11.2c1.2,1,4.1,3.7,6.1,7.4c1.9,3.6,2.8,3.8,6.3,4.7c0.5,0.1,1,0.3,1.6,0.4c0.4,0.1,0.7,0.2,1.1,0.3
				c2.3,0.6,4,0.9,5.5,0.9c2.4,0,4.3-0.7,7.8-2.1c1.2-0.5,2.2-0.9,3.2-1.3c3.6-1.6,6.1-2.7,13-2.7h0.2c5.7,0,12.2,1.9,17.4,3.4
				c2.6,0.7,4.8,1.4,6.3,1.6c0.5,0.1,1.3,0.1,2.2,0.1c6.2,0,20.1-1.9,33.4-5.5c7.1-1.9,12.2-2.7,16.7-2.7c5.8,0,10.8,1.4,17.2,4.7
				c20.2,10.5,36.8,31.3,39.1,43.3c2.2,11.4-6.3,28.7-10,36.1l-0.1,0.3c-1.6,3.2-1.7,5.5-0.3,6.9c0.1,0.1,0.2,0.2,0.2,0.3
				c0,0.2-0.2,0.4-0.4,0.4c0,0,0,0,0,0c-0.1,0-0.1,0-0.1,0c-0.6-0.2-1.1-0.1-1.8,0.4c-0.1,0.1-0.4,0.1-0.5,0
				c-0.1-0.1-0.2-0.3-0.1-0.5l0,0c-1.2-4.4,0.5-8.4,3.3-14.9c1-2.3,2.1-4.9,3.2-8c3-9-0.5-15.4-2-17.6c0,2.3-0.3,7.9-1.9,15.3
				c-2.1,9.6-4.1,19.2-5.4,32.6c-1.1,11.4,1.5,13.5,5.9,17.1c0.6,0.5,1.2,1,1.9,1.5c5.8,4.9,4.6,7.4,0.9,13.1
				c-3.7,5.8-5.7,19.1-6.8,26.2c-0.9,6.1,1.1,10.1,2,12.1c0.5,0.9,0.7,1.4,0.2,1.7c-0.1,0.1-0.3,0.1-0.5,0.1c-0.6,0-1.5-0.2-2.2-0.4
				c0.2,0.7,0.3,1.4,0.1,1.7c-0.1,0.2-0.3,0.2-0.5,0.2c0,0-0.1,0-0.1,0c-0.7-0.1-3.1-2.3-4.1-3.3c-0.7,0.6-2.6,2.2-3.7,2.3
				c-0.2,0-0.3,0-0.5,0c-0.1,0-0.6,0-0.8-0.4c-0.2-0.3-0.2-0.7,0.1-1.5c-2,0.9-4,1.1-5.5,1.1c-1.8,0-3.1-0.3-3.1-0.3
				c-0.1,0-0.2-0.1-0.3-0.3c0-0.1,0-0.3,0.1-0.4l0.4-0.4c-0.7,0.2-1.5,0.3-2.3,0.3c-1.6,0-2.7-0.4-2.8-0.4c-0.2-0.1-0.3-0.2-0.3-0.4
				c0-0.2,0.1-0.3,0.2-0.4c0,0,1.7-0.8,5.9-5.8c4.7-6,7.4-13.9,9.5-20.2c0.6-1.7,1.1-3.2,1.6-4.4c1.5-3.9,2.2-5.8,1-8.2
				c-1.4-2.7-1.4-3.9-1.4-5.3c0-0.4,0-0.7,0-1.1c-0.1-1.8-2.4-3.4-6-4.2c-3.4-0.8-9.9-2.6-15.5-5.8c-3,3.1-7.4,5-8.5,5.5
				c0,1.1-0.2,4.1-1.6,4.4c-0.9,0.1-1.9-0.2-2.6-0.9c-0.4-0.4-0.8-1.1-0.9-2.1c-3.8,0.9-10.8,1.2-12.4,1.3c-0.2,1-1,3.8-3.1,3.8
				c-0.2,0-0.5,0-0.7-0.1c-0.7-0.2-1.3-0.6-1.7-1.3c-0.7-1.2-0.4-2.8-0.2-3.5c-6.3-1.8-10.1-4.5-11.2-5.4c-0.6,0.9-2,2.9-3.6,2.9
				c-0.3,0-0.5-0.1-0.8-0.2c-0.8-0.3-1.2-0.7-1.4-1.2c-0.3-0.9,0.2-1.9,0.9-3.4c0.1-0.2,0.2-0.3,0.2-0.5c-1-0.5-2.7-1.7-4.8-3.6
				c-4.3,0.9-9.9,1.1-13.9,1.1c-1.6,0-2.8,0-3.3,0c-0.2,0.8-1,3.3-2.4,9.3c-1.6,7.2-0.9,9.5,1.5,15.1c1.7,4,0.4,6.1-0.6,7.7
				c-0.4,0.6-0.8,1.2-0.8,1.8c0.2,9.6-0.1,23-0.7,25.7c-0.5,2.6-0.3,3.8,1,6.2c0.1,0.1,0.1,0.2,0.1,0.3c0,0.2-0.2,0.4-0.4,0.4
				c0,0,0,0-0.1,0c-0.5-0.1-1.5-0.4-2.1-0.7v2c0,0.1-0.1,0.2-0.1,0.3C137,209.1,137,209.1,136.9,209.1z M133.8,205.5
				c0.1,0,0.2,0.1,0.3,0.2c1,1.4,1.9,2.1,2.4,2.4v-2c0-0.1,0.1-0.3,0.2-0.3c0.1-0.1,0.3-0.1,0.4,0c0.3,0.1,1,0.4,1.6,0.6
				c-1.1-2.2-1.2-3.6-0.7-6c0.5-2.6,0.9-16,0.7-25.5c0.1-0.8,0.5-1.4,0.9-2.1c1-1.6,2.1-3.3,0.5-7c-2.4-5.5-3.3-8.1-1.6-15.6
				c1.7-7.4,2.4-9.5,2.5-9.6c0.1-0.2,0.2-0.3,0.4-0.3c0,0,1.4,0.1,3.5,0.1c4,0,9.7-0.2,14-1.2c0.1,0,0.2,0,0.3,0.1
				c3.5,3.1,4.8,3.6,5.1,3.7c0.1,0,0.2,0.1,0.2,0.2c0,0.1,0,0.2,0,0.3c-0.1,0.3-0.3,0.6-0.4,0.9c-0.6,1.3-1.1,2.2-0.9,2.8
				c0.1,0.3,0.4,0.5,1,0.8c0.2,0.1,0.3,0.1,0.5,0.1c1.3,0,2.7-2.1,3.2-2.9c0.1-0.1,0.2-0.2,0.3-0.2c0.1,0,0.2,0,0.3,0.1
				c0,0,4.2,3.6,11.7,5.6c0.1,0,0.2,0.1,0.2,0.2c0,0.1,0.1,0.2,0,0.3c0,0-0.6,2,0.1,3.3c0.3,0.5,0.6,0.8,1.2,0.9
				c0.2,0,0.3,0.1,0.5,0.1c1.8,0,2.4-3.4,2.4-3.5c0-0.2,0.2-0.3,0.4-0.3c0.1,0,9.1-0.3,13-1.4c0.1,0,0.2,0,0.3,0.1
				c0.1,0.1,0.2,0.2,0.1,0.3c-0.1,1,0.3,1.7,0.7,2.1c0.5,0.5,1.3,0.8,1.9,0.7c0.6-0.1,1-2.3,1-3.9c0-0.2,0.1-0.3,0.3-0.4
				c0.1,0,5.4-2.1,8.7-5.6c0.1-0.1,0.3-0.2,0.5-0.1c5.5,3.2,12.1,5.1,15.5,5.8c4,0.9,6.5,2.8,6.6,4.9c0,0.4,0,0.8,0,1.2
				c0,1.4,0,2.5,1.4,5c1.4,2.7,0.6,4.9-1,8.8c-0.5,1.3-1,2.7-1.6,4.4c-2.2,6.4-4.9,14.3-9.7,20.5c-2.7,3.3-4.4,4.8-5.4,5.5
				c0.4,0.1,1,0.2,1.7,0.2c1.4,0,2.6-0.3,3.6-0.9c0.2-0.1,0.4-0.1,0.5,0.1c0.1,0.2,0.1,0.4,0,0.5l-1.1,1.2c0.5,0.1,1.3,0.2,2.3,0.2
				c1.6,0,3.9-0.3,6.1-1.6c0.1-0.1,0.3-0.1,0.5,0c0.1,0.1,0.2,0.3,0.1,0.5c-0.6,1.2-0.7,1.6-0.6,1.8c0,0,0.1,0,0.2,0
				c0.1,0,0.2,0,0.4,0c0.7-0.1,2.6-1.5,3.5-2.3c0.2-0.1,0.4-0.1,0.5,0c1.4,1.4,3.1,2.9,3.8,3.3c0-0.3-0.2-1-0.4-1.5
				c-0.1-0.1,0-0.3,0.1-0.4c0.1-0.1,0.3-0.1,0.4-0.1c0.5,0.2,1.9,0.6,2.6,0.6c-0.1-0.2-0.2-0.4-0.3-0.7c-0.9-1.9-3.1-6.2-2.1-12.6
				c1.1-7.2,3.1-20.6,6.9-26.5c3.7-5.7,4.5-7.6-0.8-12c-0.6-0.5-1.3-1-1.9-1.5c-4.6-3.7-7.4-5.9-6.2-17.7
				c1.3-13.4,3.3-23.2,5.4-32.7c2.1-9.7,1.9-16.2,1.9-16.3c0-0.2,0.1-0.3,0.2-0.4c0.1-0.1,0.3,0,0.4,0.1c0.1,0.1,6.8,7.6,2.9,19.3
				c-1.2,3.1-2.3,5.7-3.3,8c-2.7,6.3-4.3,10.1-3.3,14.2c0.3-0.1,0.6-0.2,0.9-0.3c-0.8-1.3-1.1-3.4,0.7-7l0.1-0.3
				c3.6-7.3,12-24.5,9.9-35.6c-2.3-11.9-18.8-32.4-38.7-42.8c-6.3-3.3-11.2-4.6-16.8-4.6c-4.4,0-9.5,0.8-16.5,2.7
				c-13.4,3.6-27.3,5.5-33.6,5.5c-0.9,0-1.7,0-2.3-0.1c-1.5-0.2-3.8-0.9-6.4-1.6c-5.2-1.5-11.6-3.3-17.2-3.3l-0.2,0
				c-6.7,0.1-9.2,1.2-12.7,2.7c-1,0.4-2,0.9-3.2,1.3c-3.5,1.3-5.6,2.1-8.1,2.1c-1.6,0-3.3-0.3-5.7-1c-0.4-0.1-0.8-0.2-1.1-0.3
				c-0.6-0.2-1.1-0.3-1.6-0.4c-3.6-0.9-4.8-1.2-6.8-5.1c-2.3-4.5-6.3-7.5-6.4-7.5c-0.1-0.1-0.2-0.2-0.1-0.4c0-0.1,0.1-0.3,0.2-0.3
				c0.1,0,7.7-3,9.7-10.9c1.2-4.8,1.8-7.9,1-9c-0.3-0.3-0.7-0.5-1.5-0.5l-0.2,0C74.1,5.6,66,8.9,62.1,14.6c-1.5,2.9-1.6,4.3-1.6,5.7
				c0,0.7,0,1.4-0.2,2.3c-0.1,0.3-0.2,1.1-1.1,1.1c-0.4,0-0.8-0.1-1.5-0.3c-1.4-0.5-3.9-1.2-8.1-1.2c-2,0-4.3,0.2-6.7,0.5
				c-0.1,0-10.3,2.3-17.2,12.9c-3.3,4.7-3.8,5.3-2.1,9.9c1.4,3.8,0.7,4.4-1.4,6.6c-0.7,0.7-1.5,1.6-2.6,2.8c-3.8,4.5-6,7.9-6.3,8.3
				C13.2,64,8.4,77.3,8.1,81.8C7.8,83,7,83.4,6.4,83.7c-0.6,0.3-1,0.5-0.9,1.3c0.1,1.1,2.4,2.3,5.8,2.3c1.3,0,2.7-0.2,4-0.5
				c1.9-0.7,3.1-1,3.9-1c1,0,1.6,0.4,2,1.3c0.2,0.5,0.1,1.2-0.1,2.2c-0.2,1.2-0.5,2.7,0.2,3.7c0.5,0.6,1.3,1,2.5,1.2
				c1.2,0.2,2.5,0.2,3.8,0.2c5,0,14.7-1.1,23.8-8.8c0,0,0.1,0,0.1-0.1c0.4-0.2,0.8-0.3,1.3-0.3c4.6,0,8.2,12.4,11.6,24.4
				c2,7.1,3.9,13.8,5.7,16.1c1.5,1.9,3,2.7,4.7,3.5c1.3,0.7,2.7,1.3,3.9,2.6l0.5,0.5c2.4,2.3,3.2,3.1,8.2,14.7
				c5.9,12.9,6.6,14,8.3,15.9c0.1,0.1,0.1,0.1,0.1,0.2c0.3,3,1.5,4.8,2.6,6.5l0.2,0.3c0,0.1,0.1,0.2,0.1,0.2
				c-0.5,6.1-2.7,15.7-5.8,21.4c-2.8,4.4-3.9,7.3-4.4,8.7c0.7-0.5,1.6-1.2,2.4-1.6c0.2-0.1,0.3,0,0.5,0.1c0.1,0.1,0.1,0.3,0.1,0.5
				c-0.7,1.3-1.3,2.2-1.7,2.7c1.5-0.2,4.3-0.8,6.1-1.7c0.2-0.1,0.4,0,0.5,0.1c0.1,0.2,0.1,0.4,0,0.5l-1.6,1.6c1.7-0.3,4.9-1,6.9-2.3
				c0.2-0.1,0.4-0.1,0.5,0.1c0.8,1,1.6,1.8,2.2,2.3l-0.4-2.1c0-0.2,0.1-0.4,0.2-0.4c0.2-0.1,0.4,0,0.5,0.1c0,0,0.4,0.5,0.9,1
				c-1-2.7-1-5.5,0.1-13.4c0.3-2,0.5-4,0.7-5.7c0.9-7.1,1.4-10.9,2.2-11.8c0.1-0.2,0.3-0.4,0.5-0.6c1.2-1.2,2.9-3,1.3-6.8
				c-2-4.6-2.5-8.9-0.5-21.8c0-0.2,0.2-0.4,0.4-0.3c0.3,0,0.6,0.1,0.9,0.1c2.4,0.3,3.9,0.5,5.6,3.2c0.1,0.1,9,14.2,8.1,20.4
				c-0.8,5.4,0.7,7.4,2.2,8.7c1.8,1.5,3.6,4,1.6,14.8c-1.8,8-6.7,14.4-8.9,16.8c0.2,0,0.4,0,0.6,0c2,0,3.9-0.8,3.9-0.8
				c0.2-0.1,0.4,0,0.5,0.2c0.1,0.2,0.1,0.4-0.1,0.5c-0.1,0-1.4,1.2-2.3,1.9c0.4,0.2,1.3,0.4,2.6,0.4c1.1,0,3.1-0.2,4.7-1.3
				c0.1-0.1,0.3-0.1,0.4,0c0.1,0.1,0.2,0.3,0.1,0.4l-0.3,1c1.3-0.2,2.9-0.7,3.2-1.3C133.5,205.6,133.6,205.5,133.8,205.5
				C133.7,205.5,133.8,205.5,133.8,205.5z"/>
		</g>
		<path class="st12" d="M87,5.6c0.2,1.4,0.3,2.7,0.2,4.1C87.5,7.6,87.5,6.3,87,5.6z"/>
		<path class="st12" d="M33.9,30.5c0.6-0.2,1,0.6,0.6,1c-0.6,0.7-1.5,1.8-2.2,3c3.5-0.7,7.1-2.1,9.8-4.2c0.4-0.3,1.3,0,1,0.6
			c-0.4,1.1-0.9,2.1-1.4,3.2c2.4-1.5,4.4-3.6,6.2-5.6c0.4-0.4,1.1-0.1,1.1,0.4c0,1.1,0,2.3-0.1,3.4c1.9-1.1,3.6-2.9,4.7-4.4
			c0.3-0.4,1-0.4,1.1,0.2c0.2,1.2,0.3,2.3,0.2,3.5c1.3-1,2.6-2,3.8-3.2c0.9-0.9,1.8-1.9,2.4-3.1c0.8-1.8-0.1-3.2-0.4-4.9
			c-0.2-1-0.2-2-0.1-3c-0.7,2.2-0.2,3.3-0.6,5.3c-0.5,2.7-2.7-2.4-17-0.2c0,0-10.4,2.2-17.4,13.1c-0.6,0.8-1,1.5-1.5,2.1
			C27,34.7,29.9,31.9,33.9,30.5z"/>
		<g>
			<path class="st0" d="M60.4,27.7c0.2,1.4,0.1,2.3-0.9,3.2c-1.1,0.9-2.1,2.8-1.1,5.4c1,2.6,1.9,7.2-0.2,10.7
				c-1.7,1.4-1.2,6.8,1.7,8.3c2.9,1.5,4.4-1,5.9,3.2c1.6,4.2,3.4,6.8,7.2,6.8s6-5.4,6.1-8.4c0.1-2.9-0.1-4.1,1.8-4.1
				c1.9,0,3.6,0.4,3.8-3.2c0.2-3.4-1-9.7,1.8-11.6c-1.8-0.6-2.7-1.5-4.1-4.2c-2.4-4.6-6.5-7.6-6.5-7.6s7.9-3,10-11.2
				c2.1-8.2,1.9-10-1-10C82,5,68,5.4,61.8,14.4c-2.4,4.4-1.3,5.5-1.8,8.2c0,0.1,0,0.1,0,0.2c0,0.1,0,0.3,0,0.4
				C59.9,26,60.2,26.3,60.4,27.7z"/>
		</g>
		<g>
			<path class="st0" d="M61.7,18.4c1.3-3.1,4-5.7,6.8-7.5C73.3,7.7,78.9,5.8,84.6,5c-3.6,0.1-16.8,0.8-22.8,9.4
				c-2.4,4.4-1.3,5.5-1.8,8.2c0,0.1,0,0.1,0,0.2c0,0.1,0,0.2,0,0.4C60.4,21.5,61.1,19.9,61.7,18.4z"/>
		</g>
		<path class="st0" d="M37.1,60.2c0,0-0.3-1.8,2-4c2.4-2.2,2.2-4,4-4.4c1.8-0.5,4.7,0.9,6,2.8c1.3,1.9,1.1,3.6,0.8,4.7
			C49.6,60.3,37.1,60.2,37.1,60.2z"/>
		<g>
			<path class="st8" d="M83.9,7.6c0,0-15.8,2.9-18.1,13.3c2.1,0.4,5,0.7,7.5,2.9c1.5,1.5,9.5-3.5,11-8.1C85.8,11,86.4,6.9,83.9,7.6z
				"/>
			<path class="st9" d="M74.1,24.4L74.1,24.4c-0.5,0-0.8-0.1-1.1-0.4c-2.2-1.9-4.8-2.3-6.8-2.7l-0.4-0.1c-0.1,0-0.2-0.1-0.3-0.2
				c-0.1-0.1-0.1-0.2-0.1-0.3c0.9-4.4,4.4-8.2,10.1-10.9c4.2-2,8.3-2.8,8.3-2.8c0.7-0.2,1.3,0,1.7,0.5c0.8,1.1,0.5,3.8-0.9,8.1
				C83.3,20,76.8,24.4,74.1,24.4z M66.3,20.6L66.3,20.6c2.1,0.4,4.9,0.8,7.3,2.9c0.2,0.1,0.4,0.2,0.6,0.2c2.5,0,8.5-4.3,9.8-8.1
				c1.8-5.5,1.3-7,1-7.4c-0.2-0.3-0.5-0.3-0.9-0.2C83.8,8,68.8,10.8,66.3,20.6z"/>
		</g>
		<linearGradient id="SVGID_2_" gradientUnits="userSpaceOnUse" x1="47.6181" y1="30.9573" x2="57.5381" y2="30.9573">
			<stop  offset="0" style="stop-color:#4A3E32"/>
			<stop  offset="0.3427" style="stop-color:#3F362F"/>
			<stop  offset="0.5563" style="stop-color:#35302D"/>
			<stop  offset="0.763" style="stop-color:#2A2522"/>
			<stop  offset="1" style="stop-color:#17140F"/>
		</linearGradient>
		<path class="st13" d="M47.6,33.8c0,0,1.9-3.7,4.7-3.9c2.8-0.2,5.2,2.5,5.2,2.5s-1.9-4.8-5.9-4.2C47.6,28.8,47.6,33.8,47.6,33.8z"
			/>
		<linearGradient id="SVGID_3_" gradientUnits="userSpaceOnUse" x1="26.292" y1="35.2892" x2="33.3886" y2="35.2892">
			<stop  offset="0" style="stop-color:#4A3E32"/>
			<stop  offset="0.3427" style="stop-color:#3F362F"/>
			<stop  offset="0.5563" style="stop-color:#35302D"/>
			<stop  offset="0.763" style="stop-color:#2A2522"/>
			<stop  offset="1" style="stop-color:#17140F"/>
		</linearGradient>
		<path class="st14" d="M26.3,37.7c0,0,1.3-3,3.2-3.4c1.9-0.4,3.9,1.2,3.9,1.2S27.9,28.2,26.3,37.7z"/>
		<path class="st0" d="M112.8,139.3c0,0-3.8-3.8-10.1-9.7c-6.3-5.9-8.9-9.8-7.5-19.5c1.4-9.7,3.4-13.4,4.2-19.4
			c0.8-5.9,6.5-7.2,7.7-3.4c1.3,3.8,0.8,8.4,4.7,12.8c4,4.4,8.8,7.3,8.2,12.3c-0.6,4.9-4.2,7.5-1.6,13.1c2.6,5.6,3.2,7,2,9.9
			C119.2,138.3,116.6,141.5,112.8,139.3z"/>
		<path class="st0" d="M132.4,100.2c0,0,4.8,5.4,6,11.3c1.2,5.9,2,12.3-0.1,15.1c-2.2,2.5-3.3,0.8-3.5-0.8c-0.2-1.5-2-3.2-3.9-4.7
			c-1.8-1.5-4.5-6.6-4.9-10.2c-0.4-3.7,1.7-5.8,1.8-7.6C127.9,101.4,129.5,97.4,132.4,100.2z"/>
		<path class="st0" d="M100.8,62.3c0,0-2.2,5-0.1,7.5c2,2.4,7,4.2,8,0.6c1-3.6-2-9.5-3.9-10.5C102.9,58.9,100.8,62.3,100.8,62.3z"/>
		<path class="st0" d="M154,109.2c0,0-2.4,2.2-1.9,6.9c0.6,4.7,3.4,5.2,5.7,3.3c2.3-1.9,4.4-3.6,1.9-7.5
			C157.1,108,156.6,106.6,154,109.2z"/>
		<path class="st0" d="M217.1,107.5c0,0,0,2.4,1.3,5c1.3,2.6,0.9,2.6-0.3,6c-1.2,3.4-0.1,8.7,5.9,12.8c4.4,3,7.2-1.7,7.6-5
			c0.4-3.3,0.9-5.5,1.4-7.2c0.6-1.7-0.3-6.5-4.4-10c-4.2-3.6-7-7.6-8.6-7.3C218.4,102,216.9,105,217.1,107.5z"/>
		<path class="st0" d="M200,61.7c0,0-1.8-2-3.1-1.1c-1.7,1.2-2.1,3.2-1.1,6.3c1.1,3.2,0.6,4.1-0.4,6.4c-0.9,2.3-0.7,5.5,2,8.3
			c2.7,2.9,8.5,1.4,10.2-0.1c1.7-1.5,2.5-8.3,0.9-11.8c-1.7-3.5-3.5-3.1-4.3-4.9C203.5,62.9,202.2,62.9,200,61.7z"/>
		<g>
			<linearGradient id="SVGID_4_" gradientUnits="userSpaceOnUse" x1="244.8213" y1="81.0508" x2="244.875" y2="81.0508">
				<stop  offset="0" style="stop-color:#4A3E32"/>
				<stop  offset="0.3427" style="stop-color:#3F362F"/>
				<stop  offset="0.5563" style="stop-color:#35302D"/>
				<stop  offset="0.763" style="stop-color:#2A2522"/>
				<stop  offset="1" style="stop-color:#17140F"/>
			</linearGradient>
			<path class="st15" d="M244.8,81.2c0,0,0-0.1,0-0.3c0,0-0.1-0.1-0.1-0.1S244.8,81,244.8,81.2z"/>
			<path class="st0" d="M136.5,136.2c-2.2,0.1-4.6,5.7-5.4,12.2c-0.9,5.7,0,6.3,1.9,6.9c1.4,0.4,3.6,1.9,5.5,4.8
				c-0.6-2.6-0.6-5.3,0.5-9.8c0.8-3.4,1.3-5.7,1.7-7.2C139.7,140.4,138,136.1,136.5,136.2z"/>
			<path class="st0" d="M107.8,149c0.3-3.5-1.3-4.1-2.6-4.1c-1.3,0-3.5,0.2-2.4,5.8c1,5.1,3.5,5.8,6.3,5.1c-0.1-0.9-0.1-1.8,0-2.9
				C108.5,152.5,107.6,151.4,107.8,149z"/>
			<path class="st0" d="M119.7,47.4c-1.4,6.3-4,12.8,0.4,19.8c3.2,4.2,11.3,2.3,12.3,6c1,3.7,3.4,5.7,8.5,7.9
				c5,2.2,4.4,4.2,8.5,10.3c4,6.2,8.9,15.1,23.5,12.6c11-2.4,15.3-9.5,10.9-19.8c-4.4-10.3-3.7-15.5-0.1-15.3
				c3.6,0.1,8.3-0.9,5.6-6.2c-2.7-5.3-1.3-6.6,0.9-8.2c2.2-1.6,7.9-7.7,4.9-12.6c-2.6-4.2-5-7.8-2.6-10.6c-3.4,0.4-7.1,1.2-11.5,2.4
				c-15.3,4.1-31.2,6-35.7,5.4c-4.5-0.6-15.3-5-23.9-4.9c-4.4,0-7,0.5-9.3,1.3c1.6,0.4,3.6,1,5.8,2.3
				C122.3,40.5,121.1,41.1,119.7,47.4z"/>
			<path class="st0" d="M92.5,154.1c-0.4-2.2,0.4-3.8,2.1-5.7c1.7-2,1.6-4.9,0.4-6.9c-1.2-2-5.7-3-7-4.8c-1.3-1.8-1.9-4.1-4-5.9
				c-2.2-1.8-4.9-3.9-7.6-4.6c-2.7-0.7-4.3-0.8-6.5-2.4c-0.6-0.5-1.2-0.7-1.6-0.8c0.4,1.2,1,2.3,1.6,3.1c2.7,3.5,5.9,3.5,8.7,6.1
				c2.8,2.7,3.3,2.7,8.7,15c2.7,5.8,4.3,9.2,5.4,11.4C92.3,156.8,92.8,155.6,92.5,154.1z"/>
			<linearGradient id="SVGID_5_" gradientUnits="userSpaceOnUse" x1="244.8213" y1="81.2573" x2="244.8281" y2="81.2573">
				<stop  offset="0" style="stop-color:#4A3E32"/>
				<stop  offset="0.3427" style="stop-color:#3F362F"/>
				<stop  offset="0.5563" style="stop-color:#35302D"/>
				<stop  offset="0.763" style="stop-color:#2A2522"/>
				<stop  offset="1" style="stop-color:#17140F"/>
			</linearGradient>
			<path class="st16" d="M244.8,81.3C244.8,81.3,244.8,81.2,244.8,81.3C244.8,81.2,244.8,81.2,244.8,81.3L244.8,81.3z"/>
			<path class="st0" d="M242.8,70.8c-2.6-10.2-8.3-14.8-13.1-17.2c0,0-4.9-1.5-6,1.7c-1.1,3.2-0.6,6,0.9,10.8
				c1.5,4.8-0.4,8.4-1.5,12.2c-1,3.8-0.9,7.8,2.8,10.4c4.5,3.1,8.6,4,9.1,7.8c0.4,3.8,1.9,7.7,3.8,8c0.8,0.1,1.8-0.4,2.8-1.2
				c0.4-2.1,0.9-4.2,1.3-6.2c1.8-8.4,1.9-14.4,1.9-15.9l0-0.1c0,0,0,0,0,0c0-0.2,0-0.4,0-0.4s0,0,0.1,0.1
				C244.9,80.3,244.6,78,242.8,70.8z"/>
		</g>
		<path class="st0" d="M23.1,50.9c0,0,1.5,2.2,1.3,3.3c-0.2,1.1-1,2.4-3,2.8c-2,0.4-3.6-0.3-2.9-1.1C19.1,55.2,21.4,52.1,23.1,50.9z
			"/>
		<g>
			<g>
				<path class="st17" d="M63.9,11.9c0,0-1.9-0.8-3.7,0.5c0.6-2.3-0.8-3.7-1.2-3.6c-0.4,0.1-1.4,3.4-1.4,3.4s0.4-1.7-0.7-1.7
					c-1.1-0.1-2.9,0.6-4.7,2c2.5-2.7,2.5-3,2.3-3.4c-0.2-0.4-4.9,0.8-7.1,3.1c-0.7,0.5-0.5-2.2,0-3.7c0.5-1.5-3.8-0.5-5.6,3.6
					c-1.2-1.2-0.5-3.3-0.5-3.3s-3.2,0.5-3.4,4.8c-0.6-2.3-3.4-4-4.3-3.4c-1,0.5,0.1,4.6,0.1,4.6s-2.8-0.5-3.2,0.3
					c-0.4,0.8,1.9,1.7,1.9,1.7s-3.9,0.1-5.3,3.5c-0.8,1.5,4.7,0.6,4.7,0.6s-3.4,1.4-3.6,5.7c1.8-0.6,3.3-0.2,3.3-0.2s-2.8,1.3-3,3.7
					c-0.1,1.2,6.1,0,8.5-1.9c-1.4,1.8-1.1,3.1-1.1,3.1s6.5-2.3,9.2-5c-1,1.9-0.3,2.4-0.3,2.4s5.4-1.5,7.3-3.9
					c-0.9,1.7-0.6,1.9-0.6,1.9s2.5-0.3,4.4-2.6c-0.1,1.9,0.8,3.1,0.8,3.1s3.1-2,3.2-4.6C60.2,20,60.2,15.2,63.9,11.9z"/>
				<path class="st18" d="M36,31.6c-0.1,0-0.1,0-0.2,0c-0.1-0.1-0.2-0.1-0.2-0.2c0,0-0.2-0.9,0.3-2c-2,1-4.8,1.6-6.2,1.6
					c-0.7,0-1.1-0.1-1.4-0.4c-0.1-0.1-0.2-0.3-0.2-0.5c0.1-1.6,1.3-2.8,2.2-3.4c-0.7,0-1.4,0.1-2,0.3c-0.1,0-0.3,0-0.4-0.1
					c-0.1-0.1-0.2-0.2-0.2-0.3c0.1-2.6,1.3-4.2,2.4-5c-0.4,0-0.9,0.1-1.3,0.1c-1.2,0-1.8-0.2-2.1-0.6c-0.1-0.2-0.2-0.5,0-0.8
					c0.9-2.4,3-3.2,4.3-3.5c-0.4-0.3-0.9-0.6-1-1c-0.1-0.2-0.1-0.5,0-0.7c0.2-0.4,0.8-0.6,1.8-0.6c0.4,0,0.8,0,1.2,0.1
					c-0.4-1.5-0.8-3.9,0.2-4.5c1-0.6,3.2,0.6,4.3,2.4c0.8-3.2,3.5-3.7,3.5-3.8c0.1,0,0.3,0,0.4,0.1c0.1,0.1,0.1,0.2,0.1,0.4
					c0,0-0.4,1.4,0.1,2.4c1.5-2.6,3.8-3.9,5.1-3.9c0.5,0,0.8,0.2,0.9,0.4c0.1,0.1,0.2,0.4,0.1,0.8c-0.3,1.1-0.5,2.5-0.4,3.1
					c2-2,5.7-3.1,6.8-3.1c0.1,0,0.5,0,0.7,0.3c0.2,0.5,0.2,0.9-0.6,1.9c1-0.5,2-0.7,2.7-0.7c0.3,0,0.6,0.2,0.8,0.4
					c0.7-2,1-2.1,1.2-2.1c0.3-0.1,0.7,0.2,1,0.6c0.3,0.3,0.8,1.2,0.7,2.6c0.6-0.2,1.2-0.4,1.8-0.4c0.9,0,1.5,0.2,1.5,0.3
					c0.1,0,0.2,0.2,0.2,0.3c0,0.1,0,0.3-0.1,0.4c-3.4,3-3.6,7.4-3.7,10l0,0.3c-0.1,2.7-3.3,4.8-3.4,4.9c-0.2,0.1-0.4,0.1-0.5-0.1
					c0,0-0.7-1-0.9-2.4c-1.8,1.7-3.9,2-4,2.1c-0.1,0-0.2,0-0.3-0.1c-0.2-0.2-0.3-0.4-0.2-0.8c-2.4,1.7-6,2.7-6.2,2.8
					c-0.1,0-0.2,0-0.3-0.1c-0.1-0.1-0.5-0.4-0.3-1.4c-3,2.2-8,4-8.2,4C36.1,31.5,36,31.6,36,31.6z M37.1,27.7c0.1,0,0.2,0,0.3,0.1
					c0.1,0.1,0.1,0.4,0,0.5c-0.8,1-1,1.8-1.1,2.3c1.6-0.6,6.4-2.5,8.6-4.7c0.1-0.1,0.4-0.2,0.5,0c0.2,0.1,0.2,0.3,0.1,0.5
					c-0.5,1-0.6,1.5-0.5,1.8c1.1-0.4,5.3-1.7,6.8-3.6c0.1-0.2,0.3-0.2,0.5-0.1c0.2,0.1,0.2,0.3,0.1,0.5c-0.3,0.6-0.5,1-0.5,1.3
					c0.8-0.2,2.4-0.8,3.8-2.4c0.1-0.1,0.3-0.2,0.4-0.1c0.2,0.1,0.3,0.2,0.3,0.4c0,1.2,0.3,2.1,0.6,2.5c0.8-0.6,2.6-2.2,2.7-4l0-0.3
					c0.1-2.6,0.2-6.9,3.4-10.1c-0.2,0-0.4,0-0.6,0c-0.8,0-1.5,0.2-2.1,0.6c-0.1,0.1-0.3,0.1-0.4,0c-0.1-0.1-0.2-0.3-0.2-0.4
					c0.4-1.8-0.3-2.8-0.7-3.1c-0.3,0.4-0.8,1.9-1.2,3.1c-0.1,0.2-0.3,0.3-0.5,0.3c-0.2-0.1-0.3-0.3-0.3-0.5c0.1-0.2,0.1-0.9-0.1-1.1
					c0-0.1-0.1-0.1-0.3-0.1c-0.9-0.1-2.5,0.4-4.4,1.9c-0.2,0.1-0.4,0.1-0.5,0c-0.1-0.2-0.1-0.4,0-0.5c1.8-2,2.2-2.6,2.2-2.9
					c-1,0-4.6,1.1-6.5,3.1c-0.4,0.3-0.7,0.2-0.9,0c-0.5-0.6-0.1-3,0.2-4.1c0-0.1,0-0.1,0-0.1c0,0-0.1,0-0.2,0c-1,0-3.4,1.2-4.7,4
					c-0.1,0.1-0.2,0.2-0.3,0.2c-0.1,0-0.3,0-0.3-0.1c-0.9-0.9-0.9-2.2-0.7-3c-0.9,0.4-2.3,1.4-2.5,4.2c0,0.2-0.2,0.3-0.3,0.4
					c-0.2,0-0.4-0.1-0.4-0.3C37,11.8,35,10.4,34,10.4c-0.1,0-0.2,0-0.3,0.1c-0.4,0.2-0.2,2.2,0.3,4.2c0,0.1,0,0.3-0.1,0.4
					c-0.1,0.1-0.2,0.1-0.4,0.1c0,0-0.8-0.1-1.6-0.1c-0.8,0-1.1,0.2-1.1,0.2c0,0.2,0.8,0.7,1.7,1.1c0.2,0.1,0.3,0.2,0.2,0.4
					c0,0.2-0.2,0.3-0.4,0.3c-0.1,0-3.7,0.1-5,3.3c0,0.1,0,0.1,0,0.1l0,0c0,0,0.2,0.2,1.4,0.2c1.3,0,2.9-0.3,2.9-0.3
					c0.2,0,0.4,0.1,0.4,0.3c0.1,0.2,0,0.4-0.2,0.5c-0.1,0.1-2.9,1.3-3.3,4.8c0.5-0.1,1.1-0.2,1.6-0.2c0.8,0,1.3,0.1,1.4,0.1
					c0.2,0,0.3,0.2,0.3,0.3c0,0.2-0.1,0.3-0.2,0.4c0,0-2.6,1.2-2.7,3.3c0.1,0,0.3,0.1,0.8,0.1c1.9,0,5.5-1,7.2-2.2
					C36.9,27.7,37,27.7,37.1,27.7z"/>
			</g>
		</g>
		<g class="st10">
			<path class="st17" d="M52.7,12c2-2.2,2-2.5,1.8-2.9c0,0-0.1-0.1-0.1-0.1c-1.1,1.1-2.4,2.2-3.3,3.6C51.6,12.4,52.2,12.2,52.7,12z"
				/>
			<path class="st17" d="M60.2,12.4c0.6-2.3-0.8-3.7-1.2-3.6c-0.4,0.1-1.4,3.4-1.4,3.4s0.4-1.7-0.7-1.7c-0.9-0.1-2.3,0.4-3.7,1.3
				c0.2,0,0.4-0.1,0.5-0.1c0.9-0.2,2.2-0.3,2.7,0.7c0.2,0.4,0.1,0.8,0,1.3c0.9-0.2,1.9-0.4,2.8-0.4c0.5,0,0.8,0.7,0.4,1.1
				c-2.2,2-2.2,4.9-3,7.5c-0.2,0.5-0.8,0.6-1.1,0.1c-0.5-0.8-1.3-2-1.8-3.4c-0.4,0.7-1,1.3-1.5,1.8c-1.4,1.5-3.4,3.3-5.5,3.5
				c-0.4,0-0.7-0.4-0.6-0.8c0.1-0.4,0.2-0.8,0.3-1.2c-3.6,2.7-8.1,4.2-12.5,5.5c-0.6,0.2-1-0.6-0.6-1c0.9-1,1.8-2,2.7-3
				c-1.9,1-3.9,1.6-5.9,1.5c-0.4,0-0.8-0.5-0.5-0.9c1.2-1.8,2.8-3.2,4.4-4.6c-2.3,0.7-5.3,1.4-6.9,0.8c-0.4,1.4,4.7,0.5,4.7,0.5
				s-3.4,1.4-3.6,5.7c1.8-0.6,3.3-0.2,3.3-0.2s-2.8,1.3-3,3.7c-0.1,1.2,6.1,0,8.5-1.9c-1.4,1.8-1.1,3.1-1.1,3.1s6.5-2.3,9.2-5
				c-1,1.9-0.3,2.4-0.3,2.4s5.4-1.5,7.3-3.9c-0.9,1.7-0.6,1.9-0.6,1.9s2.5-0.3,4.4-2.6c-0.1,1.9,0.8,3.1,0.8,3.1s3.1-2,3.2-4.6
				c0.1-2.6,0.1-7.4,3.8-10.6C63.9,11.9,62,11.2,60.2,12.4z"/>
		</g>
		<g>
			<radialGradient id="SVGID_6_" cx="74.5363" cy="209.5901" r="52.2751" gradientUnits="userSpaceOnUse">
				<stop  offset="0" style="stop-color:#FFFFFF"/>
				<stop  offset="0.3826" style="stop-color:#FAF7F4"/>
				<stop  offset="0.7779" style="stop-color:#F2EBE3"/>
				<stop  offset="0.8739" style="stop-color:#E8E0D8"/>
				<stop  offset="1" style="stop-color:#D6CCC2"/>
			</radialGradient>
			<path class="st19" d="M226.5,195.9c0,0-0.1,0.1-0.2,0.2C226.5,196,226.5,195.9,226.5,195.9z"/>
		</g>
		<g>
			<g>
				<path class="st0" d="M258.2,134.3c0,0-2.3,1.7-3.9,0.4c-1.6-1.3-1.2-4.7,0-6.4c1.2-1.7-1.6-5.2-5.7-4.8c-2,0.2-4.1-0.1-5.4-1.2
					c-0.8-0.3-1.5,0-2.2,0.5c-3.7,6.1-1.6,9.9,1.8,11.4c3.4,1.5,2.6,4.1,0,5.8c2.1,1.1,4.5-1.7,4.5-1.7s-4.3,5.8,0.9,7.5
					c5.2,1.7,6.5,3,5.4,4.3c0,0,4.7-4.1,2.4-6.5c-2.3-2.3-2.6-3.4-0.3-6C258.1,137.5,258.2,134.3,258.2,134.3z"/>
				<path class="st1" d="M253.6,150.5c-0.1,0-0.2,0-0.3-0.1c-0.1-0.1-0.2-0.4,0-0.5c0.3-0.4,0.3-0.6,0.2-0.7
					c-0.2-0.8-2.1-1.8-5.4-2.9c-1.4-0.5-2.3-1.3-2.6-2.4c-0.4-1.3,0-2.7,0.5-3.8c-0.6,0.4-1.3,0.7-2.1,0.7c-0.4,0-0.8-0.1-1.2-0.3
					c-0.1-0.1-0.2-0.2-0.2-0.3c0-0.1,0.1-0.3,0.2-0.3c1.4-0.9,2.2-2.1,2.1-3c-0.1-0.8-0.8-1.5-2-2.1c-1.9-0.8-3.2-2.2-3.7-3.9
					c-0.7-2.3-0.1-5,1.7-8.1c0,0,0.1-0.1,0.1-0.1c0.9-0.7,1.7-0.9,2.5-0.5c0,0,0.1,0,0.1,0.1c0.8,0.8,2.2,1.2,3.9,1.2
					c0.4,0,0.8,0,1.2-0.1c2.9-0.3,5.2,1.3,6,2.8c0.5,0.9,0.5,1.9,0.1,2.6c-1,1.6-1.5,4.7-0.1,5.9c0.3,0.3,0.7,0.4,1.2,0.4
					c1.1,0,2.3-0.8,2.3-0.8c0.1-0.1,0.3-0.1,0.4,0c0.1,0.1,0.2,0.2,0.2,0.4c-0.1,1.2-0.7,3.5-2.7,3.7c-2.1,2.4-1.8,3.2,0.4,5.3
					c0.5,0.5,0.8,1.2,0.8,1.9c-0.1,2.4-3.1,5-3.2,5.1C253.8,150.5,253.7,150.5,253.6,150.5z M247.4,137.9c0.1,0,0.2,0,0.2,0.1
					c0.2,0.1,0.2,0.4,0.1,0.5c0,0-2.1,2.9-1.5,5.1c0.3,0.9,1,1.5,2.1,1.9c3.8,1.3,5.6,2.3,5.9,3.4c0.8-0.9,1.9-2.4,2-3.6
					c0-0.5-0.2-1-0.5-1.3c-2.4-2.4-2.8-3.7-0.3-6.5c0.1-0.1,0.2-0.1,0.3-0.1c1.3-0.1,1.8-1.3,2-2.2c-0.5,0.3-1.3,0.6-2,0.6
					c-0.6,0-1.2-0.2-1.7-0.6c-1.9-1.5-1.3-5.1-0.1-6.9c0.3-0.5,0.3-1.1-0.1-1.8c-0.7-1.3-2.7-2.7-5.2-2.4c-0.4,0-0.8,0.1-1.3,0.1
					c-1.3,0-3.1-0.2-4.4-1.4c-0.5-0.2-1.1,0-1.7,0.4c-1.7,2.8-2.2,5.3-1.6,7.4c0.6,1.9,2.1,2.9,3.3,3.5c1.9,0.8,2.4,2,2.5,2.7
					c0.1,1.1-0.6,2.3-1.8,3.3c1.6,0.2,3.3-1.8,3.4-1.8C247.2,138,247.3,137.9,247.4,137.9z"/>
			</g>
			<path class="st2" d="M254,149.2c1.2-2.8-4.2-4.6-4.9-7.4c-0.7-2.9,1.6-6.3-1-8.8c-1.7-1.6-4.6-2.5-5.6-4.8
				c-0.9-2-0.8-3.9-0.4-5.9c-0.4,0.1-0.7,0.3-1.1,0.5c-3.7,6.1-1.6,9.9,1.8,11.4c3.4,1.5,2.6,4.1,0,5.8c2.1,1.1,4.5-1.7,4.5-1.7
				s-4.3,5.8,0.9,7.5C252.2,147.1,253.9,148.2,254,149.2z"/>
			<defs>
				<filter id="Adobe_OpacityMaskFilter" filterUnits="userSpaceOnUse" x="252" y="133.2" width="5.6" height="3.3">
					<feFlood  style="flood-color:white;flood-opacity:1" result="back"/>
					<feBlend  in="SourceGraphic" in2="back" mode="normal"/>
				</filter>
			</defs>
			<mask maskUnits="userSpaceOnUse" x="252" y="133.2" width="5.6" height="3.3" id="SVGID_7_">
				<g class="st20">
					<defs>
						<filter id="Adobe_OpacityMaskFilter_1_" filterUnits="userSpaceOnUse" x="252" y="133.2" width="5.6" height="3.3">
							<feFlood  style="flood-color:white;flood-opacity:1" result="back"/>
							<feBlend  in="SourceGraphic" in2="back" mode="normal"/>
						</filter>
					</defs>
					<mask maskUnits="userSpaceOnUse" x="252" y="133.2" width="5.6" height="3.3" id="SVGID_7_">
						<g class="st21">
						</g>
					</mask>
					<linearGradient id="SVGID_8_" gradientUnits="userSpaceOnUse" x1="257.7959" y1="132.769" x2="251.5754" y2="136.2066">
						<stop  offset="0" style="stop-color:#FFFFFF"/>
						<stop  offset="8.683082e-02" style="stop-color:#F4F4F4"/>
						<stop  offset="0.2414" style="stop-color:#D5D5D5"/>
						<stop  offset="0.4457" style="stop-color:#A4A4A4"/>
						<stop  offset="0.6922" style="stop-color:#5F5F5F"/>
						<stop  offset="0.9716" style="stop-color:#090909"/>
						<stop  offset="1" style="stop-color:#000000"/>
					</linearGradient>
					<path class="st22" d="M253,133.6c0,0,1,3.3,4.5,1.5c0.5-0.3-1.2,2.4-3.9,0.9C250.9,134.5,252.2,132.2,253,133.6z"/>
				</g>
			</mask>
			<linearGradient id="SVGID_9_" gradientUnits="userSpaceOnUse" x1="257.7959" y1="132.769" x2="251.5754" y2="136.2066">
				<stop  offset="0" style="stop-color:#4A3E32"/>
				<stop  offset="0.307" style="stop-color:#3F352A"/>
				<stop  offset="0.8512" style="stop-color:#201C15"/>
				<stop  offset="1" style="stop-color:#17140F"/>
			</linearGradient>
			<path class="st23" d="M253,133.6c0,0,1,3.3,4.5,1.5c0.5-0.3-1.2,2.4-3.9,0.9C250.9,134.5,252.2,132.2,253,133.6z"/>
		</g>
		<g>
			<g>
				<g>
					<path class="st8" d="M197.3,122.9c-2.5-4.3-4.8-4.1-8.5-3c-3.7,1.1-13.1,7.6-18.4,13.1c-5.3,5.6-11.5,6.5-11.5,6.5
						c2.8,2.4,4.5,3.6,5.3,3.8c-1.3,2.8-2.2,4-0.1,4.9c2.1,0.9,4.2-3,4.2-3s4.2,3.6,11.8,5.7c0,0-1.2,3.9,1.5,4.7
						c2.7,0.8,3.4-3.7,3.4-3.7s9.1-0.3,13.1-1.4c-0.1,2.3,1.8,3.4,3.1,3.2c1.3-0.2,1.3-4.3,1.3-4.3s5.5-2.1,8.9-5.7
						C205.7,139.8,199.7,127.2,197.3,122.9z"/>
					<path class="st9" d="M182.2,156.1c-0.2,0-0.5,0-0.7-0.1c-0.7-0.2-1.3-0.6-1.7-1.3c-0.7-1.2-0.4-2.8-0.2-3.5
						c-6.3-1.8-10.1-4.5-11.2-5.4c-0.6,0.9-2,2.9-3.6,2.9c-0.3,0-0.5-0.1-0.8-0.2c-0.8-0.3-1.2-0.7-1.4-1.2
						c-0.3-0.9,0.2-1.9,0.9-3.4c0.1-0.2,0.2-0.3,0.2-0.5c-1-0.5-2.8-1.8-5-3.7c-0.1-0.1-0.2-0.3-0.1-0.4c0-0.1,0.2-0.3,0.3-0.3
						c0.1,0,6.1-1,11.2-6.4c5.4-5.7,14.9-12.2,18.6-13.2c1.2-0.4,2.5-0.7,3.6-0.7c2.2,0,3.8,1.2,5.4,3.9c0.4,0.8,1,1.8,1.6,2.9
						c2.9,5.5,7.7,14.6,12.4,17.8c0.1,0.1,0.2,0.2,0.2,0.3c0,0.1,0,0.2-0.1,0.3c-3,3.2-7.6,5.2-8.8,5.7c0,1.1-0.2,4.1-1.6,4.4
						c-0.1,0-0.3,0-0.4,0l0,0c-0.8,0-1.6-0.4-2.2-1c-0.4-0.4-0.8-1.1-0.9-2.1c-3.8,0.9-10.8,1.2-12.4,1.3
						C185.1,153.3,184.3,156.1,182.2,156.1z M168.2,144.9c0.1,0,0.2,0,0.3,0.1c0,0,4.2,3.6,11.7,5.6c0.1,0,0.2,0.1,0.2,0.2
						c0,0.1,0.1,0.2,0,0.3c0,0-0.6,2,0.1,3.3c0.3,0.5,0.6,0.8,1.2,0.9c0.2,0,0.3,0.1,0.5,0.1c1.8,0,2.4-3.4,2.4-3.5
						c0-0.2,0.2-0.3,0.4-0.3c0.1,0,9.1-0.3,13-1.4c0.1,0,0.2,0,0.3,0.1c0.1,0.1,0.2,0.2,0.1,0.3c-0.1,1,0.3,1.7,0.7,2.1
						c0.4,0.5,1,0.7,1.6,0.7l0,0c0.1,0,0.2,0,0.3,0c0.6-0.1,1-2.3,1-3.9c0-0.2,0.1-0.3,0.3-0.4c0.1,0,5.1-2,8.4-5.3
						c-4.7-3.5-9.4-12.4-12.2-17.8c-0.6-1.2-1.1-2.2-1.6-2.9c-1.4-2.4-2.8-3.5-4.7-3.5c-1,0-2.2,0.3-3.4,0.6c-3.6,1-13,7.5-18.2,13
						c-4.3,4.5-9,6-10.9,6.5c3.1,2.6,4.2,3.1,4.5,3.2c0.1,0,0.2,0.1,0.2,0.2c0,0.1,0,0.2,0,0.3c-0.1,0.3-0.3,0.6-0.4,0.9
						c-0.6,1.3-1.1,2.2-0.9,2.8c0.1,0.3,0.4,0.5,1,0.8c0.2,0.1,0.3,0.1,0.5,0.1c1.3,0,2.7-2.1,3.2-2.9
						C168,145,168.1,144.9,168.2,144.9C168.2,144.9,168.2,144.9,168.2,144.9z"/>
				</g>
			</g>
			<g>
				<path class="st8" d="M197.3,122.9c-2.5-4.3-4.8-4.1-8.5-3c-3.7,1.1-13.1,7.6-18.4,13.1c-5.3,5.6-11.5,6.5-11.5,6.5
					c0.4,0.3,0.7,0.6,1,0.9c4.6-1,9-2.1,13.2-4.3c2.3-1.2,4.6-2.4,6.8-3.8c1.7-1.1,3.4-2.5,5.3-3.1c3.3-1,6.4,0.2,8.7,2.7
					c1.4,1.4,2.4,3.2,3.8,4.5c1,1,2.3,1.9,3.3,2.9c5.6,5.6-2.9,8.7-7.7,9.4c-5.6,0.8-11.3,1.7-16.9,1c1.1,0.4,2.3,0.8,3.5,1.2
					c0,0-0.2,0.8-0.3,1.7c0,0,0,0,0,0c0.7-0.7,2-1.2,2.8-0.4c0.7,0.8,0.7,2.1,0.2,3c-0.1,0.2-0.2,0.3-0.4,0.5c2-0.4,2.5-3.8,2.5-3.8
					s9.1-0.3,13.1-1.4c0,0.7,0.1,1.3,0.4,1.7c-0.1-0.4,0-0.9,0.1-1.3c0.1-0.4,0.6-0.6,0.9-0.4c1.1,0.6,1.4,1.7,1.1,2.9
					c0,0.1-0.1,0.2-0.1,0.2c0,0,0,0,0,0c0.3,0,0.5,0,0.7,0c1.3-0.2,1.3-4.3,1.3-4.3s5.5-2.1,8.9-5.7
					C205.7,139.8,199.7,127.2,197.3,122.9z"/>
			</g>
			<g>
				<radialGradient id="SVGID_10_" cx="176.4959" cy="148.4791" r="33.5107" gradientUnits="userSpaceOnUse">
					<stop  offset="1.347260e-02" style="stop-color:#F6E2D7"/>
					<stop  offset="0.4822" style="stop-color:#F9BAA8"/>
					<stop  offset="0.6226" style="stop-color:#F6AFA3"/>
					<stop  offset="0.7015" style="stop-color:#F3A6A0"/>
					<stop  offset="0.8275" style="stop-color:#F09B9B"/>
					<stop  offset="1" style="stop-color:#E98492"/>
				</radialGradient>
				<path class="st24" d="M183.7,154.3c-0.6,1.1-1.6,1.3-2.5,1.2c0.1,0.1,0.3,0.1,0.4,0.2c2.7,0.8,3.4-3.7,3.4-3.7s3.7-0.1,7.4-0.5
					c-2.5,0.1-5.9,0.1-7,0.1C183.9,151.6,184.7,152.3,183.7,154.3z"/>
			</g>
		</g>
		<defs>
			<filter id="Adobe_OpacityMaskFilter_2_" filterUnits="userSpaceOnUse" x="238.3" y="55.5" width="15" height="29.8">
				<feColorMatrix  type="matrix" values="1 0 0 0 0  0 1 0 0 0  0 0 1 0 0  0 0 0 1 0"/>
			</filter>
		</defs>
		<mask maskUnits="userSpaceOnUse" x="238.3" y="55.5" width="15" height="29.8" id="SVGID_11_">
			<g class="st25">
				<defs>
					<filter id="Adobe_OpacityMaskFilter_3_" filterUnits="userSpaceOnUse" x="238.3" y="55.5" width="15" height="29.8">
						<feFlood  style="flood-color:white;flood-opacity:1" result="back"/>
						<feBlend  in="SourceGraphic" in2="back" mode="normal"/>
					</filter>
				</defs>
				<mask maskUnits="userSpaceOnUse" x="238.3" y="55.5" width="15" height="29.8" id="SVGID_11_">
					<g class="st26">
					</g>
				</mask>
				<radialGradient id="SVGID_12_" cx="264.546" cy="75.4908" r="28.7271" gradientUnits="userSpaceOnUse">
					<stop  offset="0" style="stop-color:#FFFFFF"/>
					<stop  offset="8.683082e-02" style="stop-color:#F4F4F4"/>
					<stop  offset="0.2414" style="stop-color:#D5D5D5"/>
					<stop  offset="0.4457" style="stop-color:#A4A4A4"/>
					<stop  offset="0.6922" style="stop-color:#5F5F5F"/>
					<stop  offset="0.9716" style="stop-color:#090909"/>
					<stop  offset="1" style="stop-color:#000000"/>
				</radialGradient>
				<path class="st27" d="M241.8,58.5c0,0,6.7,8.7,9.7,15.6c2.4,6,1.9,9.1,1.5,10.9c-0.4,1.8-2.5-3.3-4-7.6
					c-1.9-5.3-5-11.7-7.4-15.2C239.1,58.7,235.5,51.4,241.8,58.5z"/>
			</g>
		</mask>
		<radialGradient id="SVGID_13_" cx="264.546" cy="75.4908" r="28.7271" gradientUnits="userSpaceOnUse">
			<stop  offset="0" style="stop-color:#FFFFFF"/>
			<stop  offset="0.2667" style="stop-color:#F7F5F4"/>
			<stop  offset="0.7393" style="stop-color:#E3DCD5"/>
			<stop  offset="1" style="stop-color:#D6CCC2"/>
		</radialGradient>
		<path class="st28" d="M241.8,58.5c0,0,6.7,8.7,9.7,15.6c2.4,6,1.9,9.1,1.5,10.9c-0.4,1.8-2.5-3.3-4-7.6c-1.9-5.3-5-11.7-7.4-15.2
			C239.1,58.7,235.5,51.4,241.8,58.5z"/>
	</g>
	<g>
		<path d="M55.4,43.4c0,2.2-0.8,4-1.7,4.1c-0.9,0.1-1.7-1.6-1.7-3.8c0-2.2,0.8-4,1.7-4.1C54.6,39.6,55.4,41.2,55.4,43.4z"/>
		<path class="st3" d="M53.5,41.8c0,0.6-0.2,1.1-0.5,1.1c-0.2,0-0.4-0.4-0.5-1c0-0.6,0.2-1.1,0.5-1.1C53.3,40.8,53.5,41.3,53.5,41.8
			z"/>
	</g>
	<g>
		<path d="M31.5,45.5c0,2.2-0.8,4-1.7,4.1c-0.9,0.1-1.7-1.6-1.7-3.8c0-2.2,0.8-4,1.7-4.1C30.8,41.7,31.5,43.4,31.5,45.5z"/>
		<path class="st3" d="M29.7,44c0,0.6-0.2,1.1-0.5,1.1c-0.3,0-0.4-0.4-0.4-1S29,43,29.2,43C29.5,43,29.7,43.4,29.7,44z"/>
	</g>
	<path class="st29" d="M26.1,57.2C21.2,58.5,14.9,60.5,12,65c-1.4,2.2-2.3,4.6-2.8,7.2c-0.6,3.1,1.2,9.3-2,11.3
		c-0.1,0.1-0.2,0.4,0,0.3c1.1-0.4,1.9-1.2,2.2-2.4c0.7-2.9,0.6-5.9,1.2-8.8c0.7-4,2.4-7.5,5.4-10.2c2.9-2.5,6.5-3.7,10-4.9
		C26.2,57.5,26.4,57.1,26.1,57.2z"/>
	<path class="st29" d="M39.3,91.5c-5.1,1.1-12.9,2.5-17.4-0.9c-0.1-0.1-0.4,0.2-0.3,0.3c2.6,5.4,13.4,3,17.6,1.1
		C39.3,91.9,39.6,91.4,39.3,91.5z"/>
	<path class="st6" d="M108.9,170.6c1-1.2,3.9-3.1,1.9-7.8c-2-4.7-2.5-8.9-0.4-21.6c0.2,0,0.5,0.1,0.7,0.1c-7.7-4.5-18-2.5-25.3-7.9
		c-1.9-1.4-3.3-3.1-4.9-4.7c-2-1.9-4.5-3.4-6.7-5.1c-3.6-2.8-5.5-6.7-6.7-11c-1.4-5.3-2.7-10.6-3.9-15.9c-1-4.5-1.9-9.4,0.3-13.7
		c2.6-5.2,7.2-9,9-14.7c0.8-2.5,1.2-5,1.1-7.5c-2,6.7-7.4,13.4-12.2,17.2c-0.4,0.3-1.3,0-1-0.6c2.5-7.5-1.3-17.8-8.4-21.4
		c-5.8-2.9-12.8-2.9-19.1-1.7c-6.4,1.2-13.8,3.6-19.3,7.9c-0.4,0.6-0.7,1-0.7,1S8,77,7.7,81.7c-0.5,2-2.8,1.3-2.6,3.3
		c0.2,2,5.1,3.5,10.3,2.1c3.7-1.3,4.8-1.3,5.5,0.1c0.6,1.4-2.6,6.6,2.9,7.3c6.3,0.9,17.9-0.1,27.9-8.6c7.7-3.8,13.2,33.7,18.1,40
		c2.7,3.5,5.9,3.5,8.7,6.1c0.1,0.1,0.2,0.2,0.3,0.3c7.7,4.3,16.8,7.1,22.3,14.2c3.2,4.2,3.6,9.6,3.9,14.8c0.1,2.6,0.1,4.8-1.1,7.2
		c-1,2-2.4,3.8-3.6,5.6c1.5-0.6,2.8-1.6,4.2-2.3c0.4-0.2,0.9,0.1,0.9,0.5c0.6,9.4-5.1,19.3-3.3,28.4c1.4,1.8,2.9,2.8,2.9,2.8
		l-0.7-3.1c0,0,0.9,1.3,2,1.7c-1.4-3-1.6-5.2-0.3-14.3C107.2,179,107.9,171.8,108.9,170.6z"/>
	<path class="st6" d="M77.7,42.7c-1.9-1.9-4.2-3-6.7-3.5c0.2,0.2,0.3,0.3,0.5,0.5c1.9,1.2,3.7,2.5,5.1,4.5c1.2,1.8,2.3,4.5,4.4,5.5
		c2.3,1.1,4.3-0.1,6.3-1.3c3.6-2.2,7.1-5.1,11-6.9c2.2-1,4.5-1.7,6.8-2.6c1.3-0.7,2.5-1.4,3.7-2.2c-1,0.4-2.1,0.9-3.3,1.4
		c-5.6,2.2-7.5,2.8-13.5,1.1c-0.4-0.1-0.8-0.2-1.1-0.3c-5-1.3-5.9-1-8.2-5.3c-2.4-4.6-6.5-7.6-6.5-7.6s7.9-3,10-11.2
		c0.1-0.3,0.1-0.6,0.2-0.8c-0.4,1-1,2-1.7,3c-3.8,4.7-9.3,7.2-15.1,8.4c4.6,5,8.4,9.8,9.4,16.8C78.8,42.9,78,43.1,77.7,42.7z"/>
	<path class="st6" d="M245.5,148.8c-5.6-4.7-9.2-5.8-8-18.9c1.3-13.1,3.2-22.8,5.4-32.7c2.1-9.9,1.9-16.3,1.9-16.3s6.7,7.3,2.8,18.9
		c-4.5,11.8-8.2,17-6.5,22.8c0,0.1-0.1,0.1-0.1,0.2c0.7-0.5,1.4-0.8,2.2-0.5c-1.4-1.3-1.7-3.5,0.1-7.4c3.6-7.4,12.2-24.8,10.1-36.2
		c-2.2-11.4-18.2-32.3-38.9-43.1c-10.8-5.6-18.3-6-33.6-1.9c-15.3,4.1-31.2,6-35.7,5.4c-3.8-0.5-11.8-3.7-19.4-4.6
		c2.8,0.9,5.5,2.1,8.1,3.5c3.9,2.1,8,4.5,12.7,4.6c4.1,0,8.2-0.8,12.2-1.6c8.5-1.7,17-3.7,25.5-5.4c3.8-0.7,7.5-1.6,11.3-1.3
		c2.8,0.3,5.7,1.7,8,3.1c5.9,3.5,11.4,8.1,16.5,12.7c4.4,4,8.2,8.6,10.3,14.2c2.6,6.8,3.3,14.1,2.6,21.3c-0.9,8.2-2.1,16.3-2.8,24.5
		c-0.6,7.1-1.1,15.1-4,21.7c-1.9,4.5-6.3,6.8-11,5.1c-5.7-2-9.4-7-11.4-12.5c-1.4-3.8-2.5-7.8-3.1-11.9c-0.2-1.5-0.4-2.9-0.5-4.4
		c-0.1-2.6-2.7-1.5-4.2-0.8c-7.1,3.5-13.7,8.2-20.3,12.3c-6.8,4.2-14.1,11-21.7,13.5c-7.6,2.5-15.2,0.8-23.1,1.3
		c-3.9,0.2-8.1,0.6-11.9-0.1c-0.1,0-0.1,0-0.2,0c0.9,0.7,1.8,1.4,2.8,2.1c2.8,1.9,5.4,3.1,8.5,4.3c1.4,0.6,3.4,1.2,4,2.7
		c0.6,1.6,0.5,3.4,0.2,5.1c-0.4,2.6-1.3,4.9-2.1,7.4c-0.9,2.8,2.6,4.8,3.5,7.1c1.6,4.2,1.6,8.4-2,11.4c0.1,1,0.4,1.3,0.8,0.9
		c0.5-0.5,1.1,0,1,0.6c-1.1,7.8-0.5,16.4-4.1,23.6c-1.5,3-3.6,6.2-6.6,7.7c1.7,0,3.7-0.3,5.3-1.4c-0.4,1.6-0.4,1.6-0.4,1.6
		s3.5-0.4,4.1-1.6c1.7,2.5,3.1,2.8,3.1,2.8v-2.6c0,0,1.8,0.8,2.6,0.9c-1.4-2.6-1.7-3.9-1.1-6.6c0.6-2.7,0.9-16.3,0.7-25.6
		c0.2-2.1,3.8-3.8,1.4-9.2c-2.3-5.5-3.2-7.9-1.6-15.4c1.7-7.5,2.5-9.6,2.5-9.6s10.7,0.4,17.6-1.1c0.2,0.2,0.4,0.3,0.6,0.5
		c6.4-1.6,11.9-5.3,17.3-9.2c3.7-2.7,9.3-8.3,14.4-6.9c4.1,1.2,6.5,5.3,8.5,8.8c1.3,2.2,2.5,4.5,4.1,6.4c1.8,2.2,4.2,3.8,6.6,5.5
		c0.3-0.3,0.6-0.6,0.9-0.9c5.4,3.2,11.9,5,15.6,5.9c1.9,0.4,3.4,1.1,4.5,1.9c1.9,0,3.7,0.6,5.1,1.7c-0.3-1.2-0.8-2.3-1.8-3.2
		c-0.4-0.4-0.1-1.1,0.4-1.1c3.6,0.2,6.4,2.3,7.8,5.5c1.6,3.6-0.4,7.3-2,10.5c-2.3,4.7-3.4,10.1-5.1,15.1c-1.7,5.1-3.1,10.3-1.8,15.7
		c0.1,0.5-0.4,1-0.9,0.7c-1.2-0.7-2.1-1.8-2.9-2.9c0.2,2.2-0.2,4.2-2.1,5.8c-0.7,0.5-1.5,1.1-2.4,1.6c1.5-0.2,3.1-0.6,4.7-1.5
		c-1,2.1-0.9,2.4,0.3,2.3c1.1-0.1,3.7-2.4,3.7-2.4s3.4,3.3,4.2,3.4c0.7,0.1-0.1-2.2-0.1-2.2s2.6,0.9,3.2,0.6c0.6-0.3-3.7-5-2.4-13.5
		c1.3-8.5,3.3-20.8,6.9-26.4S251.1,153.6,245.5,148.8z"/>
	<g>
		<g>
			<g>
				<g>
					<path class="st8" d="M57.5,63.7C50.1,49.9,27.9,56,27.9,56S11.3,59.7,9.4,68.6C7.1,72.7,8,77,7.7,81.7c-0.5,2-2.8,1.3-2.6,3.3
						c0.2,2,5.1,3.5,10.3,2.1c3.7-1.3,4.8-1.3,5.5,0.1c0.6,1.4-2.6,6.6,2.9,7.3c6.3,0.9,18.7,0.8,28.8-7.7
						C61.3,80,60.1,68.5,57.5,63.7z"/>
					<path class="st9" d="M29.2,95.4L29.2,95.4c-1.9,0-3.7-0.1-5.4-0.4c-1.4-0.2-2.4-0.7-3-1.5c-0.9-1.3-0.6-3-0.3-4.3
						c0.1-0.7,0.3-1.4,0.1-1.7c-0.3-0.6-0.6-0.8-1.3-0.8c-0.7,0-1.8,0.3-3.7,0.9c-1.4,0.4-2.8,0.6-4.2,0.6c-3.6,0-6.4-1.3-6.6-3
						C4.6,83.8,5.4,83.3,6,83c0.5-0.3,1.1-0.6,1.3-1.4c0.1-1.2,0.1-2.5,0.1-3.7c0-3.3,0-6.4,1.6-9.4c2-9.1,18.1-12.8,18.8-12.9
						c0,0,4.9-1.3,10.8-1.3c6.5,0,15.1,1.6,19.2,9.3c2.3,4.3,4.3,16.3-5.1,23.7C44.9,94,35.6,95.4,29.2,95.4z M19.2,85.9
						c1,0,1.6,0.4,2,1.3c0.2,0.5,0.1,1.2-0.1,2.2c-0.2,1.2-0.5,2.7,0.2,3.7c0.5,0.6,1.3,1,2.5,1.2c1.7,0.2,3.5,0.3,5.3,0.3
						c6.3,0,15.4-1.4,23.2-8c8.5-6.7,7.3-18.1,4.9-22.7C53.3,56.6,44.9,55,38.6,55c-5.8,0-10.6,1.3-10.6,1.3
						c-0.2,0-16.4,3.8-18.2,12.4c0,0,0,0.1,0,0.1c-1.6,2.9-1.6,5.9-1.6,9.1c0,1.2,0,2.5-0.1,3.8C7.8,83,7,83.4,6.4,83.7
						c-0.6,0.3-1,0.5-0.9,1.3c0.1,1.1,2.4,2.3,5.8,2.3c1.3,0,2.7-0.2,4-0.5C17.3,86.2,18.4,85.9,19.2,85.9z"/>
				</g>
			</g>
			<g class="st30">
				<path class="st8" d="M57.5,63.7C50.1,49.9,27.9,56,27.9,56s-3.3,0.7-7.2,2.4c4.9-1.9,10.3-2.6,15.5-2.2c6,0.4,2.2,27.1-7.4,26.6
					c-3.9-0.2-7.7-0.6-11.5,0.5c-2.8,0.8-5.5,2.2-8.4,2.6c-1.6,0.2-3-0.2-3.8-1.1c0,0.1,0,0.3,0,0.4c0.2,2,5.1,3.5,10.3,2.1
					c3.7-1.3,4.8-1.3,5.5,0.1c0.1,0.2,0.1,0.5,0.1,0.8c0.1,0.1,0.3,0.2,0.4,0.3c1.2,0.9,2.1,1.8,3.7,2.1c1.8,0.3,3.6,0.3,5.4,0.1
					c4.2-0.5,8.6-1.8,12.1-4.2c2.7-1.9,5-4.4,7.7-6.4c0.4-0.3,0.8,0,0.9,0.4c1.3,3.3-1.8,7.4-4,9.7c-0.4,0.4-0.8,0.8-1.2,1.1
					c2.2-1.1,4.4-2.5,6.5-4.3C61.3,80,60.1,68.5,57.5,63.7z"/>
			</g>
			<g class="st30">
				<path class="st8" d="M35.8,82.1c-5.8,1.8-12.5,0-17.3,4.2c1.3-0.2,2,0.1,2.4,1c0,0,0,0.1,0,0.1c1.8,0.1,3.2,1.5,5.1,1.9
					c3.4,0.7,7.5,0.5,10.7-1.1c6.1-3,12.5-9.5,10.3-16.6C44.6,76.3,40.8,80.5,35.8,82.1z"/>
				<path class="st8" d="M57.5,63.7c-3.5-6.5-10.2-8.6-16.4-9c1.2,0.4,2.3,0.9,3.4,1.4c4.6,2.4,8.1,8.3,9.3,13.2
					c1.4,5.4,0.8,11.2-1.7,16.2c-0.5,1-1,2-1.7,2.9c0.7-0.5,1.4-1,2.1-1.6C61.3,80,60.1,68.5,57.5,63.7z"/>
			</g>
			<g>
				<path class="st31" d="M18.9,86.2c0,0,2.4-2,10.8-1.9c9.1-0.3,12.2-0.2,17-9.2c0,0-0.8,4-4.3,8c-2.9,3.3-6,4.4-9.2,5.6
					c-3.2,1.2-5,1.8-7.4,0.3C23.6,87.4,21.2,85.6,18.9,86.2z"/>
				<path class="st32" d="M28.8,90.3c-1.1,0-2-0.3-3.1-1l-0.5-0.4c-1.8-1.2-3.7-2.4-5.4-2.4c-0.3,0-0.6,0-0.8,0.1
					c-0.2,0-0.4,0-0.4-0.2c-0.1-0.2,0-0.4,0.1-0.5c0.1-0.1,2.6-2.1,11.1-2l0.8,0c8.5-0.3,11.4-0.4,15.9-9c0.1-0.2,0.3-0.2,0.5-0.2
					c0.2,0.1,0.3,0.3,0.3,0.4c0,0.2-0.9,4.2-4.3,8.2c-2.8,3.2-5.7,4.3-8.8,5.5L33.5,89C31.5,89.8,30.2,90.3,28.8,90.3z M20.7,85.8
					c1.6,0.3,3.3,1.4,4.9,2.5l0.5,0.3c2.1,1.4,3.7,1,7-0.3l0.6-0.2c3-1.1,5.8-2.2,8.5-5.3c1.1-1.2,1.9-2.5,2.5-3.6
					c-3.7,5.1-7.1,5.2-14.2,5.5l-0.8,0c-0.2,0-0.5,0-0.7,0C24.8,84.7,22.2,85.3,20.7,85.8z"/>
			</g>
			<g>
				<radialGradient id="SVGID_14_" cx="27.3691" cy="87.1096" r="10.9142" gradientUnits="userSpaceOnUse">
					<stop  offset="0" style="stop-color:#FFFFFF"/>
					<stop  offset="0.3826" style="stop-color:#FAF7F4"/>
					<stop  offset="0.7779" style="stop-color:#F2EBE3"/>
					<stop  offset="0.8739" style="stop-color:#E8E0D8"/>
					<stop  offset="1" style="stop-color:#D6CCC2"/>
				</radialGradient>
				<path class="st33" d="M30.7,87.3c3.9-0.8,6.3-2.2,7.3-3.6c-2.2,0.5-4.8,0.6-8.2,0.7c-1.4,0-2.7,0-3.8,0.1
					C26.2,85.6,27.2,88,30.7,87.3z"/>
			</g>
			<radialGradient id="SVGID_15_" cx="12.9666" cy="74.3047" r="4.2583" gradientUnits="userSpaceOnUse">
				<stop  offset="0" style="stop-color:#FCEFD7"/>
				<stop  offset="0.4009" style="stop-color:#FCDFD7"/>
				<stop  offset="0.5586" style="stop-color:#F7D4CD"/>
				<stop  offset="0.8382" style="stop-color:#EBB5B3"/>
				<stop  offset="1" style="stop-color:#E3A1A2"/>
			</radialGradient>
			<path class="st34" d="M12.8,70.3c0,0,2.9,0.8,2.4,2.7c-0.5,1.9-0.2,3.6,1,3.2c1.1-0.4,1.7-2.3,0.1-4.2
				C14.6,70,14.1,69.6,12.8,70.3z"/>
			<radialGradient id="SVGID_16_" cx="30.4325" cy="70.963" r="5.3431" gradientUnits="userSpaceOnUse">
				<stop  offset="0" style="stop-color:#FCEFD7"/>
				<stop  offset="0.4009" style="stop-color:#FCDFD7"/>
				<stop  offset="0.5586" style="stop-color:#F7D4CD"/>
				<stop  offset="0.8382" style="stop-color:#EBB5B3"/>
				<stop  offset="1" style="stop-color:#E3A1A2"/>
			</radialGradient>
			<path class="st35" d="M31.1,66.5c0,0,2.1,0.3,2.1,2.3c0,2-0.1,4.1,0.9,4c1.1-0.1,2.1-2.2,0.8-4.6C33.6,65.9,31.7,66.4,31.1,66.5z
				"/>
			<g>
				<linearGradient id="SVGID_17_" gradientUnits="userSpaceOnUse" x1="13.7226" y1="73.0061" x2="17.2248" y2="73.0061">
					<stop  offset="0" style="stop-color:#D9897E"/>
					<stop  offset="0.1868" style="stop-color:#CE8075"/>
					<stop  offset="0.5191" style="stop-color:#AF685D"/>
					<stop  offset="0.9554" style="stop-color:#7E4136"/>
					<stop  offset="1" style="stop-color:#793D32"/>
				</linearGradient>
				<path class="st36" d="M15.5,71.6c0.9,1.4-0.3,3.5,1,4.5c0.9-0.6,1.2-2.3-0.2-4.1c-1.2-1.5-1.8-2-2.5-1.9
					C14.2,70.2,14.9,70.7,15.5,71.6z"/>
			</g>
			<g class="st10">
				<linearGradient id="SVGID_18_" gradientUnits="userSpaceOnUse" x1="31.4414" y1="69.4289" x2="35.5792" y2="69.4289">
					<stop  offset="0" style="stop-color:#D9897E"/>
					<stop  offset="0.1868" style="stop-color:#CE8075"/>
					<stop  offset="0.5191" style="stop-color:#AF685D"/>
					<stop  offset="0.9554" style="stop-color:#7E4136"/>
					<stop  offset="1" style="stop-color:#793D32"/>
				</linearGradient>
				<path class="st37" d="M35,68.2c-1.1-2-2.7-1.9-3.5-1.8c0.2,0.1,0.5,0.3,0.9,0.4c1.7,0.4,2.4,1.4,2,2.9c-0.2,1-0.2,2.3,0.4,2.7
					C35.5,71.8,36,70.1,35,68.2z"/>
			</g>
		</g>
		<defs>
			<filter id="Adobe_OpacityMaskFilter_4_" filterUnits="userSpaceOnUse" x="31.1" y="66.5" width="3.5" height="6.7">
				<feFlood  style="flood-color:white;flood-opacity:1" result="back"/>
				<feBlend  in="SourceGraphic" in2="back" mode="normal"/>
			</filter>
		</defs>
		<mask maskUnits="userSpaceOnUse" x="31.1" y="66.5" width="3.5" height="6.7" id="SVGID_19_">
			<g class="st38">
				<defs>
					<filter id="Adobe_OpacityMaskFilter_5_" filterUnits="userSpaceOnUse" x="31.1" y="66.5" width="3.5" height="6.7">
						<feFlood  style="flood-color:white;flood-opacity:1" result="back"/>
						<feBlend  in="SourceGraphic" in2="back" mode="normal"/>
					</filter>
				</defs>
				<mask maskUnits="userSpaceOnUse" x="31.1" y="66.5" width="3.5" height="6.7" id="SVGID_19_">
					<g class="st39">
					</g>
				</mask>
				<radialGradient id="SVGID_20_" cx="30.1624" cy="66.998" r="8.6928" gradientUnits="userSpaceOnUse">
					<stop  offset="0" style="stop-color:#FFFFFF"/>
					<stop  offset="1" style="stop-color:#000000"/>
				</radialGradient>
				<path class="st40" d="M31.1,66.5c0,0,1.9,0.5,1.4,2.9c-0.5,2.4,0.1,4.8,2,3.5c-1.4,0-1.4-1.4-1.3-2.6
					C33.3,69.2,33.7,66.7,31.1,66.5z"/>
			</g>
		</mask>
		<radialGradient id="SVGID_21_" cx="30.1624" cy="66.998" r="8.6928" gradientUnits="userSpaceOnUse">
			<stop  offset="0" style="stop-color:#F6E2D7"/>
			<stop  offset="1" style="stop-color:#E98492"/>
		</radialGradient>
		<path class="st41" d="M31.1,66.5c0,0,1.9,0.5,1.4,2.9c-0.5,2.4,0.1,4.8,2,3.5c-1.4,0-1.4-1.4-1.3-2.6
			C33.3,69.2,33.7,66.7,31.1,66.5z"/>
		<defs>
			<filter id="Adobe_OpacityMaskFilter_6_" filterUnits="userSpaceOnUse" x="12.8" y="70.3" width="2.8" height="5.9">
				<feFlood  style="flood-color:white;flood-opacity:1" result="back"/>
				<feBlend  in="SourceGraphic" in2="back" mode="normal"/>
			</filter>
		</defs>
		<mask maskUnits="userSpaceOnUse" x="12.8" y="70.3" width="2.8" height="5.9" id="SVGID_22_">
			<g class="st42">
				<defs>
					<filter id="Adobe_OpacityMaskFilter_7_" filterUnits="userSpaceOnUse" x="12.8" y="70.3" width="2.8" height="5.9">
						<feFlood  style="flood-color:white;flood-opacity:1" result="back"/>
						<feBlend  in="SourceGraphic" in2="back" mode="normal"/>
					</filter>
				</defs>
				<mask maskUnits="userSpaceOnUse" x="12.8" y="70.3" width="2.8" height="5.9" id="SVGID_22_">
					<g class="st43">
					</g>
				</mask>
				<radialGradient id="SVGID_23_" cx="10.9396" cy="71.1066" r="11.3108" gradientUnits="userSpaceOnUse">
					<stop  offset="0" style="stop-color:#FFFFFF"/>
					<stop  offset="1" style="stop-color:#000000"/>
				</radialGradient>
				<path class="st44" d="M12.8,70.3c0,0,2.1,1.1,1.7,2.4c-0.4,1.4-0.6,3.3,1.1,3.4c-1-1-0.7-2.1-0.4-3.2
					C15.5,71.9,14.7,70.7,12.8,70.3z"/>
			</g>
		</mask>
		<radialGradient id="SVGID_24_" cx="10.9396" cy="71.1066" r="11.3108" gradientUnits="userSpaceOnUse">
			<stop  offset="0" style="stop-color:#F6E2D7"/>
			<stop  offset="1" style="stop-color:#E98492"/>
		</radialGradient>
		<path class="st45" d="M12.8,70.3c0,0,2.1,1.1,1.7,2.4c-0.4,1.4-0.6,3.3,1.1,3.4c-1-1-0.7-2.1-0.4-3.2
			C15.5,71.9,14.7,70.7,12.8,70.3z"/>
	</g>
	<path class="st7" d="M62.8,49.1c-6.5-2.8-12.8-2.9-19.7-2.3c-1.6,0.1-18.9,2.1-18.4,4.3c-0.1-0.4-0.5,0.1-0.6,0.3c0,0,0,0.1,0,0.1
		c0,0.2,0.1,0.3,0.3,0.2c5.8-1.5,12-2.1,18-2.8c6.8-0.8,13.4-0.1,20.2,0.6C62.7,49.6,63,49.2,62.8,49.1z"/>
	<path class="st46" d="M9,78.9c0.2-2,0.4-4.1,0.9-6.1c0.9-3.5,2.5-6.9,5-9.5c1.6-1.7,3.4-2.9,5.3-4c-3.1,1.4-6,3.4-8,5.8
		C8.7,69.2,8.3,75,8.8,80.1C8.9,79.7,8.9,79.3,9,78.9z"/>
	<path class="st46" d="M32.4,81.2c-2.7,0.8-5.7,0.2-8.4,0C21.2,81,19,82,16.4,82.9c-0.1,0.1-0.3,0.2-0.4,0.4c0,0,0,0,0,0
		c3-0.7,5.6-0.9,8.6-0.9c2.7,0,5.3,0.3,7.8-0.9C32.5,81.4,32.6,81.1,32.4,81.2z"/>
	<path class="st46" d="M190.5,146.8c-3.8,0.4-7.8,0.2-11.6-0.3c-4-0.5-8.3-3-11.9-4.9c-0.1-0.1-0.3,0.2-0.2,0.3
		c5.7,7,15.5,7.6,23.6,5.3C190.6,147.2,190.8,146.7,190.5,146.8z"/>
</g>
</svg>
